<svg xmlns="http://www.w3.org/2000/svg" xmlns:xlink="http://www.w3.org/1999/xlink" width="122" height="122" viewBox="0 0 122 122">
  <defs>
    <clipPath id="clip-path">
      <rect id="Rectangle_400938" data-name="Rectangle 400938" width="122" height="122" fill="#2bc897"/>
    </clipPath>
    <clipPath id="clip-path-2">
      <path id="Path_873460" data-name="Path 873460" d="M0,1.307A1.349,1.349,0,0,0,1.389,2.613,1.349,1.349,0,0,0,2.778,1.307,1.349,1.349,0,0,0,1.389,0,1.349,1.349,0,0,0,0,1.307" transform="translate(0)" fill="#005865"/>
    </clipPath>
    <clipPath id="clip-path-3">
      <path id="Path_873466" data-name="Path 873466" d="M0,1.307A1.349,1.349,0,0,0,1.39,2.613,1.349,1.349,0,0,0,2.778,1.307,1.349,1.349,0,0,0,1.39,0,1.349,1.349,0,0,0,0,1.307" fill="#005865"/>
    </clipPath>
    <clipPath id="clip-path-4">
      <path id="Path_873467" data-name="Path 873467" d="M0,1.306A1.349,1.349,0,0,0,1.389,2.612,1.349,1.349,0,0,0,2.778,1.306,1.349,1.349,0,0,0,1.389,0,1.349,1.349,0,0,0,0,1.306" transform="translate(0 0)" fill="#005865"/>
    </clipPath>
    <clipPath id="clip-path-5">
      <path id="Path_873468" data-name="Path 873468" d="M0,1.306A1.349,1.349,0,0,0,1.39,2.612,1.349,1.349,0,0,0,2.778,1.306,1.349,1.349,0,0,0,1.39,0,1.349,1.349,0,0,0,0,1.306" transform="translate(0 0)" fill="#005865"/>
    </clipPath>
    <clipPath id="clip-path-6">
      <path id="Path_873469" data-name="Path 873469" d="M0,1.306A1.349,1.349,0,0,0,1.389,2.612,1.349,1.349,0,0,0,2.777,1.306,1.349,1.349,0,0,0,1.389,0,1.349,1.349,0,0,0,0,1.306" transform="translate(0 0)" fill="#005865"/>
    </clipPath>
    <clipPath id="clip-path-9">
      <path id="Path_873473" data-name="Path 873473" d="M0,1.306A1.349,1.349,0,0,0,1.39,2.612,1.348,1.348,0,0,0,2.778,1.306,1.349,1.349,0,0,0,1.39,0,1.349,1.349,0,0,0,0,1.306" transform="translate(0 0)" fill="#005865"/>
    </clipPath>
    <clipPath id="clip-path-22">
      <rect id="Rectangle_401492" data-name="Rectangle 401492" width="54.022" height="54.022" transform="translate(-0.254 -0.301)" fill="#fff" stroke="#707070" stroke-width="1"/>
    </clipPath>
    <clipPath id="clip-path-23">
      <rect id="Rectangle_404739" data-name="Rectangle 404739" width="45.5" height="45.334" transform="translate(0 0)" fill="#fff"/>
    </clipPath>
  </defs>
  <g id="Group_1108951" data-name="Group 1108951" transform="translate(23057.926 3814.948)">
    <g id="Group_1100237" data-name="Group 1100237" transform="translate(-23054.037 -3797.84)">
      <g id="Group_1099505" data-name="Group 1099505" transform="translate(1.808 8.418)">
        <g id="Group_1099504" data-name="Group 1099504" transform="translate(0)" clip-path="url(#clip-path-2)">
          <rect id="Rectangle_401140" data-name="Rectangle 401140" width="2.777" height="2.613" transform="translate(0)" fill="#005865"/>
        </g>
      </g>
      <g id="Group_1099517" data-name="Group 1099517" transform="translate(37.056 8.418)">
        <g id="Group_1099516" data-name="Group 1099516" transform="translate(0)" clip-path="url(#clip-path-3)">
          <rect id="Rectangle_401146" data-name="Rectangle 401146" width="2.778" height="2.613" transform="translate(0 0)" fill="#005865"/>
        </g>
      </g>
      <g id="Group_1099519" data-name="Group 1099519" transform="translate(30.194 8.418)">
        <g id="Group_1099518" data-name="Group 1099518" transform="translate(0 0)" clip-path="url(#clip-path-4)">
          <rect id="Rectangle_401147" data-name="Rectangle 401147" width="2.778" height="2.612" transform="translate(0 0)" fill="#005865"/>
        </g>
      </g>
      <g id="Group_1099521" data-name="Group 1099521" transform="translate(23.332 8.418)">
        <g id="Group_1099520" data-name="Group 1099520" transform="translate(0 0)" clip-path="url(#clip-path-5)">
          <rect id="Rectangle_401148" data-name="Rectangle 401148" width="2.778" height="2.612" transform="translate(0 0)" fill="#005865"/>
        </g>
      </g>
      <g id="Group_1099523" data-name="Group 1099523" transform="translate(16.47 8.418)">
        <g id="Group_1099522" data-name="Group 1099522" transform="translate(0 0)" clip-path="url(#clip-path-6)">
          <rect id="Rectangle_401149" data-name="Rectangle 401149" width="2.777" height="2.612" transform="translate(0 0)" fill="#005865"/>
        </g>
      </g>
      <g id="Group_1099525" data-name="Group 1099525" transform="translate(34.311 0)">
        <g id="Group_1099524" data-name="Group 1099524" clip-path="url(#clip-path-4)">
          <rect id="Rectangle_401150" data-name="Rectangle 401150" width="2.778" height="2.612" transform="translate(0 0)" fill="#005865"/>
        </g>
      </g>
      <g id="Group_1099529" data-name="Group 1099529" transform="translate(27.448 0)">
        <g id="Group_1099528" data-name="Group 1099528" transform="translate(0)" clip-path="url(#clip-path-5)">
          <rect id="Rectangle_401152" data-name="Rectangle 401152" width="2.778" height="2.612" transform="translate(0 0)" fill="#005865"/>
        </g>
      </g>
      <g id="Group_1099531" data-name="Group 1099531" transform="translate(13.724 0)">
        <g id="Group_1099530" data-name="Group 1099530" transform="translate(0)" clip-path="url(#clip-path-9)">
          <rect id="Rectangle_401153" data-name="Rectangle 401153" width="2.777" height="2.612" transform="translate(0 0)" fill="#005865"/>
        </g>
      </g>
      <g id="Group_1099533" data-name="Group 1099533" transform="translate(6.862 0)">
        <g id="Group_1099532" data-name="Group 1099532" clip-path="url(#clip-path-4)">
          <rect id="Rectangle_401154" data-name="Rectangle 401154" width="2.778" height="2.612" transform="translate(0 0)" fill="#005865"/>
        </g>
      </g>
      <g id="Group_1099535" data-name="Group 1099535" transform="translate(0 0)">
        <g id="Group_1099534" data-name="Group 1099534" transform="translate(0)" clip-path="url(#clip-path-5)">
          <rect id="Rectangle_401155" data-name="Rectangle 401155" width="2.778" height="2.612" transform="translate(0 0)" fill="#005865"/>
        </g>
      </g>
    </g>
    <g id="Group_1100238" data-name="Group 1100238" transform="translate(-22980.445 -3724.661)">
      <g id="Group_1099505-2" data-name="Group 1099505" transform="translate(1.808 8.418)">
        <g id="Group_1099504-2" data-name="Group 1099504" transform="translate(0)" clip-path="url(#clip-path-2)">
          <rect id="Rectangle_401140-2" data-name="Rectangle 401140" width="2.777" height="2.613" transform="translate(0)" fill="#005865"/>
        </g>
      </g>
      <g id="Group_1099517-2" data-name="Group 1099517" transform="translate(37.056 8.418)">
        <g id="Group_1099516-2" data-name="Group 1099516" transform="translate(0)" clip-path="url(#clip-path-3)">
          <rect id="Rectangle_401146-2" data-name="Rectangle 401146" width="2.778" height="2.613" transform="translate(0 0)" fill="#005865"/>
        </g>
      </g>
      <g id="Group_1099519-2" data-name="Group 1099519" transform="translate(30.194 8.418)">
        <g id="Group_1099518-2" data-name="Group 1099518" transform="translate(0 0)" clip-path="url(#clip-path-4)">
          <rect id="Rectangle_401147-2" data-name="Rectangle 401147" width="2.778" height="2.612" transform="translate(0 0)" fill="#005865"/>
        </g>
      </g>
      <g id="Group_1099521-2" data-name="Group 1099521" transform="translate(23.332 8.418)">
        <g id="Group_1099520-2" data-name="Group 1099520" transform="translate(0 0)" clip-path="url(#clip-path-5)">
          <rect id="Rectangle_401148-2" data-name="Rectangle 401148" width="2.778" height="2.612" transform="translate(0 0)" fill="#005865"/>
        </g>
      </g>
      <g id="Group_1099523-2" data-name="Group 1099523" transform="translate(16.47 8.418)">
        <g id="Group_1099522-2" data-name="Group 1099522" transform="translate(0 0)" clip-path="url(#clip-path-6)">
          <rect id="Rectangle_401149-2" data-name="Rectangle 401149" width="2.777" height="2.612" transform="translate(0 0)" fill="#005865"/>
        </g>
      </g>
      <g id="Group_1099525-2" data-name="Group 1099525" transform="translate(34.311 0)">
        <g id="Group_1099524-2" data-name="Group 1099524" clip-path="url(#clip-path-4)">
          <rect id="Rectangle_401150-2" data-name="Rectangle 401150" width="2.778" height="2.612" transform="translate(0 0)" fill="#005865"/>
        </g>
      </g>
      <g id="Group_1099529-2" data-name="Group 1099529" transform="translate(27.448 0)">
        <g id="Group_1099528-2" data-name="Group 1099528" transform="translate(0)" clip-path="url(#clip-path-5)">
          <rect id="Rectangle_401152-2" data-name="Rectangle 401152" width="2.778" height="2.612" transform="translate(0 0)" fill="#005865"/>
        </g>
      </g>
      <g id="Group_1099531-2" data-name="Group 1099531" transform="translate(13.724 0)">
        <g id="Group_1099530-2" data-name="Group 1099530" transform="translate(0)" clip-path="url(#clip-path-9)">
          <rect id="Rectangle_401153-2" data-name="Rectangle 401153" width="2.777" height="2.612" transform="translate(0 0)" fill="#005865"/>
        </g>
      </g>
      <g id="Group_1099533-2" data-name="Group 1099533" transform="translate(6.862 0)">
        <g id="Group_1099532-2" data-name="Group 1099532" clip-path="url(#clip-path-4)">
          <rect id="Rectangle_401154-2" data-name="Rectangle 401154" width="2.778" height="2.612" transform="translate(0 0)" fill="#005865"/>
        </g>
      </g>
      <g id="Group_1099535-2" data-name="Group 1099535" transform="translate(0 0)">
        <g id="Group_1099534-2" data-name="Group 1099534" transform="translate(0)" clip-path="url(#clip-path-5)">
          <rect id="Rectangle_401155-2" data-name="Rectangle 401155" width="2.778" height="2.612" transform="translate(0 0)" fill="#005865"/>
        </g>
      </g>
    </g>
    <path id="Union_17" data-name="Union 17" d="M-4150.107,4311.383l-33.056-32.927a18.528,18.528,0,0,1,0-26.2l33.054-32.926a18.7,18.7,0,0,1,26.3,0l33.056,32.928a18.528,18.528,0,0,1,0,26.2l-33.056,32.927a18.576,18.576,0,0,1-13.15,5.4A18.575,18.575,0,0,1-4150.107,4311.383Z" transform="translate(-18858.305 -8017.512)" fill="#41cee2" stroke="rgba(0,0,0,0)" stroke-miterlimit="10" stroke-width="1"/>
    <circle id="Ellipse_11579" data-name="Ellipse 11579" cx="39.5" cy="39.5" r="39.5" transform="translate(-23034.504 -3791.418)" fill="#005865"/>
    <g id="Mask_Group_1098697" data-name="Mask Group 1098697" transform="translate(-23022.008 -3778.646)" clip-path="url(#clip-path-22)">
      <g id="Group_1109124" data-name="Group 1109124" transform="translate(4.747 4.697)">
        <g id="Group_1109123" data-name="Group 1109123" transform="translate(0 0.003)" clip-path="url(#clip-path-23)">
          <path id="Path_883438" data-name="Path 883438" d="M6.175,0V1.3H3.168C2.5,1.3,1.3,2.318,1.3,3.009V44.037H18.2a3.143,3.143,0,0,1,.486-2.845c.286-.319.947-.446.989-.806l-.011-10.081c-.074-.384-.91-.76-1.212-1.225a2.451,2.451,0,0,1,1.613-3.733,64.25,64.25,0,0,1,9.109,0,2.411,2.411,0,0,1,1.334,4.275c-.2.17-.609.247-.609.281v3.412l2.925-.162V25.107l.269-.218,1.031-.026v8.124l8.837-.478a2.792,2.792,0,0,1,.468,5.477l-8.939-.419-.367.213v7.556H0V2.684C0,1.827,1.834,0,2.681,0ZM19.7,28.559a1.454,1.454,0,0,0,.845.211c2.8.239,5.939-.189,8.778-.01a1.088,1.088,0,0,0-.169-2.1l-8.923-.006a1.151,1.151,0,0,0-.531,1.9m8.733,1.667H20.961V40.463h7.474Zm1.462,5.85,12.922.653a1.461,1.461,0,0,0,.884-2.516c-.693-.583-3.362-.126-4.3-.089-3.173.126-6.342.26-9.5.488Zm2.926,1.462L29.9,37.375v3.169c0,.058.718.515.9.726a2.763,2.763,0,0,1,.4,2.767h1.624ZM20.265,41.8c-1.3.505-1.148,2.023.3,2.225a56.314,56.314,0,0,0,8.425.005,1.13,1.13,0,0,0,0-2.256Z" transform="translate(0 -0.003)" fill="#fff"/>
          <path id="Path_883439" data-name="Path 883439" d="M201.433,12.677h-5.362V23.564h-1.3V2.684a14.053,14.053,0,0,1,.65-1.381H169.585V0h29.167c.857,0,2.681,1.834,2.681,2.681Zm-1.3-1.462V3.009c0-.865-1.2-1.675-2.031-1.676-.782,0-2.031.9-2.031,1.676v8.206Z" transform="translate(-161.948 -0.003)" fill="#fff"/>
          <path id="Path_883440" data-name="Path 883440" d="M72.147,342.427v-1.3a6.755,6.755,0,0,0,1.785-.084c.45-.189,2.175-2.828,2.36-2.837,1.129,2.24,1.643,4.811,2.666,7.081.087.192-.077.293.339.228l3.578-10.4c.422-.074.251.059.338.231,1.137,2.24,1.841,5.093,2.912,7.406l1.542-1.625H98.957v1.3H88.314c-.654.747-1.346,1.657-2.027,2.36-.184.189-.35.451-.652.4l-2.52-6.336-3.9,10.562-3.168-8.45c-.3-.266-1.271,1.462-1.542,1.462Z" transform="translate(-68.897 -320.003)" fill="#fff"/>
          <path id="Path_883441" data-name="Path 883441" d="M412.567,86.6v3.575h3.575v4.875h-3.575v3.575h-4.875V95.048h-3.575V90.174h3.575V86.6Zm-1.3,1.3c-.722.1-1.712-.254-2.275.244v3.331h-3.331a2.337,2.337,0,0,0,0,2.275h3.331V97.08c.563.5,1.553.143,2.275.244V93.748h3.575V91.474h-3.575Z" transform="translate(-385.919 -82.699)" fill="#fff"/>
          <rect id="Rectangle_404735" data-name="Rectangle 404735" width="11.374" height="1.3" transform="translate(4.225 33.148)" fill="#fff"/>
          <rect id="Rectangle_404736" data-name="Rectangle 404736" width="11.374" height="1.3" transform="translate(4.225 35.91)" fill="#fff"/>
          <rect id="Rectangle_404737" data-name="Rectangle 404737" width="11.374" height="1.3" transform="translate(4.225 38.672)" fill="#fff"/>
          <path id="Path_883442" data-name="Path 883442" d="M102.712,245.36c-.046.49.181,1.116-.244,1.462H93.207a1.084,1.084,0,0,1,0-1.462Z" transform="translate(-88.738 -234.311)" fill="#fff"/>
          <path id="Path_883443" data-name="Path 883443" d="M93.38,185.483c.046-.49-.181-1.116.244-1.462h6.662a1.084,1.084,0,0,1,0,1.462Z" transform="translate(-89.155 -175.734)" fill="#fff"/>
          <path id="Path_883444" data-name="Path 883444" d="M99.176,126.29l-.026,1.031-.218.269H93.814v-1.3Z" transform="translate(-89.589 -120.603)" fill="#fff"/>
          <path id="Path_883445" data-name="Path 883445" d="M534.973,797.4v1.464l-1.149-.072c-.285-.2-.111-1.04-.153-1.392Z" transform="translate(-509.624 -761.487)" fill="#fff"/>
          <rect id="Rectangle_404738" data-name="Rectangle 404738" width="1.302" height="1.302" transform="translate(24.047 33.309)" fill="#fff"/>
        </g>
      </g>
    </g>
  </g>
</svg>
