<svg xmlns="http://www.w3.org/2000/svg" xmlns:xlink="http://www.w3.org/1999/xlink" width="99" height="99" viewBox="0 0 99 99">
  <defs>
    <clipPath id="clip-path">
      <rect id="Rectangle_401223" data-name="Rectangle 401223" width="99" height="99" transform="translate(0)" fill="#f3a744"/>
    </clipPath>
    <clipPath id="clip-path-2">
      <rect id="Rectangle_401223-2" data-name="Rectangle 401223" width="88.539" height="88.539" fill="#f3f9ff"/>
    </clipPath>
    <clipPath id="clip-path-3">
      <rect id="Rectangle_405418" data-name="Rectangle 405418" width="47.139" height="69" fill="none"/>
    </clipPath>
  </defs>
  <g id="Group_1109774" data-name="Group 1109774" transform="translate(-619.922 -5755.871)">
    <g id="Group_1100724" data-name="Group 1100724" transform="translate(619.921 5755.871)">
      <g id="Group_1099654" data-name="Group 1099654" transform="translate(0 0)">
        <g id="Mask_Group_1099652" data-name="Mask Group 1099652" clip-path="url(#clip-path)">
          <path id="Path_873521" data-name="Path 873521" d="M99,77.066A22,22,0,0,1,77.066,99H21.934A22,22,0,0,1,0,77.066V21.933A22,22,0,0,1,21.934,0H77.066A22,22,0,0,1,99,21.934Z" transform="translate(0)" fill="#005865"/>
        </g>
      </g>
      <g id="Group_1099659" data-name="Group 1099659" transform="translate(4.77 5.723)">
        <g id="Group_1099652" data-name="Group 1099652" transform="translate(0 0)" clip-path="url(#clip-path-2)">
          <path id="Path_873521-2" data-name="Path 873521" d="M88.539,68.922A19.674,19.674,0,0,1,68.923,88.539H19.616A19.674,19.674,0,0,1,0,68.922V19.616A19.674,19.674,0,0,1,19.616,0H68.923A19.674,19.674,0,0,1,88.539,19.616Z" fill="#f3f9ff"/>
        </g>
      </g>
    </g>
    <g id="Group_1100725" data-name="Group 1100725" transform="translate(636.343 5771.293)">
      <rect id="Rectangle_401104" data-name="Rectangle 401104" width="68" height="69" transform="translate(-0.422 0.438)" fill="none"/>
      <g id="Group_1110737" data-name="Group 1110737" transform="translate(10.579 0.438)">
        <g id="Group_1110736" data-name="Group 1110736" clip-path="url(#clip-path-3)">
          <path id="Path_884654" data-name="Path 884654" d="M48.477,6.88a2.413,2.413,0,0,1-2.413,2.414H44.856A2.414,2.414,0,0,1,42.443,6.88L41.237,2.414A2.413,2.413,0,0,1,43.649,0h3.62a2.416,2.416,0,0,1,2.415,2.414Z" transform="translate(-21.891)" fill="#2c3e50"/>
          <path id="Path_884655" data-name="Path 884655" d="M47.139,15.453V74.268a1.915,1.915,0,0,1-1.651,1.9,1.791,1.791,0,0,1-.258.023H1.922A1.927,1.927,0,0,1,0,74.268V15.453a1.918,1.918,0,0,1,1.922-1.91H45.229a1.909,1.909,0,0,1,1.909,1.91" transform="translate(0 -7.189)" fill="#e8721b"/>
          <path id="Rectangle_405411" data-name="Rectangle 405411" d="M4.337,0H34.815a4.337,4.337,0,0,1,4.337,4.337v48.4a4.335,4.335,0,0,1-4.335,4.335H4.337A4.337,4.337,0,0,1,0,52.733V4.337A4.337,4.337,0,0,1,4.337,0Z" transform="translate(3.992 9.14)" fill="#fff"/>
          <path id="Path_884656" data-name="Path 884656" d="M49.078,12.019v3.776A1.682,1.682,0,0,1,47.4,17.48H33.278a1.69,1.69,0,0,1-1.686-1.686V12.019a.459.459,0,0,1,.023-.18,1.662,1.662,0,0,1,1.663-1.505H47.4a1.882,1.882,0,0,1,.358.033,1.663,1.663,0,0,1,1.293,1.472.459.459,0,0,1,.023.18" transform="translate(-16.771 -5.485)" fill="#34495e"/>
          <rect id="Rectangle_405412" data-name="Rectangle 405412" width="15.778" height="0.929" transform="translate(20.534 17.225)" fill="#bdc3c7"/>
          <rect id="Rectangle_405413" data-name="Rectangle 405413" width="15.778" height="0.929" transform="translate(20.534 19.566)" fill="#bdc3c7"/>
          <rect id="Rectangle_405414" data-name="Rectangle 405414" width="28.619" height="1.685" transform="translate(12.55 29.492)" fill="#bdc3c7"/>
          <path id="Path_884657" data-name="Path 884657" d="M30.5,32.965H28.528V30.991A.531.531,0,0,0,28,30.46h-1.9a.53.53,0,0,0-.529.531v1.974H23.59a.529.529,0,0,0-.529.531v1.9a.53.53,0,0,0,.529.532h1.974V37.9a.53.53,0,0,0,.529.532H28a.531.531,0,0,0,.53-.532V35.932H30.5a.531.531,0,0,0,.53-.532V33.5a.53.53,0,0,0-.53-.531" transform="translate(-12.242 -16.17)" fill="#15a0c9"/>
          <path id="Path_884658" data-name="Path 884658" d="M16.5,63.111a4.39,4.39,0,0,1-2.082-.764l.694-1.026a3.433,3.433,0,0,0,1.435.632v-.926c-1.242-.285-1.874-.709-1.874-1.665v-.015c0-.91.663-1.542,1.843-1.627v-.44h.8v.463a3.507,3.507,0,0,1,1.627.6l-.633,1.034a3.075,3.075,0,0,0-1.033-.463v.894c1.226.286,1.843.725,1.843,1.681v.015c0,.941-.725,1.52-1.82,1.619v.756h-.8Zm.054-4.264c-.378.03-.524.185-.524.385v.015c0,.2.108.316.524.432Zm1.234,2.76v-.015c0-.208-.115-.324-.517-.44V62c.355-.038.517-.169.517-.393" transform="translate(-7.656 -30.408)" fill="#15a0c9"/>
          <rect id="Rectangle_405415" data-name="Rectangle 405415" width="28.619" height="1.685" transform="translate(12.55 38.457)" fill="#bdc3c7"/>
          <path id="Path_884659" data-name="Path 884659" d="M16.5,82.222a4.39,4.39,0,0,1-2.082-.764l.694-1.026a3.433,3.433,0,0,0,1.435.632v-.926c-1.242-.285-1.874-.709-1.874-1.665v-.015c0-.91.663-1.542,1.843-1.627v-.44h.8v.463a3.507,3.507,0,0,1,1.627.6l-.633,1.034a3.075,3.075,0,0,0-1.033-.463v.894c1.226.286,1.843.725,1.843,1.681v.015c0,.941-.725,1.52-1.82,1.619v.756h-.8Zm.054-4.264c-.378.03-.524.185-.524.386v.015c0,.2.108.316.524.432Zm1.234,2.76V80.7c0-.208-.115-.324-.517-.44v.848c.355-.038.517-.169.517-.393" transform="translate(-7.656 -40.554)" fill="#15a0c9"/>
          <rect id="Rectangle_405416" data-name="Rectangle 405416" width="28.619" height="1.685" transform="translate(12.55 47.736)" fill="#bdc3c7"/>
          <path id="Path_884660" data-name="Path 884660" d="M16.5,102a4.39,4.39,0,0,1-2.082-.764l.694-1.026a3.433,3.433,0,0,0,1.435.632v-.926c-1.242-.285-1.874-.709-1.874-1.665v-.015c0-.91.663-1.542,1.843-1.627v-.44h.8v.463a3.507,3.507,0,0,1,1.627.6l-.633,1.034a3.075,3.075,0,0,0-1.033-.463V98.7c1.226.286,1.843.725,1.843,1.681v.015c0,.941-.725,1.52-1.82,1.619v.756h-.8Zm.054-4.264c-.378.03-.524.185-.524.385v.015c0,.2.108.316.524.432Zm1.234,2.76v-.015c0-.208-.115-.324-.517-.44v.848c.355-.038.517-.169.517-.393" transform="translate(-7.656 -51.053)" fill="#15a0c9"/>
          <rect id="Rectangle_405417" data-name="Rectangle 405417" width="28.619" height="1.685" transform="translate(12.55 58.057)" fill="#bdc3c7"/>
          <path id="Path_884661" data-name="Path 884661" d="M16.5,124a4.39,4.39,0,0,1-2.082-.764l.694-1.026a3.433,3.433,0,0,0,1.435.632v-.926c-1.242-.285-1.874-.709-1.874-1.665v-.015c0-.91.663-1.542,1.843-1.627v-.44h.8v.463a3.507,3.507,0,0,1,1.627.6l-.633,1.034a3.075,3.075,0,0,0-1.033-.463v.894c1.226.286,1.843.725,1.843,1.681v.015c0,.941-.725,1.52-1.82,1.619v.756h-.8Zm.054-4.264c-.378.03-.524.185-.524.385v.015c0,.2.108.316.524.432Zm1.234,2.76v-.015c0-.208-.115-.324-.517-.44v.848c.355-.038.517-.169.517-.393" transform="translate(-7.656 -62.732)" fill="#15a0c9"/>
        </g>
      </g>
    </g>
  </g>
</svg>
