<svg xmlns="http://www.w3.org/2000/svg" xmlns:xlink="http://www.w3.org/1999/xlink" width="147" height="147" viewBox="0 0 147 147">
  <defs>
    <clipPath id="clip-path">
      <rect id="Rectangle_400938" data-name="Rectangle 400938" width="147" height="147" fill="none"/>
    </clipPath>
    <clipPath id="clip-path-2">
      <rect id="Rectangle_401492" data-name="Rectangle 401492" width="78.518" height="78.519" transform="translate(2.586 3.186)" fill="#b8fafd" stroke="#707070" stroke-width="1"/>
    </clipPath>
    <clipPath id="clip-path-3">
      <rect id="Rectangle_405447" data-name="Rectangle 405447" width="59.501" height="72.951" fill="#b8fafd"/>
    </clipPath>
  </defs>
  <g id="Group_1108954" data-name="Group 1108954" transform="translate(-310 -7635)">
    <g id="Group_1102000" data-name="Group 1102000" transform="translate(448.975 7781.705) rotate(180)">
      <path id="Path_874029" data-name="Path 874029" d="M626.466,575.286l-64.987-36.674V465.259l64.987-36.677,64.987,36.677v73.354Zm-62.05-38.332,62.05,35.019,62.05-35.019V466.916l-62.05-35.022-62.05,35.022Z" transform="translate(-561.479 -428.582)" fill="#2bc897"/>
      <path id="Path_874030" data-name="Path 874030" d="M574.458,477v66.873l59.374,33.436L693.2,543.876V477l-59.373-33.436Z" transform="translate(-568.844 -437.087)" fill="#005865"/>
    </g>
    <g id="Mask_Group_1098697" data-name="Mask Group 1098697" transform="translate(341.414 7665.634)" clip-path="url(#clip-path-2)">
      <g id="Group_1110751" data-name="Group 1110751" transform="translate(12.586 6.185)">
        <g id="Group_1110750" data-name="Group 1110750" clip-path="url(#clip-path-3)">
          <path id="Path_884704" data-name="Path 884704" d="M47.256,27.181l-.068,44.861a1.441,1.441,0,0,1-1.73.822L40.3,70.3c-1.3.326-4.421,2.64-5.532,2.639-1.287,0-4.116-2.281-5.532-2.639-1.332.342-4.369,2.6-5.535,2.647-1.073.046-4.424-2.275-5.654-2.678l-5.271,2.663a1.354,1.354,0,0,1-.767-.113c-.977-.309-4.477-2.519-5.05-2.519L1.809,72.868A1.434,1.434,0,0,1,0,71.367L.075,8.184a1.432,1.432,0,0,1,1.094-.86c1.3-.188,4.378,2.144,5.791,2.5C8.923,9.121,10.7,7.6,12.778,7.3L18.15,9.8,23.7,7.283l5.649,2.528c.226-.034,3.836-1.863,4.075-2.066a24.885,24.885,0,0,0,1.655-2.531,13.774,13.774,0,0,1,21.139-.531c.784.91,2.679,3.195.957,4.088-1.632.846-2.309-1.291-3.2-2.294A10.834,10.834,0,0,0,35.778,9.8c-4.035,10.51,9.04,19.408,17.379,11.847.823-.746,2.042-2.856,2.633-3.2a1.415,1.415,0,0,1,2.153,1.183c0,.837-1.484,2.719-2.089,3.366a13.7,13.7,0,0,1-8.6,4.186M2.849,11.032V69.044c1.454-.42,2.707-1.6,4.259-1.8l5.518,2.553c1.305-.3,4.427-2.6,5.545-2.554,1.063.046,4.892,2.691,5.534,2.65,1.209-.448,4.3-2.6,5.385-2.649,1.325-.061,4.119,2.2,5.545,2.551,1.582-.208,4.176-2.51,5.673-2.549,1.037-.027,2.97,1.589,4.105,1.8V27.18A13.844,13.844,0,0,1,32.3,11.481c-1.08.4-2.316,1.518-3.5,1.337l-5.092-2.472L18.7,12.756a2.031,2.031,0,0,1-.828.078c-1.359-.125-4.084-2.417-5.385-2.4-1.181.011-4.053,2.411-5.529,2.413-.732,0-3.978-1.99-4.112-1.809" transform="translate(0 0.001)" fill="#b8fafd"/>
          <path id="Path_884705" data-name="Path 884705" d="M274.328,59.891a1.441,1.441,0,0,1,1.443,2.2L268.2,69.616a1.754,1.754,0,0,1-1.6-.118,32.451,32.451,0,0,1-3.15-3.13c-.634-.77-1.031-1.9.015-2.533,1.619-.974,2.83,1.848,4.08,2.444l6.07-6.051a1.481,1.481,0,0,1,.718-.339" transform="translate(-223.52 -50.922)" fill="#b8fafd"/>
          <path id="Path_884706" data-name="Path 884706" d="M380.141,81.7a1.432,1.432,0,1,1,.677,2.781c-1.767.333-2.34-2.406-.677-2.781" transform="translate(-322.463 -69.444)" fill="#b8fafd"/>
          <path id="Path_884707" data-name="Path 884707" d="M134.286,290.749c1.3.3,3.851,1.545,2.653,3.218-1.027,1.434-2.384-.345-3.538-.471-1.267-.138-2.673.674-2.245,2.1.267.89,3.564,1.825,4.438,2.29,3.314,1.765,3.175,6.215.3,8.343-.339.251-1.5.734-1.559.833-.3.5.327,2.063-.93,2.354-1.65.383-2.142-.957-1.983-2.351-1.514.177-5.156-1.932-2.916-3.44,1.113-.749,2.209.593,3.456.731,1.9.209,3.641-.928,3.166-3.016-.245-1.076-3.055-1.7-4.062-2.217-4.006-2.062-3.7-6.592.332-8.229-.438-3.094,3.239-3.294,2.885-.147" transform="translate(-108.69 -245.349)" fill="#b8fafd"/>
          <path id="Path_884708" data-name="Path 884708" d="M67.131,234.371a1.8,1.8,0,0,1,.507-.312l25.866.074a1.446,1.446,0,0,1-.631,2.731l-24.53,0a1.494,1.494,0,0,1-1.212-2.495" transform="translate(-56.754 -199.064)" fill="#b8fafd"/>
          <path id="Path_884709" data-name="Path 884709" d="M67.613,176.006l23.479.081a1.487,1.487,0,0,1-.934,2.729H68.328a1.467,1.467,0,0,1-.715-2.809" transform="translate(-56.733 -149.691)" fill="#b8fafd"/>
          <path id="Path_884710" data-name="Path 884710" d="M68.037,115.87c5.333.319,11.462-.562,16.7-.037,2.351.236,2.208,2.83,0,2.986-5.265-.38-11.265.517-16.443,0-2.349-.234-2.372-2.642-.262-2.949" transform="translate(-56.552 -98.368)" fill="#b8fafd"/>
        </g>
      </g>
    </g>
  </g>
</svg>
