<svg xmlns="http://www.w3.org/2000/svg" xmlns:xlink="http://www.w3.org/1999/xlink" width="70" height="70" viewBox="0 0 70 70">
  <defs>
    <clipPath id="clip-path">
      <rect id="Rectangle_405494" data-name="Rectangle 405494" width="30.872" height="45.151" fill="#006543"/>
    </clipPath>
  </defs>
  <g id="Group_1109784" data-name="Group 1109784" transform="translate(-269 -958)">
    <circle id="Ellipse_5614" data-name="Ellipse 5614" cx="35" cy="35" r="35" transform="translate(269 958)" fill="#fff"/>
    <g id="Group_1110850" data-name="Group 1110850" transform="translate(286.564 970.424)">
      <g id="Group_1110849" data-name="Group 1110849" clip-path="url(#clip-path)">
        <path id="Path_884810" data-name="Path 884810" d="M75.322,8.611V9.949c.663.412,1.415.659,2.092,1.045,2.388,1.362,4.381,3.552,4.275,6.475L80.3,17.377c0-2.675-2.154-4.473-4.366-5.553-.348-.17-2-.685-2-1.045V8.611H68.309v2.168a1.048,1.048,0,0,1-.282.363c-2.108.769-4.753,2.119-5.667,4.3a9.465,9.465,0,0,0-.325.967v5.859H73.569a7.083,7.083,0,0,0,8.12,9.043V41.875c0,1.451-2.154,3.276-3.553,3.276h-9.55l1.247-1.382c2.578-.157,5.387.2,7.937,0,1.115-.088,2.534-1.051,2.534-2.264V34.632H66.787C64.8,32.76,63.443,29.8,60.568,29.179l-.014-12.129c.169-3.5,3.292-5.93,6.371-6.962V8.611c-.474.005-1.237.047-1.364-.527l-.02-6.163a2.112,2.112,0,0,1,2.072-1.8,54,54,0,0,1,7.2.005A2.166,2.166,0,0,1,76.8,2.2c.178,1.8-.126,3.882,0,5.715-.156.716-.856.738-1.471.7m0-2.86h-8.4V7.134h8.4ZM69.575,27.916c-.647.144-.745,1.2-.092,1.345a21.326,21.326,0,0,0,3.2.014.7.7,0,0,0-.014-1.359,20.462,20.462,0,0,0-3.1,0" transform="translate(-54.966 0)" fill="#006543"/>
        <path id="Path_884811" data-name="Path 884811" d="M6.732,342.512c-1.724-2.185-3.865-4.2-5.566-6.383-3.608-4.633,1.965-9.276,5.812-6.181a17.157,17.157,0,0,1,1.615,1.707c1.369,1.51,3.054,3.351,4.287,4.94,3.61,4.655-1.9,9.443-6.147,5.917M4.005,330.387a2.77,2.77,0,0,0-2.425,3.758,13.705,13.705,0,0,0,2.211,2.864c.124.131.5.555.647.556l4.274-3.555c-1.34-1.355-2.487-3.8-4.707-3.623" transform="translate(0 -298.593)" fill="#006543"/>
        <path id="Path_884812" data-name="Path 884812" d="M218.993,203.16c7.485-.845,8.572,10.6,1.173,11.23-7.381.63-8.39-10.416-1.173-11.23m2.578,7.515c.672-.674-.521-1.4-.89-1.879-.061-.351,1.715-1.12.828-1.929-.747-.681-1.255.492-1.816.874-.331.058-1.194-1.75-1.973-.872-.672.757.524,1.359.836,1.94,0,.4-1.654,1.122-.79,1.893.714.637,1.358-.537,1.848-.923.452.426,1.285,1.57,1.958.9" transform="translate(-194.321 -184.373)" fill="#006543"/>
        <path id="Path_884813" data-name="Path 884813" d="M151.6,401.321h5.49c.459,0,.945,1.138.031,1.415a27.437,27.437,0,0,1-4.281.067c-.155-.015-.308.012-.415-.139Z" transform="translate(-137.613 -364.29)" fill="#006543"/>
        <path id="Path_884814" data-name="Path 884814" d="M166.694,433.705l-.092-1.384h4.2c.589,0,.589,1.384,0,1.384Z" transform="translate(-151.229 -392.429)" fill="#006543"/>
      </g>
    </g>
  </g>
</svg>
