<svg xmlns="http://www.w3.org/2000/svg" xmlns:xlink="http://www.w3.org/1999/xlink" width="100.499" height="150" viewBox="0 0 100.499 150">
  <defs>
    <clipPath id="clip-path">
      <rect id="Rectangle_403416" data-name="Rectangle 403416" width="71.683" height="58.902" fill="#2bc897"/>
    </clipPath>
    <clipPath id="clip-path-2">
      <path id="Path_875268" data-name="Path 875268" d="M1.1,22.912,0,23.293v7.9a5.187,5.187,0,0,0,2.421,4.17L29.988,55.009a10.8,10.8,0,0,0,11.707,0L69.263,35.37a5.21,5.21,0,0,0,2.42-4.1c0-.066,0-.132,0-.2h0V23.367l-1.728-1.185C69.468,25.819,66,28.217,63.1,28.715L43.345,42.969l-8.621,3.841L7.207,29.288l.636-.453c-2.351-1.356-3.618-4.456-4.89-7.285Z" transform="translate(0 -21.549)" fill="#61dfe4"/>
    </clipPath>
    <clipPath id="clip-path-3">
      <rect id="Rectangle_403409" data-name="Rectangle 403409" width="71.683" height="58.902" fill="none"/>
    </clipPath>
    <clipPath id="clip-path-4">
      <rect id="Rectangle_403408" data-name="Rectangle 403408" width="35.842" height="34.45" fill="none"/>
    </clipPath>
    <clipPath id="clip-path-5">
      <path id="Path_875270" data-name="Path 875270" d="M26.3,6.628,3.311,23.549c1.272,2.829,2.539,5.929,4.89,7.285L34.324,12.221a3.459,3.459,0,0,1,3.749,0L63.74,30.508l-.285.207c2.9-.5,6.37-2.9,6.858-6.533L41.508,4.411,33.126,1.678Z" transform="translate(-3.311 -1.678)" fill="#61dfe4"/>
    </clipPath>
    <clipPath id="clip-path-7">
      <rect id="Rectangle_403411" data-name="Rectangle 403411" width="32.888" height="29.156" fill="none"/>
    </clipPath>
    <clipPath id="clip-path-8">
      <path id="Path_875272" data-name="Path 875272" d="M33.967,46.513,6.4,26.872a1.539,1.539,0,0,1,0-2.672L33.966,4.56a3.457,3.457,0,0,1,3.749,0L65.283,24.2a1.538,1.538,0,0,1,0,2.671L37.716,46.512a3.458,3.458,0,0,1-3.749,0M35.736,0a10.166,10.166,0,0,0-5.749,1.725L2.421,21.365c-3.227,2.3-3.227,6.041,0,8.341L29.989,49.347a10.793,10.793,0,0,0,11.707,0L69.263,29.706c3.227-2.3,3.227-6.041,0-8.341L41.695,1.725A10.166,10.166,0,0,0,35.946,0Z" transform="translate(-0.001)" fill="#2bc897"/>
    </clipPath>
    <clipPath id="clip-path-10">
      <path id="Path_875275" data-name="Path 875275" d="M33.322,46.995,5.755,27.355a2.178,2.178,0,0,1,0-3.782L33.321,3.934a4.894,4.894,0,0,1,5.307,0L66.195,23.574a2.177,2.177,0,0,1,0,3.781L38.628,46.995a4.894,4.894,0,0,1-5.306,0M30.9,2.208,3.333,21.847c-2.8,1.994-2.8,5.239,0,7.232L30.9,48.722a9.367,9.367,0,0,0,10.151,0L68.617,29.08c2.8-1.992,2.8-5.237,0-7.231L41.049,2.208a9.359,9.359,0,0,0-10.151,0" transform="translate(-1.234 -0.712)" fill="#2bc897"/>
    </clipPath>
    <clipPath id="clip-path-11">
      <rect id="Rectangle_403518" data-name="Rectangle 403518" width="60.873" height="61.12" fill="#fff"/>
    </clipPath>
    <clipPath id="clip-path-12">
      <rect id="Rectangle_403232" data-name="Rectangle 403232" width="72.996" height="50.71" fill="#61dfe4"/>
    </clipPath>
    <clipPath id="clip-path-13">
      <rect id="Rectangle_405799" data-name="Rectangle 405799" width="36.851" height="38.112" fill="#005865"/>
    </clipPath>
  </defs>
  <g id="Group_1111614" data-name="Group 1111614" transform="translate(-810 -4868.949)">
    <rect id="Rectangle_404836" data-name="Rectangle 404836" width="85" height="150" transform="translate(810 4868.949)" fill="#b8fafd"/>
    <g id="Group_1111605" data-name="Group 1111605">
      <g id="Group_1109428" data-name="Group 1109428" transform="translate(838.258 4907.449)">
        <g id="Group_1100744" data-name="Group 1100744" transform="translate(0.004 14.098)">
          <g id="Group_1100514" data-name="Group 1100514" clip-path="url(#clip-path)">
            <g id="Group_1100495" data-name="Group 1100495" transform="translate(0 23.717)">
              <g id="Group_1100494" data-name="Group 1100494" clip-path="url(#clip-path-2)">
                <path id="Path_875399" data-name="Path 875399" d="M0,0,71.633-6.175l-7.76,81.049L-7.76,81.049Z" transform="translate(-12.548 26.819) rotate(-60)" fill="#61dfe4"/>
              </g>
            </g>
            <g id="Group_1100500" data-name="Group 1100500" transform="translate(0 0)">
              <g id="Group_1100499" data-name="Group 1100499" clip-path="url(#clip-path-3)">
                <g id="Group_1100498" data-name="Group 1100498" transform="translate(35.841 24.452)" opacity="0.3">
                  <g id="Group_1100497" data-name="Group 1100497">
                    <g id="Group_1100496" data-name="Group 1100496" clip-path="url(#clip-path-4)">
                      <path id="Path_875269" data-name="Path 875269" d="M67.442,28.647,47.689,42.9l-7.5,3.344V56.667a10.2,10.2,0,0,0,5.854-1.725L73.606,35.3a5.208,5.208,0,0,0,2.42-4.1c0-.066,0-.133,0-.2l0,0V23.3l-1.58-1.084h-.165c-.539,3.58-3.968,5.937-6.841,6.431" transform="translate(-40.185 -22.217)" fill="#0f054c"/>
                    </g>
                  </g>
                </g>
              </g>
            </g>
            <g id="Group_1100502" data-name="Group 1100502" transform="translate(2.953 1.847)">
              <g id="Group_1100501" data-name="Group 1100501" clip-path="url(#clip-path-5)">
                <path id="Path_875400" data-name="Path 875400" d="M0,0,63.434-5.469,56.357,68.457-7.078,73.925Z" transform="matrix(0.5, -0.866, 0.866, 0.5, -10.231, 21.867)" fill="#61dfe4"/>
              </g>
            </g>
            <g id="Group_1100507" data-name="Group 1100507" transform="translate(0 0)">
              <g id="Group_1100506" data-name="Group 1100506" clip-path="url(#clip-path-3)">
                <g id="Group_1100505" data-name="Group 1100505" transform="translate(2.953 1.847)" opacity="0.3">
                  <g id="Group_1100504" data-name="Group 1100504">
                    <g id="Group_1100503" data-name="Group 1100503" clip-path="url(#clip-path-7)">
                      <path id="Path_875271" data-name="Path 875271" d="M36.2,2.68l-3.073-1L26.3,6.628,3.311,23.548c1.272,2.829,2.538,5.93,4.89,7.286L34.324,12.221A3.27,3.27,0,0,1,36.2,11.67Z" transform="translate(-3.311 -1.678)" fill="#0f054c"/>
                    </g>
                  </g>
                </g>
              </g>
            </g>
            <g id="Group_1100509" data-name="Group 1100509" transform="translate(0)">
              <g id="Group_1100508" data-name="Group 1100508" clip-path="url(#clip-path-8)">
                <rect id="Rectangle_403413" data-name="Rectangle 403413" width="73.296" height="51.647" transform="translate(-0.807 0)" fill="#2bc897"/>
              </g>
            </g>
            <g id="Group_1100511" data-name="Group 1100511" transform="translate(0 0)">
              <g id="Group_1100510" data-name="Group 1100510" clip-path="url(#clip-path-3)">
                <path id="Path_875273" data-name="Path 875273" d="M65.965,23.834,38.4,4.193a3.457,3.457,0,0,0-3.749,0L7.082,23.833A1.547,1.547,0,0,0,6.4,25.649a1.843,1.843,0,0,1,.686-.855L34.649,5.153a3.457,3.457,0,0,1,3.749,0L65.965,24.794a1.846,1.846,0,0,1,.686.856,1.546,1.546,0,0,0-.686-1.816" transform="translate(-0.682 0.367)" fill="#fff"/>
                <path id="Path_875274" data-name="Path 875274" d="M69.263,27.329,41.7,46.968a10.793,10.793,0,0,1-11.707,0L2.422,27.327A5.344,5.344,0,0,1,.03,23.637a5.047,5.047,0,0,0,2.392,4.651L29.989,47.929a10.8,10.8,0,0,0,11.707,0L69.263,28.288a5.045,5.045,0,0,0,2.391-4.65,5.344,5.344,0,0,1-2.391,3.69" transform="translate(0 2.379)" fill="#fff"/>
              </g>
            </g>
            <g id="Group_1100513" data-name="Group 1100513" transform="translate(1.1 0.784)">
              <g id="Group_1100512" data-name="Group 1100512" clip-path="url(#clip-path-10)">
                <rect id="Rectangle_403415" data-name="Rectangle 403415" width="70.881" height="50.002" transform="translate(-0.7 0)" fill="#2bc897"/>
              </g>
            </g>
          </g>
        </g>
        <g id="Group_1100749" data-name="Group 1100749" transform="translate(5.307)">
          <g id="Group_1100748" data-name="Group 1100748" clip-path="url(#clip-path-11)">
            <path id="Path_875398" data-name="Path 875398" d="M6.247,0H54.48A6.338,6.338,0,0,1,60.8,6.356l.14,34.756-26.7,18.94a7.554,7.554,0,0,1-7.744,0L-.145,41.219-.072,6.356A6.338,6.338,0,0,1,6.247,0" transform="translate(0.074 0)" fill="#fff"/>
          </g>
        </g>
        <g id="Group_1100745" data-name="Group 1100745" transform="translate(-0.755 6.578)">
          <g id="Group_1100096" data-name="Group 1100096" transform="translate(0 0)" clip-path="url(#clip-path-12)">
            <path id="Path_873771" data-name="Path 873771" d="M36.5,50.711a9.642,9.642,0,0,1-5.42-1.551L2.316,29.276A4.816,4.816,0,0,1,0,25.354a4.813,4.813,0,0,1,2.316-3.921L31.077,1.55a10.26,10.26,0,0,1,10.843,0L70.681,21.434A4.813,4.813,0,0,1,73,25.355a4.816,4.816,0,0,1-2.316,3.922L41.92,49.16A9.645,9.645,0,0,1,36.5,50.711M36.5.595a9.2,9.2,0,0,0-5.169,1.477L2.568,21.955A4.223,4.223,0,0,0,.5,25.354a4.22,4.22,0,0,0,2.064,3.4L31.331,48.638a9.785,9.785,0,0,0,10.337,0L70.429,28.755a4.22,4.22,0,0,0,2.064-3.4,4.22,4.22,0,0,0-2.064-3.4L41.667,2.072A9.2,9.2,0,0,0,36.5.595" transform="translate(0 -0.001)" fill="#61dfe4"/>
          </g>
        </g>
        <rect id="Rectangle_403516" data-name="Rectangle 403516" width="60.873" height="30.446" transform="translate(5.307 4.578)" fill="#fff"/>
      </g>
      <g id="Group_1109432" data-name="Group 1109432" transform="translate(855.17 4912.695)">
        <g id="Group_1099618" data-name="Group 1099618" transform="translate(0 0)">
          <rect id="Rectangle_401104" data-name="Rectangle 401104" width="37.658" height="38.112" transform="translate(0)" fill="none"/>
        </g>
        <g id="Group_1111227" data-name="Group 1111227">
          <g id="Group_1111226" data-name="Group 1111226" clip-path="url(#clip-path-13)">
            <path id="Path_885556" data-name="Path 885556" d="M12.268,7.231h1.247a3.537,3.537,0,0,1-.082-.425c-.031-1.005-.068-2.292,0-3.28.076-1.09.35-1.662,1.52-1.753.512-.04,1.448-.064,1.449.665,0,.2-.25.584-.433.584H14.8a.778.778,0,0,0-.117.117V7.153h7.481V3.14a.782.782,0,0,0-.117-.117h-3.9c-.361,0-.717-1.069.174-1.228a23,23,0,0,1,3.643-.017c1.059.1,1.365.682,1.442,1.675s.037,2.334,0,3.354a3.537,3.537,0,0,1-.082.425h1.247V2.594c0-.408.637-1,1.057-1.047,1.958.123,4.146-.18,6.077-.008A1.5,1.5,0,0,1,32.6,1.9a2.434,2.434,0,0,1,.4.771V7.231h2.922a2.09,2.09,0,0,1,.585.35,3.163,3.163,0,0,1,0,2.884,1.5,1.5,0,0,1-1.091.351c-.12.119.176,2.972-.085,3.383a.7.7,0,0,1-.984.1,2.821,2.821,0,0,1-.177-.329V10.815H33V36.921h1.169V16.387a.631.631,0,0,1,1.248.076l-.006,20.647a1.237,1.237,0,0,1-.732.9,6.29,6.29,0,0,1-2.19,0c-.274-.086-.736-.557-.736-.823V34.973H5.1v2.221c0,.266-.462.737-.736.823a6.29,6.29,0,0,1-2.19,0,1.235,1.235,0,0,1-.719-.84l-.013-8.784a.634.634,0,0,1,1.242,0v8.533H3.852V10.815H2.683V25.972a.634.634,0,0,1-1.242,0l0-15.152A1.181,1.181,0,0,1,.031,9.689,3.349,3.349,0,0,1,.345,7.581a2.089,2.089,0,0,1,.585-.35H3.852V1.192A1.343,1.343,0,0,1,5.057.059C7.026-.127,9.288.2,11.289.067c.387.011.979.717.979,1.047Zm-6-6c-.19.026-1.169-.083-1.169.117V7.114a.778.778,0,0,0,.117.117H10.9a.782.782,0,0,0,.117-.117V1.231H9.93V3.451a1.605,1.605,0,0,1-.187.436c-.471.557-1.19-.193-1.643-.209-.321-.011-.957.465-1.307.421-.145-.019-.525-.269-.525-.414Zm2.416,0H7.437V2.555a1.476,1.476,0,0,1,1.247,0ZM31.75,2.789c-.077.025-.169-.078-.195-.078H25.944a.778.778,0,0,0-.117.117V7.114a.778.778,0,0,0,.117.117h5.689a.782.782,0,0,0,.117-.117ZM35.568,8.4H1.281V9.647H35.568ZM31.75,10.815H5.1V12.14H11.06a2.1,2.1,0,0,1,.743.348,2.012,2.012,0,0,1,.465.782v6.117h1.247a3.537,3.537,0,0,1-.082-.425c-.032-1.021-.073-2.353,0-3.354.06-.77.318-1.517,1.2-1.6,2.388-.23,5.139.183,7.567,0,.972.13,1.154.9,1.208,1.753.061.979.031,2.211,0,3.2a3.537,3.537,0,0,1-.082.425h1.247V13.27a2.012,2.012,0,0,1,.465-.782,2.093,2.093,0,0,1,.743-.348H31.75ZM6.268,13.387c-.19.026-1.169-.083-1.169.117v5.805h5.922V13.387H9.93v2.221a1.889,1.889,0,0,1-.236.466c-.486.425-1.216-.271-1.661-.249-.371.019-.835.46-1.334.367a1.166,1.166,0,0,1-.432-.351Zm2.416,0H7.437v1.325a1.441,1.441,0,0,1,1.247,0ZM31.75,19.309V13.5a.782.782,0,0,0-.117-.117H25.827v5.922Zm-9.585,0V15.3a.782.782,0,0,0-.117-.117H14.8a.778.778,0,0,0-.117.117v4.013Zm9.585,1.247H5.1v1.169H31.75Zm0,2.416H5.1v1.169H9.658c.435,0,1.13.783,1.13,1.208v6.039h2.727a3.537,3.537,0,0,1-.082-.425c-.049-1.56-.115-3.621,0-5.15.066-.873.339-1.534,1.289-1.673,2.36.135,4.914-.178,7.251,0,1.1.083,1.378.748,1.442,1.753.1,1.545.049,3.508,0,5.073a3.537,3.537,0,0,1-.082.425h1.247V25.271a1.648,1.648,0,0,1,1.13-1.13H31.75ZM9.541,25.388H5.1v5.883a.778.778,0,0,0,.117.117H9.424a.782.782,0,0,0,.117-.117Zm5.26,0c-.026.04-.117.1-.117.117v5.767a.778.778,0,0,0,.117.117h7.247a.782.782,0,0,0,.117-.117V25.5a.782.782,0,0,0-.117-.117Zm12.117,0H25.827v6h5.805a.782.782,0,0,0,.117-.117V25.388H30.581v2.455c0,.165-.427.419-.591.428-.284.015-.842-.381-1.164-.395-.52-.022-1.163.678-1.68.207a1.22,1.22,0,0,1-.227-.4Zm2.494,0H28.165v1.325c.489-.127.789-.237,1.247.078Zm2.338,7.247H5.1v1.091H31.75Z" transform="translate(0 0)" fill="#005865"/>
          </g>
        </g>
      </g>
    </g>
  </g>
</svg>
