<svg xmlns="http://www.w3.org/2000/svg" xmlns:xlink="http://www.w3.org/1999/xlink" width="85" height="85" viewBox="0 0 85 85">
  <defs>
    <clipPath id="clip-path">
      <rect id="Rectangle_406300" data-name="Rectangle 406300" width="68.541" height="68.541" transform="translate(0 0)" fill="#fff" stroke="#707070" stroke-width="1"/>
    </clipPath>
    <clipPath id="clip-path-2">
      <rect id="Rectangle_406299" data-name="Rectangle 406299" width="63.02" height="62.825" fill="#fff"/>
    </clipPath>
  </defs>
  <g id="Group_1111599" data-name="Group 1111599" transform="translate(-810.34 -5337)">
    <rect id="Rectangle_406298" data-name="Rectangle 406298" width="85" height="85" transform="translate(810.34 5337)" fill="#005865"/>
    <g id="Mask_Group_1109108" data-name="Mask Group 1109108" transform="translate(818.34 5345)" clip-path="url(#clip-path)">
      <g id="Group_1111598" data-name="Group 1111598" transform="translate(3.018 3)">
        <g id="Group_1111597" data-name="Group 1111597" clip-path="url(#clip-path-2)">
          <path id="Path_886341" data-name="Path 886341" d="M16.507,4.995h30V.972c0-.463.856-.853,1.289-.893a29.3,29.3,0,0,1,4.5.015c.3.046,1.032.426,1.032.741V4.995h6.205A3.985,3.985,0,0,1,63.01,8.338l.01,38.874-.137.545L48.152,62.483l-.542.277-43.724.065A3.878,3.878,0,0,1,0,59.21L.008,8.338A4.019,4.019,0,0,1,3.483,4.995H9.689V.835c0-.316.729-.7,1.032-.741a29.3,29.3,0,0,1,4.5-.015c.433.039,1.289.43,1.289.893ZM9.689,7.177H3.347c-.456,0-1.3,1.015-1.3,1.432v7.023H60.966V8.472a2.637,2.637,0,0,0-1.159-1.3H53.329v4.159c0,.284-.589.694-.894.742a30.412,30.412,0,0,1-4.636.015c-.482-.044-1.289-.329-1.289-.894V7.177h-30V11.2c0,.564-.806.85-1.289.894a30.412,30.412,0,0,1-4.636-.015c-.306-.048-.894-.458-.894-.742Zm36.685,53.46V46.93a1.7,1.7,0,0,1,.75-.75H60.762a1.369,1.369,0,0,0,.2-.2V17.882a1.369,1.369,0,0,0-.2-.2H2.052V59.341c0,.24.9,1.3,1.159,1.3ZM59.33,48.226H48.556V59Z" transform="translate(0 0)" fill="#fff"/>
          <path id="Path_886342" data-name="Path 886342" d="M151.311,184.532a12.4,12.4,0,1,1-9.725,18.1,12.434,12.434,0,0,1,9.725-18.1m-.275,2.18A10.283,10.283,0,1,0,157.7,205.79c9.534-5.463,4.961-20.391-6.668-19.078" transform="translate(-121.058 -159.313)" fill="#fff"/>
          <path id="Path_886343" data-name="Path 886343" d="M177.577,75.675l8.014-.026a1.107,1.107,0,0,1-.141,2.171c-2.358-.245-5.5.359-7.758,0a1.1,1.1,0,0,1-.115-2.146" transform="translate(-152.653 -65.332)" fill="#fff"/>
          <path id="Path_886344" data-name="Path 886344" d="M261.37,75.374c.619-.138,2.237-.152,2.465.613.457,1.531-1.121,1.675-2.224,1.544a1.092,1.092,0,0,1-.241-2.156" transform="translate(-224.991 -65.031)" fill="#fff"/>
          <path id="Path_886345" data-name="Path 886345" d="M224.325,223.068a1.277,1.277,0,0,1,.322.7c.289,2.372-.221,5.334-.014,7.771a1.1,1.1,0,0,1-2.178-.126c-.281-2.391.208-5.319.011-7.769a1.127,1.127,0,0,1,1.858-.578" transform="translate(-192.041 -192.39)" fill="#fff"/>
          <path id="Path_886346" data-name="Path 886346" d="M223.652,306.684c1.925-.311,1.655,3.686-.375,2.77-.8-.362-.906-2.563.375-2.77" transform="translate(-192.312 -264.845)" fill="#fff"/>
        </g>
      </g>
    </g>
  </g>
</svg>
