<svg xmlns="http://www.w3.org/2000/svg" xmlns:xlink="http://www.w3.org/1999/xlink" width="1030" height="515.329" viewBox="0 0 1030 515.329">
  <defs>
    <linearGradient id="linear-gradient" x1="0.5" x2="0.5" y2="1" gradientUnits="objectBoundingBox">
      <stop offset="0" stop-color="#eed"/>
      <stop offset="1" stop-color="#fbf4ec"/>
    </linearGradient>
    <linearGradient id="linear-gradient-2" x1="0.5" x2="0.5" y2="1" gradientUnits="objectBoundingBox">
      <stop offset="0" stop-color="#f6fffa"/>
      <stop offset="1" stop-color="#e1feff"/>
    </linearGradient>
    <clipPath id="clip-path">
      <path id="Path_611005" data-name="Path 611005" d="M0,0H1030V495H0Z" fill="url(#linear-gradient)"/>
    </clipPath>
    <clipPath id="clip-path-2">
      <rect id="Rectangle_405896" data-name="Rectangle 405896" width="1030" height="302.241" fill="none"/>
    </clipPath>
    <clipPath id="clip-path-3">
      <rect id="Rectangle_405908" data-name="Rectangle 405908" width="1030" height="488.828" fill="none"/>
    </clipPath>
  </defs>
  <g id="Group_1111617" data-name="Group 1111617" transform="translate(-284.711 -6170)">
    <g id="Group_1111578" data-name="Group 1111578">
      <g id="Group_1111397" data-name="Group 1111397" transform="translate(-0.289 0.268)">
        <g id="Group_1073695" data-name="Group 1073695" transform="translate(1600 7131.561) rotate(180)">
          <path id="Path_608309" data-name="Path 608309" d="M0,0H1030V515.329H0Z" transform="translate(285 446.5)" fill="url(#linear-gradient-2)"/>
        </g>
        <g id="Group_1111391" data-name="Group 1111391" transform="translate(285 6277.952)">
          <g id="Group_1111388" data-name="Group 1111388" transform="translate(0 -100.629)">
            <g id="Group_1111387" data-name="Group 1111387" clip-path="url(#clip-path-2)">
              <path id="Path_885786" data-name="Path 885786" d="M2.16,117.274c122.6,62.957,259.234,61.563,335.244,2.732,15.8-12.226,46.964-40.857,60.142-94.848" transform="translate(-0.546 -65.296)" fill="none" stroke="#b6d9c2" stroke-miterlimit="10" stroke-width="1"/>
              <path id="Path_885787" data-name="Path 885787" d="M133,353.1c138.29-32.528,230.338-117.616,231.188-204.577.176-18.072-3.384-56.807-41.222-101.772" transform="translate(-33.602 -70.075)" fill="none" stroke="#b6d9c2" stroke-miterlimit="10" stroke-width="1"/>
              <path id="Path_885788" data-name="Path 885788" d="M987.369.156c36.805,116.933,136.584,195.59,239.773,197.437,21.443.384,67.458-2.113,121.312-33.406" transform="translate(-249.447 -59.763)" fill="none" stroke="#b6d9c2" stroke-miterlimit="10" stroke-width="1"/>
              <path id="Path_885789" data-name="Path 885789" d="M785.9,26.8C775.02,170.784,852.555,291.553,968.436,326.535c24.081,7.269,77.245,19.114,152.206.887" transform="translate(-198.291 -65.658)" fill="none" stroke="#b6d9c2" stroke-miterlimit="10" stroke-width="1"/>
              <path id="Path_885790" data-name="Path 885790" d="M541.355,65.054C657.305,136.4,793.6,144.607,875.162,91.318,892.112,80.243,926,53.9,944.475,1.023" transform="translate(-136.767 -59.954)" fill="none" stroke="#b6d9c2" stroke-miterlimit="10" stroke-width="1"/>
              <rect id="Rectangle_405894" data-name="Rectangle 405894" width="113.175" height="236.563" transform="translate(947.871 65.644)" fill="#d2fae0"/>
              <rect id="Rectangle_405895" data-name="Rectangle 405895" width="99.283" height="218.629" transform="translate(954.817 74.184)" fill="#c3e8d0"/>
              <path id="Path_885791" data-name="Path 885791" d="M1355.936,234.02c0,11.32-8.812,20.5-19.683,20.5s-19.682-9.177-19.682-20.5,8.812-20.5,19.682-20.5,19.683,9.177,19.683,20.5" transform="translate(-332.615 -106.982)" fill="#d2fae0"/>
              <path id="Path_885792" data-name="Path 885792" d="M1352.716,227.353a17.338,17.338,0,0,0-6.442-7.006,70.427,70.427,0,0,1-9.33,11.867,68.476,68.476,0,0,1-14.233,11.15,17.385,17.385,0,0,0,6.31,7.148,77.663,77.663,0,0,0,14.3-11.53,79.868,79.868,0,0,0,9.394-11.628" transform="translate(-334.167 -108.492)" fill="#fff"/>
              <path id="Path_885793" data-name="Path 885793" d="M1290.033,297.726h10.761V339.35h-10.761" transform="translate(-325.911 -125.617)" fill="none" stroke="#fff" stroke-miterlimit="10" stroke-width="6"/>
            </g>
          </g>
          <g id="Group_1111390" data-name="Group 1111390" transform="translate(0 -100.628)">
            <g id="Group_1111389" data-name="Group 1111389" clip-path="url(#clip-path-3)">
              <line id="Line_3251" data-name="Line 3251" x2="41.128" transform="translate(139.446 207.193)" fill="none" stroke="#95b0bd" stroke-miterlimit="10" stroke-width="1"/>
              <g id="Group_1111396" data-name="Group 1111396" transform="translate(43.631 -160.677)">
                <path id="Path_885794" data-name="Path 885794" d="M247.988,540.72c0,4.061-25.472,7.353-56.9,7.353s-56.9-3.291-56.9-7.353,25.474-7.353,56.9-7.353,56.9,3.291,56.9,7.353" transform="translate(27.906 73.278)" fill="#c3e8d0"/>
                <rect id="Rectangle_405897" data-name="Rectangle 405897" width="82.457" height="70.262" transform="translate(181.894 547.003)" fill="#a86031"/>
                <path id="Path_885795" data-name="Path 885795" d="M231.583,488.868H149.126l8.52-3.81H240.1Z" transform="translate(32.768 58.134)" fill="#d9854c"/>
                <path id="Path_885796" data-name="Path 885796" d="M219.847,555.319l-8.52,3.813V488.87l8.52-3.813Z" transform="translate(53.024 58.134)" fill="#804c2a"/>
                <rect id="Rectangle_405898" data-name="Rectangle 405898" width="82.457" height="70.262" transform="translate(189.591 473.474)" fill="#a86031"/>
                <path id="Path_885797" data-name="Path 885797" d="M237.388,432.887H154.931l8.52-3.81h82.457Z" transform="translate(34.658 40.585)" fill="#d9854c"/>
                <path id="Path_885798" data-name="Path 885798" d="M225.653,499.338l-8.52,3.813V432.889l8.52-3.813Z" transform="translate(54.914 40.585)" fill="#804c2a"/>
                <rect id="Rectangle_405899" data-name="Rectangle 405899" width="82.457" height="70.262" transform="translate(177.497 401.033)" fill="#a86031"/>
                <path id="Path_885799" data-name="Path 885799" d="M228.265,377.735H145.809l8.52-3.81h82.457Z" transform="translate(31.688 23.296)" fill="#d9854c"/>
                <path id="Path_885800" data-name="Path 885800" d="M216.53,444.186,208.01,448V377.738l8.52-3.813Z" transform="translate(51.944 23.296)" fill="#804c2a"/>
                <path id="Path_885801" data-name="Path 885801" d="M32.4,534.133c0,4.214,26.431,7.63,59.035,7.63s59.035-3.416,59.035-7.63-26.431-7.63-59.035-7.63S32.4,529.919,32.4,534.133" transform="translate(-5.244 71.126)" fill="#c3e8d0"/>
                <path id="Path_885802" data-name="Path 885802" d="M68,516.118s-2.988,16.736,8.861,21.692c8.969,3.751,11.174,10.384,9.089,12.7-4.542,5.046-13.732,1.308-18.317-.976s-3.293-5.283-6.573-8.418-8.922-.893-8.56-6.95,2.517-17.187,2.517-17.187Z" transform="translate(1.297 67.87)" fill="#333"/>
                <path id="Path_885803" data-name="Path 885803" d="M104.629,518.681s.317,5.539,9.25,8.435,20.88,3.107,23.44,5.317.368,6.891-1.65,7.488c-2.108.624-15.614,1.12-22.174-.359s-9.541-2.313-12.144-1.56a27.484,27.484,0,0,1-8.4,1.261c-3.191-.046-4.978-14.105-1.509-19.391s13.184-1.191,13.184-1.191" transform="translate(13.369 68.2)" fill="#333"/>
                <path id="Path_885804" data-name="Path 885804" d="M116.781,561.177c-1-20.126,9.815-76.683,9.815-76.683a12.861,12.861,0,0,0-.16-3.307l-18.187-89.3-45.091,4.882,38.905,87.174-4.493,77.8,8.552,1.312a16.854,16.854,0,0,0,10.658-1.877" transform="translate(4.772 28.927)" fill="#ff424c"/>
                <path id="Path_885805" data-name="Path 885805" d="M89.367,406.275s13.857,26.827,4.522,63.532L75.067,427.633c5.292-7.726,14.3-21.359,14.3-21.359" transform="translate(8.65 33.437)" fill="#d12a32"/>
                <path id="Path_885806" data-name="Path 885806" d="M69.048,565.942c1.979-26.6,12.688-59.588,18.826-70.086a16.9,16.9,0,0,0,2.3-8.125l12.5-93.313-37.621-.175-4.031,14.614a49.414,49.414,0,0,0-.289,14.825l3.44,14.4.2,49.581c-8.393,16.416-6.885,20.6-7.881,48.209L52.648,565.7l5.908,1.647a13.43,13.43,0,0,0,10.491-1.4" transform="translate(1.35 29.666)" fill="#ff424c"/>
                <path id="Path_885807" data-name="Path 885807" d="M146.451,347.476l8.2-.122a8.381,8.381,0,0,0,6.957-2.485s3.653-5.5,3.757-5.8c.957-2.765,1.023-2.581.8-4.429-.251-2.063-.512-2.574-1.912-2.8-.924-.148-4.292,2.406-5,2.895-1.523,1.047-1.09.286-5.853,2.153l-1.424-.3c-3.034-.479,5.759-2.239,3.656-6.5L148.8,334.5a2.353,2.353,0,0,0-.707.78l-4.4,5.676Z" transform="translate(31 9.555)" fill="#ffb780"/>
                <path id="Path_885808" data-name="Path 885808" d="M98.366,356.766l19.079,9.439a4.359,4.359,0,0,0,3.958-.049l42.357-22.287-3.858-5.715-37.363,11.1-14.693-7.069" transform="translate(16.238 12.083)" fill="#ffb780"/>
                <path id="Path_885809" data-name="Path 885809" d="M114.938,344.5,88.106,331.587a8.03,8.03,0,0,0-11.342,5.5,7.915,7.915,0,0,0,4,8.616l27.5,18.424" transform="translate(9.146 9.773)" fill="#fff"/>
                <path id="Path_885810" data-name="Path 885810" d="M117.185,346.578a6.17,6.17,0,0,0,4.629,1.1l.107.776c-1.184.225-2.366.533-3.553.746-.957.252-2.606.285-3.361.96l-.094-.033c.233-.688.924-.948,1.46-1.244a15.533,15.533,0,0,1,5.443-1.206.392.392,0,1,1,.109.776,6.16,6.16,0,0,1-4.808-1.8Z" transform="translate(21.627 14.724)" fill="#da8d66"/>
                <path id="Path_885811" data-name="Path 885811" d="M76.93,336.3a8.034,8.034,0,0,1,11.126-4.718l3.17,1.525c2.714,3.583,5.5,7.918,8.015,11.824,3.767,5.857,5.687,13.686,6.86,17.77L80.711,345.7a7.926,7.926,0,0,1-3.972-5.317,38.524,38.524,0,0,1,.191-4.077" transform="translate(9.195 9.773)" fill="#c3e8d0"/>
                <path id="Path_885812" data-name="Path 885812" d="M93.6,331.587c-9.583-3.1-33.406-7.918-38.469,17.557-3.437,17.3,2.329,34.7,6.929,46.326,3.942,9.977-.008,27.224-.008,27.224l11.82.973a93.616,93.616,0,0,0,41.982-5.5l-5.968-32.778c1.009-22.187,1.613-23.951-2.765-34.94-1.829-4.592-7.646-16.329-12.193-18.348a13.641,13.641,0,0,0-1.327-.511" transform="translate(1.819 9.233)" fill="#fff"/>
                <path id="Path_885813" data-name="Path 885813" d="M80.349,303.235l-15.5,13.271,1.828,22.265a3.726,3.726,0,0,0,1.359,2.881c7.131,4.7,12.974,2.08,12.974,2.08,5.69-1.56,1.348-6.042.282-12.412Z" transform="translate(5.322 1.136)" fill="#ffb780"/>
                <path id="Path_885814" data-name="Path 885814" d="M70.346,303.524l9.774-.289.941,28.085a25.157,25.157,0,0,0,1.061,3.98c-3.131-.356-10.353-2.731-13.581-6.788-1.593-2-1.873-4.618-2.573-8.635-1.426-8.184.985-13.336,4.379-16.353" transform="translate(5.551 1.136)" fill="#da8d66"/>
                <path id="Path_885815" data-name="Path 885815" d="M83.874,300.537c2.434,3.292,1.092,7.1,4.4,12.93,2.045,3.605.538,8.205.255,11.363-1.042,11.561-7.223,10.408-19.252,4.453-2.243-1.11-3.669-7.338-4.079-11.289-1.95-18.779,16.681-20.161,18.68-17.456" transform="translate(5.389 -0.04)" fill="#ffb780"/>
                <path id="Path_885816" data-name="Path 885816" d="M58.444,309.15c-1.027-15.794,22.859-15.365,26.285-12.9,6.626,4.767,2.61,7.76,2.61,7.76a2.789,2.789,0,0,0-2.193-1.264c-4.058.742-18.228,4.155-13.465,15.131,1.2,2.768-1.2,3.918-4.1,4.168-.139,3.4.469,8.635.034,8.329-1.029-.725-7.817-.316-9.176-21.223" transform="translate(3.227 -1.457)" fill="#333"/>
                <path id="Path_885817" data-name="Path 885817" d="M70.549,319.772c-1.281,1.2-3.73.692-5.47-1.132s-2.11-4.277-.83-5.476,3.732-.692,5.471,1.132,2.11,4.277.829,5.476" transform="translate(4.88 4.045)" fill="#ffb780"/>
                <path id="Path_885818" data-name="Path 885818" d="M106.932,383.2,96,387.349a4.561,4.561,0,0,1-4.007-1.667L66.074,353.57l22.095,37.062a4.553,4.553,0,0,0,3.884,2.212l16.683-.059Z" transform="translate(5.722 16.916)" fill="#c3e8d0"/>
                <path id="Path_885819" data-name="Path 885819" d="M113.883,384.2l1.759,3.081,66.61-37.333a.816.816,0,0,0,.313-1.118l-1.352-2.367Z" transform="translate(21.291 14.69)" fill="#a86031"/>
                <path id="Path_885820" data-name="Path 885820" d="M121.93,372.727a10.462,10.462,0,0,0-4.241,4.124l-3.8,7.566,67.33-37.736-7.176-.85c-1.758.272-52.113,26.9-52.113,26.9" transform="translate(21.293 14.49)" fill="#fff"/>
                <path id="Path_885821" data-name="Path 885821" d="M116.88,381.735s14.515-1.558,19.166-8.362c1.135-1.661,9.887-8.288,2.146-4.8-4.865,2.192-11.851,6.705-13.054,3.943-1.175-2.7,7.795-1.748,6.524-6.841l-9.647,3.151a2.284,2.284,0,0,0-.872.524l-4.888,4.708Z" transform="translate(22.064 20.71)" fill="#ffb780"/>
                <path id="Path_885822" data-name="Path 885822" d="M68.886,366.923l14.346,19.684a4.342,4.342,0,0,0,3.9,1.758l46.735-4.262-1.354-7.727-38.546-5.92L83.777,357.806" transform="translate(6.638 18.244)" fill="#ffb780"/>
                <path id="Path_885823" data-name="Path 885823" d="M88.2,364.031l-18.608-23.1a8.062,8.062,0,0,0-12.626.122,7.883,7.883,0,0,0-.137,9.482l16.479,22.61" transform="translate(2.217 12.018)" fill="#fff"/>
                <path id="Path_885824" data-name="Path 885824" d="M82.2,368.819a5.415,5.415,0,0,1,7.428-1.145,38.866,38.866,0,0,0-7.428,1.145" transform="translate(10.975 21.025)" fill="#da8d66"/>
                <path id="Path_885825" data-name="Path 885825" d="M101.184,534.276a27.49,27.49,0,0,1-8.4,1.261c-1.149-.016-2.113-1.853-2.719-4.44,2.231.522,5.041,2.159,8.6,1.172,2.529-.7,2.22-1.839,4.556-2.74,5.293-2.041,8.8,3.062,18.376,4.5,3.7.556,8.118,1.219,12.147-1.113a12.564,12.564,0,0,0,3.9-3.661c1.722,2.355-.282,6.386-2.146,6.938-2.109.624-15.614,1.12-22.176-.359s-9.539-2.313-12.144-1.56" transform="translate(13.536 71.925)"/>
                <path id="Path_885826" data-name="Path 885826" d="M52.5,530.322c.036-.6.09-1.255.158-1.941,1.255,2.155,2.34,5.037,4.465,5.066,1.3.018,2.2-1.073,3.541-.533a4.077,4.077,0,0,1,2,2.371c1.75,4.093,3.961,8.2,8.016,9.586,4.127,1.405,9.529,2.929,12.811.662a7.2,7.2,0,0,0,2.5-3.825c.957,2.079.874,3.938-.045,4.958-4.54,5.046-13.9,1.869-18.677-1.013-4.383-2.646-2.932-5.245-6.211-8.381s-8.922-.892-8.56-6.95" transform="translate(1.297 71.715)"/>
                <path id="Path_885827" data-name="Path 885827" d="M87.6,312.071s-.448,5.552-17.63,5.412c0,0,4.406,10.772,12.533,8.243,5.137-1.6,6.227-8.749,5.1-13.655" transform="translate(6.99 3.907)" fill="#fff"/>
                <path id="Path_885828" data-name="Path 885828" d="M67.695,313.411a13.376,13.376,0,0,0,7.523,7.459" transform="translate(6.25 4.327)" fill="#fff"/>
                <rect id="Rectangle_405900" data-name="Rectangle 405900" width="121.312" height="124.742" transform="translate(169.404 192.42)" fill="#fff"/>
                <path id="Path_885829" data-name="Path 885829" d="M155.778,235.189l2.5,2.19,3.235-4.07" transform="translate(34.934 -20.784)" fill="none" stroke="#95b0bd" stroke-miterlimit="10" stroke-width="1"/>
                <rect id="Rectangle_405901" data-name="Rectangle 405901" width="9.803" height="9.713" transform="translate(188.62 209.784)" fill="none" stroke="#95b0bd" stroke-miterlimit="10" stroke-width="1"/>
                <path id="Path_885830" data-name="Path 885830" d="M155.778,250.024l2.5,2.19,3.235-4.07" transform="translate(34.934 -16.134)" fill="none" stroke="#95b0bd" stroke-miterlimit="10" stroke-width="1"/>
                <rect id="Rectangle_405902" data-name="Rectangle 405902" width="9.803" height="9.713" transform="translate(188.62 229.27)" fill="none" stroke="#95b0bd" stroke-miterlimit="10" stroke-width="1"/>
                <line id="Line_3252" data-name="Line 3252" x2="65.05" transform="translate(204.759 233.89)" fill="none" stroke="#95b0bd" stroke-miterlimit="10" stroke-width="1"/>
                <path id="Path_885831" data-name="Path 885831" d="M155.778,264.86l2.5,2.19,3.235-4.07" transform="translate(34.934 -11.483)" fill="none" stroke="#95b0bd" stroke-miterlimit="10" stroke-width="1"/>
                <rect id="Rectangle_405903" data-name="Rectangle 405903" width="9.803" height="9.713" transform="translate(188.62 248.756)" fill="none" stroke="#95b0bd" stroke-miterlimit="10" stroke-width="1"/>
                <line id="Line_3253" data-name="Line 3253" x2="65.05" transform="translate(204.759 253.376)" fill="none" stroke="#95b0bd" stroke-miterlimit="10" stroke-width="1"/>
                <rect id="Rectangle_405904" data-name="Rectangle 405904" width="9.803" height="9.713" transform="translate(188.62 268.242)" fill="none" stroke="#95b0bd" stroke-miterlimit="10" stroke-width="1"/>
                <line id="Line_3254" data-name="Line 3254" x2="65.05" transform="translate(204.759 272.862)" fill="none" stroke="#95b0bd" stroke-miterlimit="10" stroke-width="1"/>
                <rect id="Rectangle_405905" data-name="Rectangle 405905" width="9.803" height="9.713" transform="translate(188.62 287.729)" fill="none" stroke="#95b0bd" stroke-miterlimit="10" stroke-width="1"/>
                <line id="Line_3255" data-name="Line 3255" x2="65.05" transform="translate(204.759 292.348)" fill="none" stroke="#95b0bd" stroke-miterlimit="10" stroke-width="1"/>
                <path id="Path_885832" data-name="Path 885832" d="M139.705,308.993v17.632l18.018-16.971Z" transform="translate(29.7 2.942)" fill="#fff"/>
                <path id="Path_885833" data-name="Path 885833" d="M60.59,320.278s4.355-18.73,28.263-19.648c0,0,8.71-2.754,9.822-3.856s-7.536.7-10.748,1.746c0,0-8.535-10.26-19.83-3.764-18.841,10.834-10.841,19.953-7.506,25.523" transform="translate(2.45 -2.198)" fill="#ff424c"/>
                <path id="Path_885834" data-name="Path 885834" d="M83.6,297.4s-8.988.092-14.271,3.856c0,0,2.826-3.294,13.066-5.085A6.9,6.9,0,0,1,83.6,297.4" transform="translate(6.781 -1.078)" fill="#d12a32"/>
                <path id="Path_885835" data-name="Path 885835" d="M264.029,359.247l6.07-22.383a8.547,8.547,0,0,0-16.6-4.055l-7.888,28.7" transform="translate(64.189 8.45)" fill="#fff"/>
                <path id="Path_885836" data-name="Path 885836" d="M285.263,319.881c-3.873.712-22.5,6.713-28.755,14.19L242.881,528.585s41.191,23.233,97.209-4.531l-20-195.078L293.01,317.389Z" transform="translate(63.299 5.574)" fill="#95b0bd"/>
                <path id="Path_885837" data-name="Path 885837" d="M356.629,536.31c0,4.4-27.615,7.971-61.68,7.971s-61.68-3.569-61.68-7.971,27.615-7.971,61.68-7.971,61.68,3.569,61.68,7.971" transform="translate(60.169 71.701)" fill="#c3e8d0"/>
                <path id="Path_885838" data-name="Path 885838" d="M256.654,515.509s2.189,17.625-10.447,22.15c-9.566,3.426-12.233,10.227-10.186,12.758,4.458,5.513,14.255,2.112,19.165-.021s3.728-5.333,7.324-8.427,9.358-.445,9.315-6.784-1.673-18.068-1.673-18.068Z" transform="translate(60.855 67.679)" fill="#333"/>
                <path id="Path_885839" data-name="Path 885839" d="M271.825,530.973c0-.629-.025-1.315-.057-2.033-1.429,2.179-2.72,5.128-4.938,5.042-1.353-.053-2.235-1.24-3.665-.75a4.271,4.271,0,0,0-2.222,2.366c-2.052,4.174-4.587,8.343-8.9,9.565-4.383,1.241-10.1,2.536-13.4-.007a7.507,7.507,0,0,1-2.394-4.127c-1.115,2.119-1.131,4.061-.229,5.177,4.458,5.512,14.4,2.707,19.544-.041,4.719-2.521,3.35-5.313,6.945-8.406s9.358-.446,9.315-6.785" transform="translate(60.855 71.89)"/>
                <path id="Path_885840" data-name="Path 885840" d="M308.336,518.08s.416,5.782,9.793,8.673,21.863,2.93,24.571,5.2.489,7.193-1.609,7.848c-2.193.683-16.295,1.405-23.171-.041s-10-2.272-12.712-1.448a28.731,28.731,0,0,1-8.753,1.445c-3.334,0-5.415-14.661-1.872-20.235s13.754-1.443,13.754-1.443" transform="translate(79.535 68.024)" fill="#333"/>
                <path id="Path_885841" data-name="Path 885841" d="M321.795,563.823c-1.367-21.176,1.446-78.546,1.446-78.546a13.609,13.609,0,0,0-.219-3.479L310.21,385.7l-47.029,5.807L297.6,485.06l4.131,79.641,8.955,1.256a17.49,17.49,0,0,0,11.1-2.134" transform="translate(69.91 26.988)" fill="#3c3187"/>
                <path id="Path_885842" data-name="Path 885842" d="M274.146,496.1l25.519-105.557-39.6-.948-10.95,105.178.925,74.231,5.22,1.386c4.609.306,9.139-.532,12.4-2.547,0,0,3.8-39.414,6.481-71.742" transform="translate(65.33 28.209)" fill="#3c3187"/>
                <path id="Path_885843" data-name="Path 885843" d="M305.008,534.516a28.776,28.776,0,0,1-8.753,1.445c-1.2,0-2.236-1.906-2.907-4.6,2.338.512,5.3,2.18,9,1.1,2.631-.772,2.291-1.956,4.718-2.932,5.5-2.213,9.236,3.066,19.267,4.425,3.874.524,8.5,1.151,12.673-1.345a13.152,13.152,0,0,0,4.019-3.883c1.835,2.434-.2,6.675-2.137,7.279-2.193.684-16.295,1.407-23.171-.039s-10-2.273-12.712-1.447" transform="translate(79.734 71.822)"/>
                <path id="Path_885844" data-name="Path 885844" d="M277.7,434.712l15.18,41.254-9.714-61.25Z" transform="translate(74.637 36.083)" fill="#2e2863"/>
                <path id="Path_885845" data-name="Path 885845" d="M254.751,334.069l-6.473,91.67h80.985l-10.932-96.762-27.078-11.589-7.747,2.492c-3.874.712-22.5,6.714-28.755,14.19" transform="translate(65.057 5.573)"/>
                <path id="Path_885846" data-name="Path 885846" d="M273.935,296.695l10.242.708,3.216,29.028a4.155,4.155,0,0,1-1.4,3.259c-4.072,2.9-6.264,2.217-8.912,2.166a4.375,4.375,0,0,1-4.1-4.363c.756-13.648.953-30.8.953-30.8" transform="translate(73.1 -0.914)" fill="#ffb780"/>
                <path id="Path_885847" data-name="Path 885847" d="M283.436,319.553l-4.294,221.019s-36.283,3.285-38.07-10,8.939-189.209,16.538-199.394,25.826-11.624,25.826-11.624" transform="translate(62.646 6.252)" fill="#fff"/>
                <path id="Path_885848" data-name="Path 885848" d="M275.906,317.962l-10.717,7.244,6.342,8.2-7.164,4.363,9.839,72.287c-.3-.887,1.7-92.1,1.7-92.1" transform="translate(70.297 5.753)" fill="#c3e8d0"/>
                <path id="Path_885849" data-name="Path 885849" d="M283.862,318.612l-.019,221.019s40.6,3.285,42.382-10S318.978,331,308.2,324.184c-10.5-6.643-24.34-5.572-24.34-5.572" transform="translate(76.639 5.937)" fill="#fff"/>
                <path id="Path_885850" data-name="Path 885850" d="M283.636,317.342l10.511,6.372-6.518,8.552,7.751,4.655S283.5,409.368,283.8,408.483s-.162-91.141-.162-91.141" transform="translate(76.571 5.559)" fill="#c3e8d0"/>
                <path id="Path_885851" data-name="Path 885851" d="M273.238,320.278c4.067,2.682,9.234,2.534,13.115-2.475l-2.26-20.4-10.242-.708s-.137,11.781-.612,23.583" transform="translate(73.185 -0.914)" fill="#da8d66"/>
                <path id="Path_885852" data-name="Path 885852" d="M269.453,287.727c-2.574,3.761-.8,19.271-.358,22.773,1.627,12.826,17.626,20.061,23.224.591.764-2.66.734-8.488,1.031-12.9,1.412-20.976-21.782-13.552-23.9-10.463" transform="translate(71.508 -4.925)" fill="#ffb780"/>
                <path id="Path_885853" data-name="Path 885853" d="M283.623,304.269c1.474,1.283,4.18.623,6.041-1.478s2.177-4.843.7-6.126-4.181-.623-6.042,1.478-2.177,4.843-.7,6.126" transform="translate(76.264 -1.128)" fill="#ffb780"/>
                <path id="Path_885854" data-name="Path 885854" d="M273.018,304.768c1.607-1.116,1.6-3.877-.024-6.165s-4.237-3.236-5.845-2.12-1.595,3.877.025,6.165,4.237,3.238,5.843,2.12" transform="translate(70.812 -1.127)" fill="#ffb780"/>
                <path id="Path_885855" data-name="Path 885855" d="M268.56,302.593a18.89,18.89,0,0,0,1.81-6.843s7.181,8.748,18.719.232c0,0,2.471,5.25,4.132,4.958,0,0,1.816-8.222-1.312-12.65s-9.685-4.872-12.515-4.725-10.173,2.019-10.727,4.576c-1.787,8.267-.4,11.941-.106,14.451" transform="translate(71.404 -5.037)"/>
                <rect id="Rectangle_405906" data-name="Rectangle 405906" width="72.512" height="76.171" transform="translate(295.226 361.047)" fill="#a86031"/>
                <path id="Path_885856" data-name="Path 885856" d="M307.13,347.369H234.618l7.493-4.131h72.512Z" transform="translate(60.608 13.677)" fill="#804c2a"/>
                <path id="Path_885857" data-name="Path 885857" d="M296.81,419.408l-7.493,4.133V347.371l7.493-4.133Z" transform="translate(78.421 13.676)" fill="#804c2a"/>
                <path id="Path_885858" data-name="Path 885858" d="M294.615,358.194l-59.979.037-.018-8.6,72.513-3.247v3.247Z" transform="translate(60.608 14.663)" fill="#804c2a"/>
                <path id="Path_885859" data-name="Path 885859" d="M297.689,354.946H225.178l12.514-8.561H310.2Z" transform="translate(57.534 14.663)" fill="#d9854c"/>
                <path id="Path_885860" data-name="Path 885860" d="M307.13,347.369H234.618l7.493-4.131h72.512Z" transform="translate(60.608 13.677)" fill="#d9854c"/>
                <path id="Path_885861" data-name="Path 885861" d="M242.132,343.237h-.021l-7.494,4.131h7.515Z" transform="translate(60.608 13.677)" fill="#804c2a"/>
                <path id="Path_885862" data-name="Path 885862" d="M237.647,346.84h68.5l3.477-1.916h-68.5Z" transform="translate(61.595 14.205)" fill="#a86031"/>
                <path id="Path_885863" data-name="Path 885863" d="M298.236,399.166s-10.935,10.985-19.757,10.327c-2.153-.16-13.544,2.694-5.47-1.4,5.073-2.576,13.511-5.37,11.979-8.2-1.5-2.76-6.641,5.3-10.095.868l9.053-5.9a2.436,2.436,0,0,1,1.021-.376l7.209-.927Z" transform="translate(72.18 29.451)" fill="#ffb780"/>
                <path id="Path_885864" data-name="Path 885864" d="M320.856,357.435,312.71,328.8a8.547,8.547,0,0,0-16.56,4.2l7.147,30.717,3.913,16.823-22.177,33.169,7.238,8.915,34.573-35.872a4.534,4.534,0,0,0,1.1-4.394Z" transform="translate(77.026 7.217)" fill="#fff"/>
                <path id="Path_885865" data-name="Path 885865" d="M307.651,362.62a33.5,33.5,0,0,0-5.89,5.391,5.836,5.836,0,0,1,5.89-5.391" transform="translate(82.474 19.752)" fill="#c5e9fa"/>
                <path id="Path_885866" data-name="Path 885866" d="M246.516,406.718s14.175,6.387,22.178,2.649c1.953-.913,13.62-2.28,4.6-3.248-5.667-.609-14.554-.231-14.143-3.412.4-3.108,8.114,2.594,9.741-2.764l-10.583-2.3a2.436,2.436,0,0,0-1.088.01l-7.067,1.686Z" transform="translate(64.483 30.712)" fill="#ffb780"/>
                <path id="Path_885867" data-name="Path 885867" d="M254.179,398.5l.587,15.521-7.978,1.992c-1.9.633-5.444-1.89-6.1-3.764l-4.917-5.979s2.467-4.08,18.408-7.771" transform="translate(60.984 31.001)" fill="#fff"/>
                <path id="Path_885868" data-name="Path 885868" d="M307.432,348.847l-7.493,4.133-10.622-5.61,7.494-4.134Z" transform="translate(78.421 13.676)" fill="#d9854c"/>
                <path id="Path_885869" data-name="Path 885869" d="M270.121,303.837h0a46.808,46.808,0,0,0,18.958-.025l.215-.045s-.982,11.413-9.832,11.413c-5.592,0-8.919-6.4-9.34-11.343" transform="translate(72.17 1.304)" fill="#fff"/>
                <path id="Path_885870" data-name="Path 885870" d="M288.3,295.887s-1.546,9.046-4.776,12.943" transform="translate(76.535 -1.167)" fill="#fff"/>
                <path id="Path_885871" data-name="Path 885871" d="M267.9,295.834s.968,8.845,4.2,12.742" transform="translate(71.445 -1.183)" fill="#fff"/>
                <path id="Path_885898" data-name="Path 885898" d="M0,0,60.76.029l.006,11.806L.006,11.806Z" transform="translate(446.605 444.095) rotate(-88.702)" fill="#ffb780"/>
                <path id="Path_885872" data-name="Path 885872" d="M349.054,408.88l-.847,14.323s5.664,1.708,7.634-13.665Z" transform="translate(97.599 34.254)" fill="#ffb780"/>
                <path id="Path_885873" data-name="Path 885873" d="M349.254,413.747,347.452,432s2.4.275,3.049-2.928.923-13.086.923-13.086Z" transform="translate(97.353 35.78)" fill="#ffb780"/>
                <path id="Path_885874" data-name="Path 885874" d="M368.176,334.088s-14.256,6.313-15.884,12.867-3.581,27.381-3.581,27.381l11.8,1Z" transform="translate(97.763 10.809)" fill="#fff"/>
                <path id="Path_885875" data-name="Path 885875" d="M351.488,372.137s-2.771-18.059,9.79-30.046l-2.032,30.534Z" transform="translate(98.583 13.317)" fill="#c3e8d0"/>
                <path id="Path_885876" data-name="Path 885876" d="M457.087,540.843c.2,4.36-26.982,9.116-60.709,10.624s-61.23-.8-61.429-5.162,26.982-9.114,60.71-10.624,61.23.8,61.429,5.162" transform="translate(93.281 73.858)" fill="#c3e8d0"/>
                <path id="Path_885877" data-name="Path 885877" d="M397.814,524.233s3.879,17.175-8.143,22.849c-9.1,4.3-11.069,11.259-8.8,13.56,4.935,5.01,14.267.719,18.9-1.857s3.158-5.618,6.4-9.013,9.187-1.336,8.527-7.585-3.412-17.661-3.412-17.661Z" transform="translate(107.954 70.414)" fill="#333"/>
                <path id="Path_885878" data-name="Path 885878" d="M363.955,528.682s-.066,5.744-9.171,9.155-21.454,4.178-24,6.585-.056,7.144,2.06,7.669c2.21.548,16.2.436,22.922-1.4s9.76-2.833,12.489-2.175a28.5,28.5,0,0,0,8.747.915c3.3-.2,4.483-14.821.646-20.129s-13.694-.623-13.694-.623" transform="translate(91.575 71.21)" fill="#333"/>
                <path id="Path_885879" data-name="Path 885879" d="M356.291,572.779c.09-20.866-13.767-78.873-13.767-78.873a13.3,13.3,0,0,1,.011-3.428l14.6-93.217,46.875,2.964L367.876,492.2l8.315,80.272-8.785,1.753a17.462,17.462,0,0,1-11.114-1.449" transform="translate(95.714 30.612)" fill="#3c3187"/>
                <path id="Path_885880" data-name="Path 885880" d="M367.461,411.617s-13.071,28.392-1.685,65.93l17.484-44.5c-5.838-7.748-15.8-21.433-15.8-21.433" transform="translate(101.803 35.112)" fill="#2e2863"/>
                <path id="Path_885881" data-name="Path 885881" d="M403.527,575.856c-3.3-27.421-15.933-61.055-22.777-71.63a17.52,17.52,0,0,1-2.763-8.3l-17.326-95.951,38.909-1.92,4.859,14.932a51.158,51.158,0,0,1,1,15.322l-2.879,15.054,2.132,51.3c9.456,16.594,8.093,21,10.424,49.5l5.378,30.676-6.034,1.979a13.908,13.908,0,0,1-10.918-.965" transform="translate(101.654 30.861)" fill="#3c3187"/>
                <path id="Path_885882" data-name="Path 885882" d="M369.066,334.3c9.766-3.649,31.67-6.2,41.768,9.423,9.94,15.374-2.833,40.753-3.695,53.687-.738,11.071-1.893,29.734-1.893,29.734l-11.435,1.5a96.988,96.988,0,0,1-43.688-3.753l4.629-34.183c-2.089-22.907-2.8-24.7,1.214-36.273,1.676-4.835,7.14-17.245,11.748-19.544a14.175,14.175,0,0,1,1.351-.59" transform="translate(98.223 10.009)" fill="#fff"/>
                <path id="Path_885883" data-name="Path 885883" d="M387.522,332.142a36.733,36.733,0,0,1,5.266,1.566l-25.06,19.34.742-20.388,2.712-.709Z" transform="translate(103.955 10.138)" fill="#3c3187"/>
                <path id="Path_885884" data-name="Path 885884" d="M365.525,306.644l18.746,9.842,3.354,22.891a3.851,3.851,0,0,1-.7,3.219c-6.1,6.374-12.61,5.073-12.61,5.073-6.107-.269-2.772-5.788-3.184-12.462Z" transform="translate(103.238 2.205)" fill="#ffb780"/>
                <path id="Path_885885" data-name="Path 885885" d="M375.457,305.16l-9.933,1.949,5.609,28.563a26.116,26.116,0,0,1-.142,4.26c3.078-1.077,9.813-5.129,12.125-9.964,1.14-2.385.811-5.091.581-9.307-.472-8.586-4.11-13.233-8.239-15.5" transform="translate(103.238 1.74)" fill="#da8d66"/>
                <path id="Path_885886" data-name="Path 885886" d="M362.535,304.843c-1.687,3.88.555,7.417-1.42,14.058-1.222,4.109,1.373,8.406,2.4,11.527,3.75,11.431,9.721,8.85,20.472.081,2-1.635,1.99-8.247,1.481-12.33-2.417-19.4-21.544-16.526-22.931-13.337" transform="translate(101.698 0.92)" fill="#ffb780"/>
                <path id="Path_885887" data-name="Path 885887" d="M399.973,319.516c-2.454-25.047-28.558-24.609-35.827-19.206-6.781,5.044-2.312,8.543-2.312,8.543a2.865,2.865,0,0,1,1.918-1.777c4.269-.182,19.366.013,17.122,12.185-.566,3.068,2.126,3.679,5.109,3.268.933,3.4,2.047,10.832,2.427,11.229,3.143,3.277,13.06,1.052,11.562-14.242" transform="translate(101.566 -0.718)" fill="#3c3187"/>
                <path id="Path_885888" data-name="Path 885888" d="M377.074,321.815c1.574.917,3.927-.156,5.256-2.4s1.132-4.8-.441-5.717-3.928.158-5.256,2.4-1.132,4.8.441,5.718" transform="translate(106.569 4.314)" fill="#ffb780"/>
                <path id="Path_885889" data-name="Path 885889" d="M414.939,362.49l12.115,23.3a4.927,4.927,0,0,1,.662,4.877l-32.81,26.566-6.273-6.412,21.468-21-8.854-16.8" transform="translate(110.763 19.712)" fill="#ffb780"/>
                <path id="Path_885890" data-name="Path 885890" d="M403.136,381.847l-19.063-28.87c-3.428-4.923.734-13.2,6.382-15.311,3.839-1.436,9.472,2.959,11.963,6.192l17.432,27.624" transform="translate(108.874 11.842)" fill="#fff"/>
                <path id="Path_885891" data-name="Path 885891" d="M410.219,379.22c-1,1.613-2.674,2.765-3.929,4.152-.434.448-.847.914-1.359,1.407a5.27,5.27,0,0,1,1.747-3.641,8.232,8.232,0,0,1,3.541-1.918" transform="translate(116.071 24.956)" fill="#da8d66"/>
                <path id="Path_885892" data-name="Path 885892" d="M398.668,412.2l-1.527-11.515-8.065-1.595L387.695,413.8a1.5,1.5,0,0,0,.426,1.19L394.029,421a1.526,1.526,0,0,0,.9.444l5.865.715a1.526,1.526,0,0,0,1.537-.8l3.025-5.778a1.508,1.508,0,0,0-1.456-2.2l-3.611.246a1.517,1.517,0,0,1-1.624-1.428" transform="translate(110.456 31.184)" fill="#ffb780"/>
                <path id="Path_885893" data-name="Path 885893" d="M368.255,544.569a28.492,28.492,0,0,0,8.745.917c1.188-.071,2.1-2.016,2.6-4.719-2.284.644-5.113,2.467-8.842,1.61-2.649-.609-2.384-1.8-4.843-2.624-5.572-1.866-8.953,3.575-18.8,5.506-3.8.746-8.34,1.637-12.618-.587a13.068,13.068,0,0,1-4.209-3.607c-1.67,2.515.594,6.592,2.548,7.077,2.211.548,16.2.438,22.922-1.4s9.761-2.834,12.49-2.176" transform="translate(91.576 75.159)"/>
                <path id="Path_885894" data-name="Path 885894" d="M414.7,538.379c-.065-.621-.154-1.294-.256-2-1.2,2.287-2.181,5.318-4.379,5.447-1.339.079-2.325-1.009-3.689-.387a4.218,4.218,0,0,0-1.961,2.544c-1.617,4.315-3.709,8.67-7.841,10.287-4.2,1.644-9.718,3.47-13.221,1.278a7.471,7.471,0,0,1-2.765-3.842c-.892,2.2-.717,4.115.28,5.128,4.935,5.011,14.467,1.291,19.274-1.912,4.409-2.938,2.786-5.561,6.032-8.957s9.185-1.336,8.527-7.586" transform="translate(107.955 74.222)"/>
                <path id="Path_885895" data-name="Path 885895" d="M360.779,317.12s1.749,5.5,19.058,1.42c0,0-1.931,11.883-10.725,11.193-5.557-.435-8.328-7.4-8.333-12.613" transform="translate(101.693 5.49)" fill="#fff"/>
                <path id="Path_885896" data-name="Path 885896" d="M378.245,314.869a13.773,13.773,0,0,1-5.851,9.253" transform="translate(105.475 4.783)" fill="#fff"/>
                <path id="Path_885897" data-name="Path 885897" d="M398.379,371.6l-9.194-14.256,7.377,21Z" transform="translate(110.943 18.1)" fill="#c3e8d0"/>
              </g>
            </g>
          </g>
        </g>
      </g>
      <g id="Group_1111398" data-name="Group 1111398" transform="translate(21 -15)">
        <path id="Path_886354" data-name="Path 886354" d="M11,0H259a11,11,0,0,1,11,11V44a11,11,0,0,1-11,11H11A11,11,0,0,1,0,44V11A11,11,0,0,1,11,0Z" transform="translate(978.711 6350)" fill="#fdeee0"/>
        <path id="Path_886355" data-name="Path 886355" d="M11,0H259a11,11,0,0,1,11,11V44a11,11,0,0,1-11,11H11A11,11,0,0,1,0,44V11A11,11,0,0,1,11,0Z" transform="translate(978.711 6477)" fill="#fdeee0"/>
        <path id="Path_886356" data-name="Path 886356" d="M11,0H259a11,11,0,0,1,11,11V44a11,11,0,0,1-11,11H11A11,11,0,0,1,0,44V11A11,11,0,0,1,11,0Z" transform="translate(978.711 6604)" fill="#fdeee0"/>
        <path id="Path_886357" data-name="Path 886357" d="M11,0H273a11,11,0,0,1,11,11V44a11,11,0,0,1-11,11H11A11,11,0,0,1,0,44V11A11,11,0,0,1,11,0Z" transform="translate(634.711 6236)" fill="#fdeee0"/>
        <path id="Path_886358" data-name="Path 886358" d="M11,0H262a11,11,0,0,1,11,11V44a11,11,0,0,1-11,11H11A11,11,0,0,1,0,44V11A11,11,0,0,1,11,0Z" transform="translate(975.711 6236)" fill="#fdeee0"/>
        <path id="Path_886359" data-name="Path 886359" d="M39.189,16.882H45.64V19H35.893V17.453l6.328-9.114H35.9V6.2h9.6V7.715Zm7.365-2.725a5.64,5.64,0,0,1,.545-2.522,3.989,3.989,0,0,1,1.569-1.714,4.577,4.577,0,0,1,2.377-.606,4.33,4.33,0,0,1,3.142,1.178,4.727,4.727,0,0,1,1.358,3.2l.018.65a4.97,4.97,0,0,1-1.222,3.511,4.735,4.735,0,0,1-6.561,0,5.058,5.058,0,0,1-1.226-3.586Zm2.54.18a3.555,3.555,0,0,0,.51,2.073,1.831,1.831,0,0,0,2.9.009,3.89,3.89,0,0,0,.519-2.267,3.519,3.519,0,0,0-.519-2.06,1.686,1.686,0,0,0-1.459-.731,1.658,1.658,0,0,0-1.441.726A3.955,3.955,0,0,0,49.094,14.338ZM59.465,9.49l.079,1.1a3.32,3.32,0,0,1,2.733-1.274,2.759,2.759,0,0,1,2.25.888,4.142,4.142,0,0,1,.756,2.654V19h-2.54V12.918a1.648,1.648,0,0,0-.352-1.173,1.574,1.574,0,0,0-1.169-.365,1.747,1.747,0,0,0-1.608.914V19h-2.54V9.49ZM72.719,19a2.821,2.821,0,0,1-.255-.853,3.073,3.073,0,0,1-2.4,1.028,3.376,3.376,0,0,1-2.316-.809,2.6,2.6,0,0,1-.918-2.039,2.687,2.687,0,0,1,1.121-2.32,5.529,5.529,0,0,1,3.239-.817h1.169v-.545a1.567,1.567,0,0,0-.338-1.055,1.331,1.331,0,0,0-1.068-.4,1.513,1.513,0,0,0-1.006.308,1.045,1.045,0,0,0-.365.844h-2.54a2.551,2.551,0,0,1,.51-1.529,3.37,3.37,0,0,1,1.441-1.1,5.253,5.253,0,0,1,2.092-.4,4.15,4.15,0,0,1,2.791.883,3.09,3.09,0,0,1,1.033,2.483V16.8a4.546,4.546,0,0,0,.378,2.048V19Zm-2.1-1.767a2.188,2.188,0,0,0,1.037-.25,1.645,1.645,0,0,0,.7-.672V14.676H71.41q-1.907,0-2.03,1.318l-.009.149a1.017,1.017,0,0,0,.334.782A1.3,1.3,0,0,0,70.619,17.233Zm10.327-3.059a5.731,5.731,0,0,1,1-3.542,3.237,3.237,0,0,1,2.729-1.318,2.913,2.913,0,0,1,2.294,1.037V5.5h2.549V19H87.221L87.1,17.989a2.989,2.989,0,0,1-2.443,1.187,3.228,3.228,0,0,1-2.694-1.323A5.916,5.916,0,0,1,80.946,14.175Zm2.54.189a3.754,3.754,0,0,0,.466,2.051,1.517,1.517,0,0,0,1.354.713,1.7,1.7,0,0,0,1.661-.995V12.375a1.675,1.675,0,0,0-1.644-.995Q83.486,11.38,83.486,14.364Zm12.375,4.812a4.668,4.668,0,0,1-3.406-1.283,4.561,4.561,0,0,1-1.314-3.419v-.246a5.745,5.745,0,0,1,.554-2.562,4.064,4.064,0,0,1,1.569-1.74,4.4,4.4,0,0,1,2.316-.611,3.947,3.947,0,0,1,3.072,1.23,5,5,0,0,1,1.121,3.489v1.037H93.716a2.36,2.36,0,0,0,.743,1.494,2.245,2.245,0,0,0,1.569.563,2.742,2.742,0,0,0,2.294-1.063l1.248,1.4a3.813,3.813,0,0,1-1.547,1.261A5.075,5.075,0,0,1,95.861,19.176Zm-.29-7.813a1.587,1.587,0,0,0-1.226.512,2.651,2.651,0,0,0-.6,1.466h3.533v-.2a1.891,1.891,0,0,0-.457-1.311A1.638,1.638,0,0,0,95.571,11.362Zm14.08,5.766a1.666,1.666,0,0,0,1.143-.387,1.355,1.355,0,0,0,.457-1.028h2.382a3.258,3.258,0,0,1-.527,1.771,3.48,3.48,0,0,1-1.419,1.248,4.442,4.442,0,0,1-1.991.444,4.129,4.129,0,0,1-3.217-1.3A5.13,5.13,0,0,1,105.3,14.3v-.167a5.071,5.071,0,0,1,1.169-3.507,4.08,4.08,0,0,1,3.208-1.31,4,4,0,0,1,2.861,1.015,3.594,3.594,0,0,1,1.094,2.7H111.25a1.745,1.745,0,0,0-.457-1.206,1.7,1.7,0,0,0-2.5.183,3.749,3.749,0,0,0-.453,2.1v.264a3.8,3.8,0,0,0,.448,2.113A1.549,1.549,0,0,0,109.651,17.128Zm11.127.905a3.185,3.185,0,0,1-2.6,1.143,3,3,0,0,1-2.333-.879,3.752,3.752,0,0,1-.822-2.575V9.49h2.54v6.151q0,1.487,1.354,1.487a1.834,1.834,0,0,0,1.775-.9V9.49h2.549V19h-2.391Zm9.888.967a2.821,2.821,0,0,1-.255-.853,3.073,3.073,0,0,1-2.4,1.028,3.376,3.376,0,0,1-2.316-.809,2.6,2.6,0,0,1-.918-2.039,2.687,2.687,0,0,1,1.121-2.32,5.529,5.529,0,0,1,3.239-.817h1.169v-.545a1.567,1.567,0,0,0-.338-1.055,1.331,1.331,0,0,0-1.068-.4,1.513,1.513,0,0,0-1.006.308,1.045,1.045,0,0,0-.365.844h-2.54a2.551,2.551,0,0,1,.51-1.529,3.37,3.37,0,0,1,1.441-1.1,5.253,5.253,0,0,1,2.092-.4,4.15,4.15,0,0,1,2.791.883,3.09,3.09,0,0,1,1.033,2.483V16.8a4.546,4.546,0,0,0,.378,2.048V19Zm-2.1-1.767a2.188,2.188,0,0,0,1.037-.25,1.645,1.645,0,0,0,.7-.672V14.676h-.949q-1.907,0-2.03,1.318l-.009.149a1.017,1.017,0,0,0,.334.782A1.3,1.3,0,0,0,128.565,17.233Zm11.584-5.361a6.9,6.9,0,0,0-.914-.07,1.86,1.86,0,0,0-1.89.976V19h-2.54V9.49h2.4l.07,1.134a2.354,2.354,0,0,1,2.118-1.31,2.662,2.662,0,0,1,.791.114Zm5.6,7.3a4.668,4.668,0,0,1-3.406-1.283,4.561,4.561,0,0,1-1.314-3.419v-.246a5.745,5.745,0,0,1,.554-2.562,4.064,4.064,0,0,1,1.569-1.74,4.4,4.4,0,0,1,2.316-.611,3.947,3.947,0,0,1,3.072,1.23,5,5,0,0,1,1.121,3.489v1.037H143.6a2.36,2.36,0,0,0,.743,1.494,2.245,2.245,0,0,0,1.569.563,2.742,2.742,0,0,0,2.294-1.063l1.248,1.4a3.813,3.813,0,0,1-1.547,1.261A5.075,5.075,0,0,1,145.748,19.176Zm-.29-7.813a1.587,1.587,0,0,0-1.226.512,2.651,2.651,0,0,0-.6,1.466h3.533v-.2a1.891,1.891,0,0,0-.457-1.311A1.638,1.638,0,0,0,145.458,11.362Zm7.98-1.872.079,1.1a3.32,3.32,0,0,1,2.733-1.274,2.759,2.759,0,0,1,2.25.888,4.142,4.142,0,0,1,.756,2.654V19h-2.54V12.918a1.648,1.648,0,0,0-.352-1.173,1.574,1.574,0,0,0-1.169-.365,1.747,1.747,0,0,0-1.608.914V19h-2.54V9.49Zm10.784-2.338V9.49h1.626v1.863h-1.626V16.1a1.133,1.133,0,0,0,.2.756,1.015,1.015,0,0,0,.773.229,4.051,4.051,0,0,0,.747-.062v1.925a5.229,5.229,0,0,1-1.538.229,2.425,2.425,0,0,1-2.725-2.7V11.354h-1.389V9.49h1.389V7.152Zm7.418,12.023a4.668,4.668,0,0,1-3.406-1.283,4.561,4.561,0,0,1-1.314-3.419v-.246a5.745,5.745,0,0,1,.554-2.562,4.064,4.064,0,0,1,1.569-1.74,4.4,4.4,0,0,1,2.316-.611,3.947,3.947,0,0,1,3.072,1.23,5,5,0,0,1,1.121,3.489v1.037H169.5a2.36,2.36,0,0,0,.743,1.494,2.245,2.245,0,0,0,1.569.563,2.742,2.742,0,0,0,2.294-1.063l1.248,1.4a3.813,3.813,0,0,1-1.547,1.261A5.075,5.075,0,0,1,171.64,19.176Zm-.29-7.813a1.587,1.587,0,0,0-1.226.512,2.651,2.651,0,0,0-.6,1.466h3.533v-.2a1.891,1.891,0,0,0-.457-1.311A1.638,1.638,0,0,0,171.35,11.362Zm7.98-1.872.079,1.1a3.32,3.32,0,0,1,2.733-1.274,2.759,2.759,0,0,1,2.25.888,4.142,4.142,0,0,1,.756,2.654V19h-2.54V12.918a1.648,1.648,0,0,0-.352-1.173,1.574,1.574,0,0,0-1.169-.365,1.747,1.747,0,0,0-1.608.914V19h-2.54V9.49ZM192.584,19a2.821,2.821,0,0,1-.255-.853,3.073,3.073,0,0,1-2.4,1.028,3.376,3.376,0,0,1-2.316-.809,2.6,2.6,0,0,1-.918-2.039,2.687,2.687,0,0,1,1.121-2.32,5.529,5.529,0,0,1,3.239-.817h1.169v-.545a1.567,1.567,0,0,0-.338-1.055,1.331,1.331,0,0,0-1.068-.4,1.513,1.513,0,0,0-1.006.308,1.045,1.045,0,0,0-.365.844h-2.54a2.551,2.551,0,0,1,.51-1.529,3.37,3.37,0,0,1,1.441-1.1,5.253,5.253,0,0,1,2.092-.4,4.15,4.15,0,0,1,2.791.883,3.09,3.09,0,0,1,1.033,2.483V16.8a4.546,4.546,0,0,0,.378,2.048V19Zm-2.1-1.767a2.188,2.188,0,0,0,1.037-.25,1.645,1.645,0,0,0,.7-.672V14.676h-.949q-1.907,0-2.03,1.318l-.009.149a1.017,1.017,0,0,0,.334.782A1.3,1.3,0,0,0,190.484,17.233Z" transform="translate(998.711 6366)" fill="#12263f"/>
        <path id="Path_886360" data-name="Path 886360" d="M54.946,19H52.31V6.2h2.637Zm4.614-9.51.079,1.1a3.32,3.32,0,0,1,2.733-1.274,2.759,2.759,0,0,1,2.25.888,4.142,4.142,0,0,1,.756,2.654V19h-2.54V12.918a1.648,1.648,0,0,0-.352-1.173,1.574,1.574,0,0,0-1.169-.365,1.747,1.747,0,0,0-1.608.914V19H57.17V9.49Zm11.3,6.407L72.63,9.49h2.654L72.076,19H69.65L66.442,9.49H69.1Zm9.914,3.278a4.668,4.668,0,0,1-3.406-1.283,4.561,4.561,0,0,1-1.314-3.419v-.246a5.745,5.745,0,0,1,.554-2.562,4.064,4.064,0,0,1,1.569-1.74A4.4,4.4,0,0,1,80.5,9.314a3.947,3.947,0,0,1,3.072,1.23,5,5,0,0,1,1.121,3.489v1.037H78.633a2.36,2.36,0,0,0,.743,1.494,2.245,2.245,0,0,0,1.569.563,2.742,2.742,0,0,0,2.294-1.063l1.248,1.4a3.813,3.813,0,0,1-1.547,1.261A5.075,5.075,0,0,1,80.777,19.176Zm-.29-7.813a1.587,1.587,0,0,0-1.226.512,2.651,2.651,0,0,0-.6,1.466h3.533v-.2a1.891,1.891,0,0,0-.457-1.311A1.638,1.638,0,0,0,80.487,11.362Zm7.98-1.872.079,1.1A3.32,3.32,0,0,1,91.28,9.314a2.759,2.759,0,0,1,2.25.888,4.142,4.142,0,0,1,.756,2.654V19h-2.54V12.918a1.648,1.648,0,0,0-.352-1.173,1.574,1.574,0,0,0-1.169-.365,1.747,1.747,0,0,0-1.608.914V19h-2.54V9.49ZM99.252,7.152V9.49h1.626v1.863H99.252V16.1a1.133,1.133,0,0,0,.2.756,1.015,1.015,0,0,0,.773.229,4.051,4.051,0,0,0,.747-.062v1.925a5.229,5.229,0,0,1-1.538.229,2.425,2.425,0,0,1-2.725-2.7V11.354H95.323V9.49h1.389V7.152ZM107.8,19a2.821,2.821,0,0,1-.255-.853,3.073,3.073,0,0,1-2.4,1.028,3.376,3.376,0,0,1-2.316-.809,2.6,2.6,0,0,1-.918-2.039,2.687,2.687,0,0,1,1.121-2.32,5.529,5.529,0,0,1,3.239-.817h1.169v-.545a1.567,1.567,0,0,0-.338-1.055,1.331,1.331,0,0,0-1.068-.4,1.513,1.513,0,0,0-1.006.308,1.045,1.045,0,0,0-.365.844h-2.54a2.551,2.551,0,0,1,.51-1.529,3.37,3.37,0,0,1,1.441-1.1,5.253,5.253,0,0,1,2.092-.4,4.15,4.15,0,0,1,2.791.883,3.09,3.09,0,0,1,1.033,2.483V16.8a4.546,4.546,0,0,0,.378,2.048V19Zm-2.1-1.767a2.188,2.188,0,0,0,1.037-.25,1.645,1.645,0,0,0,.7-.672V14.676h-.949q-1.907,0-2.03,1.318l-.009.149a1.017,1.017,0,0,0,.334.782A1.3,1.3,0,0,0,105.7,17.233Zm11.584-5.361a6.9,6.9,0,0,0-.914-.07,1.86,1.86,0,0,0-1.89.976V19h-2.54V9.49h2.4l.07,1.134a2.354,2.354,0,0,1,2.118-1.31,2.662,2.662,0,0,1,.791.114Zm3.9,7.128h-2.549V9.49h2.549Zm-2.7-11.971a1.251,1.251,0,0,1,.382-.94,1.648,1.648,0,0,1,2.079,0,1.244,1.244,0,0,1,.387.94,1.247,1.247,0,0,1-.391.949,1.629,1.629,0,0,1-2.065,0A1.247,1.247,0,0,1,118.491,7.029Zm4.395,7.128a5.64,5.64,0,0,1,.545-2.522A3.989,3.989,0,0,1,125,9.921a4.577,4.577,0,0,1,2.377-.606,4.33,4.33,0,0,1,3.142,1.178,4.727,4.727,0,0,1,1.358,3.2l.018.65a4.97,4.97,0,0,1-1.222,3.511,4.735,4.735,0,0,1-6.561,0,5.058,5.058,0,0,1-1.226-3.586Zm2.54.18a3.555,3.555,0,0,0,.51,2.073,1.831,1.831,0,0,0,2.9.009,3.89,3.89,0,0,0,.519-2.267,3.519,3.519,0,0,0-.519-2.06,1.686,1.686,0,0,0-1.459-.731,1.658,1.658,0,0,0-1.441.726A3.955,3.955,0,0,0,125.426,14.338ZM143.452,19a2.821,2.821,0,0,1-.255-.853,3.073,3.073,0,0,1-2.4,1.028,3.376,3.376,0,0,1-2.316-.809,2.6,2.6,0,0,1-.918-2.039,2.687,2.687,0,0,1,1.121-2.32,5.529,5.529,0,0,1,3.239-.817h1.169v-.545a1.567,1.567,0,0,0-.338-1.055,1.331,1.331,0,0,0-1.068-.4,1.513,1.513,0,0,0-1.006.308,1.045,1.045,0,0,0-.365.844h-2.54a2.551,2.551,0,0,1,.51-1.529,3.37,3.37,0,0,1,1.441-1.1,5.253,5.253,0,0,1,2.092-.4,4.15,4.15,0,0,1,2.791.883,3.09,3.09,0,0,1,1.033,2.483V16.8a4.546,4.546,0,0,0,.378,2.048V19Zm-2.1-1.767a2.188,2.188,0,0,0,1.037-.25,1.645,1.645,0,0,0,.7-.672V14.676h-.949q-1.907,0-2.03,1.318l-.009.149a1.017,1.017,0,0,0,.334.782A1.3,1.3,0,0,0,141.352,17.233Zm10.2-.105a1.666,1.666,0,0,0,1.143-.387,1.355,1.355,0,0,0,.457-1.028h2.382A3.258,3.258,0,0,1,155,17.484a3.48,3.48,0,0,1-1.419,1.248,4.442,4.442,0,0,1-1.991.444,4.129,4.129,0,0,1-3.217-1.3A5.13,5.13,0,0,1,147.2,14.3v-.167a5.071,5.071,0,0,1,1.169-3.507,4.08,4.08,0,0,1,3.208-1.31,4,4,0,0,1,2.861,1.015,3.594,3.594,0,0,1,1.094,2.7h-2.382a1.745,1.745,0,0,0-.457-1.206,1.7,1.7,0,0,0-2.5.183,3.749,3.749,0,0,0-.453,2.1v.264a3.8,3.8,0,0,0,.448,2.113A1.549,1.549,0,0,0,151.547,17.128Zm8.473-9.976V9.49h1.626v1.863H160.02V16.1a1.133,1.133,0,0,0,.2.756,1.015,1.015,0,0,0,.773.229,4.051,4.051,0,0,0,.747-.062v1.925a5.229,5.229,0,0,1-1.538.229,2.425,2.425,0,0,1-2.725-2.7V11.354h-1.389V9.49h1.389V7.152ZM165.741,19h-2.549V9.49h2.549Zm-2.7-11.971a1.251,1.251,0,0,1,.382-.94,1.648,1.648,0,0,1,2.079,0,1.244,1.244,0,0,1,.387.94,1.247,1.247,0,0,1-.391.949,1.629,1.629,0,0,1-2.065,0A1.247,1.247,0,0,1,163.043,7.029Zm8.35,8.868,1.767-6.407h2.654L172.605,19H170.18l-3.208-9.51h2.654Zm5.01-1.74a5.64,5.64,0,0,1,.545-2.522,3.989,3.989,0,0,1,1.569-1.714,4.577,4.577,0,0,1,2.377-.606,4.33,4.33,0,0,1,3.142,1.178,4.727,4.727,0,0,1,1.358,3.2l.018.65a4.97,4.97,0,0,1-1.222,3.511,4.735,4.735,0,0,1-6.561,0,5.058,5.058,0,0,1-1.226-3.586Zm2.54.18a3.555,3.555,0,0,0,.51,2.073,1.831,1.831,0,0,0,2.9.009,3.89,3.89,0,0,0,.519-2.267,3.519,3.519,0,0,0-.519-2.06,1.686,1.686,0,0,0-1.459-.731,1.658,1.658,0,0,0-1.441.726A3.955,3.955,0,0,0,178.942,14.338Z" transform="translate(998.711 6491)" fill="#12263f"/>
        <path id="Path_886361" data-name="Path 886361" d="M104.325,13.454H99.263v3.428H105.2V19H96.626V6.2h8.561V8.339H99.263v3.05h5.063Zm4.6-3.964.079,1.1a3.32,3.32,0,0,1,2.733-1.274,2.759,2.759,0,0,1,2.25.888,4.142,4.142,0,0,1,.756,2.654V19H112.2V12.918a1.648,1.648,0,0,0-.352-1.173,1.574,1.574,0,0,0-1.169-.365,1.747,1.747,0,0,0-1.608.914V19h-2.54V9.49Zm10.784-2.338V9.49h1.626v1.863h-1.626V16.1a1.133,1.133,0,0,0,.2.756,1.015,1.015,0,0,0,.773.229,4.051,4.051,0,0,0,.747-.062v1.925a5.229,5.229,0,0,1-1.538.229,2.425,2.425,0,0,1-2.725-2.7V11.354h-1.389V9.49h1.389V7.152Zm8.385,4.72a6.9,6.9,0,0,0-.914-.07,1.86,1.86,0,0,0-1.89.976V19h-2.54V9.49h2.4l.07,1.134a2.354,2.354,0,0,1,2.118-1.31,2.662,2.662,0,0,1,.791.114ZM134.56,19a2.821,2.821,0,0,1-.255-.853,3.073,3.073,0,0,1-2.4,1.028,3.376,3.376,0,0,1-2.316-.809,2.6,2.6,0,0,1-.918-2.039,2.687,2.687,0,0,1,1.121-2.32,5.529,5.529,0,0,1,3.239-.817H134.2v-.545a1.567,1.567,0,0,0-.338-1.055,1.331,1.331,0,0,0-1.068-.4,1.513,1.513,0,0,0-1.006.308,1.045,1.045,0,0,0-.365.844h-2.54a2.551,2.551,0,0,1,.51-1.529,3.37,3.37,0,0,1,1.441-1.1,5.253,5.253,0,0,1,2.092-.4,4.15,4.15,0,0,1,2.791.883,3.09,3.09,0,0,1,1.033,2.483V16.8a4.546,4.546,0,0,0,.378,2.048V19Zm-2.1-1.767a2.188,2.188,0,0,0,1.037-.25,1.645,1.645,0,0,0,.7-.672V14.676h-.949q-1.907,0-2.03,1.318l-.009.149a1.017,1.017,0,0,0,.334.782A1.3,1.3,0,0,0,132.459,17.233Zm5.845-3.059a5.731,5.731,0,0,1,1-3.542,3.237,3.237,0,0,1,2.729-1.318,2.913,2.913,0,0,1,2.294,1.037V5.5h2.549V19h-2.294l-.123-1.011a2.989,2.989,0,0,1-2.443,1.187,3.228,3.228,0,0,1-2.694-1.323A5.916,5.916,0,0,1,138.3,14.175Zm2.54.189a3.754,3.754,0,0,0,.466,2.051,1.517,1.517,0,0,0,1.354.713,1.7,1.7,0,0,0,1.661-.995V12.375a1.675,1.675,0,0,0-1.644-.995Q140.844,11.38,140.844,14.364ZM154.353,19a2.821,2.821,0,0,1-.255-.853,3.073,3.073,0,0,1-2.4,1.028,3.376,3.376,0,0,1-2.316-.809,2.6,2.6,0,0,1-.918-2.039,2.687,2.687,0,0,1,1.121-2.32,5.529,5.529,0,0,1,3.239-.817h1.169v-.545a1.567,1.567,0,0,0-.338-1.055,1.331,1.331,0,0,0-1.068-.4,1.513,1.513,0,0,0-1.006.308,1.045,1.045,0,0,0-.365.844h-2.54a2.551,2.551,0,0,1,.51-1.529,3.37,3.37,0,0,1,1.441-1.1,5.253,5.253,0,0,1,2.092-.4,4.15,4.15,0,0,1,2.791.883,3.09,3.09,0,0,1,1.033,2.483V16.8a4.546,4.546,0,0,0,.378,2.048V19Zm-2.1-1.767a2.188,2.188,0,0,0,1.037-.25,1.645,1.645,0,0,0,.7-.672V14.676h-.949q-1.907,0-2.03,1.318l-.009.149a1.017,1.017,0,0,0,.334.782A1.3,1.3,0,0,0,152.252,17.233Z" transform="translate(652.711 6252)" fill="#12263f"/>
        <path id="Path_886362" data-name="Path 886362" d="M44.722,16.882h6.451V19H41.426V17.453l6.328-9.114H41.435V6.2h9.6V7.715Zm7.365-2.725a5.64,5.64,0,0,1,.545-2.522A3.989,3.989,0,0,1,54.2,9.921a4.577,4.577,0,0,1,2.377-.606,4.33,4.33,0,0,1,3.142,1.178,4.727,4.727,0,0,1,1.358,3.2l.018.65a4.97,4.97,0,0,1-1.222,3.511,4.735,4.735,0,0,1-6.561,0,5.058,5.058,0,0,1-1.226-3.586Zm2.54.18a3.555,3.555,0,0,0,.51,2.073,1.831,1.831,0,0,0,2.9.009,3.89,3.89,0,0,0,.519-2.267,3.519,3.519,0,0,0-.519-2.06,1.686,1.686,0,0,0-1.459-.731,1.658,1.658,0,0,0-1.441.726A3.955,3.955,0,0,0,54.627,14.338ZM65,9.49l.079,1.1a3.32,3.32,0,0,1,2.733-1.274,2.759,2.759,0,0,1,2.25.888,4.142,4.142,0,0,1,.756,2.654V19h-2.54V12.918a1.648,1.648,0,0,0-.352-1.173,1.574,1.574,0,0,0-1.169-.365,1.747,1.747,0,0,0-1.608.914V19h-2.54V9.49ZM78.252,19A2.821,2.821,0,0,1,78,18.147a3.073,3.073,0,0,1-2.4,1.028,3.376,3.376,0,0,1-2.316-.809,2.6,2.6,0,0,1-.918-2.039,2.687,2.687,0,0,1,1.121-2.32,5.529,5.529,0,0,1,3.239-.817h1.169v-.545a1.567,1.567,0,0,0-.338-1.055,1.331,1.331,0,0,0-1.068-.4,1.513,1.513,0,0,0-1.006.308,1.045,1.045,0,0,0-.365.844h-2.54a2.551,2.551,0,0,1,.51-1.529,3.37,3.37,0,0,1,1.441-1.1,5.253,5.253,0,0,1,2.092-.4,4.15,4.15,0,0,1,2.791.883,3.09,3.09,0,0,1,1.033,2.483V16.8a4.546,4.546,0,0,0,.378,2.048V19Zm-2.1-1.767a2.188,2.188,0,0,0,1.037-.25,1.645,1.645,0,0,0,.7-.672V14.676h-.949q-1.907,0-2.03,1.318l-.009.149a1.017,1.017,0,0,0,.334.782A1.3,1.3,0,0,0,76.151,17.233Zm10.327-3.059a5.731,5.731,0,0,1,1-3.542,3.237,3.237,0,0,1,2.729-1.318A2.913,2.913,0,0,1,92.5,10.352V5.5h2.549V19H92.754l-.123-1.011a2.989,2.989,0,0,1-2.443,1.187,3.228,3.228,0,0,1-2.694-1.323A5.916,5.916,0,0,1,86.479,14.175Zm2.54.189a3.754,3.754,0,0,0,.466,2.051,1.517,1.517,0,0,0,1.354.713,1.7,1.7,0,0,0,1.661-.995V12.375a1.675,1.675,0,0,0-1.644-.995Q89.019,11.38,89.019,14.364Zm12.375,4.812a4.668,4.668,0,0,1-3.406-1.283,4.561,4.561,0,0,1-1.314-3.419v-.246a5.745,5.745,0,0,1,.554-2.562A4.064,4.064,0,0,1,98.8,9.925a4.4,4.4,0,0,1,2.316-.611,3.947,3.947,0,0,1,3.072,1.23,5,5,0,0,1,1.121,3.489v1.037H99.249a2.36,2.36,0,0,0,.743,1.494,2.245,2.245,0,0,0,1.569.563,2.742,2.742,0,0,0,2.294-1.063l1.248,1.4a3.813,3.813,0,0,1-1.547,1.261A5.075,5.075,0,0,1,101.394,19.176Zm-.29-7.813a1.587,1.587,0,0,0-1.226.512,2.651,2.651,0,0,0-.6,1.466h3.533v-.2a1.891,1.891,0,0,0-.457-1.311A1.638,1.638,0,0,0,101.1,11.362Zm15.469.51a6.9,6.9,0,0,0-.914-.07,1.86,1.86,0,0,0-1.89.976V19h-2.54V9.49h2.4l.07,1.134a2.354,2.354,0,0,1,2.118-1.31,2.662,2.662,0,0,1,.791.114Zm5.6,7.3a4.668,4.668,0,0,1-3.406-1.283,4.561,4.561,0,0,1-1.314-3.419v-.246A5.745,5.745,0,0,1,118,11.666a4.064,4.064,0,0,1,1.569-1.74,4.4,4.4,0,0,1,2.316-.611,3.947,3.947,0,0,1,3.072,1.23,5,5,0,0,1,1.121,3.489v1.037h-6.056a2.36,2.36,0,0,0,.743,1.494,2.245,2.245,0,0,0,1.569.563,2.742,2.742,0,0,0,2.294-1.063l1.248,1.4a3.813,3.813,0,0,1-1.547,1.261A5.075,5.075,0,0,1,122.171,19.176Zm-.29-7.813a1.587,1.587,0,0,0-1.226.512,2.651,2.651,0,0,0-.6,1.466h3.533v-.2a1.891,1.891,0,0,0-.457-1.311A1.638,1.638,0,0,0,121.881,11.362Zm9.6,5.766a1.666,1.666,0,0,0,1.143-.387,1.355,1.355,0,0,0,.457-1.028h2.382a3.258,3.258,0,0,1-.527,1.771,3.48,3.48,0,0,1-1.419,1.248,4.442,4.442,0,0,1-1.991.444,4.129,4.129,0,0,1-3.217-1.3,5.13,5.13,0,0,1-1.178-3.582v-.167a5.071,5.071,0,0,1,1.169-3.507,4.08,4.08,0,0,1,3.208-1.31,4,4,0,0,1,2.861,1.015,3.594,3.594,0,0,1,1.094,2.7h-2.382a1.745,1.745,0,0,0-.457-1.206,1.7,1.7,0,0,0-2.5.183,3.749,3.749,0,0,0-.453,2.1v.264a3.8,3.8,0,0,0,.448,2.113A1.549,1.549,0,0,0,131.479,17.128Zm9.809,2.048a4.668,4.668,0,0,1-3.406-1.283,4.561,4.561,0,0,1-1.314-3.419v-.246a5.745,5.745,0,0,1,.554-2.562,4.064,4.064,0,0,1,1.569-1.74,4.4,4.4,0,0,1,2.316-.611,3.947,3.947,0,0,1,3.072,1.23,5,5,0,0,1,1.121,3.489v1.037h-6.056a2.36,2.36,0,0,0,.743,1.494,2.245,2.245,0,0,0,1.569.563,2.742,2.742,0,0,0,2.294-1.063l1.248,1.4a3.813,3.813,0,0,1-1.547,1.261A5.075,5.075,0,0,1,141.287,19.176ZM141,11.362a1.587,1.587,0,0,0-1.226.512,2.651,2.651,0,0,0-.6,1.466H142.7v-.2a1.891,1.891,0,0,0-.457-1.311A1.638,1.638,0,0,0,141,11.362Zm14.2,2.971a5.7,5.7,0,0,1-1,3.52,3.2,3.2,0,0,1-2.694,1.323,2.963,2.963,0,0,1-2.329-1v4.482h-2.54V9.49H149l.088.932a2.985,2.985,0,0,1,2.408-1.107,3.22,3.22,0,0,1,2.733,1.3A5.858,5.858,0,0,1,155.2,14.2Zm-2.54-.185a3.743,3.743,0,0,0-.47-2.048,1.532,1.532,0,0,0-1.367-.721,1.663,1.663,0,0,0-1.644.914v3.894a1.692,1.692,0,0,0,1.661.94Q152.66,17.128,152.66,14.148Zm8.068,2.979a1.666,1.666,0,0,0,1.143-.387,1.355,1.355,0,0,0,.457-1.028h2.382a3.258,3.258,0,0,1-.527,1.771,3.48,3.48,0,0,1-1.419,1.248,4.442,4.442,0,0,1-1.991.444,4.129,4.129,0,0,1-3.217-1.3,5.13,5.13,0,0,1-1.178-3.582v-.167a5.071,5.071,0,0,1,1.169-3.507,4.08,4.08,0,0,1,3.208-1.31,4,4,0,0,1,2.861,1.015,3.594,3.594,0,0,1,1.094,2.7h-2.382a1.745,1.745,0,0,0-.457-1.206,1.7,1.7,0,0,0-2.5.183,3.749,3.749,0,0,0-.453,2.1v.264a3.8,3.8,0,0,0,.448,2.113A1.549,1.549,0,0,0,160.729,17.128ZM168.841,19h-2.549V9.49h2.549Zm-2.7-11.971a1.251,1.251,0,0,1,.382-.94,1.648,1.648,0,0,1,2.079,0,1.244,1.244,0,0,1,.387.94,1.247,1.247,0,0,1-.391.949,1.629,1.629,0,0,1-2.065,0A1.247,1.247,0,0,1,166.143,7.029Zm4.395,7.128a5.64,5.64,0,0,1,.545-2.522,3.989,3.989,0,0,1,1.569-1.714,4.577,4.577,0,0,1,2.377-.606,4.33,4.33,0,0,1,3.142,1.178,4.727,4.727,0,0,1,1.358,3.2l.018.65a4.97,4.97,0,0,1-1.222,3.511,4.735,4.735,0,0,1-6.561,0,5.058,5.058,0,0,1-1.226-3.586Zm2.54.18a3.555,3.555,0,0,0,.51,2.073,1.831,1.831,0,0,0,2.9.009,3.89,3.89,0,0,0,.519-2.267,3.519,3.519,0,0,0-.519-2.06,1.686,1.686,0,0,0-1.459-.731,1.658,1.658,0,0,0-1.441.726A3.955,3.955,0,0,0,173.077,14.338ZM175.529,5.5H178.3l-2.435,2.725H173.8Zm7.919,3.99.079,1.1a3.32,3.32,0,0,1,2.733-1.274,2.759,2.759,0,0,1,2.25.888,4.142,4.142,0,0,1,.756,2.654V19h-2.54V12.918a1.648,1.648,0,0,0-.352-1.173,1.574,1.574,0,0,0-1.169-.365,1.747,1.747,0,0,0-1.608.914V19h-2.54V9.49Z" transform="translate(989.711 6252)" fill="#12263f"/>
        <path id="Path_886363" data-name="Path 886363" d="M39.6,16.882h6.451V19H36.3V17.453l6.328-9.114H36.309V6.2h9.6V7.715Zm7.365-2.725a5.64,5.64,0,0,1,.545-2.522,3.989,3.989,0,0,1,1.569-1.714,4.577,4.577,0,0,1,2.377-.606,4.33,4.33,0,0,1,3.142,1.178,4.727,4.727,0,0,1,1.358,3.2l.018.65a4.97,4.97,0,0,1-1.222,3.511,4.735,4.735,0,0,1-6.561,0,5.058,5.058,0,0,1-1.226-3.586Zm2.54.18a3.555,3.555,0,0,0,.51,2.073,1.831,1.831,0,0,0,2.9.009,3.89,3.89,0,0,0,.519-2.267,3.519,3.519,0,0,0-.519-2.06,1.686,1.686,0,0,0-1.459-.731,1.658,1.658,0,0,0-1.441.726A3.955,3.955,0,0,0,49.5,14.338ZM59.873,9.49l.079,1.1a3.32,3.32,0,0,1,2.733-1.274,2.759,2.759,0,0,1,2.25.888,4.142,4.142,0,0,1,.756,2.654V19h-2.54V12.918a1.648,1.648,0,0,0-.352-1.173,1.574,1.574,0,0,0-1.169-.365,1.747,1.747,0,0,0-1.608.914V19h-2.54V9.49ZM73.126,19a2.821,2.821,0,0,1-.255-.853,3.073,3.073,0,0,1-2.4,1.028,3.376,3.376,0,0,1-2.316-.809,2.6,2.6,0,0,1-.918-2.039,2.687,2.687,0,0,1,1.121-2.32A5.529,5.529,0,0,1,71.6,13.19h1.169v-.545a1.567,1.567,0,0,0-.338-1.055,1.331,1.331,0,0,0-1.068-.4,1.513,1.513,0,0,0-1.006.308,1.045,1.045,0,0,0-.365.844h-2.54a2.551,2.551,0,0,1,.51-1.529,3.37,3.37,0,0,1,1.441-1.1,5.253,5.253,0,0,1,2.092-.4,4.15,4.15,0,0,1,2.791.883,3.09,3.09,0,0,1,1.033,2.483V16.8a4.546,4.546,0,0,0,.378,2.048V19Zm-2.1-1.767a2.188,2.188,0,0,0,1.037-.25,1.645,1.645,0,0,0,.7-.672V14.676h-.949q-1.907,0-2.03,1.318l-.009.149a1.017,1.017,0,0,0,.334.782A1.3,1.3,0,0,0,71.026,17.233Zm10.327-3.059a5.731,5.731,0,0,1,1-3.542A3.237,3.237,0,0,1,85.08,9.314a2.913,2.913,0,0,1,2.294,1.037V5.5h2.549V19H87.628l-.123-1.011a2.989,2.989,0,0,1-2.443,1.187,3.228,3.228,0,0,1-2.694-1.323A5.916,5.916,0,0,1,81.353,14.175Zm2.54.189a3.754,3.754,0,0,0,.466,2.051,1.517,1.517,0,0,0,1.354.713,1.7,1.7,0,0,0,1.661-.995V12.375a1.675,1.675,0,0,0-1.644-.995Q83.893,11.38,83.893,14.364Zm12.375,4.812a4.668,4.668,0,0,1-3.406-1.283,4.561,4.561,0,0,1-1.314-3.419v-.246a5.745,5.745,0,0,1,.554-2.562,4.064,4.064,0,0,1,1.569-1.74,4.4,4.4,0,0,1,2.316-.611,3.947,3.947,0,0,1,3.072,1.23,5,5,0,0,1,1.121,3.489v1.037H94.124a2.36,2.36,0,0,0,.743,1.494,2.245,2.245,0,0,0,1.569.563,2.742,2.742,0,0,0,2.294-1.063l1.248,1.4a3.813,3.813,0,0,1-1.547,1.261A5.075,5.075,0,0,1,96.268,19.176Zm-.29-7.813a1.587,1.587,0,0,0-1.226.512,2.651,2.651,0,0,0-.6,1.466h3.533v-.2a1.891,1.891,0,0,0-.457-1.311A1.638,1.638,0,0,0,95.978,11.362Zm9.729,2.813a5.731,5.731,0,0,1,1-3.542,3.237,3.237,0,0,1,2.729-1.318,2.913,2.913,0,0,1,2.294,1.037V5.5h2.549V19h-2.294l-.123-1.011a2.989,2.989,0,0,1-2.443,1.187,3.228,3.228,0,0,1-2.694-1.323A5.916,5.916,0,0,1,105.708,14.175Zm2.54.189a3.754,3.754,0,0,0,.466,2.051,1.517,1.517,0,0,0,1.354.713,1.7,1.7,0,0,0,1.661-.995V12.375a1.675,1.675,0,0,0-1.644-.995Q108.248,11.38,108.248,14.364ZM118.926,19h-2.549V9.49h2.549Zm-2.7-11.971a1.251,1.251,0,0,1,.382-.94,1.648,1.648,0,0,1,2.079,0,1.244,1.244,0,0,1,.387.94,1.247,1.247,0,0,1-.391.949,1.629,1.629,0,0,1-2.065,0A1.247,1.247,0,0,1,116.228,7.029Zm9.94,9.343a.818.818,0,0,0-.461-.734,5.241,5.241,0,0,0-1.481-.479q-3.393-.712-3.393-2.883a2.613,2.613,0,0,1,1.05-2.114,4.237,4.237,0,0,1,2.747-.848,4.56,4.56,0,0,1,2.9.853,2.687,2.687,0,0,1,1.085,2.215h-2.54a1.229,1.229,0,0,0-.352-.9,1.488,1.488,0,0,0-1.1-.356,1.52,1.52,0,0,0-.993.29.916.916,0,0,0-.352.738.783.783,0,0,0,.4.681,4.114,4.114,0,0,0,1.349.448,11.019,11.019,0,0,1,1.6.426,2.628,2.628,0,0,1,2.013,2.558,2.481,2.481,0,0,1-1.116,2.1,4.815,4.815,0,0,1-2.883.8,5.029,5.029,0,0,1-2.123-.426,3.561,3.561,0,0,1-1.455-1.169,2.716,2.716,0,0,1-.527-1.6h2.408a1.326,1.326,0,0,0,.5,1.037,1.987,1.987,0,0,0,1.248.36,1.839,1.839,0,0,0,1.1-.277A.861.861,0,0,0,126.168,16.372Zm7.146-9.22V9.49h1.626v1.863h-1.626V16.1a1.133,1.133,0,0,0,.2.756,1.015,1.015,0,0,0,.773.229,4.051,4.051,0,0,0,.747-.062v1.925a5.229,5.229,0,0,1-1.538.229,2.425,2.425,0,0,1-2.725-2.7V11.354h-1.389V9.49h1.389V7.152Zm8.385,4.72a6.9,6.9,0,0,0-.914-.07,1.86,1.86,0,0,0-1.89.976V19h-2.54V9.49h2.4l.07,1.134a2.354,2.354,0,0,1,2.118-1.31,2.662,2.662,0,0,1,.791.114ZM145.6,19h-2.549V9.49H145.6ZM142.9,7.029a1.251,1.251,0,0,1,.382-.94,1.648,1.648,0,0,1,2.079,0,1.244,1.244,0,0,1,.387.94,1.247,1.247,0,0,1-.391.949,1.629,1.629,0,0,1-2.065,0A1.247,1.247,0,0,1,142.9,7.029Zm13.359,7.3a5.758,5.758,0,0,1-.976,3.564,3.231,3.231,0,0,1-2.725,1.279,2.969,2.969,0,0,1-2.47-1.187L149.978,19h-2.285V5.5h2.54v4.843a2.893,2.893,0,0,1,2.312-1.028,3.258,3.258,0,0,1,2.729,1.279,5.767,5.767,0,0,1,.989,3.6Zm-2.54-.185a3.783,3.783,0,0,0-.457-2.1,1.545,1.545,0,0,0-1.362-.664,1.676,1.676,0,0,0-1.67.993v3.753a1.7,1.7,0,0,0,1.688,1,1.568,1.568,0,0,0,1.617-1.213A6.257,6.257,0,0,0,153.722,14.148Zm9.8,3.885a3.185,3.185,0,0,1-2.6,1.143,3,3,0,0,1-2.333-.879,3.752,3.752,0,0,1-.822-2.575V9.49h2.54v6.151q0,1.487,1.354,1.487a1.834,1.834,0,0,0,1.775-.9V9.49h2.549V19h-2.391Zm8.332-.905A1.666,1.666,0,0,0,173,16.741a1.355,1.355,0,0,0,.457-1.028h2.382a3.258,3.258,0,0,1-.527,1.771,3.48,3.48,0,0,1-1.419,1.248,4.442,4.442,0,0,1-1.991.444,4.129,4.129,0,0,1-3.217-1.3A5.13,5.13,0,0,1,167.5,14.3v-.167a5.071,5.071,0,0,1,1.169-3.507,4.08,4.08,0,0,1,3.208-1.31,4,4,0,0,1,2.861,1.015,3.594,3.594,0,0,1,1.094,2.7h-2.382A1.745,1.745,0,0,0,173,11.826a1.7,1.7,0,0,0-2.5.183,3.749,3.749,0,0,0-.453,2.1v.264a3.8,3.8,0,0,0,.448,2.113A1.549,1.549,0,0,0,171.854,17.128ZM179.966,19h-2.549V9.49h2.549Zm-2.7-11.971a1.251,1.251,0,0,1,.382-.94,1.648,1.648,0,0,1,2.079,0,1.244,1.244,0,0,1,.387.94,1.247,1.247,0,0,1-.391.949,1.629,1.629,0,0,1-2.065,0A1.247,1.247,0,0,1,177.268,7.029Zm4.395,7.128a5.64,5.64,0,0,1,.545-2.522,3.989,3.989,0,0,1,1.569-1.714,4.577,4.577,0,0,1,2.377-.606,4.33,4.33,0,0,1,3.142,1.178,4.727,4.727,0,0,1,1.358,3.2l.018.65a4.97,4.97,0,0,1-1.222,3.511,4.735,4.735,0,0,1-6.561,0,5.058,5.058,0,0,1-1.226-3.586Zm2.54.18a3.555,3.555,0,0,0,.51,2.073,1.831,1.831,0,0,0,2.9.009,3.89,3.89,0,0,0,.519-2.267,3.519,3.519,0,0,0-.519-2.06,1.686,1.686,0,0,0-1.459-.731,1.658,1.658,0,0,0-1.441.726A3.955,3.955,0,0,0,184.2,14.338ZM186.655,5.5h2.769l-2.435,2.725h-2.065Zm7.919,3.99.079,1.1a3.32,3.32,0,0,1,2.733-1.274,2.759,2.759,0,0,1,2.25.888,4.142,4.142,0,0,1,.756,2.654V19h-2.54V12.918a1.648,1.648,0,0,0-.352-1.173,1.574,1.574,0,0,0-1.169-.365,1.747,1.747,0,0,0-1.608.914V19h-2.54V9.49Z" transform="translate(998.711 6623)" fill="#12263f"/>
        <g id="Group_1111392" data-name="Group 1111392" transform="translate(117 13)">
          <path id="Polygon_14" data-name="Polygon 14" d="M13.5,0,27,25H0Z" transform="translate(1000.711 6575) rotate(180)" fill="#2bc897"/>
          <rect id="Rectangle_405914" data-name="Rectangle 405914" width="6" height="16" transform="translate(983.711 6538)" fill="#2bc897"/>
        </g>
        <g id="Group_1111393" data-name="Group 1111393" transform="translate(117 -114)">
          <path id="Polygon_14-2" data-name="Polygon 14" d="M13.5,0,27,25H0Z" transform="translate(1000.711 6575) rotate(180)" fill="#2bc897"/>
          <rect id="Rectangle_405914-2" data-name="Rectangle 405914" width="6" height="16" transform="translate(983.711 6538)" fill="#2bc897"/>
        </g>
        <g id="Group_1111607" data-name="Group 1111607" transform="translate(117 -239)">
          <path id="Polygon_14-3" data-name="Polygon 14" d="M13.5,0,27,25H0Z" transform="translate(1000.711 6575) rotate(180)" fill="#2bc897"/>
          <rect id="Rectangle_405914-3" data-name="Rectangle 405914" width="6" height="16" transform="translate(983.711 6538)" fill="#2bc897"/>
        </g>
        <g id="Group_1111394" data-name="Group 1111394" transform="translate(-5606.289 7248.711) rotate(-90)">
          <path id="Polygon_14-4" data-name="Polygon 14" d="M13.5,0,27,25H0Z" transform="translate(1000.711 6575) rotate(180)" fill="#2bc897"/>
          <rect id="Rectangle_405914-4" data-name="Rectangle 405914" width="6" height="16" transform="translate(983.711 6538)" fill="#2bc897"/>
        </g>
      </g>
    </g>
  </g>
</svg>
