<svg xmlns="http://www.w3.org/2000/svg" xmlns:xlink="http://www.w3.org/1999/xlink" width="70" height="70" viewBox="0 0 70 70">
  <defs>
    <clipPath id="clip-path">
      <rect id="Rectangle_405919" data-name="Rectangle 405919" width="41.64" height="41.957" fill="#006543"/>
    </clipPath>
  </defs>
  <g id="Group_1111631" data-name="Group 1111631" transform="translate(-269 -958)">
    <circle id="Ellipse_5614" data-name="Ellipse 5614" cx="35" cy="35" r="35" transform="translate(269 958)" fill="#fff"/>
    <g id="Group_1111407" data-name="Group 1111407" transform="translate(283.43 972.903)">
      <g id="Group_1111406" data-name="Group 1111406" clip-path="url(#clip-path)">
        <path id="Path_885899" data-name="Path 885899" d="M4.174,3.749c.508-4.809,8.107-5.482,8.45.886l-.005,21.679A8.4,8.4,0,1,1,1.865,38.865,8.328,8.328,0,0,1,4.174,26.376V20.952H7.6c.254,0,.682-.51.736-.777a1.135,1.135,0,0,0-1-1.357H4.174V16.774H7.508a1.79,1.79,0,0,0,.654-.413A1.1,1.1,0,0,0,7.33,14.64H4.174V12.595H7.508a2.046,2.046,0,0,0,.579-.335,1.087,1.087,0,0,0-.668-1.8H4.174V8.416H7.33a2.254,2.254,0,0,0,.623-.266A1.031,1.031,0,0,0,8.161,6.7,1.572,1.572,0,0,0,7.6,6.282H4.174c.062-.811-.084-1.737,0-2.534" transform="translate(0 0)" fill="#006543"/>
        <path id="Path_885900" data-name="Path 885900" d="M56.816,16.39c.923-.26,1.881-1.754,2.868-.855a1.083,1.083,0,0,1,.054,1.54,27.135,27.135,0,0,1-2.766,1.818.569.569,0,0,0-.157.227v5.861l.264-.049,4.973-2.9.243-3.336a1.106,1.106,0,0,1,1.815-.6c.641.6.082,1.82.222,2.6.9-.281,2.28-1.787,3.176-.894,1.269,1.265-1.209,2.289-2.1,2.685-.045.209.028.143.115.2.447.289,1.506.6,1.805.967a1.1,1.1,0,0,1-.646,1.769c-.85.127-2.685-1.419-3.623-1.49L57.98,26.905l5.145,2.963,2.995-1.444a1.065,1.065,0,0,1,.928,1.911c-.134.094-1.729.792-1.64.909.846.463,3,1.214,2.274,2.5-.768,1.358-2.453-.381-3.347-.708-.1.608.138,1.257.093,1.839a1.07,1.07,0,0,1-2.131.153l-.244-3.335-5.236-2.952V34.6a.569.569,0,0,0,.157.227l2.619,1.74a1.017,1.017,0,0,1,.181,1.526c-.88,1.071-2.043-.332-2.867-.764v2.013a4.436,4.436,0,0,1-.19.7,1.12,1.12,0,0,1-1.4.436,1.7,1.7,0,0,1-.56-.6V37.33c-.664.237-1.385,1.149-2.107,1.168a1.089,1.089,0,0,1-.954-1.59c.322-.645,2.5-1.58,3.061-2.218V28.739l-5.2,2.992-.282,3.386a1.063,1.063,0,0,1-1.952.293,5.493,5.493,0,0,1-.058-2.127c0-.092.12-.125-.072-.246-.842.42-2.5,1.979-3.253.745-.81-1.33,1.378-2.018,2.223-2.539.047-.209-.03-.143-.115-.2-.58-.381-1.845-.57-2.012-1.386A1.065,1.065,0,0,1,45.387,28.4L48.5,29.86c1.467-.9,3.035-1.66,4.494-2.571.138-.086.6-.294.6-.474l-5.154-2.908c-.855.143-2.717,1.588-3.459,1.5a1.13,1.13,0,0,1-.959-1.181c.085-.9,1.4-1.149,2.028-1.556.086-.056.16.01.115-.2-.825-.418-3.31-1.405-2.117-2.656.936-.981,2.32.627,3.28.864l-.179-1.745a1.085,1.085,0,0,1,2.129-.337l.243,3.426,5.236,2.952V19.03c-.612-.606-2.727-1.537-3.061-2.218a1.124,1.124,0,0,1,.24-1.319c.95-.808,1.974.615,2.821.9V13.929c0-.376.653-.756,1.028-.769.347-.011,1.03.348,1.03.679Z" transform="translate(-26.224 -7.892)" fill="#006543"/>
      </g>
    </g>
  </g>
</svg>
