<svg xmlns="http://www.w3.org/2000/svg" xmlns:xlink="http://www.w3.org/1999/xlink" width="158.949" height="159.181" viewBox="0 0 158.949 159.181">
  <defs>
    <clipPath id="clip-path">
      <rect id="Rectangle_400938" data-name="Rectangle 400938" width="152.656" height="152.656" fill="none"/>
    </clipPath>
    <clipPath id="clip-path-2">
      <path id="Path_873460" data-name="Path 873460" d="M0,1.693A1.747,1.747,0,0,0,1.8,3.385,1.747,1.747,0,0,0,3.6,1.693,1.748,1.748,0,0,0,1.8,0,1.748,1.748,0,0,0,0,1.693" transform="translate(0)" fill="#005865"/>
    </clipPath>
    <clipPath id="clip-path-3">
      <path id="Path_873466" data-name="Path 873466" d="M0,1.693A1.748,1.748,0,0,0,1.8,3.385,1.747,1.747,0,0,0,3.6,1.693,1.747,1.747,0,0,0,1.8,0,1.748,1.748,0,0,0,0,1.693" fill="#005865"/>
    </clipPath>
    <clipPath id="clip-path-4">
      <path id="Path_873467" data-name="Path 873467" d="M0,1.692A1.748,1.748,0,0,0,1.8,3.384,1.748,1.748,0,0,0,3.6,1.692,1.748,1.748,0,0,0,1.8,0,1.748,1.748,0,0,0,0,1.692" transform="translate(0 0)" fill="#005865"/>
    </clipPath>
    <clipPath id="clip-path-6">
      <path id="Path_873469" data-name="Path 873469" d="M0,1.692A1.748,1.748,0,0,0,1.8,3.384,1.747,1.747,0,0,0,3.6,1.692,1.747,1.747,0,0,0,1.8,0,1.748,1.748,0,0,0,0,1.692" transform="translate(0 0)" fill="#005865"/>
    </clipPath>
    <clipPath id="clip-path-22">
      <rect id="Rectangle_401492" data-name="Rectangle 401492" width="69.989" height="69.99" transform="translate(-0.305 0.22)" fill="#fff" stroke="#707070" stroke-width="1"/>
    </clipPath>
    <clipPath id="clip-path-23">
      <rect id="Rectangle_405582" data-name="Rectangle 405582" width="63.143" height="63.207" fill="#fff"/>
    </clipPath>
  </defs>
  <g id="Group_1109610" data-name="Group 1109610" transform="translate(-318.664 -4483.287)">
    <g id="Group_1108942" data-name="Group 1108942" transform="translate(318.664 4483.287)">
      <g id="Group_1100237" data-name="Group 1100237" transform="translate(5.038 22.163)">
        <g id="Group_1099505" data-name="Group 1099505" transform="translate(2.342 10.905)">
          <g id="Group_1099504" data-name="Group 1099504" transform="translate(0)" clip-path="url(#clip-path-2)">
            <rect id="Rectangle_401140" data-name="Rectangle 401140" width="3.598" height="3.385" transform="translate(0)" fill="#005865"/>
          </g>
        </g>
        <g id="Group_1099517" data-name="Group 1099517" transform="translate(48.007 10.905)">
          <g id="Group_1099516" data-name="Group 1099516" transform="translate(0)" clip-path="url(#clip-path-3)">
            <rect id="Rectangle_401146" data-name="Rectangle 401146" width="3.599" height="3.385" transform="translate(0 0)" fill="#005865"/>
          </g>
        </g>
        <g id="Group_1099519" data-name="Group 1099519" transform="translate(39.117 10.906)">
          <g id="Group_1099518" data-name="Group 1099518" transform="translate(0 0)" clip-path="url(#clip-path-4)">
            <rect id="Rectangle_401147" data-name="Rectangle 401147" width="3.599" height="3.384" transform="translate(0 0)" fill="#005865"/>
          </g>
        </g>
        <g id="Group_1099521" data-name="Group 1099521" transform="translate(30.227 10.906)">
          <g id="Group_1099520" data-name="Group 1099520" transform="translate(0 0)" clip-path="url(#clip-path-4)">
            <rect id="Rectangle_401148" data-name="Rectangle 401148" width="3.599" height="3.384" transform="translate(0 0)" fill="#005865"/>
          </g>
        </g>
        <g id="Group_1099523" data-name="Group 1099523" transform="translate(21.337 10.906)">
          <g id="Group_1099522" data-name="Group 1099522" transform="translate(0 0)" clip-path="url(#clip-path-6)">
            <rect id="Rectangle_401149" data-name="Rectangle 401149" width="3.598" height="3.384" transform="translate(0 0)" fill="#005865"/>
          </g>
        </g>
        <g id="Group_1099525" data-name="Group 1099525" transform="translate(44.45 0)">
          <g id="Group_1099524" data-name="Group 1099524" clip-path="url(#clip-path-4)">
            <rect id="Rectangle_401150" data-name="Rectangle 401150" width="3.599" height="3.384" transform="translate(0 0)" fill="#005865"/>
          </g>
        </g>
        <g id="Group_1099529" data-name="Group 1099529" transform="translate(35.56 0)">
          <g id="Group_1099528" data-name="Group 1099528" transform="translate(0)" clip-path="url(#clip-path-6)">
            <rect id="Rectangle_401152" data-name="Rectangle 401152" width="3.599" height="3.384" transform="translate(0 0)" fill="#005865"/>
          </g>
        </g>
        <g id="Group_1099531" data-name="Group 1099531" transform="translate(17.78 0)">
          <g id="Group_1099530" data-name="Group 1099530" transform="translate(0)" clip-path="url(#clip-path-6)">
            <rect id="Rectangle_401153" data-name="Rectangle 401153" width="3.598" height="3.384" transform="translate(0 0)" fill="#005865"/>
          </g>
        </g>
        <g id="Group_1099533" data-name="Group 1099533" transform="translate(8.89 0)">
          <g id="Group_1099532" data-name="Group 1099532" clip-path="url(#clip-path-6)">
            <rect id="Rectangle_401154" data-name="Rectangle 401154" width="3.599" height="3.384" transform="translate(0 0)" fill="#005865"/>
          </g>
        </g>
        <g id="Group_1099535" data-name="Group 1099535" transform="translate(0 0)">
          <g id="Group_1099534" data-name="Group 1099534" transform="translate(0)" clip-path="url(#clip-path-6)">
            <rect id="Rectangle_401155" data-name="Rectangle 401155" width="3.599" height="3.384" transform="translate(0 0)" fill="#005865"/>
          </g>
        </g>
      </g>
      <g id="Group_1100238" data-name="Group 1100238" transform="translate(101.296 117.824)">
        <g id="Group_1099505-2" data-name="Group 1099505" transform="translate(2.342 10.905)">
          <g id="Group_1099504-2" data-name="Group 1099504" transform="translate(0)" clip-path="url(#clip-path-2)">
            <rect id="Rectangle_401140-2" data-name="Rectangle 401140" width="3.598" height="3.385" transform="translate(0)" fill="#005865"/>
          </g>
        </g>
        <g id="Group_1099517-2" data-name="Group 1099517" transform="translate(48.007 10.905)">
          <g id="Group_1099516-2" data-name="Group 1099516" transform="translate(0)" clip-path="url(#clip-path-3)">
            <rect id="Rectangle_401146-2" data-name="Rectangle 401146" width="3.599" height="3.385" transform="translate(0 0)" fill="#005865"/>
          </g>
        </g>
        <g id="Group_1099519-2" data-name="Group 1099519" transform="translate(39.117 10.906)">
          <g id="Group_1099518-2" data-name="Group 1099518" transform="translate(0 0)" clip-path="url(#clip-path-4)">
            <rect id="Rectangle_401147-2" data-name="Rectangle 401147" width="3.599" height="3.384" transform="translate(0 0)" fill="#005865"/>
          </g>
        </g>
        <g id="Group_1099521-2" data-name="Group 1099521" transform="translate(30.227 10.906)">
          <g id="Group_1099520-2" data-name="Group 1099520" transform="translate(0 0)" clip-path="url(#clip-path-4)">
            <rect id="Rectangle_401148-2" data-name="Rectangle 401148" width="3.599" height="3.384" transform="translate(0 0)" fill="#005865"/>
          </g>
        </g>
        <g id="Group_1099523-2" data-name="Group 1099523" transform="translate(21.337 10.906)">
          <g id="Group_1099522-2" data-name="Group 1099522" transform="translate(0 0)" clip-path="url(#clip-path-6)">
            <rect id="Rectangle_401149-2" data-name="Rectangle 401149" width="3.598" height="3.384" transform="translate(0 0)" fill="#005865"/>
          </g>
        </g>
        <g id="Group_1099525-2" data-name="Group 1099525" transform="translate(44.45 0)">
          <g id="Group_1099524-2" data-name="Group 1099524" clip-path="url(#clip-path-4)">
            <rect id="Rectangle_401150-2" data-name="Rectangle 401150" width="3.599" height="3.384" transform="translate(0 0)" fill="#005865"/>
          </g>
        </g>
        <g id="Group_1099529-2" data-name="Group 1099529" transform="translate(35.56 0)">
          <g id="Group_1099528-2" data-name="Group 1099528" transform="translate(0)" clip-path="url(#clip-path-6)">
            <rect id="Rectangle_401152-2" data-name="Rectangle 401152" width="3.599" height="3.384" transform="translate(0 0)" fill="#005865"/>
          </g>
        </g>
        <g id="Group_1099531-2" data-name="Group 1099531" transform="translate(17.78 0)">
          <g id="Group_1099530-2" data-name="Group 1099530" transform="translate(0)" clip-path="url(#clip-path-6)">
            <rect id="Rectangle_401153-2" data-name="Rectangle 401153" width="3.598" height="3.384" transform="translate(0 0)" fill="#005865"/>
          </g>
        </g>
        <g id="Group_1099533-2" data-name="Group 1099533" transform="translate(8.89 0)">
          <g id="Group_1099532-2" data-name="Group 1099532" clip-path="url(#clip-path-6)">
            <rect id="Rectangle_401154-2" data-name="Rectangle 401154" width="3.599" height="3.384" transform="translate(0 0)" fill="#005865"/>
          </g>
        </g>
        <g id="Group_1099535-2" data-name="Group 1099535" transform="translate(0 0)">
          <g id="Group_1099534-2" data-name="Group 1099534" transform="translate(0)" clip-path="url(#clip-path-6)">
            <rect id="Rectangle_401155-2" data-name="Rectangle 401155" width="3.599" height="3.384" transform="translate(0 0)" fill="#005865"/>
          </g>
        </g>
      </g>
      <path id="Path_873784" data-name="Path 873784" d="M109.2,24.037A24.184,24.184,0,0,0,85.034-.128L24.2-.036A24.36,24.36,0,0,0-.037,24.2L-.128,85.032A24.184,24.184,0,0,0,24.037,109.2l60.832-.091a24.361,24.361,0,0,0,24.238-24.238Z" transform="translate(81.645 159) rotate(-135)" fill="#41cee2"/>
      <ellipse id="Ellipse_11579" data-name="Ellipse 11579" cx="51.175" cy="51.175" rx="51.175" ry="51.175" transform="translate(30.842 31.057)" fill="#005865"/>
      <g id="Mask_Group_1098697" data-name="Mask Group 1098697" transform="translate(47.016 47.59)" clip-path="url(#clip-path-22)">
        <g id="Group_1111002" data-name="Group 1111002" transform="translate(3.03 3.553)">
          <g id="Group_1111001" data-name="Group 1111001" clip-path="url(#clip-path-23)">
            <path id="Path_885031" data-name="Path 885031" d="M31.549,60.252c.309.313,4.724-2.267,4.408.586-.1.9-.863,1.011-1.588,1.262-.967.336-3.658,1.208-4.535,1.1l-28.7-7.83A1.719,1.719,0,0,1,0,54.3V8.946A1.719,1.719,0,0,1,1.131,7.875L30.319,0,59.454,7.927a1.792,1.792,0,0,1,1.12,1.6V33.5a1.364,1.364,0,1,1-2.714.242l-.028-23.485L31.549,3.249Zm-2.591-57L21.062,5.2V30.007a4.54,4.54,0,0,1-.39,1.424,32.072,32.072,0,0,1-2.847,2.724,8.012,8.012,0,0,1-2.118.031l-1.581-1.4c-1,.5-1.759,2.474-3.116,1.7-.167-.1-2.56-2.495-2.719-2.722a5.221,5.221,0,0,1-.448-.977V8.95L2.523,10.32l.02,42.665,26.416,7.008ZM18.335,6.1,10.424,8.251l.032,21.467,1.6,1.257c.332,0,1.348-1.361,1.753-1.615,1.439-.9,2.257,1.036,3.3,1.618l1.231-1.106Z" fill="#fff"/>
            <path id="Path_885032" data-name="Path 885032" d="M277.778,264.242a14.477,14.477,0,1,1-11.22,22.674,14.546,14.546,0,0,1,11.22-22.674m-.777,2.72c-10.143,1.031-13.984,14.272-6.252,20.816A11.872,11.872,0,1,0,277,266.962" transform="translate(-229.802 -229.992)" fill="#fff"/>
            <path id="Path_885033" data-name="Path 885033" d="M117,329.514v4.729a2.915,2.915,0,0,1-.449.847,1.378,1.378,0,0,1-2.272-.847v-4.729c-.225-.056-.259.092-.39.193-.878.678-2.223,2.578-3.347,1.147-.585-.745-.282-1.3.236-1.926a36.081,36.081,0,0,1,3.7-3.689,1.9,1.9,0,0,1,2.2-.13,38.877,38.877,0,0,1,3.825,3.819c.4.488.628.7.485,1.4-.187.911-.929.95-1.726.878-1.054-.1-1.437-1.161-2.26-1.69" transform="translate(-95.943 -282.736)" fill="#fff"/>
            <path id="Path_885034" data-name="Path 885034" d="M325.713,366.165l11.106-.019a1.318,1.318,0,0,1,.13,2.575H325.693a1.33,1.33,0,0,1,.02-2.556" transform="translate(-282.671 -318.712)" fill="#fff"/>
          </g>
        </g>
      </g>
    </g>
  </g>
</svg>
