<svg xmlns="http://www.w3.org/2000/svg" xmlns:xlink="http://www.w3.org/1999/xlink" width="158.949" height="159.181" viewBox="0 0 158.949 159.181">
  <defs>
    <clipPath id="clip-path">
      <rect id="Rectangle_400938" data-name="Rectangle 400938" width="152.656" height="152.656" fill="none"/>
    </clipPath>
    <clipPath id="clip-path-2">
      <path id="Path_873460" data-name="Path 873460" d="M0,1.693A1.747,1.747,0,0,0,1.8,3.385,1.747,1.747,0,0,0,3.6,1.693,1.748,1.748,0,0,0,1.8,0,1.748,1.748,0,0,0,0,1.693" transform="translate(0)" fill="#005865"/>
    </clipPath>
    <clipPath id="clip-path-3">
      <path id="Path_873466" data-name="Path 873466" d="M0,1.693A1.748,1.748,0,0,0,1.8,3.385,1.747,1.747,0,0,0,3.6,1.693,1.747,1.747,0,0,0,1.8,0,1.748,1.748,0,0,0,0,1.693" fill="#005865"/>
    </clipPath>
    <clipPath id="clip-path-4">
      <path id="Path_873467" data-name="Path 873467" d="M0,1.692A1.748,1.748,0,0,0,1.8,3.384,1.748,1.748,0,0,0,3.6,1.692,1.748,1.748,0,0,0,1.8,0,1.748,1.748,0,0,0,0,1.692" transform="translate(0 0)" fill="#005865"/>
    </clipPath>
    <clipPath id="clip-path-6">
      <path id="Path_873469" data-name="Path 873469" d="M0,1.692A1.748,1.748,0,0,0,1.8,3.384,1.747,1.747,0,0,0,3.6,1.692,1.747,1.747,0,0,0,1.8,0,1.748,1.748,0,0,0,0,1.692" transform="translate(0 0)" fill="#005865"/>
    </clipPath>
    <clipPath id="clip-path-22">
      <rect id="Rectangle_405581" data-name="Rectangle 405581" width="68.262" height="57.998" fill="#fff"/>
    </clipPath>
  </defs>
  <g id="Group_1109604" data-name="Group 1109604" transform="translate(-318.664 -4483.287)">
    <g id="Group_1108942" data-name="Group 1108942" transform="translate(318.664 4483.287)">
      <g id="Group_1100237" data-name="Group 1100237" transform="translate(5.038 22.163)">
        <g id="Group_1099505" data-name="Group 1099505" transform="translate(2.342 10.905)">
          <g id="Group_1099504" data-name="Group 1099504" transform="translate(0)" clip-path="url(#clip-path-2)">
            <rect id="Rectangle_401140" data-name="Rectangle 401140" width="3.598" height="3.385" transform="translate(0)" fill="#005865"/>
          </g>
        </g>
        <g id="Group_1099517" data-name="Group 1099517" transform="translate(48.007 10.905)">
          <g id="Group_1099516" data-name="Group 1099516" transform="translate(0)" clip-path="url(#clip-path-3)">
            <rect id="Rectangle_401146" data-name="Rectangle 401146" width="3.599" height="3.385" transform="translate(0 0)" fill="#005865"/>
          </g>
        </g>
        <g id="Group_1099519" data-name="Group 1099519" transform="translate(39.117 10.906)">
          <g id="Group_1099518" data-name="Group 1099518" transform="translate(0 0)" clip-path="url(#clip-path-4)">
            <rect id="Rectangle_401147" data-name="Rectangle 401147" width="3.599" height="3.384" transform="translate(0 0)" fill="#005865"/>
          </g>
        </g>
        <g id="Group_1099521" data-name="Group 1099521" transform="translate(30.227 10.906)">
          <g id="Group_1099520" data-name="Group 1099520" transform="translate(0 0)" clip-path="url(#clip-path-4)">
            <rect id="Rectangle_401148" data-name="Rectangle 401148" width="3.599" height="3.384" transform="translate(0 0)" fill="#005865"/>
          </g>
        </g>
        <g id="Group_1099523" data-name="Group 1099523" transform="translate(21.337 10.906)">
          <g id="Group_1099522" data-name="Group 1099522" transform="translate(0 0)" clip-path="url(#clip-path-6)">
            <rect id="Rectangle_401149" data-name="Rectangle 401149" width="3.598" height="3.384" transform="translate(0 0)" fill="#005865"/>
          </g>
        </g>
        <g id="Group_1099525" data-name="Group 1099525" transform="translate(44.45 0)">
          <g id="Group_1099524" data-name="Group 1099524" clip-path="url(#clip-path-4)">
            <rect id="Rectangle_401150" data-name="Rectangle 401150" width="3.599" height="3.384" transform="translate(0 0)" fill="#005865"/>
          </g>
        </g>
        <g id="Group_1099529" data-name="Group 1099529" transform="translate(35.56 0)">
          <g id="Group_1099528" data-name="Group 1099528" transform="translate(0)" clip-path="url(#clip-path-6)">
            <rect id="Rectangle_401152" data-name="Rectangle 401152" width="3.599" height="3.384" transform="translate(0 0)" fill="#005865"/>
          </g>
        </g>
        <g id="Group_1099531" data-name="Group 1099531" transform="translate(17.78 0)">
          <g id="Group_1099530" data-name="Group 1099530" transform="translate(0)" clip-path="url(#clip-path-6)">
            <rect id="Rectangle_401153" data-name="Rectangle 401153" width="3.598" height="3.384" transform="translate(0 0)" fill="#005865"/>
          </g>
        </g>
        <g id="Group_1099533" data-name="Group 1099533" transform="translate(8.89 0)">
          <g id="Group_1099532" data-name="Group 1099532" clip-path="url(#clip-path-6)">
            <rect id="Rectangle_401154" data-name="Rectangle 401154" width="3.599" height="3.384" transform="translate(0 0)" fill="#005865"/>
          </g>
        </g>
        <g id="Group_1099535" data-name="Group 1099535" transform="translate(0 0)">
          <g id="Group_1099534" data-name="Group 1099534" transform="translate(0)" clip-path="url(#clip-path-6)">
            <rect id="Rectangle_401155" data-name="Rectangle 401155" width="3.599" height="3.384" transform="translate(0 0)" fill="#005865"/>
          </g>
        </g>
      </g>
      <g id="Group_1100238" data-name="Group 1100238" transform="translate(101.296 117.824)">
        <g id="Group_1099505-2" data-name="Group 1099505" transform="translate(2.342 10.905)">
          <g id="Group_1099504-2" data-name="Group 1099504" transform="translate(0)" clip-path="url(#clip-path-2)">
            <rect id="Rectangle_401140-2" data-name="Rectangle 401140" width="3.598" height="3.385" transform="translate(0)" fill="#005865"/>
          </g>
        </g>
        <g id="Group_1099517-2" data-name="Group 1099517" transform="translate(48.007 10.905)">
          <g id="Group_1099516-2" data-name="Group 1099516" transform="translate(0)" clip-path="url(#clip-path-3)">
            <rect id="Rectangle_401146-2" data-name="Rectangle 401146" width="3.599" height="3.385" transform="translate(0 0)" fill="#005865"/>
          </g>
        </g>
        <g id="Group_1099519-2" data-name="Group 1099519" transform="translate(39.117 10.906)">
          <g id="Group_1099518-2" data-name="Group 1099518" transform="translate(0 0)" clip-path="url(#clip-path-4)">
            <rect id="Rectangle_401147-2" data-name="Rectangle 401147" width="3.599" height="3.384" transform="translate(0 0)" fill="#005865"/>
          </g>
        </g>
        <g id="Group_1099521-2" data-name="Group 1099521" transform="translate(30.227 10.906)">
          <g id="Group_1099520-2" data-name="Group 1099520" transform="translate(0 0)" clip-path="url(#clip-path-4)">
            <rect id="Rectangle_401148-2" data-name="Rectangle 401148" width="3.599" height="3.384" transform="translate(0 0)" fill="#005865"/>
          </g>
        </g>
        <g id="Group_1099523-2" data-name="Group 1099523" transform="translate(21.337 10.906)">
          <g id="Group_1099522-2" data-name="Group 1099522" transform="translate(0 0)" clip-path="url(#clip-path-6)">
            <rect id="Rectangle_401149-2" data-name="Rectangle 401149" width="3.598" height="3.384" transform="translate(0 0)" fill="#005865"/>
          </g>
        </g>
        <g id="Group_1099525-2" data-name="Group 1099525" transform="translate(44.45 0)">
          <g id="Group_1099524-2" data-name="Group 1099524" clip-path="url(#clip-path-4)">
            <rect id="Rectangle_401150-2" data-name="Rectangle 401150" width="3.599" height="3.384" transform="translate(0 0)" fill="#005865"/>
          </g>
        </g>
        <g id="Group_1099529-2" data-name="Group 1099529" transform="translate(35.56 0)">
          <g id="Group_1099528-2" data-name="Group 1099528" transform="translate(0)" clip-path="url(#clip-path-6)">
            <rect id="Rectangle_401152-2" data-name="Rectangle 401152" width="3.599" height="3.384" transform="translate(0 0)" fill="#005865"/>
          </g>
        </g>
        <g id="Group_1099531-2" data-name="Group 1099531" transform="translate(17.78 0)">
          <g id="Group_1099530-2" data-name="Group 1099530" transform="translate(0)" clip-path="url(#clip-path-6)">
            <rect id="Rectangle_401153-2" data-name="Rectangle 401153" width="3.598" height="3.384" transform="translate(0 0)" fill="#005865"/>
          </g>
        </g>
        <g id="Group_1099533-2" data-name="Group 1099533" transform="translate(8.89 0)">
          <g id="Group_1099532-2" data-name="Group 1099532" clip-path="url(#clip-path-6)">
            <rect id="Rectangle_401154-2" data-name="Rectangle 401154" width="3.599" height="3.384" transform="translate(0 0)" fill="#005865"/>
          </g>
        </g>
        <g id="Group_1099535-2" data-name="Group 1099535" transform="translate(0 0)">
          <g id="Group_1099534-2" data-name="Group 1099534" transform="translate(0)" clip-path="url(#clip-path-6)">
            <rect id="Rectangle_401155-2" data-name="Rectangle 401155" width="3.599" height="3.384" transform="translate(0 0)" fill="#005865"/>
          </g>
        </g>
      </g>
      <path id="Path_873784" data-name="Path 873784" d="M109.2,24.037A24.184,24.184,0,0,0,85.034-.128L24.2-.036A24.36,24.36,0,0,0-.037,24.2L-.128,85.032A24.184,24.184,0,0,0,24.037,109.2l60.832-.091a24.361,24.361,0,0,0,24.238-24.238Z" transform="translate(81.645 159) rotate(-135)" fill="#41cee2"/>
      <ellipse id="Ellipse_11579" data-name="Ellipse 11579" cx="51.175" cy="51.175" rx="51.175" ry="51.175" transform="translate(30.543 30.92)" fill="#005865"/>
      <g id="Group_1111000" data-name="Group 1111000" transform="translate(47.781 50.671)">
        <g id="Group_1110999" data-name="Group 1110999" clip-path="url(#clip-path-22)">
          <path id="Path_885025" data-name="Path 885025" d="M0,219.321,13.515,191.2l.467-.293,20.212-.039a1.264,1.264,0,0,1,0,2.487l-19.273.032-11.884,25.1H65.2l-11.884-25.1-6.339-.109a1.308,1.308,0,0,1,.217-2.415,40.8,40.8,0,0,1,6.805,0,1.036,1.036,0,0,1,.855.51L68.124,219.2a1.364,1.364,0,0,1-.5,1.814l-66.4.133c-.6.052-.9-.346-1.222-.835Z" transform="translate(0 -163.155)" fill="#fff"/>
          <path id="Path_885026" data-name="Path 885026" d="M209.728,61.652a1.182,1.182,0,0,1,1.255.565c1.2,1.853,1.837,6.221,3.551,7.581,1.607,1.275,4.953,1.863,6.805,2.881,1.065.585,1.174,1.479.095,2.133-1.84,1.114-5.322,1.613-6.973,3s-2.279,5.656-3.479,7.509a1.1,1.1,0,0,1-1.92.066c-1.322-2.364-1.792-6.813-4.3-8.132-1.885-.991-4.364-1.58-6.325-2.494a1.179,1.179,0,0,1-.082-1.923c1.987-.937,4.365-1.536,6.306-2.513,2.664-1.34,2.957-5.646,4.353-8.08a1.1,1.1,0,0,1,.714-.6m.47,4.311c-.333-.068-.231.037-.324.185-.584.927-.9,2.463-1.435,3.476-1.312,2.481-3.846,3.165-6.335,4-.066.376.053.223.205.3,1.2.609,2.705.9,3.886,1.606,2.345,1.4,2.676,3.777,3.789,6.044.321.066.177-.144.254-.317,1.059-2.372,1.354-4.6,3.911-5.926.519-.269,3.663-1.3,3.712-1.494.074-.293-.132-.2-.291-.28-1.74-.825-3.7-1.109-5.062-2.607-1.178-1.292-1.732-3.363-2.312-4.991" transform="translate(-169.287 -52.717)" fill="#fff"/>
          <path id="Path_885027" data-name="Path 885027" d="M109.118.387c.7.711,1.184,3.627,1.968,4.538,1.005.927,3.736,1.267,4.617,2.065a1.39,1.39,0,0,1,.09,1.511c-.408.642-3.737,1.352-4.545,2.1-1,.928-1.526,4.425-2.415,4.812a1.194,1.194,0,0,1-1.413-.287c-.712-.964-.979-3.176-1.8-4.233-.872-1.123-4.539-1.713-4.915-2.6a1.212,1.212,0,0,1,.059-1.091c.459-.767,3.893-1.462,4.711-2.228.837-.784,1.772-6.5,3.643-4.59M108.432,4.4c-.328-.061-.229.018-.32.184a11.886,11.886,0,0,1-.626,1.4,4.645,4.645,0,0,1-2.665,1.746c.6.513,1.322.618,1.955,1.151.881.741,1.015,1.635,1.657,2.461A4.359,4.359,0,0,1,110.5,8.417c.17-.1,1.4-.5,1.255-.695A4.452,4.452,0,0,1,108.432,4.4" transform="translate(-86.059 0)" fill="#fff"/>
          <path id="Path_885028" data-name="Path 885028" d="M87.647,265.148a1.11,1.11,0,0,1,1.317,1.612l-4.758,4.781c-1.018.654-2.191-.513-1.414-1.7a38.651,38.651,0,0,1,4.092-4.148,2.869,2.869,0,0,1,.763-.542" transform="translate(-70.607 -226.778)" fill="#fff"/>
          <path id="Path_885029" data-name="Path 885029" d="M86.363,326.2a1.116,1.116,0,0,1,1.264,1.563c-.036.085-1.054,1.2-1.222,1.379-.3.307-2.446,2.377-2.608,2.451a1.112,1.112,0,0,1-1.424-1.569,46.821,46.821,0,0,1,3.448-3.491,1.361,1.361,0,0,1,.543-.333" transform="translate(-70.339 -279.016)" fill="#fff"/>
          <path id="Path_885030" data-name="Path 885030" d="M131.132,288.195a1.1,1.1,0,0,1,1.266,1.559,16.668,16.668,0,0,1-1.295,1.451c-.167.164-1.294,1.186-1.379,1.222a1.1,1.1,0,0,1-1.478-1.478,16.116,16.116,0,0,1,2.885-2.754" transform="translate(-109.616 -246.504)" fill="#fff"/>
        </g>
      </g>
    </g>
  </g>
</svg>
