<svg xmlns="http://www.w3.org/2000/svg" xmlns:xlink="http://www.w3.org/1999/xlink" width="90.184" height="90.184" viewBox="0 0 90.184 90.184">
  <defs>
    <clipPath id="clip-path">
      <rect id="Rectangle_405731" data-name="Rectangle 405731" width="54.333" height="55.342" fill="none"/>
    </clipPath>
    <clipPath id="clip-path-3">
      <rect id="Rectangle_405719" data-name="Rectangle 405719" width="1.595" height="19.362" fill="none"/>
    </clipPath>
    <clipPath id="clip-path-4">
      <rect id="Rectangle_405720" data-name="Rectangle 405720" width="3.729" height="12.79" fill="none"/>
    </clipPath>
    <clipPath id="clip-path-5">
      <rect id="Rectangle_405722" data-name="Rectangle 405722" width="18.586" height="1.472" fill="none"/>
    </clipPath>
    <clipPath id="clip-path-6">
      <rect id="Rectangle_405723" data-name="Rectangle 405723" width="12.287" height="3.561" fill="none"/>
    </clipPath>
    <clipPath id="clip-path-7">
      <rect id="Rectangle_405725" data-name="Rectangle 405725" width="1.347" height="17.011" fill="none"/>
    </clipPath>
    <clipPath id="clip-path-8">
      <rect id="Rectangle_405726" data-name="Rectangle 405726" width="3.26" height="11.245" fill="none"/>
    </clipPath>
    <clipPath id="clip-path-10">
      <rect id="Rectangle_405729" data-name="Rectangle 405729" width="3.26" height="11.246" fill="none"/>
    </clipPath>
  </defs>
  <g id="Group_1111614" data-name="Group 1111614" transform="translate(-1174.711 -3824)">
    <g id="Group_1111613" data-name="Group 1111613">
      <g id="Group_1109622" data-name="Group 1109622" transform="translate(1174.711 3824)">
        <g id="Group_1073526" data-name="Group 1073526" transform="translate(0 0)">
          <g id="Group_1072785" data-name="Group 1072785" transform="translate(0 0)">
            <path id="Path_608385" data-name="Path 608385" d="M45.092,0A45.092,45.092,0,1,1,0,45.092,45.092,45.092,0,0,1,45.092,0Z" transform="translate(0 0)" fill="none"/>
          </g>
          <g id="Group_1073383" data-name="Group 1073383" transform="translate(0 0)">
            <path id="Path_608385-2" data-name="Path 608385" d="M45.092,0A45.092,45.092,0,1,1,0,45.092,45.092,45.092,0,0,1,45.092,0Z" transform="translate(0 0)" fill="#fff"/>
          </g>
        </g>
      </g>
      <g id="Group_1109625" data-name="Group 1109625" transform="translate(772.574 -2202.469)">
        <rect id="Rectangle_401104" data-name="Rectangle 401104" width="59" height="59" transform="translate(418.137 6042.469)" fill="none"/>
        <g id="Group_1111101" data-name="Group 1111101" transform="translate(421.137 6044.469)">
          <g id="Group_1111100" data-name="Group 1111100" clip-path="url(#clip-path)">
            <g id="Group_1111099" data-name="Group 1111099" transform="translate(0 0)">
              <g id="Group_1111098" data-name="Group 1111098" clip-path="url(#clip-path)">
                <path id="Path_885395" data-name="Path 885395" d="M22.975,23.557c-1.47-.939-1.647-2.741.028-6.983,1.514-3.845.578-15.077-2.032-15.412-2.611.318-3.631,11.54-2.144,15.4,1.64,4.253,1.454,6.052-.028,6.979a6.892,6.892,0,0,0-3.15,4.885l-.089,23.5c0,.864,2.332,1.576,5.214,1.585s5.226-.682,5.231-1.544l.083-23.5a6.886,6.886,0,0,0-3.113-4.91" transform="translate(1.661 0.124)" fill="#b8fafd"/>
                <rect id="Rectangle_405718" data-name="Rectangle 405718" width="20.362" height="7.598" transform="matrix(0.004, -1, 1, 0.004, 18.639, 50.695)" fill="#ff8f18"/>
                <path id="Path_885396" data-name="Path 885396" d="M24.546,38.864c0,.263-1.733.469-3.878.46S16.8,39.1,16.8,38.839s1.733-.474,3.871-.465,3.874.227,3.874.49" transform="translate(1.794 4.096)" fill="#eaedfe"/>
                <path id="Path_885397" data-name="Path 885397" d="M20.688,34.484c-2.136-.011-3.869-.229-3.869-.493L16.8,39.306l7.745.027.022-5.311c0,.263-1.738.469-3.88.463" transform="translate(1.794 3.629)" fill="#eaedfe"/>
                <g id="Group_1111076" data-name="Group 1111076" transform="translate(19.518 28.525)" opacity="0.3" style="mix-blend-mode: overlay;isolation: isolate">
                  <g id="Group_1111075" data-name="Group 1111075">
                    <g id="Group_1111074" data-name="Group 1111074" clip-path="url(#clip-path-3)">
                      <path id="Path_885398" data-name="Path 885398" d="M19.163,44.463a.77.77,0,0,1-1.528,0L17.7,26.448a.771.771,0,0,1,1.531.007Z" transform="translate(-17.635 -25.774)" fill="#fff"/>
                    </g>
                  </g>
                </g>
                <g id="Group_1111079" data-name="Group 1111079" transform="translate(19.805 1.286)" opacity="0.3" style="mix-blend-mode: overlay;isolation: isolate">
                  <g id="Group_1111078" data-name="Group 1111078">
                    <g id="Group_1111077" data-name="Group 1111077" clip-path="url(#clip-path-4)">
                      <path id="Path_885399" data-name="Path 885399" d="M18.029,13.953c1.991-.329,3.577-3.761,3.595-8A14.68,14.68,0,0,0,20.9,1.234a1.443,1.443,0,0,0-.179-.072C18.569,1.424,17.5,9.1,18.029,13.953" transform="translate(-17.895 -1.162)" fill="#fff"/>
                    </g>
                  </g>
                </g>
                <path id="Path_885400" data-name="Path 885400" d="M32.449,47.958c.9-1.413,2.624-1.59,6.7,0,3.7,1.442,14.476.5,14.787-2.005-.311-2.508-11.092-3.446-14.787-2.007-4.08,1.595-5.808,1.422-6.7,0a6.6,6.6,0,0,0-4.7-3H5.186c-.828,0-1.5,2.246-1.5,5.012s.676,5.016,1.506,5.016l22.557-.007a6.6,6.6,0,0,0,4.7-3.007" transform="translate(0.393 4.371)" fill="#befed9"/>
                <rect id="Rectangle_405721" data-name="Rectangle 405721" width="19.55" height="7.292" transform="translate(6.883 46.67)" fill="#cf5c25"/>
                <path id="Path_885401" data-name="Path 885401" d="M13,49.539c-.255,0-.46-1.662-.46-3.718s.2-3.719.458-3.719.458,1.665.458,3.719-.2,3.718-.456,3.718" transform="translate(1.339 4.495)" fill="#eaedfe"/>
                <path id="Path_885402" data-name="Path 885402" d="M17.6,45.822c0-2.053.2-3.72.458-3.72l-5.1,0,0,7.435h5.1c-.255,0-.458-1.662-.458-3.718" transform="translate(1.383 4.494)" fill="#eaedfe"/>
                <g id="Group_1111082" data-name="Group 1111082" transform="translate(9.587 47.498)" opacity="0.3" style="mix-blend-mode: overlay;isolation: isolate">
                  <g id="Group_1111081" data-name="Group 1111081">
                    <g id="Group_1111080" data-name="Group 1111080" clip-path="url(#clip-path-5)">
                      <path id="Path_885403" data-name="Path 885403" d="M9.305,44.388a.741.741,0,0,1,0-1.47l17.294,0a.739.739,0,0,1,0,1.468Z" transform="translate(-8.662 -42.916)" fill="#fff"/>
                    </g>
                  </g>
                </g>
                <g id="Group_1111085" data-name="Group 1111085" transform="translate(42.046 47.643)" opacity="0.3" style="mix-blend-mode: overlay;isolation: isolate">
                  <g id="Group_1111084" data-name="Group 1111084">
                    <g id="Group_1111083" data-name="Group 1111083" clip-path="url(#clip-path-6)">
                      <path id="Path_885404" data-name="Path 885404" d="M37.991,43.185c.321,1.914,3.624,3.424,7.7,3.424a14.163,14.163,0,0,0,4.527-.709,1.322,1.322,0,0,0,.064-.173c-.257-2.069-7.634-3.066-12.286-2.542" transform="translate(-37.99 -43.048)" fill="#fff"/>
                    </g>
                  </g>
                </g>
                <path id="Path_885405" data-name="Path 885405" d="M37.614,20.062c-1.294-.819-1.456-2.4,0-6.135,1.319-3.386.457-13.25-1.836-13.535-2.294.284-3.153,10.151-1.836,13.535,1.46,3.733,1.3,5.316,0,6.135a6.036,6.036,0,0,0-2.75,4.3V45.014c0,.758,2.056,1.376,4.589,1.376s4.59-.62,4.59-1.379l-.006-20.645a6.043,6.043,0,0,0-2.753-4.3" transform="translate(3.33 0.042)" fill="#befed9"/>
                <rect id="Rectangle_405724" data-name="Rectangle 405724" width="6.674" height="17.893" transform="translate(35.765 25.97)" fill="#cf5c25"/>
                <path id="Path_885406" data-name="Path 885406" d="M39.061,33.507c0,.234-1.522.422-3.4.422s-3.4-.186-3.4-.419,1.523-.419,3.4-.419,3.4.186,3.4.417" transform="translate(3.444 3.532)" fill="#eaedfe"/>
                <path id="Path_885407" data-name="Path 885407" d="M35.659,29.669c-1.879,0-3.405-.186-3.405-.419l0,4.669,6.807,0V29.25c0,.234-1.522.419-3.4.419" transform="translate(3.443 3.122)" fill="#eaedfe"/>
                <g id="Group_1111088" data-name="Group 1111088" transform="translate(36.523 24.378)" opacity="0.3" style="mix-blend-mode: overlay;isolation: isolate">
                  <g id="Group_1111087" data-name="Group 1111087">
                    <g id="Group_1111086" data-name="Group 1111086" clip-path="url(#clip-path-7)">
                      <path id="Path_885408" data-name="Path 885408" d="M34.347,38.449a.679.679,0,0,1-1.346,0V22.619a.676.676,0,0,1,1.342,0Z" transform="translate(-33 -22.026)" fill="#fff"/>
                    </g>
                  </g>
                </g>
                <g id="Group_1111091" data-name="Group 1111091" transform="translate(36.656 0.435)" opacity="0.3" style="mix-blend-mode: overlay;isolation: isolate">
                  <g id="Group_1111090" data-name="Group 1111090">
                    <g id="Group_1111089" data-name="Group 1111089" clip-path="url(#clip-path-8)">
                      <path id="Path_885409" data-name="Path 885409" d="M33.246,11.638C35,11.343,36.38,8.321,36.38,4.594a12.968,12.968,0,0,0-.65-4.143,1.21,1.21,0,0,0-.158-.06c-1.893.236-2.806,6.989-2.326,11.246" transform="translate(-33.12 -0.393)" fill="#fff"/>
                    </g>
                  </g>
                </g>
                <path id="Path_885410" data-name="Path 885410" d="M6.42,19.669c-1.294-.819-1.456-2.4,0-6.135C7.74,10.149,6.877.284,4.584,0,2.29.284,1.431,10.151,2.748,13.535c1.46,3.733,1.3,5.316,0,6.135A6.038,6.038,0,0,0,0,23.972V44.621C0,45.379,2.056,46,4.589,46s4.59-.62,4.59-1.379L9.173,23.972a6.045,6.045,0,0,0-2.753-4.3" transform="translate(0 0)" fill="#b8fafd"/>
                <rect id="Rectangle_405727" data-name="Rectangle 405727" width="6.674" height="17.893" transform="translate(1.24 25.536)" fill="#cf5c25"/>
                <path id="Path_885411" data-name="Path 885411" d="M7.867,33.114c0,.234-1.522.422-3.4.422s-3.4-.186-3.4-.419,1.523-.419,3.4-.419,3.4.186,3.4.417" transform="translate(0.113 3.49)" fill="#eaedfe"/>
                <path id="Path_885412" data-name="Path 885412" d="M4.465,29.276c-1.879,0-3.405-.186-3.405-.419l0,4.669,6.807,0V28.857c0,.234-1.522.419-3.4.419" transform="translate(0.113 3.08)" fill="#eaedfe"/>
                <g id="Group_1111094" data-name="Group 1111094" transform="translate(1.998 23.943)" opacity="0.3" style="mix-blend-mode: overlay;isolation: isolate">
                  <g id="Group_1111093" data-name="Group 1111093">
                    <g id="Group_1111092" data-name="Group 1111092" clip-path="url(#clip-path-7)">
                      <path id="Path_885413" data-name="Path 885413" d="M3.153,38.056a.635.635,0,0,1-.671.588.634.634,0,0,1-.675-.588V22.226a.634.634,0,0,1,.672-.593.634.634,0,0,1,.671.593Z" transform="translate(-1.805 -21.634)" fill="#fff"/>
                    </g>
                  </g>
                </g>
                <g id="Group_1111097" data-name="Group 1111097" transform="translate(2.132 0)" opacity="0.3" style="mix-blend-mode: overlay;isolation: isolate">
                  <g id="Group_1111096" data-name="Group 1111096" transform="translate(0 0)">
                    <g id="Group_1111095" data-name="Group 1111095" clip-path="url(#clip-path-10)">
                      <path id="Path_885414" data-name="Path 885414" d="M2.052,11.246C3.8,10.951,5.186,7.928,5.186,4.2A12.968,12.968,0,0,0,4.537.06,1.21,1.21,0,0,0,4.379,0C2.486.236,1.573,6.988,2.052,11.246" transform="translate(-1.926 0)" fill="#fff"/>
                    </g>
                  </g>
                </g>
              </g>
            </g>
          </g>
        </g>
      </g>
    </g>
  </g>
</svg>
