<svg xmlns="http://www.w3.org/2000/svg" xmlns:xlink="http://www.w3.org/1999/xlink" width="122" height="122" viewBox="0 0 122 122">
  <defs>
    <clipPath id="clip-path">
      <rect id="Rectangle_400938" data-name="Rectangle 400938" width="122" height="122" fill="#2bc897"/>
    </clipPath>
    <clipPath id="clip-path-2">
      <path id="Path_873460" data-name="Path 873460" d="M0,1.307A1.349,1.349,0,0,0,1.389,2.613,1.349,1.349,0,0,0,2.778,1.307,1.349,1.349,0,0,0,1.389,0,1.349,1.349,0,0,0,0,1.307" transform="translate(0)" fill="#005865"/>
    </clipPath>
    <clipPath id="clip-path-3">
      <path id="Path_873466" data-name="Path 873466" d="M0,1.307A1.349,1.349,0,0,0,1.39,2.613,1.349,1.349,0,0,0,2.778,1.307,1.349,1.349,0,0,0,1.39,0,1.349,1.349,0,0,0,0,1.307" fill="#005865"/>
    </clipPath>
    <clipPath id="clip-path-4">
      <path id="Path_873467" data-name="Path 873467" d="M0,1.306A1.349,1.349,0,0,0,1.389,2.612,1.349,1.349,0,0,0,2.778,1.306,1.349,1.349,0,0,0,1.389,0,1.349,1.349,0,0,0,0,1.306" transform="translate(0 0)" fill="#005865"/>
    </clipPath>
    <clipPath id="clip-path-5">
      <path id="Path_873468" data-name="Path 873468" d="M0,1.306A1.349,1.349,0,0,0,1.39,2.612,1.349,1.349,0,0,0,2.778,1.306,1.349,1.349,0,0,0,1.39,0,1.349,1.349,0,0,0,0,1.306" transform="translate(0 0)" fill="#005865"/>
    </clipPath>
    <clipPath id="clip-path-6">
      <path id="Path_873469" data-name="Path 873469" d="M0,1.306A1.349,1.349,0,0,0,1.389,2.612,1.349,1.349,0,0,0,2.777,1.306,1.349,1.349,0,0,0,1.389,0,1.349,1.349,0,0,0,0,1.306" transform="translate(0 0)" fill="#005865"/>
    </clipPath>
    <clipPath id="clip-path-9">
      <path id="Path_873473" data-name="Path 873473" d="M0,1.306A1.349,1.349,0,0,0,1.39,2.612,1.348,1.348,0,0,0,2.778,1.306,1.349,1.349,0,0,0,1.39,0,1.349,1.349,0,0,0,0,1.306" transform="translate(0 0)" fill="#005865"/>
    </clipPath>
    <clipPath id="clip-path-22">
      <rect id="Rectangle_401492" data-name="Rectangle 401492" width="54.022" height="54.022" transform="translate(-0.73 -0.301)" fill="#fff" stroke="#707070" stroke-width="1"/>
    </clipPath>
    <clipPath id="clip-path-23">
      <rect id="Rectangle_405884" data-name="Rectangle 405884" width="49.289" height="47.519" fill="#fff"/>
    </clipPath>
  </defs>
  <g id="Group_1109295" data-name="Group 1109295" transform="translate(23057.926 3814.948)">
    <g id="Group_1100237" data-name="Group 1100237" transform="translate(-23054.037 -3797.84)">
      <g id="Group_1099505" data-name="Group 1099505" transform="translate(1.808 8.418)">
        <g id="Group_1099504" data-name="Group 1099504" transform="translate(0)" clip-path="url(#clip-path-2)">
          <rect id="Rectangle_401140" data-name="Rectangle 401140" width="2.777" height="2.613" transform="translate(0)" fill="#005865"/>
        </g>
      </g>
      <g id="Group_1099517" data-name="Group 1099517" transform="translate(37.056 8.418)">
        <g id="Group_1099516" data-name="Group 1099516" transform="translate(0)" clip-path="url(#clip-path-3)">
          <rect id="Rectangle_401146" data-name="Rectangle 401146" width="2.778" height="2.613" transform="translate(0 0)" fill="#005865"/>
        </g>
      </g>
      <g id="Group_1099519" data-name="Group 1099519" transform="translate(30.194 8.418)">
        <g id="Group_1099518" data-name="Group 1099518" transform="translate(0 0)" clip-path="url(#clip-path-4)">
          <rect id="Rectangle_401147" data-name="Rectangle 401147" width="2.778" height="2.612" transform="translate(0 0)" fill="#005865"/>
        </g>
      </g>
      <g id="Group_1099521" data-name="Group 1099521" transform="translate(23.332 8.418)">
        <g id="Group_1099520" data-name="Group 1099520" transform="translate(0 0)" clip-path="url(#clip-path-5)">
          <rect id="Rectangle_401148" data-name="Rectangle 401148" width="2.778" height="2.612" transform="translate(0 0)" fill="#005865"/>
        </g>
      </g>
      <g id="Group_1099523" data-name="Group 1099523" transform="translate(16.47 8.418)">
        <g id="Group_1099522" data-name="Group 1099522" transform="translate(0 0)" clip-path="url(#clip-path-6)">
          <rect id="Rectangle_401149" data-name="Rectangle 401149" width="2.777" height="2.612" transform="translate(0 0)" fill="#005865"/>
        </g>
      </g>
      <g id="Group_1099525" data-name="Group 1099525" transform="translate(34.311 0)">
        <g id="Group_1099524" data-name="Group 1099524" clip-path="url(#clip-path-4)">
          <rect id="Rectangle_401150" data-name="Rectangle 401150" width="2.778" height="2.612" transform="translate(0 0)" fill="#005865"/>
        </g>
      </g>
      <g id="Group_1099529" data-name="Group 1099529" transform="translate(27.448 0)">
        <g id="Group_1099528" data-name="Group 1099528" transform="translate(0)" clip-path="url(#clip-path-5)">
          <rect id="Rectangle_401152" data-name="Rectangle 401152" width="2.778" height="2.612" transform="translate(0 0)" fill="#005865"/>
        </g>
      </g>
      <g id="Group_1099531" data-name="Group 1099531" transform="translate(13.724 0)">
        <g id="Group_1099530" data-name="Group 1099530" transform="translate(0)" clip-path="url(#clip-path-9)">
          <rect id="Rectangle_401153" data-name="Rectangle 401153" width="2.777" height="2.612" transform="translate(0 0)" fill="#005865"/>
        </g>
      </g>
      <g id="Group_1099533" data-name="Group 1099533" transform="translate(6.862 0)">
        <g id="Group_1099532" data-name="Group 1099532" clip-path="url(#clip-path-4)">
          <rect id="Rectangle_401154" data-name="Rectangle 401154" width="2.778" height="2.612" transform="translate(0 0)" fill="#005865"/>
        </g>
      </g>
      <g id="Group_1099535" data-name="Group 1099535" transform="translate(0 0)">
        <g id="Group_1099534" data-name="Group 1099534" transform="translate(0)" clip-path="url(#clip-path-5)">
          <rect id="Rectangle_401155" data-name="Rectangle 401155" width="2.778" height="2.612" transform="translate(0 0)" fill="#005865"/>
        </g>
      </g>
    </g>
    <g id="Group_1100238" data-name="Group 1100238" transform="translate(-22980.445 -3724.661)">
      <g id="Group_1099505-2" data-name="Group 1099505" transform="translate(1.808 8.418)">
        <g id="Group_1099504-2" data-name="Group 1099504" transform="translate(0)" clip-path="url(#clip-path-2)">
          <rect id="Rectangle_401140-2" data-name="Rectangle 401140" width="2.777" height="2.613" transform="translate(0)" fill="#005865"/>
        </g>
      </g>
      <g id="Group_1099517-2" data-name="Group 1099517" transform="translate(37.056 8.418)">
        <g id="Group_1099516-2" data-name="Group 1099516" transform="translate(0)" clip-path="url(#clip-path-3)">
          <rect id="Rectangle_401146-2" data-name="Rectangle 401146" width="2.778" height="2.613" transform="translate(0 0)" fill="#005865"/>
        </g>
      </g>
      <g id="Group_1099519-2" data-name="Group 1099519" transform="translate(30.194 8.418)">
        <g id="Group_1099518-2" data-name="Group 1099518" transform="translate(0 0)" clip-path="url(#clip-path-4)">
          <rect id="Rectangle_401147-2" data-name="Rectangle 401147" width="2.778" height="2.612" transform="translate(0 0)" fill="#005865"/>
        </g>
      </g>
      <g id="Group_1099521-2" data-name="Group 1099521" transform="translate(23.332 8.418)">
        <g id="Group_1099520-2" data-name="Group 1099520" transform="translate(0 0)" clip-path="url(#clip-path-5)">
          <rect id="Rectangle_401148-2" data-name="Rectangle 401148" width="2.778" height="2.612" transform="translate(0 0)" fill="#005865"/>
        </g>
      </g>
      <g id="Group_1099523-2" data-name="Group 1099523" transform="translate(16.47 8.418)">
        <g id="Group_1099522-2" data-name="Group 1099522" transform="translate(0 0)" clip-path="url(#clip-path-6)">
          <rect id="Rectangle_401149-2" data-name="Rectangle 401149" width="2.777" height="2.612" transform="translate(0 0)" fill="#005865"/>
        </g>
      </g>
      <g id="Group_1099525-2" data-name="Group 1099525" transform="translate(34.311 0)">
        <g id="Group_1099524-2" data-name="Group 1099524" clip-path="url(#clip-path-4)">
          <rect id="Rectangle_401150-2" data-name="Rectangle 401150" width="2.778" height="2.612" transform="translate(0 0)" fill="#005865"/>
        </g>
      </g>
      <g id="Group_1099529-2" data-name="Group 1099529" transform="translate(27.448 0)">
        <g id="Group_1099528-2" data-name="Group 1099528" transform="translate(0)" clip-path="url(#clip-path-5)">
          <rect id="Rectangle_401152-2" data-name="Rectangle 401152" width="2.778" height="2.612" transform="translate(0 0)" fill="#005865"/>
        </g>
      </g>
      <g id="Group_1099531-2" data-name="Group 1099531" transform="translate(13.724 0)">
        <g id="Group_1099530-2" data-name="Group 1099530" transform="translate(0)" clip-path="url(#clip-path-9)">
          <rect id="Rectangle_401153-2" data-name="Rectangle 401153" width="2.777" height="2.612" transform="translate(0 0)" fill="#005865"/>
        </g>
      </g>
      <g id="Group_1099533-2" data-name="Group 1099533" transform="translate(6.862 0)">
        <g id="Group_1099532-2" data-name="Group 1099532" clip-path="url(#clip-path-4)">
          <rect id="Rectangle_401154-2" data-name="Rectangle 401154" width="2.778" height="2.612" transform="translate(0 0)" fill="#005865"/>
        </g>
      </g>
      <g id="Group_1099535-2" data-name="Group 1099535" transform="translate(0 0)">
        <g id="Group_1099534-2" data-name="Group 1099534" transform="translate(0)" clip-path="url(#clip-path-5)">
          <rect id="Rectangle_401155-2" data-name="Rectangle 401155" width="2.778" height="2.612" transform="translate(0 0)" fill="#005865"/>
        </g>
      </g>
    </g>
    <path id="Union_17" data-name="Union 17" d="M-4150.107,4311.383l-33.056-32.927a18.528,18.528,0,0,1,0-26.2l33.054-32.926a18.7,18.7,0,0,1,26.3,0l33.056,32.928a18.528,18.528,0,0,1,0,26.2l-33.056,32.927a18.576,18.576,0,0,1-13.15,5.4A18.575,18.575,0,0,1-4150.107,4311.383Z" transform="translate(-18858.305 -8017.512)" fill="#41cee2" stroke="rgba(0,0,0,0)" stroke-miterlimit="10" stroke-width="1"/>
    <circle id="Ellipse_11579" data-name="Ellipse 11579" cx="39.5" cy="39.5" r="39.5" transform="translate(-23034.504 -3791.418)" fill="#005865"/>
    <g id="Mask_Group_1098697" data-name="Mask Group 1098697" transform="translate(-23022.008 -3778.646)" clip-path="url(#clip-path-22)">
      <g id="Group_1111365" data-name="Group 1111365" transform="translate(1.27 2.699)">
        <g id="Group_1111364" data-name="Group 1111364" clip-path="url(#clip-path-23)">
          <path id="Path_885703" data-name="Path 885703" d="M4.587,40.288c-.883-.157-.968-1.35.11-1.5l9.5-.021c1.354-3.806,5.021-5.337,8.8-3.993a6.674,6.674,0,0,0,1.031.472c.173,0,1.369-.621,1.784-.726.3-.076,1.561-.2,1.594-.341l-.073-20.059c-.141-.659-.691-.777-1.287-.828-3.118-.267-6.614.206-9.773,0-1.048-.176-1.323,1.62-2.273.86-.49-.392-.3-.707-1.179-.835-.769-.112-2.855.143-3.346-.078-.675-.3-.464-1.256.452-1.358a14.96,14.96,0,0,1,3.776.152c.194.064.713.423.756.423.085,0,1.14-.725,1.513-.573l9.215-.051.5-1.461c-.891-.052-1.781.315-1.914-.857-.3-2.686.229-5.919,0-8.664a.826.826,0,0,1,.681-.83L45.782,0c.619.011.8.4.857.956.294,2.662-.22,5.843,0,8.562-.133,1.172-1.022.805-1.914.857a5.066,5.066,0,0,0,1.066,2.408c.869,1.159,2.382,1.745,2.982,3.061a11.141,11.141,0,0,1,.385,4.453.737.737,0,0,1-1.36.349,21.991,21.991,0,0,1-.054-3.069c-.16-1.756-1.019-1.845-2.115-2.821A7.925,7.925,0,0,1,43.2,10.384l-15.84,0-.568,1.6a2.143,2.143,0,0,1,1.361.705h.149c-.013-.409.28-.563.653-.607,2.234-.259,4.961.193,7.249.008a.716.716,0,0,1,.608,1,2.707,2.707,0,0,1-.4.4H28.71l.1,7.453H44.674c.227,0,.528.5.458.751l-.1,16.026a1.938,1.938,0,0,1-.46.345H33.544a7.313,7.313,0,0,1,0,5.842h3.475c.494,0,.862,1.162.08,1.389l-4.592.041a6.757,6.757,0,0,1-7.551,1.668c-.379-.147-.639-.439-1.024-.479a6.76,6.76,0,0,1-9.785-3.416l-.994.3c-3.521-.236-7.411.3-10.887,0A2.482,2.482,0,0,1,0,41.149L.03,13.976a2.485,2.485,0,0,1,2.438-2.095,28.971,28.971,0,0,1,4.329.009.706.706,0,1,1-.09,1.409c-1.061.1-4.341-.3-4.984.355a1.376,1.376,0,0,0-.285.622V41.02A1.113,1.113,0,0,0,2.572,42c3.187.356,7.018-.267,10.274,0,1.073-.123,1-.813.957-1.712ZM27.1,1.511H25.285V8.964H27.1Zm4.935,0H28.508V8.964h3.525Zm4.935,0H33.444v7.3l.151.151h3.374Zm4.935,0H38.379V8.964H41.9Zm3.223,0H43.314v7.3l.151.151h1.662ZM28.81,32.331H43.566l.151-.151V22.511l-.151-.151H28.81Zm3.022,3.425c.109.2.66.907.856.907H43.717V33.742H28.81l0,.7c1.125-.067,2.15,1.051,3.017,1.314-.374-.677-.3-1.218.552-1.312a38.707,38.707,0,0,1,5.737.009.721.721,0,0,1,.206,1.4c-1.932-.11-4.035.156-5.945.006a2.474,2.474,0,0,1-.549-.1m-11.5-.074c-6.8.133-6.655,10.74.48,10.351,6.59-.359,6.225-10.482-.48-10.351M27,41.9h2.669a.727.727,0,0,1-.1,1.415,26.262,26.262,0,0,0-2.979.043l-1.308,2.115a5.135,5.135,0,1,0,0-9.162A6.854,6.854,0,0,1,27,41.9" fill="#fff"/>
          <path id="Path_885704" data-name="Path 885704" d="M398.661,225.034a.922.922,0,0,1,.237.618c-.324,5.924.407,12.266,0,18.141a4,4,0,0,1-3.2,3.748,39.688,39.688,0,0,1-6.023.028c-.92-.078-1.016-.96-.253-1.369,1.864-.241,4.045.18,5.872-.071a2.569,2.569,0,0,0,2.2-2.539l.071-18.361a.79.79,0,0,1,1.105-.2" transform="translate(-349.735 -202.241)" fill="#fff"/>
          <path id="Path_885705" data-name="Path 885705" d="M137.289,147.714a1.38,1.38,0,0,1,.232.724v18.038c0,1.279-1.519,1.279-1.519,0l.054-18.389a.772.772,0,0,1,1.235-.373" transform="translate(-122.303 -132.68)" fill="#fff"/>
          <path id="Path_885706" data-name="Path 885706" d="M178,256.188c4.977-.3,5.211,7.431.169,7.435-4.649,0-4.958-7.15-.169-7.435m-.412,1.507c-2.158.439-2.128,4.047.084,4.4a2.266,2.266,0,1,0-.084-4.4" transform="translate(-156.959 -230.377)" fill="#fff"/>
          <path id="Path_885707" data-name="Path 885707" d="M42.391,256.185c5.071-.3,5.2,7.438.27,7.435-4.769,0-4.956-7.156-.27-7.435m-.31,1.508a2.3,2.3,0,0,0-1.327,3.495,2.325,2.325,0,0,0,3.216.51,2.259,2.259,0,0,0-1.889-4" transform="translate(-35.052 -230.374)" fill="#fff"/>
          <path id="Path_885708" data-name="Path 885708" d="M178.019,164.19c4.906-.288,5.254,7.288.271,7.433-4.7.137-5.128-7.149-.271-7.433m-.31,1.508c-2.405.409-2.275,4.368.405,4.482,3.212.137,3.138-5.084-.405-4.482" transform="translate(-156.982 -147.645)" fill="#fff"/>
          <path id="Path_885709" data-name="Path 885709" d="M42.43,164.186c5-.3,5.237,7.3.371,7.433-4.816.135-5.127-7.151-.371-7.433m-.31,1.508c-2.4.413-2.239,4.425.507,4.48,3.157.064,3.019-5.088-.507-4.48" transform="translate(-35.091 -147.642)" fill="#fff"/>
          <path id="Path_885710" data-name="Path 885710" d="M39.415,362.717a13.827,13.827,0,0,1,2.475,0c.712.163.58,1.215-.1,1.367a11.97,11.97,0,0,1-2.274,0,.707.707,0,0,1-.1-1.367" transform="translate(-35.008 -326.133)" fill="#fff"/>
          <path id="Path_885711" data-name="Path 885711" d="M374.484,119.808a6.594,6.594,0,0,1,1.919.053.721.721,0,0,1-.234,1.33,7.328,7.328,0,0,1-1.934-.069.72.72,0,0,1,.249-1.315" transform="translate(-336.235 -107.7)" fill="#fff"/>
          <path id="Path_885712" data-name="Path 885712" d="M317.412,237.7a2.646,2.646,0,0,1-3.742,3.742,2.646,2.646,0,1,1,3.742-3.742m-2.059-.485c-.378.131-.214,1.149-.268,1.446-.118.653-1.255.544-1.746.571-.156.047-.176.185-.175.339a.455.455,0,0,0,.059.253c.424.422,1.24-.006,1.66.354.448.386-.092,1.774.658,1.77.647,0,.395-.942.459-1.364.141-.923,1.212-.368,1.706-.61.248-.122.312-.651.036-.741-.494-.028-1.625.084-1.745-.571-.076-.412.224-1.746-.644-1.446" transform="translate(-280.335 -212.026)" fill="#fff"/>
          <path id="Path_885713" data-name="Path 885713" d="M174.425,401c-.339.336-.728.206-1.073-.029a24.581,24.581,0,0,1-2.527-2.508c-.425-.53-.614-1.405.262-1.462.347-.022,1.45,1.053,1.758,1.356.546.538,1.052,1.257,1.651,1.774a.707.707,0,0,1-.07.87" transform="translate(-153.298 -357.018)" fill="#fff"/>
          <path id="Path_885714" data-name="Path 885714" d="M194.467,283.009c1.171-.236,1.265,1.864.269,1.994-1.087.142-1.116-1.824-.269-1.994" transform="translate(-174.345 -254.487)" fill="#fff"/>
          <path id="Path_885715" data-name="Path 885715" d="M58.793,283.227a1.356,1.356,0,0,1,.621-.227c.968.053.959,2.271-.272,1.993-.62-.14-.611-1.489-.349-1.767" transform="translate(-52.719 -254.496)" fill="#fff"/>
          <path id="Path_885716" data-name="Path 885716" d="M194.464,191.007c1.19-.24,1.244,1.9.269,2-1.089.108-1.114-1.826-.269-2" transform="translate(-174.342 -171.751)" fill="#fff"/>
          <path id="Path_885717" data-name="Path 885717" d="M58.788,192.8c-.272-.336-.274-1.622.348-1.758,1.237-.269,1.182,1.857.372,1.99a.915.915,0,0,1-.72-.232" transform="translate(-52.71 -171.783)" fill="#fff"/>
        </g>
      </g>
    </g>
  </g>
</svg>
