<svg id="Group_1109598" data-name="Group 1109598" xmlns="http://www.w3.org/2000/svg" xmlns:xlink="http://www.w3.org/1999/xlink" width="295" height="269" viewBox="0 0 295 269">
  <defs>
    <clipPath id="clip-path">
      <rect id="Rectangle_404904" data-name="Rectangle 404904" width="295" height="269" fill="none"/>
    </clipPath>
    <clipPath id="clip-path-2">
      <rect id="Rectangle_406268" data-name="Rectangle 406268" width="285.711" height="262.969" fill="none"/>
    </clipPath>
    <clipPath id="clip-path-3">
      <rect id="Rectangle_406267" data-name="Rectangle 406267" width="285.71" height="262.971" fill="none"/>
    </clipPath>
    <clipPath id="clip-path-4">
      <rect id="Rectangle_406257" data-name="Rectangle 406257" width="3.157" height="39.133" fill="none"/>
    </clipPath>
    <clipPath id="clip-path-5">
      <rect id="Rectangle_406258" data-name="Rectangle 406258" width="7.375" height="25.848" fill="none"/>
    </clipPath>
    <clipPath id="clip-path-6">
      <rect id="Rectangle_406260" data-name="Rectangle 406260" width="36.762" height="2.976" fill="none"/>
    </clipPath>
    <clipPath id="clip-path-7">
      <rect id="Rectangle_406261" data-name="Rectangle 406261" width="24.303" height="7.195" fill="none"/>
    </clipPath>
    <clipPath id="clip-path-8">
      <rect id="Rectangle_406262" data-name="Rectangle 406262" width="25.99" height="99.71" fill="none"/>
    </clipPath>
    <clipPath id="clip-path-9">
      <rect id="Rectangle_406264" data-name="Rectangle 406264" width="45.166" height="4.121" fill="none"/>
    </clipPath>
    <clipPath id="clip-path-10">
      <rect id="Rectangle_406265" data-name="Rectangle 406265" width="5.105" height="65.964" fill="none"/>
    </clipPath>
  </defs>
  <g id="Group_1109597" data-name="Group 1109597" clip-path="url(#clip-path)">
    <g id="Group_1111548" data-name="Group 1111548" transform="translate(0 0)">
      <g id="Group_1111547" data-name="Group 1111547" clip-path="url(#clip-path-2)">
        <g id="Group_1111546" data-name="Group 1111546" transform="translate(0 -0.001)">
          <g id="Group_1111545" data-name="Group 1111545" clip-path="url(#clip-path-3)">
            <path id="Path_886236" data-name="Path 886236" d="M17.889,0h96.6c4.954,0,6.183,4.638,8.984,9.186l4.241,6.651H249.274a9.087,9.087,0,0,1,8.984,9.177V145.159a9.083,9.083,0,0,1-8.984,9.183H17.889A9.081,9.081,0,0,1,8.9,145.159V9.186A9.084,9.084,0,0,1,17.889,0" transform="translate(17.655 0.001)" fill="#2bc897"/>
            <path id="Path_886237" data-name="Path 886237" d="M248.746,108.251a10.265,10.265,0,0,1-10.15,10.376H21.295a10.264,10.264,0,0,1-10.147-10.376V18.392A10.26,10.26,0,0,1,21.295,8.025H238.6a10.261,10.261,0,0,1,10.15,10.367Z" transform="translate(22.102 15.911)" fill="#fff"/>
            <path id="Path_886238" data-name="Path 886238" d="M28.024,94.293a6.058,6.058,0,1,1-12.112,0V17.474a6.058,6.058,0,1,1,12.112,0Z" transform="translate(31.547 22.369)" fill="#bdc3c7"/>
            <path id="Path_886239" data-name="Path 886239" d="M28.6,45.558a2.5,2.5,0,1,1-5,0V13.832a2.5,2.5,0,1,1,5,0Z" transform="translate(46.795 22.369)" fill="#bdc3c7"/>
            <path id="Path_886240" data-name="Path 886240" d="M33.313,45.558a2.5,2.5,0,1,1-5,0V13.832a2.5,2.5,0,1,1,5,0Z" transform="translate(56.141 22.369)" fill="#bdc3c7"/>
            <path id="Path_886241" data-name="Path 886241" d="M38.026,45.558a2.5,2.5,0,1,1-5,0V13.832a2.5,2.5,0,1,1,5,0Z" transform="translate(65.484 22.369)" fill="#bdc3c7"/>
            <path id="Path_886242" data-name="Path 886242" d="M42.737,45.558a2.5,2.5,0,1,1-5,0V13.832a2.5,2.5,0,1,1,5,0Z" transform="translate(74.824 22.369)" fill="#bdc3c7"/>
            <path id="Path_886243" data-name="Path 886243" d="M65.328,33.68a1.632,1.632,0,1,1-3.263,0V12.948a1.632,1.632,0,1,1,3.263,0Z" transform="translate(123.048 22.367)" fill="#bdc3c7"/>
            <path id="Path_886244" data-name="Path 886244" d="M68.509,33.68a1.633,1.633,0,1,1-3.266,0V12.948a1.633,1.633,0,1,1,3.266,0Z" transform="translate(129.349 22.367)" fill="#bdc3c7"/>
            <path id="Path_886245" data-name="Path 886245" d="M71.685,33.68a1.633,1.633,0,1,1-3.266,0V12.948a1.633,1.633,0,1,1,3.266,0Z" transform="translate(135.646 22.367)" fill="#bdc3c7"/>
            <path id="Path_886246" data-name="Path 886246" d="M74.862,33.68a1.633,1.633,0,1,1-3.266,0V12.948a1.633,1.633,0,1,1,3.266,0Z" transform="translate(141.944 22.367)" fill="#bdc3c7"/>
            <path id="Path_886247" data-name="Path 886247" d="M78.039,33.68a1.633,1.633,0,1,1-3.266,0V12.948a1.633,1.633,0,1,1,3.266,0Z" transform="translate(148.243 22.367)" fill="#bdc3c7"/>
            <path id="Path_886248" data-name="Path 886248" d="M81.216,33.68a1.633,1.633,0,1,1-3.266,0V12.948a1.633,1.633,0,1,1,3.266,0Z" transform="translate(154.542 22.367)" fill="#bdc3c7"/>
            <path id="Path_886249" data-name="Path 886249" d="M84.393,33.68a1.633,1.633,0,1,1-3.266,0V12.948a1.633,1.633,0,1,1,3.266,0Z" transform="translate(160.84 22.367)" fill="#bdc3c7"/>
            <path id="Path_886250" data-name="Path 886250" d="M264.883,13.283H160.693c-5.357,0-6.672,5.008-9.7,9.9l-4.569,7.179H15.3A9.8,9.8,0,0,0,5.62,40.269V169.856a9.8,9.8,0,0,0,9.684,9.9H264.883a9.792,9.792,0,0,0,9.684-9.9V23.185a9.8,9.8,0,0,0-9.684-9.9" transform="translate(11.142 26.336)" fill="#2bc897"/>
            <path id="Path_886251" data-name="Path 886251" d="M143.4,79.849c0,31.049-24.621,56.216-55.008,56.216S33.379,110.9,33.379,79.849,58.006,23.63,88.393,23.63,143.4,48.8,143.4,79.849" transform="translate(66.176 46.849)" fill="#fff"/>
            <path id="Path_886252" data-name="Path 886252" d="M102.392,52.37H86.038V35.65a4.452,4.452,0,0,0-4.384-4.486H65.882a4.45,4.45,0,0,0-4.393,4.486V52.37H45.147a4.428,4.428,0,0,0-4.393,4.489v16.1a4.444,4.444,0,0,0,4.393,4.51H61.489V94.15a4.449,4.449,0,0,0,4.393,4.507H81.654a4.451,4.451,0,0,0,4.384-4.507V77.471h16.353a4.449,4.449,0,0,0,4.39-4.51v-16.1a4.433,4.433,0,0,0-4.39-4.489" transform="translate(80.798 61.786)" fill="#41cee2"/>
            <path id="Path_886253" data-name="Path 886253" d="M39.081,91.689c-2.905-1.9-3.257-5.539.054-14.114,3-7.773,1.145-30.47-4.015-31.15-5.169.641-7.185,23.324-4.244,31.117,3.245,8.6,2.875,12.237-.054,14.111a14.006,14.006,0,0,0-6.234,9.875l-.167,47.492c-.006,1.748,4.608,3.182,10.308,3.2s10.338-1.375,10.344-3.12l.17-47.495a13.98,13.98,0,0,0-6.162-9.917" transform="translate(48.418 92.042)" fill="#41cee2"/>
            <rect id="Rectangle_406256" data-name="Rectangle 406256" width="41.158" height="15.026" transform="translate(75.638 238.334) rotate(-89.795)" fill="#ff8f18"/>
            <path id="Path_886254" data-name="Path 886254" d="M40.651,75.325c0,.531-3.433.951-7.671.931s-7.653-.453-7.65-.984,3.433-.954,7.659-.937,7.665.459,7.662.99" transform="translate(50.219 147.373)" fill="#eaedfe"/>
            <path id="Path_886255" data-name="Path 886255" d="M33.021,72.042c-4.226-.018-7.656-.459-7.653-1l-.039,10.743,15.324.054L40.7,71.109c-.006.531-3.436.948-7.674.934" transform="translate(50.217 140.855)" fill="#eaedfe"/>
            <g id="Group_1111526" data-name="Group 1111526" transform="translate(77.376 193.522)" opacity="0.3" style="mix-blend-mode: overlay;isolation: isolate">
              <g id="Group_1111525" data-name="Group 1111525">
                <g id="Group_1111524" data-name="Group 1111524" clip-path="url(#clip-path-4)">
                  <path id="Path_886256" data-name="Path 886256" d="M28.964,102.661a1.519,1.519,0,0,1-3.021-.009l.131-36.408a1.522,1.522,0,0,1,3.027.012Z" transform="translate(-25.942 -64.883)" fill="#fff"/>
                </g>
              </g>
            </g>
            <g id="Group_1111529" data-name="Group 1111529" transform="translate(77.944 138.468)" opacity="0.3" style="mix-blend-mode: overlay;isolation: isolate">
              <g id="Group_1111528" data-name="Group 1111528">
                <g id="Group_1111527" data-name="Group 1111527" clip-path="url(#clip-path-5)">
                  <path id="Path_886257" data-name="Path 886257" d="M26.4,72.273c3.943-.662,7.078-7.6,7.11-16.177a30.252,30.252,0,0,0-1.426-9.526,2.106,2.106,0,0,0-.355-.143c-4.262.525-6.374,16.049-5.33,25.847" transform="translate(-26.132 -46.424)" fill="#fff"/>
                </g>
              </g>
            </g>
            <path id="Path_886258" data-name="Path 886258" d="M72.595,89.709c1.772-2.86,5.19-3.215,13.258,0,7.313,2.914,28.633,1.011,29.25-4.059-.617-5.067-21.94-6.961-29.25-4.047-8.068,3.221-11.486,2.869-13.258,0a13,13,0,0,0-9.3-6.073l-44.619,0c-1.64,0-2.974,4.537-2.971,10.126S17.035,95.8,18.679,95.8L63.3,95.791a13.008,13.008,0,0,0,9.3-6.081" transform="translate(31.136 149.751)" fill="#2bc897"/>
            <rect id="Rectangle_406259" data-name="Rectangle 406259" width="38.669" height="14.74" transform="translate(52.386 228.02)" fill="#cf5c25"/>
            <path id="Path_886259" data-name="Path 886259" d="M23.113,91.432c-.5,0-.91-3.358-.91-7.516s.4-7.513.9-7.513.91,3.361.91,7.513-.406,7.516-.9,7.516" transform="translate(44.019 151.476)" fill="#eaedfe"/>
            <path id="Path_886260" data-name="Path 886260" d="M31.7,83.918c0-4.149.4-7.516.9-7.516l-10.093.006.006,15.026H32.6c-.5,0-.907-3.361-.907-7.516" transform="translate(44.62 151.474)" fill="#eaedfe"/>
            <g id="Group_1111532" data-name="Group 1111532" transform="translate(57.733 229.694)" opacity="0.3" style="mix-blend-mode: overlay;isolation: isolate">
              <g id="Group_1111531" data-name="Group 1111531">
                <g id="Group_1111530" data-name="Group 1111530" clip-path="url(#clip-path-6)">
                  <path id="Path_886261" data-name="Path 886261" d="M20.636,79.988a1.5,1.5,0,0,1,0-2.971l34.2-.006a1.5,1.5,0,0,1,0,2.971Z" transform="translate(-19.359 -77.013)" fill="#fff"/>
                </g>
              </g>
            </g>
            <g id="Group_1111535" data-name="Group 1111535" transform="translate(121.936 229.992)" opacity="0.3" style="mix-blend-mode: overlay;isolation: isolate">
              <g id="Group_1111534" data-name="Group 1111534">
                <g id="Group_1111533" data-name="Group 1111533" clip-path="url(#clip-path-7)">
                  <path id="Path_886262" data-name="Path 886262" d="M40.883,77.391c.635,3.862,7.167,6.917,15.223,6.917a27.343,27.343,0,0,0,8.948-1.435,1.864,1.864,0,0,0,.134-.349c-.513-4.182-15.1-6.195-24.305-5.133" transform="translate(-40.882 -77.112)" fill="#fff"/>
                </g>
              </g>
            </g>
            <path id="Path_886263" data-name="Path 886263" d="M49.38,49.966c-1.56-1.948,0-10.069,0-10.069H9.714s1.554,8.154,0,10.129C6.15,54.559,0,56.322,0,62.38V126.97a12.533,12.533,0,0,0,12.4,12.667H46.9A12.535,12.535,0,0,0,59.3,126.97V62.38c0-6.126-6.266-7.847-9.917-12.413" transform="translate(0 79.1)" fill="#e5cb82"/>
            <path id="Path_886264" data-name="Path 886264" d="M12.069,110.4H41.934A10.849,10.849,0,0,0,52.665,99.439V51.876H1.335V99.439A10.852,10.852,0,0,0,12.069,110.4" transform="translate(2.647 102.849)" fill="#cf5c25"/>
            <g id="Group_1111538" data-name="Group 1111538" transform="translate(33.306 119.245)" opacity="0.3" style="mix-blend-mode: overlay;isolation: isolate">
              <g id="Group_1111537" data-name="Group 1111537">
                <g id="Group_1111536" data-name="Group 1111536" clip-path="url(#clip-path-8)">
                  <path id="Path_886265" data-name="Path 886265" d="M37.157,127.05V62.46c0-6.126-6.263-7.85-9.917-12.413-1.56-1.951,0-10.066,0-10.066H11.167C11.45,45.1,12.548,56.274,21.352,61.9c6.314,4.044,4.3,2.225,3.758,30.237-.388,20.323-.188,38.872-.048,47.548a12.528,12.528,0,0,0,12.094-12.64" transform="translate(-11.166 -39.981)"/>
                </g>
              </g>
            </g>
            <path id="Path_886266" data-name="Path 886266" d="M45.159,37.2H4.745c-1.309,0-2.377,1.6-2.377,3.573v6.86H47.536v-6.86c0-1.977-1.068-3.573-2.377-3.573" transform="translate(4.695 73.757)" fill="#cf5c25"/>
            <g id="Group_1111541" data-name="Group 1111541" transform="translate(7.063 117.271)" opacity="0.3" style="mix-blend-mode: overlay;isolation: isolate">
              <g id="Group_1111540" data-name="Group 1111540">
                <g id="Group_1111539" data-name="Group 1111539" clip-path="url(#clip-path-9)">
                  <rect id="Rectangle_406263" data-name="Rectangle 406263" width="45.165" height="4.122" transform="translate(0.002 -0.002)"/>
                </g>
              </g>
            </g>
            <g id="Group_1111544" data-name="Group 1111544" transform="translate(9.611 138.423)" opacity="0.3">
              <g id="Group_1111543" data-name="Group 1111543">
                <g id="Group_1111542" data-name="Group 1111542" clip-path="url(#clip-path-10)">
                  <path id="Path_886267" data-name="Path 886267" d="M8.328,110.076a2.439,2.439,0,0,1-2.553,2.3,2.441,2.441,0,0,1-2.553-2.3V48.713a2.444,2.444,0,0,1,2.553-2.3,2.442,2.442,0,0,1,2.553,2.3Z" transform="translate(-3.223 -46.41)" fill="#fff"/>
                </g>
              </g>
            </g>
            <rect id="Rectangle_406266" data-name="Rectangle 406266" width="59.297" height="33.268" transform="translate(0 163.535)" fill="#dce1f4"/>
            <path id="Path_886268" data-name="Path 886268" d="M79.423,16.846s-7.567-6.5-12.515-2.553c-4.337,3.481,7.173.128,8.521,5.431Z" transform="translate(130.724 25.818)" fill="#ffaa83"/>
            <path id="Path_886269" data-name="Path 886269" d="M123.887,35.79c6.007,7.245,2.586,12.628-2.341,14.6-7.82,3.165-24.409,12.422-29.611,8.318C86.724,54.58,68.885,16.678,68.885,16.678s1.285-3.576,4.695-2.15L98.317,43.279s19.894-14.355,25.57-7.489" transform="translate(136.57 28.137)" fill="#fcbbcc"/>
            <path id="Path_886270" data-name="Path 886270" d="M86.921,92.693c3.6-2.678,3.579-3.221,3.024-4.447a26.366,26.366,0,0,0-1.793-3.239l7.125-2.493a32.345,32.345,0,0,1,1.372,6.842c-.608.522-5.39,4.665-9.729,3.338" transform="translate(172.327 163.589)" fill="#ee9d7f"/>
            <path id="Path_886271" data-name="Path 886271" d="M98.923,84.871a.626.626,0,0,1,.092-.1c2.4,6.254-6.463,7.629-11.39,7.275-4.936-.373,1.569-3.839,1.569-3.839,4.34,1.327,9.121-2.816,9.729-3.338" transform="translate(170.055 168.07)" fill="#7585f8"/>
            <path id="Path_886272" data-name="Path 886272" d="M74.257,46.041s-.883,14.877.945,23.89c6.126,30.261,8.125,26.858,10.394,35.206,3.818,14.191,14.734,49.278,28.1,67.257,1.578,2.118,9.479-1.387,9.309-4.709-1.023-22.253-8.918-30.527-10.1-55.034-.334-6.982,5.294-18.528,5.53-27.4.274-10.481-.251-35.5-7.236-46.078Z" transform="translate(146.797 77.669)" fill="#005865"/>
            <path id="Path_886273" data-name="Path 886273" d="M72.711,92.136c4.086-1.843,4.188-2.392,3.9-3.725a28.9,28.9,0,0,0-1.086-3.525L83,83.994a32.905,32.905,0,0,1-.078,7c-.689.373-6.231,3.388-10.212,1.145" transform="translate(144.155 166.525)" fill="#ee9d7f"/>
            <path id="Path_886274" data-name="Path 886274" d="M85.551,86.393a.335.335,0,0,1,.122-.081c1.041,6.633-7.895,6.049-12.637,4.617-4.763-1.414,2.3-3.391,2.3-3.391,3.982,2.243,9.523-.772,10.212-1.145" transform="translate(141.528 171.121)" fill="#7585f8"/>
            <path id="Path_886275" data-name="Path 886275" d="M72.111,40.508S68.171,54.86,68.081,64.07c-.286,30.894,2.371,28.009,2.86,36.65.8,14.7,4.17,51.351,13.5,71.817,1.11,2.4,9.565.692,10.1-2.6,3.6-21.955-2.389-31.741,1.542-55.956,1.127-6.9,9.016-16.959,11.089-25.587,2.416-10.162,7.116-34.732,2.47-46.606Z" transform="translate(134.934 80.311)" fill="#005865"/>
            <path id="Path_886276" data-name="Path 886276" d="M85.345,23.134C78.08,28.81,71.927,42.623,69.019,87.8c-.635,9.932,55.759,12.324,55.965,2.356.5-26.5-3.931-37.4-11.358-61.289-2.016-6.493-13.917-17.057-28.281-5.733" transform="translate(136.824 35.958)" fill="#fcdcda"/>
            <path id="Path_886277" data-name="Path 886277" d="M78.719,27.37s-11.954,48-11.954,73.24V142.2s44.291,9.6,70.347-9.064c0,0-1.927-66.69-10.23-92.185Z" transform="translate(132.367 54.264)" fill="#b8fafd"/>
            <path id="Path_886278" data-name="Path 886278" d="M59.932,25.063s-2.7-12.733-4.375-7.9c-1.7,4.835-4.038,5.756,1.414,11.692Z" transform="translate(106.209 31.86)" fill="#ffaa83"/>
            <path id="Path_886279" data-name="Path 886279" d="M118.528,23.95c8.274,5.563,5.914,12.378,1.086,16.154-7.65,6.031-12.676,20-29.891,18.945C66.05,57.609,54.4,22.76,54.4,22.76s.486-4.2,4.516-3.862a50.105,50.105,0,0,0,32.361,17.43c14.328,1.751,19.393-17.642,27.252-12.378" transform="translate(107.852 37.429)" fill="#b8fafd"/>
            <path id="Path_886280" data-name="Path 886280" d="M89.6,5.466C83.525,6.3,76.033,11.44,76.1,23.713c.063,12.249-.248,12.5-4.229,17.028-10.26,11.635,16.863,10.308,9.95,22.334-19.118,33.181,29.337,27.4,38.511,17.442,10.335-11.262,13.675-30.008,1.617-38.052-3.976-2.649,3.084-17.108-6.556-19.873C105.748,19.8,112.99,2.221,89.6,5.466" transform="translate(137.845 10.048)" fill="#353a66"/>
          </g>
        </g>
      </g>
    </g>
  </g>
</svg>
