<svg xmlns="http://www.w3.org/2000/svg" xmlns:xlink="http://www.w3.org/1999/xlink" width="122" height="122" viewBox="0 0 122 122">
  <defs>
    <clipPath id="clip-path">
      <rect id="Rectangle_400938" data-name="Rectangle 400938" width="122" height="122" fill="#2bc897"/>
    </clipPath>
    <clipPath id="clip-path-2">
      <path id="Path_873460" data-name="Path 873460" d="M0,1.307A1.349,1.349,0,0,0,1.389,2.613,1.349,1.349,0,0,0,2.778,1.307,1.349,1.349,0,0,0,1.389,0,1.349,1.349,0,0,0,0,1.307" transform="translate(0)" fill="#005865"/>
    </clipPath>
    <clipPath id="clip-path-3">
      <path id="Path_873466" data-name="Path 873466" d="M0,1.307A1.349,1.349,0,0,0,1.39,2.613,1.349,1.349,0,0,0,2.778,1.307,1.349,1.349,0,0,0,1.39,0,1.349,1.349,0,0,0,0,1.307" fill="#005865"/>
    </clipPath>
    <clipPath id="clip-path-4">
      <path id="Path_873467" data-name="Path 873467" d="M0,1.306A1.349,1.349,0,0,0,1.389,2.612,1.349,1.349,0,0,0,2.778,1.306,1.349,1.349,0,0,0,1.389,0,1.349,1.349,0,0,0,0,1.306" transform="translate(0 0)" fill="#005865"/>
    </clipPath>
    <clipPath id="clip-path-5">
      <path id="Path_873468" data-name="Path 873468" d="M0,1.306A1.349,1.349,0,0,0,1.39,2.612,1.349,1.349,0,0,0,2.778,1.306,1.349,1.349,0,0,0,1.39,0,1.349,1.349,0,0,0,0,1.306" transform="translate(0 0)" fill="#005865"/>
    </clipPath>
    <clipPath id="clip-path-6">
      <path id="Path_873469" data-name="Path 873469" d="M0,1.306A1.349,1.349,0,0,0,1.389,2.612,1.349,1.349,0,0,0,2.777,1.306,1.349,1.349,0,0,0,1.389,0,1.349,1.349,0,0,0,0,1.306" transform="translate(0 0)" fill="#005865"/>
    </clipPath>
    <clipPath id="clip-path-9">
      <path id="Path_873473" data-name="Path 873473" d="M0,1.306A1.349,1.349,0,0,0,1.39,2.612,1.348,1.348,0,0,0,2.778,1.306,1.349,1.349,0,0,0,1.39,0,1.349,1.349,0,0,0,0,1.306" transform="translate(0 0)" fill="#005865"/>
    </clipPath>
    <clipPath id="clip-path-22">
      <rect id="Rectangle_401492" data-name="Rectangle 401492" width="54.022" height="54.022" transform="translate(-0.207 0.318)" fill="#fff" stroke="#707070" stroke-width="1"/>
    </clipPath>
    <clipPath id="clip-path-23">
      <rect id="Rectangle_405366" data-name="Rectangle 405366" width="48" height="50.23" fill="#fff"/>
    </clipPath>
  </defs>
  <g id="Group_1110711" data-name="Group 1110711" transform="translate(23057.926 3814.948)">
    <g id="Group_1100237" data-name="Group 1100237" transform="translate(-23054.037 -3797.84)">
      <g id="Group_1099505" data-name="Group 1099505" transform="translate(1.808 8.418)">
        <g id="Group_1099504" data-name="Group 1099504" transform="translate(0)" clip-path="url(#clip-path-2)">
          <rect id="Rectangle_401140" data-name="Rectangle 401140" width="2.777" height="2.613" transform="translate(0)" fill="#005865"/>
        </g>
      </g>
      <g id="Group_1099517" data-name="Group 1099517" transform="translate(37.056 8.418)">
        <g id="Group_1099516" data-name="Group 1099516" transform="translate(0)" clip-path="url(#clip-path-3)">
          <rect id="Rectangle_401146" data-name="Rectangle 401146" width="2.778" height="2.613" transform="translate(0 0)" fill="#005865"/>
        </g>
      </g>
      <g id="Group_1099519" data-name="Group 1099519" transform="translate(30.194 8.418)">
        <g id="Group_1099518" data-name="Group 1099518" transform="translate(0 0)" clip-path="url(#clip-path-4)">
          <rect id="Rectangle_401147" data-name="Rectangle 401147" width="2.778" height="2.612" transform="translate(0 0)" fill="#005865"/>
        </g>
      </g>
      <g id="Group_1099521" data-name="Group 1099521" transform="translate(23.332 8.418)">
        <g id="Group_1099520" data-name="Group 1099520" transform="translate(0 0)" clip-path="url(#clip-path-5)">
          <rect id="Rectangle_401148" data-name="Rectangle 401148" width="2.778" height="2.612" transform="translate(0 0)" fill="#005865"/>
        </g>
      </g>
      <g id="Group_1099523" data-name="Group 1099523" transform="translate(16.47 8.418)">
        <g id="Group_1099522" data-name="Group 1099522" transform="translate(0 0)" clip-path="url(#clip-path-6)">
          <rect id="Rectangle_401149" data-name="Rectangle 401149" width="2.777" height="2.612" transform="translate(0 0)" fill="#005865"/>
        </g>
      </g>
      <g id="Group_1099525" data-name="Group 1099525" transform="translate(34.311 0)">
        <g id="Group_1099524" data-name="Group 1099524" clip-path="url(#clip-path-4)">
          <rect id="Rectangle_401150" data-name="Rectangle 401150" width="2.778" height="2.612" transform="translate(0 0)" fill="#005865"/>
        </g>
      </g>
      <g id="Group_1099529" data-name="Group 1099529" transform="translate(27.448 0)">
        <g id="Group_1099528" data-name="Group 1099528" transform="translate(0)" clip-path="url(#clip-path-5)">
          <rect id="Rectangle_401152" data-name="Rectangle 401152" width="2.778" height="2.612" transform="translate(0 0)" fill="#005865"/>
        </g>
      </g>
      <g id="Group_1099531" data-name="Group 1099531" transform="translate(13.724 0)">
        <g id="Group_1099530" data-name="Group 1099530" transform="translate(0)" clip-path="url(#clip-path-9)">
          <rect id="Rectangle_401153" data-name="Rectangle 401153" width="2.777" height="2.612" transform="translate(0 0)" fill="#005865"/>
        </g>
      </g>
      <g id="Group_1099533" data-name="Group 1099533" transform="translate(6.862 0)">
        <g id="Group_1099532" data-name="Group 1099532" clip-path="url(#clip-path-4)">
          <rect id="Rectangle_401154" data-name="Rectangle 401154" width="2.778" height="2.612" transform="translate(0 0)" fill="#005865"/>
        </g>
      </g>
      <g id="Group_1099535" data-name="Group 1099535" transform="translate(0 0)">
        <g id="Group_1099534" data-name="Group 1099534" transform="translate(0)" clip-path="url(#clip-path-5)">
          <rect id="Rectangle_401155" data-name="Rectangle 401155" width="2.778" height="2.612" transform="translate(0 0)" fill="#005865"/>
        </g>
      </g>
    </g>
    <g id="Group_1100238" data-name="Group 1100238" transform="translate(-22980.445 -3724.661)">
      <g id="Group_1099505-2" data-name="Group 1099505" transform="translate(1.808 8.418)">
        <g id="Group_1099504-2" data-name="Group 1099504" transform="translate(0)" clip-path="url(#clip-path-2)">
          <rect id="Rectangle_401140-2" data-name="Rectangle 401140" width="2.777" height="2.613" transform="translate(0)" fill="#005865"/>
        </g>
      </g>
      <g id="Group_1099517-2" data-name="Group 1099517" transform="translate(37.056 8.418)">
        <g id="Group_1099516-2" data-name="Group 1099516" transform="translate(0)" clip-path="url(#clip-path-3)">
          <rect id="Rectangle_401146-2" data-name="Rectangle 401146" width="2.778" height="2.613" transform="translate(0 0)" fill="#005865"/>
        </g>
      </g>
      <g id="Group_1099519-2" data-name="Group 1099519" transform="translate(30.194 8.418)">
        <g id="Group_1099518-2" data-name="Group 1099518" transform="translate(0 0)" clip-path="url(#clip-path-4)">
          <rect id="Rectangle_401147-2" data-name="Rectangle 401147" width="2.778" height="2.612" transform="translate(0 0)" fill="#005865"/>
        </g>
      </g>
      <g id="Group_1099521-2" data-name="Group 1099521" transform="translate(23.332 8.418)">
        <g id="Group_1099520-2" data-name="Group 1099520" transform="translate(0 0)" clip-path="url(#clip-path-5)">
          <rect id="Rectangle_401148-2" data-name="Rectangle 401148" width="2.778" height="2.612" transform="translate(0 0)" fill="#005865"/>
        </g>
      </g>
      <g id="Group_1099523-2" data-name="Group 1099523" transform="translate(16.47 8.418)">
        <g id="Group_1099522-2" data-name="Group 1099522" transform="translate(0 0)" clip-path="url(#clip-path-6)">
          <rect id="Rectangle_401149-2" data-name="Rectangle 401149" width="2.777" height="2.612" transform="translate(0 0)" fill="#005865"/>
        </g>
      </g>
      <g id="Group_1099525-2" data-name="Group 1099525" transform="translate(34.311 0)">
        <g id="Group_1099524-2" data-name="Group 1099524" clip-path="url(#clip-path-4)">
          <rect id="Rectangle_401150-2" data-name="Rectangle 401150" width="2.778" height="2.612" transform="translate(0 0)" fill="#005865"/>
        </g>
      </g>
      <g id="Group_1099529-2" data-name="Group 1099529" transform="translate(27.448 0)">
        <g id="Group_1099528-2" data-name="Group 1099528" transform="translate(0)" clip-path="url(#clip-path-5)">
          <rect id="Rectangle_401152-2" data-name="Rectangle 401152" width="2.778" height="2.612" transform="translate(0 0)" fill="#005865"/>
        </g>
      </g>
      <g id="Group_1099531-2" data-name="Group 1099531" transform="translate(13.724 0)">
        <g id="Group_1099530-2" data-name="Group 1099530" transform="translate(0)" clip-path="url(#clip-path-9)">
          <rect id="Rectangle_401153-2" data-name="Rectangle 401153" width="2.777" height="2.612" transform="translate(0 0)" fill="#005865"/>
        </g>
      </g>
      <g id="Group_1099533-2" data-name="Group 1099533" transform="translate(6.862 0)">
        <g id="Group_1099532-2" data-name="Group 1099532" clip-path="url(#clip-path-4)">
          <rect id="Rectangle_401154-2" data-name="Rectangle 401154" width="2.778" height="2.612" transform="translate(0 0)" fill="#005865"/>
        </g>
      </g>
      <g id="Group_1099535-2" data-name="Group 1099535" transform="translate(0 0)">
        <g id="Group_1099534-2" data-name="Group 1099534" transform="translate(0)" clip-path="url(#clip-path-5)">
          <rect id="Rectangle_401155-2" data-name="Rectangle 401155" width="2.778" height="2.612" transform="translate(0 0)" fill="#005865"/>
        </g>
      </g>
    </g>
    <path id="Union_17" data-name="Union 17" d="M-4150.107,4311.383l-33.056-32.927a18.528,18.528,0,0,1,0-26.2l33.054-32.926a18.7,18.7,0,0,1,26.3,0l33.056,32.928a18.528,18.528,0,0,1,0,26.2l-33.056,32.927a18.576,18.576,0,0,1-13.15,5.4A18.575,18.575,0,0,1-4150.107,4311.383Z" transform="translate(-18858.305 -8017.512)" fill="#41cee2" stroke="rgba(0,0,0,0)" stroke-miterlimit="10" stroke-width="1"/>
    <circle id="Ellipse_11579" data-name="Ellipse 11579" cx="39.5" cy="39.5" r="39.5" transform="translate(-23034.504 -3791.418)" fill="#005865"/>
    <g id="Mask_Group_1098697" data-name="Mask Group 1098697" transform="translate(-23022.008 -3778.646)" clip-path="url(#clip-path-22)">
      <g id="Group_1110721" data-name="Group 1110721" transform="translate(2.792 2.318)">
        <g id="Group_1110720" data-name="Group 1110720" clip-path="url(#clip-path-23)">
          <path id="Path_884573" data-name="Path 884573" d="M40.323,41.163l-.658.461L8.5,50.23a5.538,5.538,0,0,1-4.007-1.793c-.262-.317-.8-1.414-.935-1.492-.316-.187-.813-.026-1.174-.132A3.638,3.638,0,0,1,0,43.6V3.453A3.413,3.413,0,0,1,3.454,0L33.28.051a3.263,3.263,0,0,1,2.752,3.314c.854.161,4.025-.369,4.386.373A48.319,48.319,0,0,1,40.5,9.98c-.206,1.33-1.294.736-1.294.385V4.486H4.674v41.9a6.612,6.612,0,0,0,1.114,1.685,3.7,3.7,0,0,0,5.742-4.435c-.781-1.664-2.195-1.954-3.842-2.224l0-.875c.134-.029.368-.218.436-.218H39.2V31.644c0-.371,1.12-.371,1.12,0Zm-5.413-37.8a2.175,2.175,0,0,0-1.168-1.912L2.616,1.4A1.749,1.749,0,0,0,1.4,2.615L1.31,43.966a2.015,2.015,0,0,0,2.057,1.769V3.646l.28-.28Zm-.373,38.263H11.58a5.424,5.424,0,0,1,1.476,4.557c-.069.495-.864,1.642-.261,1.608Z" fill="#fff"/>
          <path id="Path_884574" data-name="Path 884574" d="M123.932,47.067c11.273-1.351,12.9,15.436,2.164,16.537-11.184,1.147-12.619-15.284-2.164-16.537m.561,1.118c-10.095.9-7.624,16.576,2.472,14.048,8.274-2.072,6.077-14.813-2.472-14.048" transform="translate(-85.33 -34.316)" fill="#fff"/>
          <path id="Path_884575" data-name="Path 884575" d="M27.289,44.931l-.19-.183c-.364-.564.426-1.061.925-.948,7.918.455,16.438-.566,24.284,0,.907.066,1.459.234.738,1.128Z" transform="translate(-19.723 -31.859)" fill="#fff"/>
          <path id="Path_884576" data-name="Path 884576" d="M50.011,62.735H27.426l-.1-.743.423-.339,21.8-.038c.6.057.472.655.466,1.12" transform="translate(-19.953 -44.997)" fill="#fff"/>
          <path id="Path_884577" data-name="Path 884577" d="M63.266,130.126H82.118l.287.467a1.165,1.165,0,0,1-.473.653H63.266c-.306,0-.449-.938,0-1.12" transform="translate(-45.994 -95.03)" fill="#fff"/>
          <path id="Path_884578" data-name="Path 884578" d="M28.409,77.386c1.163-.194,3.608-.282,4.233.9.518.983.566,4.228-.57,4.813A13.491,13.491,0,0,1,28,83.31c-1.509-.287-1.4-3.408-1.175-4.525a1.764,1.764,0,0,1,1.588-1.4m-.325,1.261v3.266l.28.28h2.986l.28-.28V78.928l-.28-.28Z" transform="translate(-19.491 -56.43)" fill="#fff"/>
          <path id="Path_884579" data-name="Path 884579" d="M28.017,112.008a17.876,17.876,0,0,1,3.5-.028c1.876.293,1.749,4.617.843,5.487-.776.744-4.36.722-5.114-.1-.823-.893-.908-4.986.775-5.363m3.6,4.627v-3.266l-.28-.28H28.352l-.28.28v3.266a7.309,7.309,0,0,0,3.546,0" transform="translate(-19.478 -81.725)" fill="#fff"/>
          <path id="Path_884580" data-name="Path 884580" d="M76.771,96.217l.1.743c-.235.387-.547.35-.933.388-3.936.388-8.51-.312-12.517-.011-.6-.057-.472-.655-.466-1.12Z" transform="translate(-45.966 -70.266)" fill="#fff"/>
          <path id="Path_884581" data-name="Path 884581" d="M76.26,117.406H63.288c-.37,0-.371-1.12,0-1.12H75.98c.358,0,.515.8.28,1.12" transform="translate(-46.015 -84.922)" fill="#fff"/>
          <path id="Path_884582" data-name="Path 884582" d="M63.266,82.376H75.212c.37,0,.371,1.12,0,1.12H63.266c-.306,0-.449-.938,0-1.12" transform="translate(-45.994 -60.158)" fill="#fff"/>
          <path id="Path_884583" data-name="Path 884583" d="M138.678,63.612c-.238-1.241-2.426-.759-3.357-.843-.078-.8.309-2.855-.559-3.268-.467-.222-2.442-.24-2.613.374v2.893h-2.707c-1.015,0-1.083,2.468-.609,2.942.508.507,2.414.031,3.141.312.382.266.071,2.04.18,2.62.266,1.42,3.168.941,3.168,0V65.941h2.893c.567,0,.538-1.937.463-2.329" transform="translate(-93.879 -43.35)" fill="#fff"/>
        </g>
      </g>
    </g>
  </g>
</svg>
