<svg xmlns="http://www.w3.org/2000/svg" xmlns:xlink="http://www.w3.org/1999/xlink" width="90.184" height="90.184" viewBox="0 0 90.184 90.184">
  <defs>
    <clipPath id="clip-path">
      <rect id="Rectangle_405705" data-name="Rectangle 405705" width="55.667" height="51.325" fill="none"/>
    </clipPath>
    <clipPath id="clip-path-2">
      <rect id="Rectangle_405717" data-name="Rectangle 405717" width="53" height="46.344" fill="none"/>
    </clipPath>
    <clipPath id="clip-path-4">
      <rect id="Rectangle_405706" data-name="Rectangle 405706" width="10.834" height="42.789" fill="none"/>
    </clipPath>
    <clipPath id="clip-path-5">
      <rect id="Rectangle_405708" data-name="Rectangle 405708" width="18.821" height="1.769" fill="none"/>
    </clipPath>
    <clipPath id="clip-path-6">
      <rect id="Rectangle_405709" data-name="Rectangle 405709" width="2.127" height="28.306" fill="none"/>
    </clipPath>
    <clipPath id="clip-path-7">
      <rect id="Rectangle_405711" data-name="Rectangle 405711" width="10.832" height="42.789" fill="none"/>
    </clipPath>
    <clipPath id="clip-path-8">
      <rect id="Rectangle_405713" data-name="Rectangle 405713" width="18.823" height="1.769" fill="none"/>
    </clipPath>
  </defs>
  <g id="Group_1111611" data-name="Group 1111611" transform="translate(-334.711 -3824)">
    <g id="Group_1109620" data-name="Group 1109620" transform="translate(334.711 3824)">
      <g id="Group_1073526" data-name="Group 1073526" transform="translate(0 0)">
        <g id="Group_1072785" data-name="Group 1072785" transform="translate(0 0)">
          <path id="Path_608385" data-name="Path 608385" d="M45.092,0A45.092,45.092,0,1,1,0,45.092,45.092,45.092,0,0,1,45.092,0Z" transform="translate(0 0)" fill="none"/>
        </g>
        <g id="Group_1073383" data-name="Group 1073383" transform="translate(0 0)">
          <path id="Path_608385-2" data-name="Path 608385" d="M45.092,0A45.092,45.092,0,1,1,0,45.092,45.092,45.092,0,0,1,45.092,0Z" transform="translate(0 0)" fill="#fff"/>
        </g>
      </g>
    </g>
    <g id="Group_1109623" data-name="Group 1109623" transform="translate(-67.426 -2202.469)">
      <rect id="Rectangle_401104" data-name="Rectangle 401104" width="59" height="59" transform="translate(418.137 6042.469)" fill="none"/>
      <g id="Group_1111048" data-name="Group 1111048" transform="translate(420.137 6047.135)">
        <g id="Group_1111047" data-name="Group 1111047" clip-path="url(#clip-path)">
          <g id="Group_1111049" data-name="Group 1111049" transform="translate(1.333 2.49)">
            <g id="Group_1111069" data-name="Group 1111069" clip-path="url(#clip-path-2)">
              <g id="Group_1111068" data-name="Group 1111068" transform="translate(0 0)">
                <g id="Group_1111067" data-name="Group 1111067" clip-path="url(#clip-path-2)">
                  <path id="Path_885382" data-name="Path 885382" d="M20.582,5.951c-.649-.838,0-4.326,0-4.326H4.049s.649,3.5,0,4.351C2.563,7.92,0,8.677,0,11.276V38.993a5.307,5.307,0,0,0,5.164,5.438H19.549a5.306,5.306,0,0,0,5.164-5.438V11.276c0-2.629-2.611-3.369-4.132-5.325" transform="translate(0 1.823)" fill="#b8fafd"/>
                  <path id="Path_885383" data-name="Path 885383" d="M5.3,33.964H17.746a4.589,4.589,0,0,0,4.47-4.7V8.853H.822V29.261a4.593,4.593,0,0,0,4.474,4.7" transform="translate(0.835 9.93)" fill="#8886f9"/>
                  <g id="Group_1111051" data-name="Group 1111051" transform="translate(13.879 3.556)" opacity="0.3" style="mix-blend-mode: overlay;isolation: isolate">
                    <g id="Group_1111050" data-name="Group 1111050">
                      <g id="Group_1111049-2" data-name="Group 1111049" clip-path="url(#clip-path-4)">
                        <path id="Path_885384" data-name="Path 885384" d="M17.717,39.044V11.323c0-2.629-2.611-3.365-4.132-5.325-.649-.838,0-4.322,0-4.322h-6.7c.123,2.2.579,6.991,4.249,9.409,2.631,1.738,1.793.953,1.569,12.976-.161,8.722-.079,16.682-.024,20.4a5.3,5.3,0,0,0,5.041-5.421" transform="translate(-6.883 -1.676)"/>
                      </g>
                    </g>
                  </g>
                  <path id="Path_885385" data-name="Path 885385" d="M19.294,0H2.449C1.9,0,1.461.687,1.461,1.538V4.479H20.282V1.538C20.282.687,19.841,0,19.294,0" transform="translate(1.485 0)" fill="#cf5c25"/>
                  <g id="Group_1111054" data-name="Group 1111054" transform="translate(2.946 2.711)" opacity="0.3" style="mix-blend-mode: overlay;isolation: isolate">
                    <g id="Group_1111053" data-name="Group 1111053">
                      <g id="Group_1111052" data-name="Group 1111052" clip-path="url(#clip-path-5)">
                        <rect id="Rectangle_405707" data-name="Rectangle 405707" width="18.821" height="1.769" transform="translate(0 0.001)"/>
                      </g>
                    </g>
                  </g>
                  <g id="Group_1111057" data-name="Group 1111057" transform="translate(4.005 11.79)" opacity="0.3">
                    <g id="Group_1111056" data-name="Group 1111056">
                      <g id="Group_1111055" data-name="Group 1111055" clip-path="url(#clip-path-6)">
                        <path id="Path_885386" data-name="Path 885386" d="M4.113,32.877a1.025,1.025,0,0,1-1.063.987,1.03,1.03,0,0,1-1.065-.987V6.544a1.027,1.027,0,0,1,1.065-.987,1.023,1.023,0,0,1,1.063.987Z" transform="translate(-1.987 -5.556)" fill="#fff"/>
                      </g>
                    </g>
                  </g>
                  <rect id="Rectangle_405710" data-name="Rectangle 405710" width="24.713" height="14.276" transform="translate(0 22.563)" fill="#dce1f4"/>
                  <path id="Path_885387" data-name="Path 885387" d="M34.611,5.951c-.649-.838,0-4.326,0-4.326H18.08s.649,3.5,0,4.351c-1.486,1.943-4.053,2.7-4.053,5.3V38.993a5.31,5.31,0,0,0,5.166,5.438H33.574a5.309,5.309,0,0,0,5.168-5.438V11.276c0-2.629-2.607-3.369-4.132-5.325" transform="translate(14.257 1.823)" fill="#b8fafd"/>
                  <path id="Path_885388" data-name="Path 885388" d="M19.325,33.964H31.773a4.593,4.593,0,0,0,4.474-4.7V8.853h-21.4V29.261a4.591,4.591,0,0,0,4.474,4.7" transform="translate(15.095 9.93)" fill="#8886f9"/>
                  <g id="Group_1111060" data-name="Group 1111060" transform="translate(42.168 3.556)" opacity="0.3" style="mix-blend-mode: overlay;isolation: isolate">
                    <g id="Group_1111059" data-name="Group 1111059">
                      <g id="Group_1111058" data-name="Group 1111058" clip-path="url(#clip-path-7)">
                        <path id="Path_885389" data-name="Path 885389" d="M31.744,39.044V11.323c0-2.629-2.607-3.365-4.132-5.325-.649-.838,0-4.322,0-4.322h-6.7c.119,2.2.579,6.991,4.245,9.409,2.633,1.738,1.795.953,1.571,12.976-.161,8.722-.079,16.682-.024,20.4a5.3,5.3,0,0,0,5.041-5.421" transform="translate(-20.912 -1.676)"/>
                      </g>
                    </g>
                  </g>
                  <path id="Path_885390" data-name="Path 885390" d="M33.323,0H16.48c-.546,0-.992.687-.992,1.538V4.479H34.311V1.538C34.311.687,33.87,0,33.323,0" transform="translate(15.742 0)" fill="#cf5c25"/>
                  <g id="Group_1111063" data-name="Group 1111063" transform="translate(31.231 2.711)" opacity="0.3" style="mix-blend-mode: overlay;isolation: isolate">
                    <g id="Group_1111062" data-name="Group 1111062">
                      <g id="Group_1111061" data-name="Group 1111061" clip-path="url(#clip-path-8)">
                        <rect id="Rectangle_405712" data-name="Rectangle 405712" width="18.823" height="1.769" transform="translate(-0.001 0.001)"/>
                      </g>
                    </g>
                  </g>
                  <g id="Group_1111066" data-name="Group 1111066" transform="translate(32.294 11.79)" opacity="0.3">
                    <g id="Group_1111065" data-name="Group 1111065">
                      <g id="Group_1111064" data-name="Group 1111064" clip-path="url(#clip-path-6)">
                        <path id="Path_885391" data-name="Path 885391" d="M18.142,32.877a1.067,1.067,0,0,1-2.127,0V6.544a1.067,1.067,0,0,1,2.127,0Z" transform="translate(-16.016 -5.556)" fill="#fff"/>
                      </g>
                    </g>
                  </g>
                  <rect id="Rectangle_405715" data-name="Rectangle 405715" width="24.715" height="14.276" transform="translate(28.284 22.563)" fill="#dce1f4"/>
                </g>
              </g>
            </g>
          </g>
          <g id="Group_1111070" data-name="Group 1111070" transform="translate(839.705 -3.06)">
            <path id="Path_608993" data-name="Path 608993" d="M27.909,0,0,18.805v.018L27.838,37.631,55.727,18.64Z" transform="translate(0 0)" fill="#2a9ed1"/>
            <path id="Path_608994" data-name="Path 608994" d="M8.758,5.2V46.434l1.966,2.082,2.363-2.5,2.363,2.5,2.364-2.5,2.363,2.5,2.363-2.5,2.364,2.5,2.363-2.5,1,1.058V5.2Z" transform="translate(-0.379 -0.225)" fill="#fff3b8"/>
            <path id="Path_608995" data-name="Path 608995" d="M29.149,5.2V47.071l1.364,1.445,2.363-2.5,2.364,2.5,2.363-2.5,2.363,2.5,2.364-2.5,2.364,2.5,2.364-2.5,1.735,1.839V5.2Z" transform="translate(-1.262 -0.225)" fill="#f6e381"/>
            <path id="Path_608996" data-name="Path 608996" d="M35.688,12.663H37.84V8.9H29.1v3.758h6.591Z" transform="translate(-1.259 -0.386)" fill="#1e2d4f"/>
            <rect id="Rectangle_377588" data-name="Rectangle 377588" width="9.408" height="3.758" transform="translate(18.43 8.519)" fill="#2d4375"/>
            <rect id="Rectangle_377589" data-name="Rectangle 377589" width="17.595" height="3.758" transform="translate(10.244 14.872)" fill="#2d4375"/>
            <path id="Path_608997" data-name="Path 608997" d="M41.933,19.3h4.093V15.545H29.1V19.3H41.933Z" transform="translate(-1.259 -0.673)" fill="#1e2d4f"/>
            <path id="Path_608998" data-name="Path 608998" d="M37.84,26.277h8.187V22.519H29.1v3.758Z" transform="translate(-1.26 -0.975)" fill="#1e2d4f"/>
            <rect id="Rectangle_377590" data-name="Rectangle 377590" width="17.595" height="3.758" transform="translate(10.244 21.544)" fill="#2d4375"/>
            <rect id="Rectangle_377591" data-name="Rectangle 377591" width="17.595" height="3.758" transform="translate(10.244 28.153)" fill="#2d4375"/>
            <path id="Path_608999" data-name="Path 608999" d="M37.84,33.184h8.187V29.427H29.1v3.758Z" transform="translate(-1.26 -1.274)" fill="#1e2d4f"/>
            <path id="Path_609000" data-name="Path 609000" d="M29.1,38.475,57,57.328V19.492l-.012-.008Z" transform="translate(-1.26 -0.844)" fill="#2a9ed1"/>
            <path id="Path_609001" data-name="Path 609001" d="M0,19.756V57.439L27.838,38.483,0,19.675Z" transform="translate(0 -0.852)" fill="#62c3ed"/>
            <path id="Path_609002" data-name="Path 609002" d="M0,58.2v.086H27.838V39.245Z" transform="translate(0 -1.699)" fill="#2a9ed1"/>
            <path id="Path_609003" data-name="Path 609003" d="M29.1,58.287H57V58.1L29.1,39.245Z" transform="translate(-1.26 -1.699)" fill="#62c3ed"/>
          </g>
        </g>
      </g>
    </g>
  </g>
</svg>
