<svg xmlns="http://www.w3.org/2000/svg" xmlns:xlink="http://www.w3.org/1999/xlink" width="99" height="99" viewBox="0 0 99 99">
  <defs>
    <clipPath id="clip-path">
      <rect id="Rectangle_401223" data-name="Rectangle 401223" width="99" height="99" transform="translate(0)" fill="#006543"/>
    </clipPath>
    <clipPath id="clip-path-2">
      <rect id="Rectangle_401223-2" data-name="Rectangle 401223" width="88.539" height="88.539" fill="#f3f9ff"/>
    </clipPath>
    <clipPath id="clip-path-3">
      <rect id="Rectangle_405820" data-name="Rectangle 405820" width="52.028" height="69" fill="none"/>
    </clipPath>
  </defs>
  <g id="Group_1109250" data-name="Group 1109250" transform="translate(-619.921 -5755.871)">
    <g id="Group_1100724" data-name="Group 1100724" transform="translate(619.921 5755.871)">
      <g id="Group_1099654" data-name="Group 1099654" transform="translate(0 0)">
        <g id="Group_1099652" data-name="Group 1099652" clip-path="url(#clip-path)">
          <path id="Path_873521" data-name="Path 873521" d="M99,77.066A22,22,0,0,1,77.066,99H21.934A22,22,0,0,1,0,77.066V21.933A22,22,0,0,1,21.934,0H77.066A22,22,0,0,1,99,21.934Z" transform="translate(0)" fill="#005865"/>
        </g>
      </g>
      <g id="Group_1099659" data-name="Group 1099659" transform="translate(4.77 5.723)">
        <g id="Group_1099652-2" data-name="Group 1099652" transform="translate(0 0)" clip-path="url(#clip-path-2)">
          <path id="Path_873521-2" data-name="Path 873521" d="M88.539,68.922A19.674,19.674,0,0,1,68.923,88.539H19.616A19.674,19.674,0,0,1,0,68.922V19.616A19.674,19.674,0,0,1,19.616,0H68.923A19.674,19.674,0,0,1,88.539,19.616Z" fill="#f3f9ff"/>
        </g>
      </g>
    </g>
    <g id="Group_1100725" data-name="Group 1100725" transform="translate(636.343 5771.293)">
      <rect id="Rectangle_401104" data-name="Rectangle 401104" width="68" height="69" transform="translate(-0.421 0.438)" fill="none"/>
      <g id="Group_1111280" data-name="Group 1111280" transform="translate(7.578 0.438)">
        <g id="Group_1111279" data-name="Group 1111279" clip-path="url(#clip-path-3)">
          <path id="Path_885601" data-name="Path 885601" d="M16.24,80.1l-8.5,29.971A1.1,1.1,0,0,0,9.2,111.386l8.54-3.107,3.636,6.329a1.036,1.036,0,0,0,1.889-.231L31.6,84.3Z" transform="translate(-4.377 -46.123)" fill="#2bc897"/>
          <path id="Path_885602" data-name="Path 885602" d="M78.762,80.1l8.5,29.971a1.1,1.1,0,0,1-1.457,1.317l-8.54-3.107-3.636,6.329a1.036,1.036,0,0,1-1.889-.231L63.4,84.3Z" transform="translate(-36.027 -46.123)" fill="#2bc897"/>
          <path id="Path_885603" data-name="Path 885603" d="M25.945,0c1.167,0,2.514,1.324,3.321,2.152a25.453,25.453,0,0,0,1.908,1.858c3.157,2.624,5.257.668,8.686.649,4.8-.026,2.875,6.422,4.959,8.931,1.559,1.878,6.858,2.8,7.144,5.328.288,2.545-2.857,5.447-2.814,7.878.046,2.553,3.708,5.977,2.706,8.441-.455,1.12-2.328,2.089-3.371,2.664-1.091.6-2.428.942-3.348,1.9-2.175,2.259-.523,8.576-4.24,9.1-3.1.438-6.341-1.731-9.125.492-.438.35-2.815,2.761-2.816,2.763a1.365,1.365,0,0,1-.562.5c-.751.369-1.394,1.033-2.3,1.015a6.257,6.257,0,0,1-2.855-1.6,9.359,9.359,0,0,0-1.228-1.167,8.589,8.589,0,0,0-2.85-2.257c-2.064-.742-4.646.439-6.776.419-1.4-.014-2.324-.1-3.051-1.4-1.184-2.128-.588-4.92-1.9-7C6.6,39.33,5.509,38.9,4.144,38.181a3.277,3.277,0,0,0-.583-.146A9.609,9.609,0,0,1,.427,35.8c-1.555-2.336,2.427-6.217,2.47-8.735.044-2.6-3.785-6.017-2.706-8.559.9-2.116,5.618-2.926,7.039-4.906C8.7,11.55,7.937,6.793,9.855,5.4c1.991-1.443,5.713.288,8.078.055C20.119,5.243,22.045,2.764,23.6,1.2A3.291,3.291,0,0,1,25.945,0" transform="translate(0 0)" fill="#ffd254"/>
          <path id="Path_885604" data-name="Path 885604" d="M37.286,26.49c16.726-1.454,24.469,19.036,11.243,28.384-11.3,7.986-26.959-1.159-25.237-14.681.882-6.922,6.806-13.078,13.995-13.7M34.639,50.62c-.172,5.42,4.2,1.34,6.612,1.177,1.94-.131,4.891,2.324,6.424,1.32,1.391-.912.155-4.555.559-6.15.45-1.776,3.8-3.624,3.19-5.548-.267-.843-1.668-.965-2.346-1.306a2.566,2.566,0,0,0-.017-1.625c-.742-1.419-4.533-1.178-5.912-2.335-1.07-.9-2.348-4.239-3.638-4.439-2.182-.338-2.982,3.425-4.424,4.57-1.345,1.068-5.192.9-5.827,2.418-.73,1.748,2.538,3.749,3.115,5.279.671,1.779-.475,4.041.19,5.724a1.779,1.779,0,0,0,2.075.917" transform="translate(-13.161 -15.212)" fill="#f3bf44"/>
          <path id="Path_885605" data-name="Path 885605" d="M56.965,47.271a26.723,26.723,0,0,1-2.135,2.434c-1.891,2.4-.753,3.417-.816,6.017-.1,4.187-4.948.35-6.875.35-1.4,0-3.327,1.48-4.612,1.707a1.779,1.779,0,0,1-2.075-.917c-.665-1.683.481-3.946-.19-5.724-.578-1.53-3.846-3.532-3.115-5.279.635-1.519,4.482-1.35,5.828-2.418,1.442-1.145,2.242-4.908,4.424-4.57,1.29.2,2.569,3.541,3.639,4.439,1.379,1.157,5.169.916,5.911,2.335a2.564,2.564,0,0,1,.018,1.625" transform="translate(-21.049 -22.371)" fill="#844804"/>
          <path id="Path_885606" data-name="Path 885606" d="M49.741,69.211c1.285-.227,3.208-1.707,4.613-1.707,1.927,0,6.773,3.837,6.875-.35.063-2.6-1.074-3.619.816-6.017A26.717,26.717,0,0,0,64.179,58.7c.678.341,2.079.463,2.346,1.306.61,1.924-2.741,3.772-3.19,5.548-.4,1.594.832,5.238-.559,6.15-1.533,1-4.484-1.45-6.424-1.32-2.415.163-6.784,4.243-6.612-1.177" transform="translate(-28.263 -33.803)" fill="#f3a744"/>
        </g>
      </g>
    </g>
  </g>
</svg>
