<svg xmlns="http://www.w3.org/2000/svg" xmlns:xlink="http://www.w3.org/1999/xlink" width="135" height="135" viewBox="0 0 135 135">
  <defs>
    <clipPath id="clip-path">
      <rect id="Rectangle_404649" data-name="Rectangle 404649" width="78.956" height="76.769" fill="none"/>
    </clipPath>
  </defs>
  <g id="Group_1111614" data-name="Group 1111614" transform="translate(-1205.711 -1273.846)">
    <circle id="Ellipse_11603" data-name="Ellipse 11603" cx="67.5" cy="67.5" r="67.5" transform="translate(1205.711 1273.846)" fill="#fff"/>
    <g id="Group_1109041" data-name="Group 1109041" transform="translate(1231.627 1298.615)">
      <rect id="Rectangle_401104" data-name="Rectangle 401104" width="84" height="85" transform="translate(0.084 0.231)" fill="none"/>
      <g id="Group_1109054" data-name="Group 1109054" transform="translate(3.083 4.23)">
        <g id="Group_1109053" data-name="Group 1109053" clip-path="url(#clip-path)">
          <path id="Path_883102" data-name="Path 883102" d="M.407,165.937l22.76-31.548a2.149,2.149,0,0,1,3-.486l13.7,9.882a2.149,2.149,0,0,1,.486,3l-22.76,31.548a2.149,2.149,0,0,1-3,.486l-13.7-9.882a2.149,2.149,0,0,1-.486-3" transform="translate(0 -105.016)" fill="#b0c0d2"/>
          <path id="Path_883103" data-name="Path 883103" d="M29.886,36.858l2.108,8.732c-8.359,1.967-16.7,4.176-25.109,5.981a4.734,4.734,0,0,1-3.346-.711,5.308,5.308,0,0,1-1.957-3.011v-.479a5.2,5.2,0,0,1,.752-2.747,3.867,3.867,0,0,1,1.1-1.174,15.99,15.99,0,0,1,4.325-1.471c7.3-1.849,14.78-3.392,22.132-5.119" transform="translate(-1.244 -28.995)" fill="#2bc897"/>
          <path id="Path_883104" data-name="Path 883104" d="M188.358,248.086a12.351,12.351,0,0,0-1.916-3.194c-.634-.948-1.269-1.94-1.916-2.874-1.036-1.5-2.144-2.975-3.194-4.472-.651-.928-1.34-1.838-2.027-2.749-.551-.789-1.109-1.572-1.664-2.357a.828.828,0,0,0-.208-.193l-.093-.132h-.085l-5.8-.025a3.269,3.269,0,0,0-5.96.031h-2.9a3.269,3.269,0,0,0-5.96-.031l-5.8.025h-.085l-.093.132a.828.828,0,0,0-.208.193c-.554.784-1.112,1.568-1.664,2.357-.687.911-1.377,1.821-2.027,2.749-1.05,1.5-2.158,2.976-3.194,4.472-.648.935-1.282,1.926-1.916,2.874a12.352,12.352,0,0,0-1.916,3.194c-1,3.39.719,6.366,3.673,7.985,6.794,1.49,9.2,1.617,20.644,1.743,11.688.127,14.975-.126,20.643-1.743,2.954-1.619,4.677-4.595,3.673-7.985" transform="translate(-109.689 -181.073)" fill="#f3a744"/>
          <path id="Path_883105" data-name="Path 883105" d="M207.924,83.461a1.6,1.6,0,0,0,3.194,0c1.2-.1,2.684.01,2.729,1.516.058,1.951-1.981,1.709-3.368,1.677.024,5.142-.3,10.135.877,15.174,1.332,5.691,4.3,10.175,7.587,14.85l-5.8-.025a3.269,3.269,0,0,0-5.96.032l-14.746-.007c2.823-4.072,5.427-7.635,6.946-12.457,1.838-5.838,1.569-11.516,1.519-17.567-.785-.072-1.742.185-2.456-.179a1.6,1.6,0,0,1,.468-3Zm-1.961,8.016a1.859,1.859,0,0,0-1.233,1.646c.311,4.416-.415,9.392-.006,13.74.225,2.4,2.9,2.331,3.19.463-.312-4.554.449-9.732.018-14.211-.1-1.074-.815-1.894-1.969-1.638m-3.511,18.533a2.413,2.413,0,0,0,.137,4.739c3.714.444,3.647-5.354-.137-4.739" transform="translate(-151.378 -65.635)" fill="#b8fafd"/>
          <path id="Path_883106" data-name="Path 883106" d="M134.252,7.863c6.315-1.484,12.634-2.977,18.971-4.367.094-.093-.457-1.83-.389-2.267a1.546,1.546,0,0,1,3.028,0c.462,3.768,2.4,8.169,2.765,11.84.119,1.2-.437,2.011-1.719,1.869-1.384-.154-1.237-1.735-1.659-2.717-6.263,1.593-12.6,2.89-18.889,4.37Zm13.814.491c-2.978.362-6.348,1.784-9.384,2.207a1.51,1.51,0,0,0-.9,1.977c.285.911,1.151.961,1.95.878,2.913-.3,6.4-1.762,9.359-2.232,1.667-.743,1.149-3.095-1.025-2.83" transform="translate(-105.61 0)" fill="#b8fafd"/>
          <path id="Path_883107" data-name="Path 883107" d="M308.381,91.4c.112.112,1.745-.271,1.913,1.052.231,1.819-1.765,1.352-1.913,1.5-.114.115.272,1.746-1.052,1.913-1.82.23-1.352-1.764-1.5-1.913-.115-.114-1.746.272-1.914-1.052-.23-1.82,1.765-1.352,1.914-1.5.113-.114-.272-1.745,1.052-1.913,1.819-.231,1.35,1.761,1.5,1.913" transform="translate(-239.061 -70.384)" fill="#fffeff"/>
          <path id="Path_883108" data-name="Path 883108" d="M142.061,140.846c.085.085,1.757-.194,1.913,1.052.221,1.763-1.765,1.353-1.913,1.5-.106.106.225,1.871-1.2,1.928-1.608.064-1.22-1.8-1.353-1.928-.106-.106-1.871.225-1.928-1.2-.064-1.607,1.8-1.221,1.928-1.353.085-.085-.194-1.756,1.052-1.913,1.761-.223,1.354,1.766,1.5,1.913" transform="translate(-108.227 -109.279)" fill="#f3a744"/>
          <path id="Path_883109" data-name="Path 883109" d="M280.662,40.249c1.645,1.628-1.011,4.035-2.427,2.188a1.641,1.641,0,0,1,2.427-2.188" transform="translate(-218.583 -31.311)" fill="#2bc897"/>
          <path id="Path_883110" data-name="Path 883110" d="M251.127,31.084a1.627,1.627,0,1,1,.886,3.126c-2.17.42-2.648-2.723-.886-3.126" transform="translate(-196.704 -24.402)" fill="#2bc897"/>
          <path id="Path_883111" data-name="Path 883111" d="M268.212,77.082a1.6,1.6,0,0,1-3.194,0,1.6,1.6,0,1,1,3.194,0" transform="translate(-208.473 -59.256)" fill="#2bc897"/>
          <path id="Path_883112" data-name="Path 883112" d="M28.5,274.409c-2.286,4.554-8.842.981-6.752-3.183,2.286-4.554,8.842-.981,6.752,3.183" transform="translate(-16.787 -211.69)" fill="#006543"/>
          <path id="Path_883113" data-name="Path 883113" d="M116.655,225.956c-2.286,4.553-8.842.981-6.752-3.183,2.272-4.527,8.851-1,6.752,3.183" transform="translate(-86.137 -173.581)" fill="#006543"/>
          <path id="Path_883114" data-name="Path 883114" d="M62.434,299.685c-2.286,4.553-8.842.981-6.752-3.183,2.272-4.527,8.851-1,6.752,3.183" transform="translate(-43.484 -231.581)" fill="#006543"/>
          <path id="Path_883115" data-name="Path 883115" d="M55.863,237.992c-2.3,4.581-8.835.967-6.752-3.183,2.291-4.563,8.848-.993,6.752,3.183m-2.993.917c3.248-.5,2.483-5.512-.765-5.017s-2.483,5.512.765,5.017" transform="translate(-38.316 -183.038)" fill="#006543"/>
          <path id="Path_883116" data-name="Path 883116" d="M89.545,262.79c-2.286,4.554-8.842.981-6.752-3.183,2.286-4.554,8.842-.981,6.752,3.183m-1.046-.563c1.346-2.947-3.248-5.12-4.659-2.057-1.352,2.934,3.247,5.149,4.659,2.057" transform="translate(-64.81 -202.551)" fill="#006543"/>
          <path id="Path_883117" data-name="Path 883117" d="M83.225,201.835c-1.928,3.84-7.656,1.993-7.042-2.056.374-2.466,2.009-3.146,4.273-3.059,2.434.094,3.81,3.042,2.769,5.115m-1.046-.563c1.346-2.947-3.248-5.12-4.659-2.057-1.352,2.934,3.247,5.15,4.659,2.057" transform="translate(-59.894 -154.745)" fill="#006543"/>
          <path id="Path_883118" data-name="Path 883118" d="M250.809,120.953c1.154-.256,1.865.564,1.969,1.638.431,4.479-.33,9.657-.018,14.211-.286,1.868-2.965,1.937-3.19-.463-.408-4.348.317-9.324.006-13.74a1.859,1.859,0,0,1,1.233-1.646" transform="translate(-196.224 -95.111)" fill="#fffeff"/>
          <path id="Path_883119" data-name="Path 883119" d="M232.408,207.826c3.784-.615,3.851,5.183.137,4.739a2.413,2.413,0,0,1-.137-4.739" transform="translate(-181.334 -163.451)" fill="#f3a744"/>
          <path id="Path_883120" data-name="Path 883120" d="M160.71,39.085c2.174-.264,2.693,2.088,1.025,2.83-2.961.47-6.446,1.928-9.359,2.232-.8.083-1.664.033-1.95-.878a1.51,1.51,0,0,1,.9-1.977c3.036-.423,6.406-1.846,9.384-2.207" transform="translate(-118.254 -30.73)" fill="#fffeff"/>
          <path id="Path_883121" data-name="Path 883121" d="M57.7,243.258c-3.248.5-4.013-4.521-.765-5.017s4.013,4.522.765,5.017" transform="translate(-43.148 -187.387)" fill="#2bc897"/>
          <path id="Path_883122" data-name="Path 883122" d="M92.945,266.663c-1.412,3.092-6.011.877-4.659-2.057,1.411-3.063,6-.889,4.659,2.057" transform="translate(-69.257 -206.987)" fill="#2bc897"/>
          <path id="Path_883123" data-name="Path 883123" d="M120.328,229.429c-1.412,3.092-6.011.877-4.659-2.057,1.411-3.063,6-.889,4.659,2.057" transform="translate(-90.798 -177.696)" fill="#2bc897"/>
          <path id="Path_883124" data-name="Path 883124" d="M64.859,302.219c-1.412,3.092-6.011.877-4.659-2.057,1.411-3.063,6-.889,4.659,2.057" transform="translate(-47.163 -234.957)" fill="#2bc897"/>
          <path id="Path_883125" data-name="Path 883125" d="M31.9,278.269c-1.412,3.092-6.011.877-4.659-2.057,1.411-3.063,6-.889,4.659,2.057" transform="translate(-21.235 -216.116)" fill="#2bc897"/>
          <path id="Path_883126" data-name="Path 883126" d="M86.369,205.025c-1.412,3.092-6.011.877-4.659-2.057,1.411-3.063,6-.889,4.659,2.057" transform="translate(-64.084 -158.499)" fill="#2bc897"/>
          <path id="Path_883127" data-name="Path 883127" d="M141.351,191.434c-2.286,4.553-8.842.981-6.752-3.183,2.272-4.527,8.851-1,6.752,3.183" transform="translate(-105.564 -146.424)" fill="#006543"/>
          <path id="Path_883128" data-name="Path 883128" d="M107.921,167.314c-1.928,3.84-7.656,1.993-7.042-2.056.374-2.466,2.009-3.146,4.273-3.059,2.434.094,3.81,3.042,2.769,5.115m-1.046-.563c1.346-2.947-3.248-5.12-4.659-2.057-1.352,2.934,3.247,5.149,4.659,2.057" transform="translate(-79.321 -127.589)" fill="#006543"/>
          <path id="Path_883129" data-name="Path 883129" d="M145.024,194.906c-1.412,3.092-6.011.877-4.659-2.057,1.411-3.063,6-.889,4.659,2.057" transform="translate(-110.225 -150.538)" fill="#2bc897"/>
          <path id="Path_883130" data-name="Path 883130" d="M111.065,170.5c-1.412,3.092-6.011.877-4.659-2.057,1.411-3.063,6-.889,4.659,2.057" transform="translate(-83.511 -131.343)" fill="#2bc897"/>
        </g>
      </g>
    </g>
  </g>
</svg>
