<svg xmlns="http://www.w3.org/2000/svg" xmlns:xlink="http://www.w3.org/1999/xlink" width="158.949" height="159.181" viewBox="0 0 158.949 159.181">
  <defs>
    <clipPath id="clip-path">
      <rect id="Rectangle_400938" data-name="Rectangle 400938" width="152.656" height="152.656" fill="none"/>
    </clipPath>
    <clipPath id="clip-path-2">
      <path id="Path_873460" data-name="Path 873460" d="M0,1.693A1.747,1.747,0,0,0,1.8,3.385,1.747,1.747,0,0,0,3.6,1.693,1.748,1.748,0,0,0,1.8,0,1.748,1.748,0,0,0,0,1.693" transform="translate(0)" fill="#005865"/>
    </clipPath>
    <clipPath id="clip-path-3">
      <path id="Path_873466" data-name="Path 873466" d="M0,1.693A1.748,1.748,0,0,0,1.8,3.385,1.747,1.747,0,0,0,3.6,1.693,1.747,1.747,0,0,0,1.8,0,1.748,1.748,0,0,0,0,1.693" fill="#005865"/>
    </clipPath>
    <clipPath id="clip-path-4">
      <path id="Path_873467" data-name="Path 873467" d="M0,1.692A1.748,1.748,0,0,0,1.8,3.384,1.748,1.748,0,0,0,3.6,1.692,1.748,1.748,0,0,0,1.8,0,1.748,1.748,0,0,0,0,1.692" transform="translate(0 0)" fill="#005865"/>
    </clipPath>
    <clipPath id="clip-path-6">
      <path id="Path_873469" data-name="Path 873469" d="M0,1.692A1.748,1.748,0,0,0,1.8,3.384,1.747,1.747,0,0,0,3.6,1.692,1.747,1.747,0,0,0,1.8,0,1.748,1.748,0,0,0,0,1.692" transform="translate(0 0)" fill="#005865"/>
    </clipPath>
    <clipPath id="clip-path-22">
      <rect id="Rectangle_401492" data-name="Rectangle 401492" width="69.989" height="69.99" transform="translate(-0.473 0.33)" fill="#fff" stroke="#707070" stroke-width="1"/>
    </clipPath>
    <clipPath id="clip-path-23">
      <rect id="Rectangle_405580" data-name="Rectangle 405580" width="48.315" height="67.328" fill="#fff"/>
    </clipPath>
  </defs>
  <g id="Group_1109603" data-name="Group 1109603" transform="translate(-318.664 -4483.287)">
    <g id="Group_1108942" data-name="Group 1108942" transform="translate(318.664 4483.287)">
      <g id="Group_1100237" data-name="Group 1100237" transform="translate(5.038 22.163)">
        <g id="Group_1099505" data-name="Group 1099505" transform="translate(2.342 10.905)">
          <g id="Group_1099504" data-name="Group 1099504" transform="translate(0)" clip-path="url(#clip-path-2)">
            <rect id="Rectangle_401140" data-name="Rectangle 401140" width="3.598" height="3.385" transform="translate(0)" fill="#005865"/>
          </g>
        </g>
        <g id="Group_1099517" data-name="Group 1099517" transform="translate(48.007 10.905)">
          <g id="Group_1099516" data-name="Group 1099516" transform="translate(0)" clip-path="url(#clip-path-3)">
            <rect id="Rectangle_401146" data-name="Rectangle 401146" width="3.599" height="3.385" transform="translate(0 0)" fill="#005865"/>
          </g>
        </g>
        <g id="Group_1099519" data-name="Group 1099519" transform="translate(39.117 10.906)">
          <g id="Group_1099518" data-name="Group 1099518" transform="translate(0 0)" clip-path="url(#clip-path-4)">
            <rect id="Rectangle_401147" data-name="Rectangle 401147" width="3.599" height="3.384" transform="translate(0 0)" fill="#005865"/>
          </g>
        </g>
        <g id="Group_1099521" data-name="Group 1099521" transform="translate(30.227 10.906)">
          <g id="Group_1099520" data-name="Group 1099520" transform="translate(0 0)" clip-path="url(#clip-path-4)">
            <rect id="Rectangle_401148" data-name="Rectangle 401148" width="3.599" height="3.384" transform="translate(0 0)" fill="#005865"/>
          </g>
        </g>
        <g id="Group_1099523" data-name="Group 1099523" transform="translate(21.337 10.906)">
          <g id="Group_1099522" data-name="Group 1099522" transform="translate(0 0)" clip-path="url(#clip-path-6)">
            <rect id="Rectangle_401149" data-name="Rectangle 401149" width="3.598" height="3.384" transform="translate(0 0)" fill="#005865"/>
          </g>
        </g>
        <g id="Group_1099525" data-name="Group 1099525" transform="translate(44.45 0)">
          <g id="Group_1099524" data-name="Group 1099524" clip-path="url(#clip-path-4)">
            <rect id="Rectangle_401150" data-name="Rectangle 401150" width="3.599" height="3.384" transform="translate(0 0)" fill="#005865"/>
          </g>
        </g>
        <g id="Group_1099529" data-name="Group 1099529" transform="translate(35.56 0)">
          <g id="Group_1099528" data-name="Group 1099528" transform="translate(0)" clip-path="url(#clip-path-6)">
            <rect id="Rectangle_401152" data-name="Rectangle 401152" width="3.599" height="3.384" transform="translate(0 0)" fill="#005865"/>
          </g>
        </g>
        <g id="Group_1099531" data-name="Group 1099531" transform="translate(17.78 0)">
          <g id="Group_1099530" data-name="Group 1099530" transform="translate(0)" clip-path="url(#clip-path-6)">
            <rect id="Rectangle_401153" data-name="Rectangle 401153" width="3.598" height="3.384" transform="translate(0 0)" fill="#005865"/>
          </g>
        </g>
        <g id="Group_1099533" data-name="Group 1099533" transform="translate(8.89 0)">
          <g id="Group_1099532" data-name="Group 1099532" clip-path="url(#clip-path-6)">
            <rect id="Rectangle_401154" data-name="Rectangle 401154" width="3.599" height="3.384" transform="translate(0 0)" fill="#005865"/>
          </g>
        </g>
        <g id="Group_1099535" data-name="Group 1099535" transform="translate(0 0)">
          <g id="Group_1099534" data-name="Group 1099534" transform="translate(0)" clip-path="url(#clip-path-6)">
            <rect id="Rectangle_401155" data-name="Rectangle 401155" width="3.599" height="3.384" transform="translate(0 0)" fill="#005865"/>
          </g>
        </g>
      </g>
      <g id="Group_1100238" data-name="Group 1100238" transform="translate(101.296 117.824)">
        <g id="Group_1099505-2" data-name="Group 1099505" transform="translate(2.342 10.905)">
          <g id="Group_1099504-2" data-name="Group 1099504" transform="translate(0)" clip-path="url(#clip-path-2)">
            <rect id="Rectangle_401140-2" data-name="Rectangle 401140" width="3.598" height="3.385" transform="translate(0)" fill="#005865"/>
          </g>
        </g>
        <g id="Group_1099517-2" data-name="Group 1099517" transform="translate(48.007 10.905)">
          <g id="Group_1099516-2" data-name="Group 1099516" transform="translate(0)" clip-path="url(#clip-path-3)">
            <rect id="Rectangle_401146-2" data-name="Rectangle 401146" width="3.599" height="3.385" transform="translate(0 0)" fill="#005865"/>
          </g>
        </g>
        <g id="Group_1099519-2" data-name="Group 1099519" transform="translate(39.117 10.906)">
          <g id="Group_1099518-2" data-name="Group 1099518" transform="translate(0 0)" clip-path="url(#clip-path-4)">
            <rect id="Rectangle_401147-2" data-name="Rectangle 401147" width="3.599" height="3.384" transform="translate(0 0)" fill="#005865"/>
          </g>
        </g>
        <g id="Group_1099521-2" data-name="Group 1099521" transform="translate(30.227 10.906)">
          <g id="Group_1099520-2" data-name="Group 1099520" transform="translate(0 0)" clip-path="url(#clip-path-4)">
            <rect id="Rectangle_401148-2" data-name="Rectangle 401148" width="3.599" height="3.384" transform="translate(0 0)" fill="#005865"/>
          </g>
        </g>
        <g id="Group_1099523-2" data-name="Group 1099523" transform="translate(21.337 10.906)">
          <g id="Group_1099522-2" data-name="Group 1099522" transform="translate(0 0)" clip-path="url(#clip-path-6)">
            <rect id="Rectangle_401149-2" data-name="Rectangle 401149" width="3.598" height="3.384" transform="translate(0 0)" fill="#005865"/>
          </g>
        </g>
        <g id="Group_1099525-2" data-name="Group 1099525" transform="translate(44.45 0)">
          <g id="Group_1099524-2" data-name="Group 1099524" clip-path="url(#clip-path-4)">
            <rect id="Rectangle_401150-2" data-name="Rectangle 401150" width="3.599" height="3.384" transform="translate(0 0)" fill="#005865"/>
          </g>
        </g>
        <g id="Group_1099529-2" data-name="Group 1099529" transform="translate(35.56 0)">
          <g id="Group_1099528-2" data-name="Group 1099528" transform="translate(0)" clip-path="url(#clip-path-6)">
            <rect id="Rectangle_401152-2" data-name="Rectangle 401152" width="3.599" height="3.384" transform="translate(0 0)" fill="#005865"/>
          </g>
        </g>
        <g id="Group_1099531-2" data-name="Group 1099531" transform="translate(17.78 0)">
          <g id="Group_1099530-2" data-name="Group 1099530" transform="translate(0)" clip-path="url(#clip-path-6)">
            <rect id="Rectangle_401153-2" data-name="Rectangle 401153" width="3.598" height="3.384" transform="translate(0 0)" fill="#005865"/>
          </g>
        </g>
        <g id="Group_1099533-2" data-name="Group 1099533" transform="translate(8.89 0)">
          <g id="Group_1099532-2" data-name="Group 1099532" clip-path="url(#clip-path-6)">
            <rect id="Rectangle_401154-2" data-name="Rectangle 401154" width="3.599" height="3.384" transform="translate(0 0)" fill="#005865"/>
          </g>
        </g>
        <g id="Group_1099535-2" data-name="Group 1099535" transform="translate(0 0)">
          <g id="Group_1099534-2" data-name="Group 1099534" transform="translate(0)" clip-path="url(#clip-path-6)">
            <rect id="Rectangle_401155-2" data-name="Rectangle 401155" width="3.599" height="3.384" transform="translate(0 0)" fill="#005865"/>
          </g>
        </g>
      </g>
      <path id="Path_873784" data-name="Path 873784" d="M109.2,24.037A24.184,24.184,0,0,0,85.034-.128L24.2-.036A24.36,24.36,0,0,0-.037,24.2L-.128,85.032A24.184,24.184,0,0,0,24.037,109.2l60.832-.091a24.361,24.361,0,0,0,24.238-24.238Z" transform="translate(81.645 159) rotate(-135)" fill="#41cee2"/>
      <ellipse id="Ellipse_11579" data-name="Ellipse 11579" cx="51.175" cy="51.175" rx="51.175" ry="51.175" transform="translate(30.842 31.057)" fill="#005865"/>
      <g id="Mask_Group_1098697" data-name="Mask Group 1098697" transform="translate(47.016 47.59)" clip-path="url(#clip-path-22)">
        <g id="Group_1110998" data-name="Group 1110998" transform="translate(10.527 1.33)">
          <g id="Group_1110997" data-name="Group 1110997" clip-path="url(#clip-path-23)">
            <path id="Path_885024" data-name="Path 885024" d="M27.468,9.262H43.682a6.325,6.325,0,0,1,.669.3,25.784,25.784,0,0,1,2.88,3.744c.862,1.3,1.563,1.888.665,3.485a38.216,38.216,0,0,1-2.983,4.193,2.55,2.55,0,0,1-1.785.837,27.135,27.135,0,0,1-4.763-.064.987.987,0,0,1-.51-1.69c.7-.707,4.376-.065,5.482-.383l2.888-4.142-3.1-4.346H27.468v8.556h6.969c1.15,0,1.15,2.07,0,2.07H27.468v6.9H39.128a3.477,3.477,0,0,1,1.234.7,35.729,35.729,0,0,1,3.086,4.366,1.848,1.848,0,0,1,.087,2.241,33.483,33.483,0,0,1-2.961,4.215,2.552,2.552,0,0,1-1.722,1.038H27.468V60.044H36.92a5.507,5.507,0,0,1,1.3.629c1.068.911,1.355,3.466,1.959,4.733.583.134,2.166-.185,2.568.193a1.038,1.038,0,0,1-.477,1.728L6.251,67.254a.993.993,0,0,1,.176-1.824,16.224,16.224,0,0,0,2-.067c.243-.162,1.037-3.382,1.394-3.988a3.781,3.781,0,0,1,1.843-1.331h9.384l.207-.207V51.419c0-.535,1.207-.847,1.622-.447a5.66,5.66,0,0,1,.31.585v8.487H25.4V9.952a6.514,6.514,0,0,1-2.208,0v37.88c0,.933-1.932.772-1.932.138V31.2H15.669a1.232,1.232,0,0,1-.9-1.035,1.232,1.232,0,0,1,.9-1.035h5.589V25.959H9.183a6.042,6.042,0,0,1-.725-.311c-.539-.494-.146-1.759.449-1.759H21.258v-3.1l-.207-.207H2.215c.3,1.2,2.2,3.217,2.186,4.35-.017,1.006-1.828,3.151-2.186,4.206h9.453a1.034,1.034,0,0,1-.151,2.057c-3.085-.2-6.613.318-9.645.011A1.886,1.886,0,0,1,.015,29.745C-.2,28.306,1.817,26.25,2.327,24.9c-.51-1.336-2.578-3.489-2.29-4.911.089-.44.864-1.343,1.28-1.343H21.051l.207-.207V9.055c0-.068-.778-.767-.942-.99A5.036,5.036,0,0,1,26.5.5a5.088,5.088,0,0,1,1.851,7.508c-.311.421-.927.689-.885,1.254M23.987,1.98a3.077,3.077,0,0,0-1.96,5.063,3.347,3.347,0,0,0,4.411.155A3.068,3.068,0,0,0,23.987,1.98m3.48,37.227H38.852L41.817,35l-3.1-4.347H27.468ZM38.093,65.426c-.392-.7-.754-3.063-1.415-3.346l-24.45-.1c-.979.155-1.375,2.573-1.6,3.441Z" transform="translate(0.001 0)" fill="#fff"/>
          </g>
        </g>
      </g>
    </g>
  </g>
</svg>
