<svg xmlns="http://www.w3.org/2000/svg" xmlns:xlink="http://www.w3.org/1999/xlink" width="158.949" height="159.181" viewBox="0 0 158.949 159.181">
  <defs>
    <clipPath id="clip-path">
      <rect id="Rectangle_400938" data-name="Rectangle 400938" width="152.656" height="152.656" fill="none"/>
    </clipPath>
    <clipPath id="clip-path-2">
      <path id="Path_873460" data-name="Path 873460" d="M0,1.693A1.747,1.747,0,0,0,1.8,3.385,1.747,1.747,0,0,0,3.6,1.693,1.748,1.748,0,0,0,1.8,0,1.748,1.748,0,0,0,0,1.693" transform="translate(0)" fill="#005865"/>
    </clipPath>
    <clipPath id="clip-path-3">
      <path id="Path_873466" data-name="Path 873466" d="M0,1.693A1.748,1.748,0,0,0,1.8,3.385,1.747,1.747,0,0,0,3.6,1.693,1.747,1.747,0,0,0,1.8,0,1.748,1.748,0,0,0,0,1.693" fill="#005865"/>
    </clipPath>
    <clipPath id="clip-path-4">
      <path id="Path_873467" data-name="Path 873467" d="M0,1.692A1.748,1.748,0,0,0,1.8,3.384,1.748,1.748,0,0,0,3.6,1.692,1.748,1.748,0,0,0,1.8,0,1.748,1.748,0,0,0,0,1.692" transform="translate(0 0)" fill="#005865"/>
    </clipPath>
    <clipPath id="clip-path-6">
      <path id="Path_873469" data-name="Path 873469" d="M0,1.692A1.748,1.748,0,0,0,1.8,3.384,1.747,1.747,0,0,0,3.6,1.692,1.747,1.747,0,0,0,1.8,0,1.748,1.748,0,0,0,0,1.692" transform="translate(0 0)" fill="#005865"/>
    </clipPath>
    <clipPath id="clip-path-22">
      <rect id="Rectangle_401492" data-name="Rectangle 401492" width="69.989" height="69.99" transform="translate(-0.137 0)" fill="#fff" stroke="#707070" stroke-width="1"/>
    </clipPath>
    <clipPath id="clip-path-23">
      <rect id="Rectangle_404654" data-name="Rectangle 404654" width="50.721" height="65.75" fill="#fcfcfc"/>
    </clipPath>
  </defs>
  <g id="Group_1109064" data-name="Group 1109064" transform="translate(-318.664 -4483.287)">
    <g id="Group_1108942" data-name="Group 1108942" transform="translate(318.664 4483.287)">
      <g id="Group_1100237" data-name="Group 1100237" transform="translate(5.038 22.163)">
        <g id="Group_1099505" data-name="Group 1099505" transform="translate(2.342 10.905)">
          <g id="Group_1099504" data-name="Group 1099504" transform="translate(0)" clip-path="url(#clip-path-2)">
            <rect id="Rectangle_401140" data-name="Rectangle 401140" width="3.598" height="3.385" transform="translate(0)" fill="#005865"/>
          </g>
        </g>
        <g id="Group_1099517" data-name="Group 1099517" transform="translate(48.007 10.905)">
          <g id="Group_1099516" data-name="Group 1099516" transform="translate(0)" clip-path="url(#clip-path-3)">
            <rect id="Rectangle_401146" data-name="Rectangle 401146" width="3.599" height="3.385" transform="translate(0 0)" fill="#005865"/>
          </g>
        </g>
        <g id="Group_1099519" data-name="Group 1099519" transform="translate(39.117 10.906)">
          <g id="Group_1099518" data-name="Group 1099518" transform="translate(0 0)" clip-path="url(#clip-path-4)">
            <rect id="Rectangle_401147" data-name="Rectangle 401147" width="3.599" height="3.384" transform="translate(0 0)" fill="#005865"/>
          </g>
        </g>
        <g id="Group_1099521" data-name="Group 1099521" transform="translate(30.227 10.906)">
          <g id="Group_1099520" data-name="Group 1099520" transform="translate(0 0)" clip-path="url(#clip-path-4)">
            <rect id="Rectangle_401148" data-name="Rectangle 401148" width="3.599" height="3.384" transform="translate(0 0)" fill="#005865"/>
          </g>
        </g>
        <g id="Group_1099523" data-name="Group 1099523" transform="translate(21.337 10.906)">
          <g id="Group_1099522" data-name="Group 1099522" transform="translate(0 0)" clip-path="url(#clip-path-6)">
            <rect id="Rectangle_401149" data-name="Rectangle 401149" width="3.598" height="3.384" transform="translate(0 0)" fill="#005865"/>
          </g>
        </g>
        <g id="Group_1099525" data-name="Group 1099525" transform="translate(44.45 0)">
          <g id="Group_1099524" data-name="Group 1099524" clip-path="url(#clip-path-4)">
            <rect id="Rectangle_401150" data-name="Rectangle 401150" width="3.599" height="3.384" transform="translate(0 0)" fill="#005865"/>
          </g>
        </g>
        <g id="Group_1099529" data-name="Group 1099529" transform="translate(35.56 0)">
          <g id="Group_1099528" data-name="Group 1099528" transform="translate(0)" clip-path="url(#clip-path-6)">
            <rect id="Rectangle_401152" data-name="Rectangle 401152" width="3.599" height="3.384" transform="translate(0 0)" fill="#005865"/>
          </g>
        </g>
        <g id="Group_1099531" data-name="Group 1099531" transform="translate(17.78 0)">
          <g id="Group_1099530" data-name="Group 1099530" transform="translate(0)" clip-path="url(#clip-path-6)">
            <rect id="Rectangle_401153" data-name="Rectangle 401153" width="3.598" height="3.384" transform="translate(0 0)" fill="#005865"/>
          </g>
        </g>
        <g id="Group_1099533" data-name="Group 1099533" transform="translate(8.89 0)">
          <g id="Group_1099532" data-name="Group 1099532" clip-path="url(#clip-path-6)">
            <rect id="Rectangle_401154" data-name="Rectangle 401154" width="3.599" height="3.384" transform="translate(0 0)" fill="#005865"/>
          </g>
        </g>
        <g id="Group_1099535" data-name="Group 1099535" transform="translate(0 0)">
          <g id="Group_1099534" data-name="Group 1099534" transform="translate(0)" clip-path="url(#clip-path-6)">
            <rect id="Rectangle_401155" data-name="Rectangle 401155" width="3.599" height="3.384" transform="translate(0 0)" fill="#005865"/>
          </g>
        </g>
      </g>
      <g id="Group_1100238" data-name="Group 1100238" transform="translate(101.296 117.824)">
        <g id="Group_1099505-2" data-name="Group 1099505" transform="translate(2.342 10.905)">
          <g id="Group_1099504-2" data-name="Group 1099504" transform="translate(0)" clip-path="url(#clip-path-2)">
            <rect id="Rectangle_401140-2" data-name="Rectangle 401140" width="3.598" height="3.385" transform="translate(0)" fill="#005865"/>
          </g>
        </g>
        <g id="Group_1099517-2" data-name="Group 1099517" transform="translate(48.007 10.905)">
          <g id="Group_1099516-2" data-name="Group 1099516" transform="translate(0)" clip-path="url(#clip-path-3)">
            <rect id="Rectangle_401146-2" data-name="Rectangle 401146" width="3.599" height="3.385" transform="translate(0 0)" fill="#005865"/>
          </g>
        </g>
        <g id="Group_1099519-2" data-name="Group 1099519" transform="translate(39.117 10.906)">
          <g id="Group_1099518-2" data-name="Group 1099518" transform="translate(0 0)" clip-path="url(#clip-path-4)">
            <rect id="Rectangle_401147-2" data-name="Rectangle 401147" width="3.599" height="3.384" transform="translate(0 0)" fill="#005865"/>
          </g>
        </g>
        <g id="Group_1099521-2" data-name="Group 1099521" transform="translate(30.227 10.906)">
          <g id="Group_1099520-2" data-name="Group 1099520" transform="translate(0 0)" clip-path="url(#clip-path-4)">
            <rect id="Rectangle_401148-2" data-name="Rectangle 401148" width="3.599" height="3.384" transform="translate(0 0)" fill="#005865"/>
          </g>
        </g>
        <g id="Group_1099523-2" data-name="Group 1099523" transform="translate(21.337 10.906)">
          <g id="Group_1099522-2" data-name="Group 1099522" transform="translate(0 0)" clip-path="url(#clip-path-6)">
            <rect id="Rectangle_401149-2" data-name="Rectangle 401149" width="3.598" height="3.384" transform="translate(0 0)" fill="#005865"/>
          </g>
        </g>
        <g id="Group_1099525-2" data-name="Group 1099525" transform="translate(44.45 0)">
          <g id="Group_1099524-2" data-name="Group 1099524" clip-path="url(#clip-path-4)">
            <rect id="Rectangle_401150-2" data-name="Rectangle 401150" width="3.599" height="3.384" transform="translate(0 0)" fill="#005865"/>
          </g>
        </g>
        <g id="Group_1099529-2" data-name="Group 1099529" transform="translate(35.56 0)">
          <g id="Group_1099528-2" data-name="Group 1099528" transform="translate(0)" clip-path="url(#clip-path-6)">
            <rect id="Rectangle_401152-2" data-name="Rectangle 401152" width="3.599" height="3.384" transform="translate(0 0)" fill="#005865"/>
          </g>
        </g>
        <g id="Group_1099531-2" data-name="Group 1099531" transform="translate(17.78 0)">
          <g id="Group_1099530-2" data-name="Group 1099530" transform="translate(0)" clip-path="url(#clip-path-6)">
            <rect id="Rectangle_401153-2" data-name="Rectangle 401153" width="3.598" height="3.384" transform="translate(0 0)" fill="#005865"/>
          </g>
        </g>
        <g id="Group_1099533-2" data-name="Group 1099533" transform="translate(8.89 0)">
          <g id="Group_1099532-2" data-name="Group 1099532" clip-path="url(#clip-path-6)">
            <rect id="Rectangle_401154-2" data-name="Rectangle 401154" width="3.599" height="3.384" transform="translate(0 0)" fill="#005865"/>
          </g>
        </g>
        <g id="Group_1099535-2" data-name="Group 1099535" transform="translate(0 0)">
          <g id="Group_1099534-2" data-name="Group 1099534" transform="translate(0)" clip-path="url(#clip-path-6)">
            <rect id="Rectangle_401155-2" data-name="Rectangle 401155" width="3.599" height="3.384" transform="translate(0 0)" fill="#005865"/>
          </g>
        </g>
      </g>
      <path id="Path_873784" data-name="Path 873784" d="M109.2,24.037A24.184,24.184,0,0,0,85.034-.128L24.2-.036A24.36,24.36,0,0,0-.037,24.2L-.128,85.032A24.184,24.184,0,0,0,24.037,109.2l60.832-.091a24.361,24.361,0,0,0,24.238-24.238Z" transform="translate(81.645 159) rotate(-135)" fill="#41cee2"/>
      <ellipse id="Ellipse_11579" data-name="Ellipse 11579" cx="51.175" cy="51.175" rx="51.175" ry="51.175" transform="translate(30.842 31.057)" fill="#005865"/>
      <g id="Mask_Group_1098697" data-name="Mask Group 1098697" transform="translate(47.016 47.59)" clip-path="url(#clip-path-22)">
        <g id="Group_1109068" data-name="Group 1109068" transform="translate(9.863 1.41)">
          <g id="Group_1109067" data-name="Group 1109067" clip-path="url(#clip-path-23)">
            <path id="Path_883134" data-name="Path 883134" d="M102.931.066a8.736,8.736,0,0,1,9.953,8.051l0,31.327c.854,1.158,2,1.943,2.917,3.207,8.373,11.509-2.892,26.807-16.4,22.285-10.783-3.61-13.181-18.149-4.173-25l.325-32.885A8.759,8.759,0,0,1,102.931.066m.472,1.885a7.01,7.01,0,0,0-5.968,5.573l-.111,32.863c-.115.607-2.2,2.083-2.815,2.837C86.073,53.531,97.245,68.1,109.426,62.617a12.547,12.547,0,0,0,4.04-19.753c-.63-.694-2.333-1.754-2.47-2.476-.206-11.189.391-22.467-.308-33.608A6.957,6.957,0,0,0,103.4,1.952" transform="translate(-71.745 0)" fill="#fcfcfc"/>
            <path id="Path_883135" data-name="Path 883135" d="M118.54,55.15h4.711V26.3c0-.832-1.4-1.95-2.258-1.987-.94-.041-2.453,1.073-2.453,1.987v3.768c0,.619-1.884.619-1.884,0V25.828a13.143,13.143,0,0,1,.745-1.611,4.264,4.264,0,0,1,7.573,1.3l.16,33.755c.094.5,2.4,1.753,3.038,2.379,5.893,5.8,2.584,16.353-5.571,17.461-12.137,1.649-16.683-14.3-5.945-19.605V33.129a1.45,1.45,0,0,1,.837-.6c.3-.125,1.047.428,1.047.6Zm4.711,1.884H118.54v3.651c-.555.666-1.39.725-2.1,1.2A8.358,8.358,0,0,0,121.259,77.3c7.434-.231,10.728-9.683,5.163-14.606-1.02-.9-2.145-1.208-3.172-2.01Z" transform="translate(-88.48 -17.937)" fill="#fcfcfc"/>
            <path id="Path_883136" data-name="Path 883136" d="M225.511,28.482h-4.8a.978.978,0,0,1,0-1.956h4.8a.978.978,0,1,1,0,1.956" transform="translate(-175.768 -21.219)" fill="#fcfcfc"/>
            <path id="Path_883137" data-name="Path 883137" d="M222.132,68.037h-1.423a.978.978,0,0,1,0-1.956h1.423a.978.978,0,0,1,0,1.956" transform="translate(-175.768 -52.86)" fill="#fcfcfc"/>
            <path id="Path_883138" data-name="Path 883138" d="M225.511,107.593h-4.8a.978.978,0,0,1,0-1.956h4.8a.978.978,0,1,1,0,1.956" transform="translate(-175.768 -84.502)" fill="#fcfcfc"/>
            <path id="Path_883139" data-name="Path 883139" d="M222.132,149.815h-1.423a.978.978,0,0,1,0-1.956h1.423a.978.978,0,0,1,0,1.956" transform="translate(-175.768 -118.276)" fill="#fcfcfc"/>
            <path id="Path_883140" data-name="Path 883140" d="M225.511,188.926h-4.8a.978.978,0,1,1,0-1.956h4.8a.978.978,0,1,1,0,1.956" transform="translate(-175.768 -149.562)" fill="#fcfcfc"/>
            <path id="Path_883141" data-name="Path 883141" d="M19.211,38.931l-1.466-.786.8-.377a1.2,1.2,0,0,0,.577-1.6,1.052,1.052,0,0,0-1.4-.506l-2.454,1.152-2.986-1.6,3.144-1.687,2.445,1.147a1.052,1.052,0,0,0,1.4-.506,1.2,1.2,0,0,0-.577-1.6L17.9,32.2l1.308-.7a1.126,1.126,0,1,0-1.065-1.985l-1.313.7.13-.877a1.2,1.2,0,0,0-1.011-1.364,1.052,1.052,0,0,0-1.2.887l-.4,2.682L11.033,33.33V30.018L13.2,28.406a1.053,1.053,0,0,0,.216-1.472,1.2,1.2,0,0,0-1.68-.246l-.7.523V25.726a1.126,1.126,0,1,0-2.253,0v1.49l-.711-.529a1.2,1.2,0,0,0-1.68.246,1.052,1.052,0,0,0,.216,1.472L8.78,30.025v3.31L5.447,31.546l-.4-2.682a1.052,1.052,0,0,0-1.2-.887,1.2,1.2,0,0,0-1.011,1.364l.13.877-1.313-.7A1.126,1.126,0,1,0,.594,31.5l1.308.7-.793.372a1.2,1.2,0,0,0-.577,1.6,1.052,1.052,0,0,0,1.4.506l2.445-1.147L7.52,35.215l-2.986,1.6L2.08,35.665a1.052,1.052,0,0,0-1.4.506,1.2,1.2,0,0,0,.577,1.6l.8.377-1.466.786a1.126,1.126,0,0,0,1.065,1.985l1.46-.783L2.991,41A1.2,1.2,0,0,0,4,42.363a1.052,1.052,0,0,0,1.2-.886l.4-2.672L8.78,37.1v4.078L6.605,42.792a1.052,1.052,0,0,0-.216,1.472,1.2,1.2,0,0,0,1.68.246l.711-.529v1.663a1.126,1.126,0,1,0,2.253,0V43.988l.7.523a1.2,1.2,0,0,0,1.68-.246,1.052,1.052,0,0,0-.216-1.472L11.033,41.18V37.1L14.212,38.8l.4,2.672a1.052,1.052,0,0,0,1.2.886A1.2,1.2,0,0,0,16.814,41l-.129-.867,1.46.783a1.126,1.126,0,0,0,1.065-1.985" transform="translate(0 -6.102)" fill="#fcfcfc"/>
          </g>
        </g>
      </g>
    </g>
  </g>
</svg>
