<svg xmlns="http://www.w3.org/2000/svg" xmlns:xlink="http://www.w3.org/1999/xlink" width="135" height="135" viewBox="0 0 135 135">
  <defs>
    <clipPath id="clip-path">
      <rect id="Rectangle_404626" data-name="Rectangle 404626" width="74.941" height="81.228" fill="none"/>
    </clipPath>
  </defs>
  <g id="Group_1111611" data-name="Group 1111611" transform="translate(-258.711 -1273.846)">
    <circle id="Ellipse_11600" data-name="Ellipse 11600" cx="67.5" cy="67.5" r="67.5" transform="translate(258.711 1273.846)" fill="#fff"/>
    <g id="Group_1109038" data-name="Group 1109038" transform="translate(284.627 1298.615)">
      <rect id="Rectangle_401104" data-name="Rectangle 401104" width="84" height="85" transform="translate(0.084 0.231)" fill="none"/>
      <g id="Group_1109047" data-name="Group 1109047" transform="translate(5.084 2.23)">
        <g id="Group_1109046" data-name="Group 1109046" clip-path="url(#clip-path)">
          <path id="Path_883076" data-name="Path 883076" d="M77.8,90H20.119a4.341,4.341,0,0,0-4.341,4.341v46.3a4.341,4.341,0,0,0,4.341,4.341H77.8a4.341,4.341,0,0,0,4.341-4.341v-46.3A4.341,4.341,0,0,0,77.8,90" transform="translate(-11.212 -63.955)" fill="#fdeee0"/>
          <path id="Path_883077" data-name="Path 883077" d="M9.1,81.572c4.91-.121,9.847.09,14.759,0,5.62,10.312,21.556,10.389,27.2,0,4.912.08,9.848-.107,14.759,0,3.5.077,8.127-.364,8.9,4.265.394,2.354.307,9.558-.683,11.623-3.069,6.4-12.487,4.949-14.15-1.707-2.647,7.881-12.816,7.73-15.05-.294-1.786,8.13-13.116,8.082-14.759,0-1.146,3.573-3.559,6.1-7.524,6.1-3.75,0-6.371-2.388-7.526-5.8C12.806,103.988.988,103.2.132,94.736c-.205-2.031-.245-8.284.432-9.979,1.426-3.57,5.41-3.108,8.536-3.185" transform="translate(0 -57.939)" fill="#2bc897"/>
          <path id="Path_883078" data-name="Path 883078" d="M167.677,181.985c.076,7.132-.057,14.283,0,21.415-6.073.019-12.159-.014-18.232,0V174.9c0-1.467,1.738-2.545,3.064-2.724a76.551,76.551,0,0,1,11.562-.037c1.378.122,3.2.718,3.545,2.243.4,1.77.039,5.561.061,7.608M155.45,188.57c1.332-1.346-.864-3.22-1.983-1.835a1.359,1.359,0,0,0,1.983,1.835" transform="translate(-106.197 -122.178)" fill="#41cee2"/>
          <path id="Path_883079" data-name="Path 883079" d="M46.591,195.518c-.092-2.971-.332-5.506-3.183-7.235l-.015-14.919c.219-1.65,2.155-2.327,3.621-2.456a116.09,116.09,0,0,1,16.514.005c2.186.263,3.152,1.854,3.333,3.9a125.776,125.776,0,0,1,0,17.1,3.68,3.68,0,0,1-3.043,3.613Zm5.5-9.839c.086.109.079.667.322.967,1.929,2.38,3.287,5.286,6.969,3.864,3.258-1.258,2.635-4.582,1.052-6.952-.606-.908-1.721-1.778-2.266-2.509-.8-1.074-1.448-2.753-2.607-3.9a4.2,4.2,0,0,0-7.17,3.988c.19.835,2.334,3.351,3,4.243.2.273.67.266.7.3" transform="translate(-30.835 -121.241)" fill="#41cee2"/>
          <path id="Path_883080" data-name="Path 883080" d="M16.442,229.1c2.851,1.729,3.091,4.264,3.183,7.235.072,2.307-.053,4.637,0,6.945H5.445v-9.695a12.308,12.308,0,0,1,1.871-3.338,7.51,7.51,0,0,1,9.126-1.147" transform="translate(-3.869 -162.058)" fill="#2bc897"/>
          <path id="Path_883081" data-name="Path 883081" d="M31.133,62.234c-1.18-9.53,6.065-7.769,12.73-7.811a21.082,21.082,0,0,0,2.029,7.811c-4.912.09-9.849-.121-14.759,0" transform="translate(-22.033 -38.601)" fill="#e5cb82"/>
          <path id="Path_883082" data-name="Path 883082" d="M191.2,62.214c-4.911-.107-9.847.08-14.759,0a20.122,20.122,0,0,0,2.029-7.811c6.741.055,13.864-1.808,12.73,7.811" transform="translate(-125.384 -38.58)" fill="#e5cb82"/>
          <path id="Path_883083" data-name="Path 883083" d="M164.582,223.717a1.359,1.359,0,0,1-1.983-1.835c1.118-1.385,3.315.488,1.983,1.835" transform="translate(-115.329 -157.325)" fill="#274355"/>
          <path id="Path_883084" data-name="Path 883084" d="M70.089,193.632l-6.077,4.63c-.029-.037-.494-.03-.7-.3-.667-.891-2.812-3.408-3-4.243a4.2,4.2,0,0,1,7.17-3.988c1.16,1.151,1.808,2.83,2.607,3.9" transform="translate(-42.758 -133.824)" fill="#005865"/>
          <path id="Path_883085" data-name="Path 883085" d="M73.445,211.3l6.077-4.63c.545.731,1.66,1.6,2.266,2.509,1.583,2.37,2.206,5.694-1.052,6.952-3.682,1.422-5.04-1.484-6.969-3.864-.243-.3-.236-.858-.322-.967" transform="translate(-52.191 -146.86)" fill="#f6f5f5"/>
          <path id="Path_883086" data-name="Path 883086" d="M107.611,15.916A15.916,15.916,0,1,1,91.694,0a15.916,15.916,0,0,1,15.916,15.916" transform="translate(-53.849)" fill="#defff4"/>
          <path id="Path_883087" data-name="Path 883087" d="M112.442,27.667v4.92h4.775a2.9,2.9,0,0,1,.434.434V38.23a2.9,2.9,0,0,1-.434.434h-4.775v4.92h-5.788v-4.92h-4.775a2.9,2.9,0,0,1-.434-.434V33.021a2.9,2.9,0,0,1,.434-.434h4.775v-4.92Z" transform="translate(-72.088 -19.66)" fill="#006543"/>
        </g>
      </g>
    </g>
  </g>
</svg>
