<svg xmlns="http://www.w3.org/2000/svg" xmlns:xlink="http://www.w3.org/1999/xlink" width="158.949" height="159.181" viewBox="0 0 158.949 159.181">
  <defs>
    <clipPath id="clip-path">
      <rect id="Rectangle_400938" data-name="Rectangle 400938" width="152.656" height="152.656" fill="none"/>
    </clipPath>
    <clipPath id="clip-path-2">
      <path id="Path_873460" data-name="Path 873460" d="M0,1.693A1.747,1.747,0,0,0,1.8,3.385,1.747,1.747,0,0,0,3.6,1.693,1.748,1.748,0,0,0,1.8,0,1.748,1.748,0,0,0,0,1.693" transform="translate(0)" fill="#005865"/>
    </clipPath>
    <clipPath id="clip-path-3">
      <path id="Path_873466" data-name="Path 873466" d="M0,1.693A1.748,1.748,0,0,0,1.8,3.385,1.747,1.747,0,0,0,3.6,1.693,1.747,1.747,0,0,0,1.8,0,1.748,1.748,0,0,0,0,1.693" fill="#005865"/>
    </clipPath>
    <clipPath id="clip-path-4">
      <path id="Path_873467" data-name="Path 873467" d="M0,1.692A1.748,1.748,0,0,0,1.8,3.384,1.748,1.748,0,0,0,3.6,1.692,1.748,1.748,0,0,0,1.8,0,1.748,1.748,0,0,0,0,1.692" transform="translate(0 0)" fill="#005865"/>
    </clipPath>
    <clipPath id="clip-path-6">
      <path id="Path_873469" data-name="Path 873469" d="M0,1.692A1.748,1.748,0,0,0,1.8,3.384,1.747,1.747,0,0,0,3.6,1.692,1.747,1.747,0,0,0,1.8,0,1.748,1.748,0,0,0,0,1.692" transform="translate(0 0)" fill="#005865"/>
    </clipPath>
    <clipPath id="clip-path-22">
      <rect id="Rectangle_401492" data-name="Rectangle 401492" width="69.989" height="69.99" transform="translate(0.359 0.22)" fill="#fff" stroke="#707070" stroke-width="1"/>
    </clipPath>
    <clipPath id="clip-path-23">
      <rect id="Rectangle_405583" data-name="Rectangle 405583" width="53.325" height="66.221" fill="#fff"/>
    </clipPath>
  </defs>
  <g id="Group_1109609" data-name="Group 1109609" transform="translate(-318.664 -4483.287)">
    <g id="Group_1108942" data-name="Group 1108942" transform="translate(318.664 4483.287)">
      <g id="Group_1100237" data-name="Group 1100237" transform="translate(5.038 22.163)">
        <g id="Group_1099505" data-name="Group 1099505" transform="translate(2.342 10.905)">
          <g id="Group_1099504" data-name="Group 1099504" transform="translate(0)" clip-path="url(#clip-path-2)">
            <rect id="Rectangle_401140" data-name="Rectangle 401140" width="3.598" height="3.385" transform="translate(0)" fill="#005865"/>
          </g>
        </g>
        <g id="Group_1099517" data-name="Group 1099517" transform="translate(48.007 10.905)">
          <g id="Group_1099516" data-name="Group 1099516" transform="translate(0)" clip-path="url(#clip-path-3)">
            <rect id="Rectangle_401146" data-name="Rectangle 401146" width="3.599" height="3.385" transform="translate(0 0)" fill="#005865"/>
          </g>
        </g>
        <g id="Group_1099519" data-name="Group 1099519" transform="translate(39.117 10.906)">
          <g id="Group_1099518" data-name="Group 1099518" transform="translate(0 0)" clip-path="url(#clip-path-4)">
            <rect id="Rectangle_401147" data-name="Rectangle 401147" width="3.599" height="3.384" transform="translate(0 0)" fill="#005865"/>
          </g>
        </g>
        <g id="Group_1099521" data-name="Group 1099521" transform="translate(30.227 10.906)">
          <g id="Group_1099520" data-name="Group 1099520" transform="translate(0 0)" clip-path="url(#clip-path-4)">
            <rect id="Rectangle_401148" data-name="Rectangle 401148" width="3.599" height="3.384" transform="translate(0 0)" fill="#005865"/>
          </g>
        </g>
        <g id="Group_1099523" data-name="Group 1099523" transform="translate(21.337 10.906)">
          <g id="Group_1099522" data-name="Group 1099522" transform="translate(0 0)" clip-path="url(#clip-path-6)">
            <rect id="Rectangle_401149" data-name="Rectangle 401149" width="3.598" height="3.384" transform="translate(0 0)" fill="#005865"/>
          </g>
        </g>
        <g id="Group_1099525" data-name="Group 1099525" transform="translate(44.45 0)">
          <g id="Group_1099524" data-name="Group 1099524" clip-path="url(#clip-path-4)">
            <rect id="Rectangle_401150" data-name="Rectangle 401150" width="3.599" height="3.384" transform="translate(0 0)" fill="#005865"/>
          </g>
        </g>
        <g id="Group_1099529" data-name="Group 1099529" transform="translate(35.56 0)">
          <g id="Group_1099528" data-name="Group 1099528" transform="translate(0)" clip-path="url(#clip-path-6)">
            <rect id="Rectangle_401152" data-name="Rectangle 401152" width="3.599" height="3.384" transform="translate(0 0)" fill="#005865"/>
          </g>
        </g>
        <g id="Group_1099531" data-name="Group 1099531" transform="translate(17.78 0)">
          <g id="Group_1099530" data-name="Group 1099530" transform="translate(0)" clip-path="url(#clip-path-6)">
            <rect id="Rectangle_401153" data-name="Rectangle 401153" width="3.598" height="3.384" transform="translate(0 0)" fill="#005865"/>
          </g>
        </g>
        <g id="Group_1099533" data-name="Group 1099533" transform="translate(8.89 0)">
          <g id="Group_1099532" data-name="Group 1099532" clip-path="url(#clip-path-6)">
            <rect id="Rectangle_401154" data-name="Rectangle 401154" width="3.599" height="3.384" transform="translate(0 0)" fill="#005865"/>
          </g>
        </g>
        <g id="Group_1099535" data-name="Group 1099535" transform="translate(0 0)">
          <g id="Group_1099534" data-name="Group 1099534" transform="translate(0)" clip-path="url(#clip-path-6)">
            <rect id="Rectangle_401155" data-name="Rectangle 401155" width="3.599" height="3.384" transform="translate(0 0)" fill="#005865"/>
          </g>
        </g>
      </g>
      <g id="Group_1100238" data-name="Group 1100238" transform="translate(101.296 117.824)">
        <g id="Group_1099505-2" data-name="Group 1099505" transform="translate(2.342 10.905)">
          <g id="Group_1099504-2" data-name="Group 1099504" transform="translate(0)" clip-path="url(#clip-path-2)">
            <rect id="Rectangle_401140-2" data-name="Rectangle 401140" width="3.598" height="3.385" transform="translate(0)" fill="#005865"/>
          </g>
        </g>
        <g id="Group_1099517-2" data-name="Group 1099517" transform="translate(48.007 10.905)">
          <g id="Group_1099516-2" data-name="Group 1099516" transform="translate(0)" clip-path="url(#clip-path-3)">
            <rect id="Rectangle_401146-2" data-name="Rectangle 401146" width="3.599" height="3.385" transform="translate(0 0)" fill="#005865"/>
          </g>
        </g>
        <g id="Group_1099519-2" data-name="Group 1099519" transform="translate(39.117 10.906)">
          <g id="Group_1099518-2" data-name="Group 1099518" transform="translate(0 0)" clip-path="url(#clip-path-4)">
            <rect id="Rectangle_401147-2" data-name="Rectangle 401147" width="3.599" height="3.384" transform="translate(0 0)" fill="#005865"/>
          </g>
        </g>
        <g id="Group_1099521-2" data-name="Group 1099521" transform="translate(30.227 10.906)">
          <g id="Group_1099520-2" data-name="Group 1099520" transform="translate(0 0)" clip-path="url(#clip-path-4)">
            <rect id="Rectangle_401148-2" data-name="Rectangle 401148" width="3.599" height="3.384" transform="translate(0 0)" fill="#005865"/>
          </g>
        </g>
        <g id="Group_1099523-2" data-name="Group 1099523" transform="translate(21.337 10.906)">
          <g id="Group_1099522-2" data-name="Group 1099522" transform="translate(0 0)" clip-path="url(#clip-path-6)">
            <rect id="Rectangle_401149-2" data-name="Rectangle 401149" width="3.598" height="3.384" transform="translate(0 0)" fill="#005865"/>
          </g>
        </g>
        <g id="Group_1099525-2" data-name="Group 1099525" transform="translate(44.45 0)">
          <g id="Group_1099524-2" data-name="Group 1099524" clip-path="url(#clip-path-4)">
            <rect id="Rectangle_401150-2" data-name="Rectangle 401150" width="3.599" height="3.384" transform="translate(0 0)" fill="#005865"/>
          </g>
        </g>
        <g id="Group_1099529-2" data-name="Group 1099529" transform="translate(35.56 0)">
          <g id="Group_1099528-2" data-name="Group 1099528" transform="translate(0)" clip-path="url(#clip-path-6)">
            <rect id="Rectangle_401152-2" data-name="Rectangle 401152" width="3.599" height="3.384" transform="translate(0 0)" fill="#005865"/>
          </g>
        </g>
        <g id="Group_1099531-2" data-name="Group 1099531" transform="translate(17.78 0)">
          <g id="Group_1099530-2" data-name="Group 1099530" transform="translate(0)" clip-path="url(#clip-path-6)">
            <rect id="Rectangle_401153-2" data-name="Rectangle 401153" width="3.598" height="3.384" transform="translate(0 0)" fill="#005865"/>
          </g>
        </g>
        <g id="Group_1099533-2" data-name="Group 1099533" transform="translate(8.89 0)">
          <g id="Group_1099532-2" data-name="Group 1099532" clip-path="url(#clip-path-6)">
            <rect id="Rectangle_401154-2" data-name="Rectangle 401154" width="3.599" height="3.384" transform="translate(0 0)" fill="#005865"/>
          </g>
        </g>
        <g id="Group_1099535-2" data-name="Group 1099535" transform="translate(0 0)">
          <g id="Group_1099534-2" data-name="Group 1099534" transform="translate(0)" clip-path="url(#clip-path-6)">
            <rect id="Rectangle_401155-2" data-name="Rectangle 401155" width="3.599" height="3.384" transform="translate(0 0)" fill="#005865"/>
          </g>
        </g>
      </g>
      <path id="Path_873784" data-name="Path 873784" d="M109.2,24.037A24.184,24.184,0,0,0,85.034-.128L24.2-.036A24.36,24.36,0,0,0-.037,24.2L-.128,85.032A24.184,24.184,0,0,0,24.037,109.2l60.832-.091a24.361,24.361,0,0,0,24.238-24.238Z" transform="translate(81.645 159) rotate(-135)" fill="#41cee2"/>
      <ellipse id="Ellipse_11579" data-name="Ellipse 11579" cx="51.175" cy="51.175" rx="51.175" ry="51.175" transform="translate(30.842 31.057)" fill="#005865"/>
      <g id="Mask_Group_1098697" data-name="Mask Group 1098697" transform="translate(47.016 47.59)" clip-path="url(#clip-path-22)">
        <g id="Group_1111004" data-name="Group 1111004" transform="translate(8.358 2.221)">
          <g id="Group_1111003" data-name="Group 1111003" clip-path="url(#clip-path-23)">
            <path id="Path_885035" data-name="Path 885035" d="M53.235,17.5c-.072-3.4-.147-6.925-.026-10.326V7.137l0-.032c-.089-.7-.773-.831-1.14-.9l-.085-.016c-1.818-.355-3.58-.668-5.284-.971A105.789,105.789,0,0,1,32.181,1.91c-.243-.078-.827-.292-1.5-.54C27.352.153,26.7-.039,26.43.007h0a13.277,13.277,0,0,0-2.311.827c-.519.217-1.009.423-1.368.542A103.065,103.065,0,0,1,9.561,4.882c-1.25.242-2.57.425-3.847.6-1.457.2-2.964.411-4.372.708l-.1.02a1.529,1.529,0,0,0-.922.408l-.056.071L.1,7.377l0,.059c.2,3.348.1,6.863,0,10.262C-.09,24.87-.3,32.287,2.184,39.035A34.664,34.664,0,0,0,15.13,55.549c-.4.732-.875,1.481-1.333,2.207a33.209,33.209,0,0,0-1.731,2.964,3.623,3.623,0,0,0,2.941,5.5l.026,0,23.6-.04.065-.005a3.661,3.661,0,0,0,2.861-4.744l-.012-.035-3.3-5.923A35.019,35.019,0,0,0,48.758,44.113,35.179,35.179,0,0,0,53.217,28.9c.18-3.755.1-7.643.017-11.4M36.821,47.83l-2.127,1.689-4.945-8.7-.01-.016a3.608,3.608,0,0,0-4.83-1.25,5.782,5.782,0,0,0-2.041,2.459c-.113.2-.221.395-.328.575-1.167,1.954-2.288,3.984-3.371,5.947l-.581,1.051c-.583-.4-1.851-1.419-2.072-1.64-.033-.053-.036-.076-.054-.214a46.633,46.633,0,0,1,0-6.372,10.251,10.251,0,0,1,6.249-9.3c.258.117.5.25.745.389a6.41,6.41,0,0,0,1.52.675,5.963,5.963,0,0,0,4.008-.217,5.425,5.425,0,0,0,.9-.471,4.6,4.6,0,0,1,.716-.383,10.011,10.011,0,0,1,5.409,5.363c.992,2.38.917,5.053.844,7.639-.026.914-.052,1.857-.032,2.778m1.451-10.751a12.217,12.217,0,0,0-6.1-6.726,9.6,9.6,0,0,0,1.935-9.227,7.483,7.483,0,0,0-6.143-5.153,7.562,7.562,0,0,0-7.752,3.183,9.278,9.278,0,0,0-.037,9.9c.075.126.231.331.479.655.14.183.339.443.484.646a12.355,12.355,0,0,0-6.083,6.723A13.085,13.085,0,0,0,14.327,40v5.881l-.074-.078-.042-.044c-7.7-8-7.512-17.066-7.291-27.559q.02-.954.039-1.919l0-.1a30.876,30.876,0,0,0-.1-3.93,115.564,115.564,0,0,0,19.843-5.1,112.451,112.451,0,0,0,19.755,5.1,31.5,31.5,0,0,0-.1,4.077l0,.228q.015.849.033,1.693c.205,10.037.4,19.518-7.152,27.384-.043.045-.09.1-.138.149-.033.036-.071.078-.112.121V40a13.294,13.294,0,0,0-.727-2.924M21.822,20.7a5.324,5.324,0,0,1,4.055-2.59,5.52,5.52,0,0,1,5.272,2.061,6.688,6.688,0,0,1,.663,6.56c-1.114,2.74-3.037,4.375-5.146,4.375h0c-2.117,0-4.041-1.637-5.148-4.375a6.872,6.872,0,0,1,.308-6.031M13.776,62.51c2.337-4.442,4.923-8.861,7.424-13.135,1.442-2.465,2.934-5.014,4.362-7.54a1.27,1.27,0,0,1,.858-.533h0a1.4,1.4,0,0,1,1.306.474L39.527,62.3a1.507,1.507,0,0,1-.685,1.534l-24.023.1a1.4,1.4,0,0,1-1.042-1.43m23.409-8.956-1.261-2.212a28.857,28.857,0,0,0,10.964-14.15c2.049-5.654,1.9-11.811,1.765-17.766-.062-2.636-.126-5.362.008-7.972.049-.976-.682-1.191-1.119-1.319a20.713,20.713,0,0,0-2.972-.525c-.722-.093-1.4-.182-2.008-.3A102.129,102.129,0,0,1,26.874,4.844l-.138-.052-.139.049A111.994,111.994,0,0,1,10.654,9.329c-.584.116-1.243.2-1.941.29a20.4,20.4,0,0,0-2.929.516c-.437.128-1.169.342-1.119,1.318.124,2.585.064,5.268.005,7.862C4.529,25.6,4.383,32.1,6.782,38.072A29.621,29.621,0,0,0,17.458,51.425c-.29.583-1.051,1.945-1.19,2.133a.265.265,0,0,1-.032.036,1.594,1.594,0,0,1-.364-.231c-.077-.058-.156-.118-.238-.171C8.182,48.346,2.68,38.235,2.254,28.6l0-20.354A102.427,102.427,0,0,0,26.718,2.286a98.864,98.864,0,0,0,24.35,5.961l0,20.476a33.886,33.886,0,0,1-3.684,13.394,32.843,32.843,0,0,1-10.2,11.436" transform="translate(0 -0.001)" fill="#fff"/>
            <path id="Path_885036" data-name="Path 885036" d="M177.085,334.275c.09,1.555.183,3.163.344,4.734.014.134.025.272.036.414.077.963.173,2.161,1.186,2.756a2.406,2.406,0,0,0,.944.319,3.077,3.077,0,0,0-1.331.484,2.953,2.953,0,0,0-1.077,3.791,2.6,2.6,0,0,0,2.428,1.7h.012a3.423,3.423,0,0,0,3.018-1.969,2.829,2.829,0,0,0-.681-3.142,2.768,2.768,0,0,0-1.8-.878,2.191,2.191,0,0,0,.578-.164,2.342,2.342,0,0,0,1.336-1.7l.7-9.311-.007-.046a2.057,2.057,0,0,0-.879-1.4,4.533,4.533,0,0,0-3.247-.452,2.549,2.549,0,0,0-1.747,1.851l-.007.046,0,.047c.072.966.13,1.954.185,2.91m2.877,5.869c-.017.144-.08.212-.118.213h0c-.039,0-.106-.077-.129-.243-.176-1.268-.238-2.626-.3-3.939a40.539,40.539,0,0,0-.375-4.5c0-.006,0-.01,0-.011.14-.208,1.222-.226,1.557-.077a1.165,1.165,0,0,1,.054.39c-.047,1.268-.193,2.568-.335,3.825-.16,1.421-.325,2.889-.353,4.343m-.084,6.125a.718.718,0,0,1-.765-.7.767.767,0,0,1,.624-.887.657.657,0,0,1,.666.262.977.977,0,0,1,.117.951.68.68,0,0,1-.643.37" transform="translate(-153.177 -285.156)" fill="#fff"/>
          </g>
        </g>
      </g>
    </g>
  </g>
</svg>
