<svg xmlns="http://www.w3.org/2000/svg" xmlns:xlink="http://www.w3.org/1999/xlink" width="99" height="99" viewBox="0 0 99 99">
  <defs>
    <clipPath id="clip-path">
      <rect id="Rectangle_401223" data-name="Rectangle 401223" width="99" height="99" transform="translate(0)" fill="#844804"/>
    </clipPath>
    <clipPath id="clip-path-2">
      <rect id="Rectangle_401223-2" data-name="Rectangle 401223" width="88.539" height="88.539" fill="#f3f9ff"/>
    </clipPath>
    <clipPath id="clip-path-3">
      <rect id="Rectangle_405426" data-name="Rectangle 405426" width="51.608" height="69" fill="none"/>
    </clipPath>
    <clipPath id="clip-path-5">
      <rect id="Rectangle_405424" data-name="Rectangle 405424" width="18.351" height="23.593" fill="none"/>
    </clipPath>
  </defs>
  <g id="Group_1109775" data-name="Group 1109775" transform="translate(-619.922 -5755.871)">
    <g id="Group_1100724" data-name="Group 1100724" transform="translate(619.921 5755.871)">
      <g id="Group_1099654" data-name="Group 1099654" transform="translate(0 0)">
        <g id="Group_1099652" data-name="Group 1099652" clip-path="url(#clip-path)">
          <path id="Path_873521" data-name="Path 873521" d="M99,77.066A22,22,0,0,1,77.066,99H21.934A22,22,0,0,1,0,77.066V21.933A22,22,0,0,1,21.934,0H77.066A22,22,0,0,1,99,21.934Z" transform="translate(0)" fill="#005865"/>
        </g>
      </g>
      <g id="Group_1099659" data-name="Group 1099659" transform="translate(4.77 5.723)">
        <g id="Group_1099652-2" data-name="Group 1099652" transform="translate(0 0)" clip-path="url(#clip-path-2)">
          <path id="Path_873521-2" data-name="Path 873521" d="M88.539,68.922A19.674,19.674,0,0,1,68.923,88.539H19.616A19.674,19.674,0,0,1,0,68.922V19.616A19.674,19.674,0,0,1,19.616,0H68.923A19.674,19.674,0,0,1,88.539,19.616Z" fill="#f3f9ff"/>
        </g>
      </g>
    </g>
    <g id="Group_1100725" data-name="Group 1100725" transform="translate(636.343 5771.293)">
      <rect id="Rectangle_401104" data-name="Rectangle 401104" width="68" height="69" transform="translate(-0.422 -1.562)" fill="none"/>
      <g id="Group_1110744" data-name="Group 1110744" transform="translate(7.579 -1.563)">
        <g id="Group_1110743" data-name="Group 1110743" clip-path="url(#clip-path-3)">
          <g id="Group_1110742" data-name="Group 1110742">
            <g id="Group_1110741" data-name="Group 1110741" clip-path="url(#clip-path-3)">
              <path id="Path_884662" data-name="Path 884662" d="M48.435,6.84a2.4,2.4,0,0,1-2.4,2.4h-1.2a2.4,2.4,0,0,1-2.4-2.4l-1.2-4.44a2.4,2.4,0,0,1,2.4-2.4h3.6a2.4,2.4,0,0,1,2.4,2.4Z" transform="translate(-22.003)" fill="#2c3e50"/>
              <path id="Path_884663" data-name="Path 884663" d="M46.867,10.775V69.252a1.9,1.9,0,0,1-1.642,1.888,1.779,1.779,0,0,1-.257.022H1.911A1.916,1.916,0,0,1,0,69.252V10.775a1.907,1.907,0,0,1,1.911-1.9H44.969a1.9,1.9,0,0,1,1.9,1.9" transform="translate(0 -4.736)" fill="#f3a744"/>
              <path id="Rectangle_405419" data-name="Rectangle 405419" d="M4.337,0H34.59a4.337,4.337,0,0,1,4.337,4.337V52.4a4.339,4.339,0,0,1-4.339,4.339H4.337A4.337,4.337,0,0,1,0,52.4V4.337A4.337,4.337,0,0,1,4.337,0Z" transform="translate(3.969 6.91)" fill="#fff"/>
              <path id="Path_884664" data-name="Path 884664" d="M48.977,7.343V11.1a1.672,1.672,0,0,1-1.665,1.676H33.268A1.681,1.681,0,0,1,31.592,11.1V7.343a.456.456,0,0,1,.023-.179,1.653,1.653,0,0,1,1.653-1.5H47.312a1.871,1.871,0,0,1,.356.033,1.654,1.654,0,0,1,1.285,1.464.456.456,0,0,1,.023.179" transform="translate(-16.856 -3.024)" fill="#34495e"/>
              <rect id="Rectangle_405420" data-name="Rectangle 405420" width="15.687" height="0.924" transform="translate(20.416 14.949)" fill="#bdc3c7"/>
              <rect id="Rectangle_405421" data-name="Rectangle 405421" width="15.687" height="0.924" transform="translate(20.416 17.276)" fill="#bdc3c7"/>
              <path id="Path_884665" data-name="Path 884665" d="M30.462,28.285H28.5V26.322a.528.528,0,0,0-.527-.528H26.076a.527.527,0,0,0-.526.528v1.963H23.587a.526.526,0,0,0-.526.528v1.894a.527.527,0,0,0,.526.528H25.55v1.96a.527.527,0,0,0,.526.529H27.97a.528.528,0,0,0,.527-.529v-1.96h1.965a.528.528,0,0,0,.527-.528V28.812a.527.527,0,0,0-.527-.528" transform="translate(-12.305 -13.763)" fill="#15a0c9"/>
              <path id="Path_884666" data-name="Path 884666" d="M17.46,93.391h2.822l4.491,5.769V93.391h2.994v10.915h-2.65l-4.663-5.988v5.988H17.46Z" transform="translate(-9.316 -49.83)" fill="#2bc897"/>
              <rect id="Rectangle_405422" data-name="Rectangle 405422" width="3.04" height="10.915" transform="translate(20.455 43.561)" fill="#2bc897"/>
              <path id="Path_884667" data-name="Path 884667" d="M56.627,96.042H53.352V93.391h9.575v2.651H59.652v8.264H56.627Z" transform="translate(-28.467 -49.83)" fill="#2bc897"/>
              <rect id="Rectangle_405423" data-name="Rectangle 405423" width="3.088" height="3.041" transform="translate(33.934 51.436)" fill="#15a0c9"/>
              <path id="Path_884669" data-name="Path 884669" d="M14.748,55.354h2.341l3.724,4.785V55.354H23.3v9.053H21.1L17.231,59.44v4.966H14.748Z" transform="translate(-7.869 -29.535)" fill="#2bc897"/>
              <path id="Path_884670" data-name="Path 884670" d="M35.855,59.7v-.026a4.879,4.879,0,0,1,9.751-.026v.026a4.879,4.879,0,0,1-9.751.026m7.191,0v-.026a2.352,2.352,0,0,0-2.328-2.444,2.307,2.307,0,0,0-2.289,2.418v.026a2.35,2.35,0,0,0,2.314,2.444,2.31,2.31,0,0,0,2.3-2.418" transform="translate(-19.131 -29.328)" fill="#2bc897"/>
              <path id="Path_884671" data-name="Path 884671" d="M80.555,110.058l-.068,15.833a1.577,1.577,0,0,1-1.007,1.285,5.882,5.882,0,0,1-4.906,0,1.593,1.593,0,0,1-1.023-1.306l.068-15.833a1.592,1.592,0,0,0,1.022,1.306,5.877,5.877,0,0,0,4.906,0A1.577,1.577,0,0,0,80.555,110.058Z" transform="translate(-39.245 -58.714)" fill="#7a3c09"/>
              <path id="Path_884672" data-name="Path 884672" d="M79.611,106.669c1.357.715,1.364,1.874.016,2.589a5.882,5.882,0,0,1-4.906,0c-1.357-.715-1.364-1.881-.016-2.6A5.883,5.883,0,0,1,79.611,106.669Z" transform="translate(-39.323 -56.628)" fill="#602e08"/>
              <path id="Path_884673" data-name="Path 884673" d="M80.715,97.368l-.047,5.608a1.082,1.082,0,0,1-.69.881,4.033,4.033,0,0,1-3.363,0,1.091,1.091,0,0,1-.7-.9l.046-5.608a1.092,1.092,0,0,0,.7.9,4.035,4.035,0,0,0,3.364,0A1.082,1.082,0,0,0,80.715,97.368Z" transform="translate(-40.505 -51.945)" fill="#cad0dd"/>
              <path id="Path_884674" data-name="Path 884674" d="M80.067,95.044c.931.49.935,1.285.011,1.775a4.032,4.032,0,0,1-3.363,0c-.93-.49-.935-1.289-.011-1.779A4.034,4.034,0,0,1,80.067,95.044Z" transform="translate(-40.558 -50.516)" fill="#cad0dd"/>
              <path id="Path_884675" data-name="Path 884675" d="M76.376,43.319C74.183,42.146,56.963,69.23,59.156,70.4l-2.515-1.292c-2.172-1.154-3.543-3.616-3.543-7.135-.021-7.04,5.42-15.637,12.148-19.176,3.4-1.789,6.454-1.962,8.668-.789Z" transform="translate(-28.331 -22.017)" fill="#4c7891"/>
              <path id="Path_884676" data-name="Path 884676" d="M70.551,45.594c6.733-3.545,12.19-.695,12.212,6.361s-5.4,15.635-12.133,19.18-12.217.709-12.239-6.347S63.818,49.139,70.551,45.594Z" transform="translate(-31.155 -23.514)" fill="#37617b"/>
              <path id="Path_884677" data-name="Path 884677" d="M81.451,48.639a6.915,6.915,0,0,1,1.413,4.578c.021,6.328-5.061,14.349-11.072,17.523a9.906,9.906,0,0,1-4.429,1.269,4.934,4.934,0,0,1-1.434-.211c.042.057.084.1.126.154a4.25,4.25,0,0,0,3.121,1.231,9.909,9.909,0,0,0,4.429-1.27C79.616,68.739,84.7,60.718,84.678,54.39,84.657,51.313,83.475,49.255,81.451,48.639Z" transform="translate(-35.177 -25.952)" fill="#4c7891"/>
              <g id="Group_1110740" data-name="Group 1110740" transform="translate(29.339 22.469)" opacity="0.19">
                <g id="Group_1110739" data-name="Group 1110739">
                  <g id="Group_1110738" data-name="Group 1110738" clip-path="url(#clip-path-5)">
                    <path id="Path_884678" data-name="Path 884678" d="M81.25,52.968c.016,5.85-4.336,13.158-9.744,16.721-.445.3-.89.556-1.336.8a11.406,11.406,0,0,1-1.6.707,9.5,9.5,0,0,1-1.418.421,6.693,6.693,0,0,1-1.4.15,4.913,4.913,0,0,1-1.435-.21,4.609,4.609,0,0,1-.857-1.444,8.512,8.512,0,0,1-.561-3.143c-.016-5.654,4.089-12.707,9.283-16.39a16.336,16.336,0,0,1,1.83-1.128,11.707,11.707,0,0,1,3.5-1.218.223.223,0,0,0,.1-.015c.3-.015.561-.045.808-.045a3.96,3.96,0,0,1,.429.015,5.875,5.875,0,0,1,.989.211,4.074,4.074,0,0,1,.709,1.1A8.009,8.009,0,0,1,81.25,52.968Z" transform="translate(-62.899 -48.171)" fill="#ccfff6"/>
                  </g>
                </g>
              </g>
              <path id="Path_884679" data-name="Path 884679" d="M78.248,48.268l-10.453,23.4a6.671,6.671,0,0,1-1.4.151,4.892,4.892,0,0,1-1.434-.211,4.6,4.6,0,0,1-.858-1.444l8.722-19.533a16.443,16.443,0,0,1,1.83-1.127,11.708,11.708,0,0,1,3.5-1.218A.229.229,0,0,0,78.248,48.268Z" transform="translate(-34.202 -25.754)" fill="#a1c9c1"/>
              <path id="Path_884680" data-name="Path 884680" d="M87.03,49.511,77.995,69.706c-.445.3-.89.556-1.336.8a11.405,11.405,0,0,1-1.6.707L85.332,48.2a5.876,5.876,0,0,1,.989.211A4.082,4.082,0,0,1,87.03,49.511Z" transform="translate(-40.049 -25.719)" fill="#a1c9c1"/>
            </g>
          </g>
        </g>
      </g>
    </g>
  </g>
</svg>
