<svg xmlns="http://www.w3.org/2000/svg" xmlns:xlink="http://www.w3.org/1999/xlink" width="99" height="99" viewBox="0 0 99 99">
  <defs>
    <clipPath id="clip-path">
      <rect id="Rectangle_401223" data-name="Rectangle 401223" width="99" height="99" transform="translate(0)" fill="#006543"/>
    </clipPath>
    <clipPath id="clip-path-2">
      <rect id="Rectangle_401223-2" data-name="Rectangle 401223" width="88.539" height="88.539" fill="#f3f9ff"/>
    </clipPath>
    <clipPath id="clip-path-3">
      <rect id="Rectangle_405409" data-name="Rectangle 405409" width="43.903" height="65.667" fill="none"/>
    </clipPath>
  </defs>
  <g id="Group_1109776" data-name="Group 1109776" transform="translate(-619.922 -5755.871)">
    <g id="Group_1100724" data-name="Group 1100724" transform="translate(619.921 5755.871)">
      <g id="Group_1099654" data-name="Group 1099654" transform="translate(0 0)">
        <g id="Group_1099652" data-name="Group 1099652" clip-path="url(#clip-path)">
          <path id="Path_873521" data-name="Path 873521" d="M99,77.066A22,22,0,0,1,77.066,99H21.934A22,22,0,0,1,0,77.066V21.933A22,22,0,0,1,21.934,0H77.066A22,22,0,0,1,99,21.934Z" transform="translate(0)" fill="#005865"/>
        </g>
      </g>
      <g id="Group_1099659" data-name="Group 1099659" transform="translate(4.77 5.723)">
        <g id="Group_1099652-2" data-name="Group 1099652" transform="translate(0 0)" clip-path="url(#clip-path-2)">
          <path id="Path_873521-2" data-name="Path 873521" d="M88.539,68.922A19.674,19.674,0,0,1,68.923,88.539H19.616A19.674,19.674,0,0,1,0,68.922V19.616A19.674,19.674,0,0,1,19.616,0H68.923A19.674,19.674,0,0,1,88.539,19.616Z" fill="#f3f9ff"/>
        </g>
      </g>
    </g>
    <g id="Group_1100725" data-name="Group 1100725" transform="translate(636.343 5771.293)">
      <rect id="Rectangle_401104" data-name="Rectangle 401104" width="68" height="69" fill="none"/>
      <g id="Group_1110735" data-name="Group 1110735" transform="translate(13.578 1.438)">
        <g id="Group_1110734" data-name="Group 1110734" transform="translate(0 0)" clip-path="url(#clip-path-3)">
          <path id="Path_884652" data-name="Path 884652" d="M41.313,8.051V58.274a3.194,3.194,0,0,1-3.183,3.183H4.122A3.19,3.19,0,0,1,.956,58.274V8.051A3.115,3.115,0,0,1,1.87,5.836a3.19,3.19,0,0,1,2.252-.949H38.13a.312.312,0,0,1,.13.019,3.044,3.044,0,0,1,2.1.912,3.153,3.153,0,0,1,.949,2.234" transform="translate(0.824 4.21)" fill="#4dbfd9"/>
          <path id="Path_884653" data-name="Path 884653" d="M1.7,0H42.2a1.7,1.7,0,0,1,1.7,1.7V18.867a1.7,1.7,0,0,1-1.7,1.7H1.7a1.7,1.7,0,0,1-1.7-1.7V1.7A1.7,1.7,0,0,1,1.7,0Z" transform="translate(0 0)" fill="#f3a744"/>
          <path id="Rectangle_405408" data-name="Rectangle 405408" d="M1.7,0H33.1a1.7,1.7,0,0,1,1.7,1.7V11.97a1.7,1.7,0,0,1-1.7,1.7H1.7A1.7,1.7,0,0,1,0,11.97V1.7A1.7,1.7,0,0,1,1.7,0Z" transform="translate(4.552 49.09)" fill="#fdeee0"/>
          <path id="Rectangle_405410" data-name="Rectangle 405410" d="M1.7,0H33.1a1.7,1.7,0,0,1,1.7,1.7V11.97a1.7,1.7,0,0,1-1.7,1.7H1.7A1.7,1.7,0,0,1,0,11.97V1.7A1.7,1.7,0,0,1,1.7,0Z" transform="translate(4.552 30.548)" fill="#fdeee0"/>
          <text id="FV_" data-name="FV /  " transform="translate(5 61)" fill="#005865" font-size="16" font-family="Roboto-Bold, Roboto" font-weight="700"><tspan x="0" y="0" xml:space="preserve">FV /  </tspan></text>
          <text id="LT_002" data-name="LT 002" transform="translate(3.951 41.216)" fill="#005865" font-size="12" font-family="Roboto-Bold, Roboto" font-weight="700" letter-spacing="-0.024em"><tspan x="0" y="0">LT 002</tspan></text>
        </g>
      </g>
    </g>
  </g>
</svg>
