<svg xmlns="http://www.w3.org/2000/svg" xmlns:xlink="http://www.w3.org/1999/xlink" width="158.949" height="159.181" viewBox="0 0 158.949 159.181">
  <defs>
    <clipPath id="clip-path">
      <rect id="Rectangle_400938" data-name="Rectangle 400938" width="152.656" height="152.656" fill="none"/>
    </clipPath>
    <clipPath id="clip-path-2">
      <path id="Path_873460" data-name="Path 873460" d="M0,1.693A1.747,1.747,0,0,0,1.8,3.385,1.747,1.747,0,0,0,3.6,1.693,1.748,1.748,0,0,0,1.8,0,1.748,1.748,0,0,0,0,1.693" transform="translate(0)" fill="#005865"/>
    </clipPath>
    <clipPath id="clip-path-3">
      <path id="Path_873466" data-name="Path 873466" d="M0,1.693A1.748,1.748,0,0,0,1.8,3.385,1.747,1.747,0,0,0,3.6,1.693,1.747,1.747,0,0,0,1.8,0,1.748,1.748,0,0,0,0,1.693" fill="#005865"/>
    </clipPath>
    <clipPath id="clip-path-4">
      <path id="Path_873467" data-name="Path 873467" d="M0,1.692A1.748,1.748,0,0,0,1.8,3.384,1.748,1.748,0,0,0,3.6,1.692,1.748,1.748,0,0,0,1.8,0,1.748,1.748,0,0,0,0,1.692" transform="translate(0 0)" fill="#005865"/>
    </clipPath>
    <clipPath id="clip-path-6">
      <path id="Path_873469" data-name="Path 873469" d="M0,1.692A1.748,1.748,0,0,0,1.8,3.384,1.747,1.747,0,0,0,3.6,1.692,1.747,1.747,0,0,0,1.8,0,1.748,1.748,0,0,0,0,1.692" transform="translate(0 0)" fill="#005865"/>
    </clipPath>
    <clipPath id="clip-path-22">
      <rect id="Rectangle_401492" data-name="Rectangle 401492" width="69.989" height="69.99" transform="translate(-0.473 0.41)" fill="#fff" stroke="#707070" stroke-width="1"/>
    </clipPath>
    <clipPath id="clip-path-23">
      <rect id="Rectangle_404655" data-name="Rectangle 404655" width="66.579" height="68.082" fill="#fff"/>
    </clipPath>
  </defs>
  <g id="Group_1109065" data-name="Group 1109065" transform="translate(-318.664 -4483.287)">
    <g id="Group_1108942" data-name="Group 1108942" transform="translate(318.664 4483.287)">
      <g id="Group_1100237" data-name="Group 1100237" transform="translate(5.038 22.163)">
        <g id="Group_1099505" data-name="Group 1099505" transform="translate(2.342 10.905)">
          <g id="Group_1099504" data-name="Group 1099504" transform="translate(0)" clip-path="url(#clip-path-2)">
            <rect id="Rectangle_401140" data-name="Rectangle 401140" width="3.598" height="3.385" transform="translate(0)" fill="#005865"/>
          </g>
        </g>
        <g id="Group_1099517" data-name="Group 1099517" transform="translate(48.007 10.905)">
          <g id="Group_1099516" data-name="Group 1099516" transform="translate(0)" clip-path="url(#clip-path-3)">
            <rect id="Rectangle_401146" data-name="Rectangle 401146" width="3.599" height="3.385" transform="translate(0 0)" fill="#005865"/>
          </g>
        </g>
        <g id="Group_1099519" data-name="Group 1099519" transform="translate(39.117 10.906)">
          <g id="Group_1099518" data-name="Group 1099518" transform="translate(0 0)" clip-path="url(#clip-path-4)">
            <rect id="Rectangle_401147" data-name="Rectangle 401147" width="3.599" height="3.384" transform="translate(0 0)" fill="#005865"/>
          </g>
        </g>
        <g id="Group_1099521" data-name="Group 1099521" transform="translate(30.227 10.906)">
          <g id="Group_1099520" data-name="Group 1099520" transform="translate(0 0)" clip-path="url(#clip-path-4)">
            <rect id="Rectangle_401148" data-name="Rectangle 401148" width="3.599" height="3.384" transform="translate(0 0)" fill="#005865"/>
          </g>
        </g>
        <g id="Group_1099523" data-name="Group 1099523" transform="translate(21.337 10.906)">
          <g id="Group_1099522" data-name="Group 1099522" transform="translate(0 0)" clip-path="url(#clip-path-6)">
            <rect id="Rectangle_401149" data-name="Rectangle 401149" width="3.598" height="3.384" transform="translate(0 0)" fill="#005865"/>
          </g>
        </g>
        <g id="Group_1099525" data-name="Group 1099525" transform="translate(44.45 0)">
          <g id="Group_1099524" data-name="Group 1099524" clip-path="url(#clip-path-4)">
            <rect id="Rectangle_401150" data-name="Rectangle 401150" width="3.599" height="3.384" transform="translate(0 0)" fill="#005865"/>
          </g>
        </g>
        <g id="Group_1099529" data-name="Group 1099529" transform="translate(35.56 0)">
          <g id="Group_1099528" data-name="Group 1099528" transform="translate(0)" clip-path="url(#clip-path-6)">
            <rect id="Rectangle_401152" data-name="Rectangle 401152" width="3.599" height="3.384" transform="translate(0 0)" fill="#005865"/>
          </g>
        </g>
        <g id="Group_1099531" data-name="Group 1099531" transform="translate(17.78 0)">
          <g id="Group_1099530" data-name="Group 1099530" transform="translate(0)" clip-path="url(#clip-path-6)">
            <rect id="Rectangle_401153" data-name="Rectangle 401153" width="3.598" height="3.384" transform="translate(0 0)" fill="#005865"/>
          </g>
        </g>
        <g id="Group_1099533" data-name="Group 1099533" transform="translate(8.89 0)">
          <g id="Group_1099532" data-name="Group 1099532" clip-path="url(#clip-path-6)">
            <rect id="Rectangle_401154" data-name="Rectangle 401154" width="3.599" height="3.384" transform="translate(0 0)" fill="#005865"/>
          </g>
        </g>
        <g id="Group_1099535" data-name="Group 1099535" transform="translate(0 0)">
          <g id="Group_1099534" data-name="Group 1099534" transform="translate(0)" clip-path="url(#clip-path-6)">
            <rect id="Rectangle_401155" data-name="Rectangle 401155" width="3.599" height="3.384" transform="translate(0 0)" fill="#005865"/>
          </g>
        </g>
      </g>
      <g id="Group_1100238" data-name="Group 1100238" transform="translate(101.296 117.824)">
        <g id="Group_1099505-2" data-name="Group 1099505" transform="translate(2.342 10.905)">
          <g id="Group_1099504-2" data-name="Group 1099504" transform="translate(0)" clip-path="url(#clip-path-2)">
            <rect id="Rectangle_401140-2" data-name="Rectangle 401140" width="3.598" height="3.385" transform="translate(0)" fill="#005865"/>
          </g>
        </g>
        <g id="Group_1099517-2" data-name="Group 1099517" transform="translate(48.007 10.905)">
          <g id="Group_1099516-2" data-name="Group 1099516" transform="translate(0)" clip-path="url(#clip-path-3)">
            <rect id="Rectangle_401146-2" data-name="Rectangle 401146" width="3.599" height="3.385" transform="translate(0 0)" fill="#005865"/>
          </g>
        </g>
        <g id="Group_1099519-2" data-name="Group 1099519" transform="translate(39.117 10.906)">
          <g id="Group_1099518-2" data-name="Group 1099518" transform="translate(0 0)" clip-path="url(#clip-path-4)">
            <rect id="Rectangle_401147-2" data-name="Rectangle 401147" width="3.599" height="3.384" transform="translate(0 0)" fill="#005865"/>
          </g>
        </g>
        <g id="Group_1099521-2" data-name="Group 1099521" transform="translate(30.227 10.906)">
          <g id="Group_1099520-2" data-name="Group 1099520" transform="translate(0 0)" clip-path="url(#clip-path-4)">
            <rect id="Rectangle_401148-2" data-name="Rectangle 401148" width="3.599" height="3.384" transform="translate(0 0)" fill="#005865"/>
          </g>
        </g>
        <g id="Group_1099523-2" data-name="Group 1099523" transform="translate(21.337 10.906)">
          <g id="Group_1099522-2" data-name="Group 1099522" transform="translate(0 0)" clip-path="url(#clip-path-6)">
            <rect id="Rectangle_401149-2" data-name="Rectangle 401149" width="3.598" height="3.384" transform="translate(0 0)" fill="#005865"/>
          </g>
        </g>
        <g id="Group_1099525-2" data-name="Group 1099525" transform="translate(44.45 0)">
          <g id="Group_1099524-2" data-name="Group 1099524" clip-path="url(#clip-path-4)">
            <rect id="Rectangle_401150-2" data-name="Rectangle 401150" width="3.599" height="3.384" transform="translate(0 0)" fill="#005865"/>
          </g>
        </g>
        <g id="Group_1099529-2" data-name="Group 1099529" transform="translate(35.56 0)">
          <g id="Group_1099528-2" data-name="Group 1099528" transform="translate(0)" clip-path="url(#clip-path-6)">
            <rect id="Rectangle_401152-2" data-name="Rectangle 401152" width="3.599" height="3.384" transform="translate(0 0)" fill="#005865"/>
          </g>
        </g>
        <g id="Group_1099531-2" data-name="Group 1099531" transform="translate(17.78 0)">
          <g id="Group_1099530-2" data-name="Group 1099530" transform="translate(0)" clip-path="url(#clip-path-6)">
            <rect id="Rectangle_401153-2" data-name="Rectangle 401153" width="3.598" height="3.384" transform="translate(0 0)" fill="#005865"/>
          </g>
        </g>
        <g id="Group_1099533-2" data-name="Group 1099533" transform="translate(8.89 0)">
          <g id="Group_1099532-2" data-name="Group 1099532" clip-path="url(#clip-path-6)">
            <rect id="Rectangle_401154-2" data-name="Rectangle 401154" width="3.599" height="3.384" transform="translate(0 0)" fill="#005865"/>
          </g>
        </g>
        <g id="Group_1099535-2" data-name="Group 1099535" transform="translate(0 0)">
          <g id="Group_1099534-2" data-name="Group 1099534" transform="translate(0)" clip-path="url(#clip-path-6)">
            <rect id="Rectangle_401155-2" data-name="Rectangle 401155" width="3.599" height="3.384" transform="translate(0 0)" fill="#005865"/>
          </g>
        </g>
      </g>
      <path id="Path_873784" data-name="Path 873784" d="M109.2,24.037A24.184,24.184,0,0,0,85.034-.128L24.2-.036A24.36,24.36,0,0,0-.037,24.2L-.128,85.032A24.184,24.184,0,0,0,24.037,109.2l60.832-.091a24.361,24.361,0,0,0,24.238-24.238Z" transform="translate(81.645 159) rotate(-135)" fill="#41cee2"/>
      <ellipse id="Ellipse_11579" data-name="Ellipse 11579" cx="51.175" cy="51.175" rx="51.175" ry="51.175" transform="translate(30.842 31.057)" fill="#005865"/>
      <g id="Mask_Group_1098697" data-name="Mask Group 1098697" transform="translate(47.016 47.59)" clip-path="url(#clip-path-22)">
        <g id="Group_1109070" data-name="Group 1109070" transform="translate(1.527 1.411)">
          <g id="Group_1109069" data-name="Group 1109069" clip-path="url(#clip-path-23)">
            <path id="Path_883142" data-name="Path 883142" d="M47.474,32.461C61.9,31.067,71.756,46.066,64.034,58.505c-6.2,9.988-20.8,10.522-27.986,1.283C28.07,49.531,34.642,33.7,47.474,32.461M38.7,59.031C50.909,72.9,72.972,54.787,60.988,40.4,47.393,24.076,26.08,44.693,38.7,59.031" transform="translate(-21.49 -21.357)" fill="#fff"/>
            <path id="Path_883143" data-name="Path 883143" d="M78.045,136.9a1.322,1.322,0,0,1,1.346-.205,2.276,2.276,0,0,1,.813,1.46c.152,1.019.02,7.005-.414,7.6a.849.849,0,0,1-.7.45,1.235,1.235,0,0,1-1.522-1.039,43.807,43.807,0,0,1,.093-6.8c.046-.445.063-1.149.388-1.467" transform="translate(-51.107 -90.119)" fill="#fff"/>
            <path id="Path_883144" data-name="Path 883144" d="M80.225,9.286c-.3-.275-.317-1.068-.341-1.484a44.071,44.071,0,0,1,.133-6.8A1.236,1.236,0,0,1,81.573.018a.85.85,0,0,1,.688.473c.42.616.342,6.574.16,7.606-.22,1.249-1.085,1.739-2.2,1.188" transform="translate(-52.662 0)" fill="#fff"/>
            <path id="Path_883145" data-name="Path 883145" d="M26.006,20.741A1.518,1.518,0,0,1,27.385,21a44.893,44.893,0,0,1,5.075,5.682,1.264,1.264,0,0,1-1.238,1.77c-.754-.088-6-5.943-5.926-6.718.111-.374.313-.861.71-.988" transform="translate(-16.689 -13.636)" fill="#fff"/>
            <path id="Path_883146" data-name="Path 883146" d="M23.65,127.192c-.907-.928.573-2.253,1.249-3.026.57-.652,4.14-4.14,4.617-4.179,2.841.674.108,3.108-.93,4.249a45.54,45.54,0,0,1-3.321,3.2,1.615,1.615,0,0,1-1.615-.245" transform="translate(-15.415 -79.163)" fill="#fff"/>
            <path id="Path_883147" data-name="Path 883147" d="M118.723,121.8a1.446,1.446,0,0,1,1.354-.219,63.341,63.341,0,0,1,5.417,5.644c.435.98-.029,2-1.148,1.972-.553-.065-5.835-5.547-5.947-6.262a1.522,1.522,0,0,1,.324-1.134" transform="translate(-78.108 -80.164)" fill="#fff"/>
            <path id="Path_883148" data-name="Path 883148" d="M120.092,29.8a1.52,1.52,0,0,1-.286-1.145c.259-1.354,4.524-4.228,5.314-5.746.949-.637,2.131-.246,2.1.995-.026,1.212-4.469,4.443-5.233,5.844a1.455,1.455,0,0,1-1.9.051" transform="translate(-79.032 -14.918)" fill="#fff"/>
            <path id="Path_883149" data-name="Path 883149" d="M.453,77.754l8.491.141c.744.012.706,2.276-.038,2.264L.7,80.023C.123,80.013-.411,78.1.453,77.754" transform="translate(0 -51.3)" fill="#fff"/>
            <path id="Path_883150" data-name="Path 883150" d="M137.946,80.051l8.208.136a1.744,1.744,0,0,1,.7,1.018c.144.364-.535,1.25-.742,1.247l-8.208-.136c-.207,0-.856-.911-.7-1.271Z" transform="translate(-90.51 -52.815)" fill="#fff"/>
            <path id="Path_883151" data-name="Path 883151" d="M152.534,158.023l9.662,9.192-5.123-1.3a1.1,1.1,0,1,0-.542,2.134l8.863,2.252a1.1,1.1,0,0,0,1.117-.364c.025-.021.048-.044.071-.068a1.1,1.1,0,0,0,.137-1.338l-2.4-8.506a1.1,1.1,0,0,0-2.119.6l1.372,4.867-9.522-9.058a1.1,1.1,0,1,0-1.517,1.595" transform="translate(-100.412 -103.007)" fill="#fff"/>
            <path id="Path_883152" data-name="Path 883152" d="M154.742,111.137l9.153,9.7-5.046-1.576a1.1,1.1,0,0,0-.657,2.1l8.729,2.726a1.1,1.1,0,0,0,1.135-.3c.026-.02.051-.041.075-.064a1.1,1.1,0,0,0,.209-1.329l-1.936-8.623a1.1,1.1,0,1,0-2.148.482l1.108,4.934-9.021-9.558a1.1,1.1,0,1,0-1.6,1.511" transform="translate(-101.896 -72.1)" fill="#fff"/>
            <path id="Path_883153" data-name="Path 883153" d="M106.156,160.261l9.667,9.187-5.124-1.3a1.1,1.1,0,1,0-.541,2.134l8.864,2.249a1.1,1.1,0,0,0,1.117-.365c.024-.021.049-.044.071-.068a1.1,1.1,0,0,0,.136-1.338l-2.4-8.505a1.1,1.1,0,0,0-2.119.6l1.374,4.867-9.527-9.054a1.1,1.1,0,0,0-1.516,1.6" transform="translate(-69.813 -104.483)" fill="#fff"/>
          </g>
        </g>
      </g>
    </g>
  </g>
</svg>
