<svg xmlns="http://www.w3.org/2000/svg" xmlns:xlink="http://www.w3.org/1999/xlink" width="122" height="122" viewBox="0 0 122 122">
  <defs>
    <clipPath id="clip-path">
      <rect id="Rectangle_400938" data-name="Rectangle 400938" width="122" height="122" fill="#2bc897"/>
    </clipPath>
    <clipPath id="clip-path-2">
      <path id="Path_873460" data-name="Path 873460" d="M0,1.307A1.349,1.349,0,0,0,1.389,2.613,1.349,1.349,0,0,0,2.778,1.307,1.349,1.349,0,0,0,1.389,0,1.349,1.349,0,0,0,0,1.307" transform="translate(0)" fill="#005865"/>
    </clipPath>
    <clipPath id="clip-path-3">
      <path id="Path_873466" data-name="Path 873466" d="M0,1.307A1.349,1.349,0,0,0,1.39,2.613,1.349,1.349,0,0,0,2.778,1.307,1.349,1.349,0,0,0,1.39,0,1.349,1.349,0,0,0,0,1.307" fill="#005865"/>
    </clipPath>
    <clipPath id="clip-path-4">
      <path id="Path_873467" data-name="Path 873467" d="M0,1.306A1.349,1.349,0,0,0,1.389,2.612,1.349,1.349,0,0,0,2.778,1.306,1.349,1.349,0,0,0,1.389,0,1.349,1.349,0,0,0,0,1.306" transform="translate(0 0)" fill="#005865"/>
    </clipPath>
    <clipPath id="clip-path-5">
      <path id="Path_873468" data-name="Path 873468" d="M0,1.306A1.349,1.349,0,0,0,1.39,2.612,1.349,1.349,0,0,0,2.778,1.306,1.349,1.349,0,0,0,1.39,0,1.349,1.349,0,0,0,0,1.306" transform="translate(0 0)" fill="#005865"/>
    </clipPath>
    <clipPath id="clip-path-6">
      <path id="Path_873469" data-name="Path 873469" d="M0,1.306A1.349,1.349,0,0,0,1.389,2.612,1.349,1.349,0,0,0,2.777,1.306,1.349,1.349,0,0,0,1.389,0,1.349,1.349,0,0,0,0,1.306" transform="translate(0 0)" fill="#005865"/>
    </clipPath>
    <clipPath id="clip-path-9">
      <path id="Path_873473" data-name="Path 873473" d="M0,1.306A1.349,1.349,0,0,0,1.39,2.612,1.348,1.348,0,0,0,2.778,1.306,1.349,1.349,0,0,0,1.39,0,1.349,1.349,0,0,0,0,1.306" transform="translate(0 0)" fill="#005865"/>
    </clipPath>
    <clipPath id="clip-path-22">
      <rect id="Rectangle_401492" data-name="Rectangle 401492" width="54.022" height="54.022" transform="translate(-0.207 0.318)" fill="#fff" stroke="#707070" stroke-width="1"/>
    </clipPath>
    <clipPath id="clip-path-23">
      <rect id="Rectangle_405365" data-name="Rectangle 405365" width="50.428" height="47.446" fill="#fff"/>
    </clipPath>
  </defs>
  <g id="Group_1110708" data-name="Group 1110708" transform="translate(23057.926 3814.948)">
    <g id="Group_1100237" data-name="Group 1100237" transform="translate(-23054.037 -3797.84)">
      <g id="Group_1099505" data-name="Group 1099505" transform="translate(1.808 8.418)">
        <g id="Group_1099504" data-name="Group 1099504" transform="translate(0)" clip-path="url(#clip-path-2)">
          <rect id="Rectangle_401140" data-name="Rectangle 401140" width="2.777" height="2.613" transform="translate(0)" fill="#005865"/>
        </g>
      </g>
      <g id="Group_1099517" data-name="Group 1099517" transform="translate(37.056 8.418)">
        <g id="Group_1099516" data-name="Group 1099516" transform="translate(0)" clip-path="url(#clip-path-3)">
          <rect id="Rectangle_401146" data-name="Rectangle 401146" width="2.778" height="2.613" transform="translate(0 0)" fill="#005865"/>
        </g>
      </g>
      <g id="Group_1099519" data-name="Group 1099519" transform="translate(30.194 8.418)">
        <g id="Group_1099518" data-name="Group 1099518" transform="translate(0 0)" clip-path="url(#clip-path-4)">
          <rect id="Rectangle_401147" data-name="Rectangle 401147" width="2.778" height="2.612" transform="translate(0 0)" fill="#005865"/>
        </g>
      </g>
      <g id="Group_1099521" data-name="Group 1099521" transform="translate(23.332 8.418)">
        <g id="Group_1099520" data-name="Group 1099520" transform="translate(0 0)" clip-path="url(#clip-path-5)">
          <rect id="Rectangle_401148" data-name="Rectangle 401148" width="2.778" height="2.612" transform="translate(0 0)" fill="#005865"/>
        </g>
      </g>
      <g id="Group_1099523" data-name="Group 1099523" transform="translate(16.47 8.418)">
        <g id="Group_1099522" data-name="Group 1099522" transform="translate(0 0)" clip-path="url(#clip-path-6)">
          <rect id="Rectangle_401149" data-name="Rectangle 401149" width="2.777" height="2.612" transform="translate(0 0)" fill="#005865"/>
        </g>
      </g>
      <g id="Group_1099525" data-name="Group 1099525" transform="translate(34.311 0)">
        <g id="Group_1099524" data-name="Group 1099524" clip-path="url(#clip-path-4)">
          <rect id="Rectangle_401150" data-name="Rectangle 401150" width="2.778" height="2.612" transform="translate(0 0)" fill="#005865"/>
        </g>
      </g>
      <g id="Group_1099529" data-name="Group 1099529" transform="translate(27.448 0)">
        <g id="Group_1099528" data-name="Group 1099528" transform="translate(0)" clip-path="url(#clip-path-5)">
          <rect id="Rectangle_401152" data-name="Rectangle 401152" width="2.778" height="2.612" transform="translate(0 0)" fill="#005865"/>
        </g>
      </g>
      <g id="Group_1099531" data-name="Group 1099531" transform="translate(13.724 0)">
        <g id="Group_1099530" data-name="Group 1099530" transform="translate(0)" clip-path="url(#clip-path-9)">
          <rect id="Rectangle_401153" data-name="Rectangle 401153" width="2.777" height="2.612" transform="translate(0 0)" fill="#005865"/>
        </g>
      </g>
      <g id="Group_1099533" data-name="Group 1099533" transform="translate(6.862 0)">
        <g id="Group_1099532" data-name="Group 1099532" clip-path="url(#clip-path-4)">
          <rect id="Rectangle_401154" data-name="Rectangle 401154" width="2.778" height="2.612" transform="translate(0 0)" fill="#005865"/>
        </g>
      </g>
      <g id="Group_1099535" data-name="Group 1099535" transform="translate(0 0)">
        <g id="Group_1099534" data-name="Group 1099534" transform="translate(0)" clip-path="url(#clip-path-5)">
          <rect id="Rectangle_401155" data-name="Rectangle 401155" width="2.778" height="2.612" transform="translate(0 0)" fill="#005865"/>
        </g>
      </g>
    </g>
    <g id="Group_1100238" data-name="Group 1100238" transform="translate(-22980.445 -3724.661)">
      <g id="Group_1099505-2" data-name="Group 1099505" transform="translate(1.808 8.418)">
        <g id="Group_1099504-2" data-name="Group 1099504" transform="translate(0)" clip-path="url(#clip-path-2)">
          <rect id="Rectangle_401140-2" data-name="Rectangle 401140" width="2.777" height="2.613" transform="translate(0)" fill="#005865"/>
        </g>
      </g>
      <g id="Group_1099517-2" data-name="Group 1099517" transform="translate(37.056 8.418)">
        <g id="Group_1099516-2" data-name="Group 1099516" transform="translate(0)" clip-path="url(#clip-path-3)">
          <rect id="Rectangle_401146-2" data-name="Rectangle 401146" width="2.778" height="2.613" transform="translate(0 0)" fill="#005865"/>
        </g>
      </g>
      <g id="Group_1099519-2" data-name="Group 1099519" transform="translate(30.194 8.418)">
        <g id="Group_1099518-2" data-name="Group 1099518" transform="translate(0 0)" clip-path="url(#clip-path-4)">
          <rect id="Rectangle_401147-2" data-name="Rectangle 401147" width="2.778" height="2.612" transform="translate(0 0)" fill="#005865"/>
        </g>
      </g>
      <g id="Group_1099521-2" data-name="Group 1099521" transform="translate(23.332 8.418)">
        <g id="Group_1099520-2" data-name="Group 1099520" transform="translate(0 0)" clip-path="url(#clip-path-5)">
          <rect id="Rectangle_401148-2" data-name="Rectangle 401148" width="2.778" height="2.612" transform="translate(0 0)" fill="#005865"/>
        </g>
      </g>
      <g id="Group_1099523-2" data-name="Group 1099523" transform="translate(16.47 8.418)">
        <g id="Group_1099522-2" data-name="Group 1099522" transform="translate(0 0)" clip-path="url(#clip-path-6)">
          <rect id="Rectangle_401149-2" data-name="Rectangle 401149" width="2.777" height="2.612" transform="translate(0 0)" fill="#005865"/>
        </g>
      </g>
      <g id="Group_1099525-2" data-name="Group 1099525" transform="translate(34.311 0)">
        <g id="Group_1099524-2" data-name="Group 1099524" clip-path="url(#clip-path-4)">
          <rect id="Rectangle_401150-2" data-name="Rectangle 401150" width="2.778" height="2.612" transform="translate(0 0)" fill="#005865"/>
        </g>
      </g>
      <g id="Group_1099529-2" data-name="Group 1099529" transform="translate(27.448 0)">
        <g id="Group_1099528-2" data-name="Group 1099528" transform="translate(0)" clip-path="url(#clip-path-5)">
          <rect id="Rectangle_401152-2" data-name="Rectangle 401152" width="2.778" height="2.612" transform="translate(0 0)" fill="#005865"/>
        </g>
      </g>
      <g id="Group_1099531-2" data-name="Group 1099531" transform="translate(13.724 0)">
        <g id="Group_1099530-2" data-name="Group 1099530" transform="translate(0)" clip-path="url(#clip-path-9)">
          <rect id="Rectangle_401153-2" data-name="Rectangle 401153" width="2.777" height="2.612" transform="translate(0 0)" fill="#005865"/>
        </g>
      </g>
      <g id="Group_1099533-2" data-name="Group 1099533" transform="translate(6.862 0)">
        <g id="Group_1099532-2" data-name="Group 1099532" clip-path="url(#clip-path-4)">
          <rect id="Rectangle_401154-2" data-name="Rectangle 401154" width="2.778" height="2.612" transform="translate(0 0)" fill="#005865"/>
        </g>
      </g>
      <g id="Group_1099535-2" data-name="Group 1099535" transform="translate(0 0)">
        <g id="Group_1099534-2" data-name="Group 1099534" transform="translate(0)" clip-path="url(#clip-path-5)">
          <rect id="Rectangle_401155-2" data-name="Rectangle 401155" width="2.778" height="2.612" transform="translate(0 0)" fill="#005865"/>
        </g>
      </g>
    </g>
    <path id="Union_17" data-name="Union 17" d="M-4150.107,4311.383l-33.056-32.927a18.528,18.528,0,0,1,0-26.2l33.054-32.926a18.7,18.7,0,0,1,26.3,0l33.056,32.928a18.528,18.528,0,0,1,0,26.2l-33.056,32.927a18.576,18.576,0,0,1-13.15,5.4A18.575,18.575,0,0,1-4150.107,4311.383Z" transform="translate(-18858.305 -8017.512)" fill="#41cee2" stroke="rgba(0,0,0,0)" stroke-miterlimit="10" stroke-width="1"/>
    <circle id="Ellipse_11579" data-name="Ellipse 11579" cx="39.5" cy="39.5" r="39.5" transform="translate(-23034.504 -3791.418)" fill="#005865"/>
    <g id="Mask_Group_1098697" data-name="Mask Group 1098697" transform="translate(-23022.008 -3778.646)" clip-path="url(#clip-path-22)">
      <g id="Group_1110719" data-name="Group 1110719" transform="translate(1.793 3.319)">
        <g id="Group_1110718" data-name="Group 1110718" clip-path="url(#clip-path-23)">
          <path id="Path_884567" data-name="Path 884567" d="M55.828,47.666h-3V62.658h6.4c.318.54.22,1.6-.5,1.6h-8.3v8.3c0,1.539-2.164,3.557-3.715,3.681H17.165a3.4,3.4,0,0,1-2.7-2.494,42,42,0,0,1-.013-6.184c.089-.485.465-.605.913-.686l26.753.011.87.224c.5.432.137,4.074.267,5.032a2.765,2.765,0,0,0,4.681,1.718,6.059,6.059,0,0,0,.7-1.1v-8.5h-8.3a.933.933,0,0,1-.709-.889c.114-1.143,1.762-.373,1.98-1.038.25-1.93-.234-4.31.018-6.179.036-.264.256-.89.51-.89h4.1v-3.5a2.286,2.286,0,0,1,.4-.6l4.4-.1v-4.3a2.583,2.583,0,0,1,.4-.6,37.6,37.6,0,0,1,5.292-.095c.219.042.7.345.7.495V61.359a1.23,1.23,0,0,1-.71.51c-.256.106-.889-.363-.889-.51Zm-4.8,5h-3v10h3Zm-4.8,4.2h-3v5.5c.751.622,2.051.167,3,.3Zm-4.6,11.794H16.048v4.7a3.187,3.187,0,0,0,1.3,1.3H42.435a17.4,17.4,0,0,1-.8-1.7Z" transform="translate(-8.971 -28.788)" fill="#fff"/>
          <path id="Path_884568" data-name="Path 884568" d="M21.47,7.883c.258,1.5.72,3.106.2,4.6H36.163a1.232,1.232,0,0,1,.509.71c.106.255-.363.889-.509.889H21.57l-1.7,3.2H36.163a1.232,1.232,0,0,1,.509.71c.106.255-.363.889-.509.889H18.371c-.248,0-3.284,2.637-4.3,2.4V35.17a1.231,1.231,0,0,1-.71.51c-.255.106-.889-.363-.889-.51V21.677h-3.3c-2.945,0-6.974-3.647-8.132-6.261C-4.188,3.6,11.545-5.422,19.265,3.791c.476.569,1.4,2.4,1.9,2.494l18,.189A3.815,3.815,0,0,1,41.442,9.4a35.316,35.316,0,0,1,.013,5.575c-.144.761-.917,1.178-1.487.5-.8-.959.058-5.044-.349-6.447a2.707,2.707,0,0,0-1.458-1.141ZM9.832,1.742C-1.629,3.106-.355,20.591,11.369,20.077,23.931,19.526,22.378.249,9.832,1.742" transform="translate(0 0)" fill="#fff"/>
          <path id="Path_884569" data-name="Path 884569" d="M46.075,58.957H62.267a1.233,1.233,0,0,1,.51.71c.106.255-.363.889-.51.889H46.075a1.232,1.232,0,0,1-.51-.71Z" transform="translate(-28.503 -36.88)" fill="#fff"/>
          <path id="Path_884570" data-name="Path 884570" d="M46.075,71.769H58.669a1.231,1.231,0,0,1,.509.71c.106.255-.363.889-.509.889H46.075a1.232,1.232,0,0,1-.51-.71Z" transform="translate(-28.503 -44.895)" fill="#fff"/>
          <path id="Path_884571" data-name="Path 884571" d="M46.075,84.581H58.669a1.231,1.231,0,0,1,.509.71c.106.255-.363.889-.509.889H46.075a1.232,1.232,0,0,1-.51-.71Z" transform="translate(-28.503 -52.91)" fill="#fff"/>
          <path id="Path_884572" data-name="Path 884572" d="M24.409,10.149c.372.376.221,1.434.247,1.951.948-.2,3.194.5,2.312,1.81-.329.486-2.16-.194-2.789-.189-.918.007-2.363.369-2.037,1.584.349,1.3,1.98.862,2.929,1.078a2.894,2.894,0,0,1,.99,5.017c-.366.28-1.242.577-1.314.685-.277.418.14,1.658-.426,2.024H23.194c-.472-.3-.316-1.488-.334-2.016-.845.158-2.671-.386-2.372-1.456.307-1.1,1.53-.234,2.081-.154,1.3.191,3.528-.173,2.755-1.943-.384-.879-2.571-.4-3.651-1.159-2.175-1.532-1.282-4.563,1.093-5.276l.341-1.957a1.1,1.1,0,0,1,1.3,0" transform="translate(-12.783 -6.215)" fill="#fff"/>
        </g>
      </g>
    </g>
  </g>
</svg>
