<svg xmlns="http://www.w3.org/2000/svg" xmlns:xlink="http://www.w3.org/1999/xlink" width="122" height="122" viewBox="0 0 122 122">
  <defs>
    <clipPath id="clip-path">
      <rect id="Rectangle_400938" data-name="Rectangle 400938" width="122" height="122" fill="#2bc897"/>
    </clipPath>
    <clipPath id="clip-path-2">
      <path id="Path_873460" data-name="Path 873460" d="M0,1.307A1.349,1.349,0,0,0,1.389,2.613,1.349,1.349,0,0,0,2.778,1.307,1.349,1.349,0,0,0,1.389,0,1.349,1.349,0,0,0,0,1.307" transform="translate(0)" fill="#005865"/>
    </clipPath>
    <clipPath id="clip-path-3">
      <path id="Path_873466" data-name="Path 873466" d="M0,1.307A1.349,1.349,0,0,0,1.39,2.613,1.349,1.349,0,0,0,2.778,1.307,1.349,1.349,0,0,0,1.39,0,1.349,1.349,0,0,0,0,1.307" fill="#005865"/>
    </clipPath>
    <clipPath id="clip-path-4">
      <path id="Path_873467" data-name="Path 873467" d="M0,1.306A1.349,1.349,0,0,0,1.389,2.612,1.349,1.349,0,0,0,2.778,1.306,1.349,1.349,0,0,0,1.389,0,1.349,1.349,0,0,0,0,1.306" transform="translate(0 0)" fill="#005865"/>
    </clipPath>
    <clipPath id="clip-path-5">
      <path id="Path_873468" data-name="Path 873468" d="M0,1.306A1.349,1.349,0,0,0,1.39,2.612,1.349,1.349,0,0,0,2.778,1.306,1.349,1.349,0,0,0,1.39,0,1.349,1.349,0,0,0,0,1.306" transform="translate(0 0)" fill="#005865"/>
    </clipPath>
    <clipPath id="clip-path-6">
      <path id="Path_873469" data-name="Path 873469" d="M0,1.306A1.349,1.349,0,0,0,1.389,2.612,1.349,1.349,0,0,0,2.777,1.306,1.349,1.349,0,0,0,1.389,0,1.349,1.349,0,0,0,0,1.306" transform="translate(0 0)" fill="#005865"/>
    </clipPath>
    <clipPath id="clip-path-9">
      <path id="Path_873473" data-name="Path 873473" d="M0,1.306A1.349,1.349,0,0,0,1.39,2.612,1.348,1.348,0,0,0,2.778,1.306,1.349,1.349,0,0,0,1.39,0,1.349,1.349,0,0,0,0,1.306" transform="translate(0 0)" fill="#005865"/>
    </clipPath>
    <clipPath id="clip-path-22">
      <rect id="Rectangle_401492" data-name="Rectangle 401492" width="54.022" height="54.022" transform="translate(0.793 0.318)" fill="#fff" stroke="#707070" stroke-width="1"/>
    </clipPath>
    <clipPath id="clip-path-23">
      <rect id="Rectangle_405364" data-name="Rectangle 405364" width="44.347" height="51.022" fill="#fff"/>
    </clipPath>
  </defs>
  <g id="Group_1110713" data-name="Group 1110713" transform="translate(23057.926 3814.948)">
    <g id="Group_1100237" data-name="Group 1100237" transform="translate(-23054.037 -3797.84)">
      <g id="Group_1099505" data-name="Group 1099505" transform="translate(1.808 8.418)">
        <g id="Group_1099504" data-name="Group 1099504" transform="translate(0)" clip-path="url(#clip-path-2)">
          <rect id="Rectangle_401140" data-name="Rectangle 401140" width="2.777" height="2.613" transform="translate(0)" fill="#005865"/>
        </g>
      </g>
      <g id="Group_1099517" data-name="Group 1099517" transform="translate(37.056 8.418)">
        <g id="Group_1099516" data-name="Group 1099516" transform="translate(0)" clip-path="url(#clip-path-3)">
          <rect id="Rectangle_401146" data-name="Rectangle 401146" width="2.778" height="2.613" transform="translate(0 0)" fill="#005865"/>
        </g>
      </g>
      <g id="Group_1099519" data-name="Group 1099519" transform="translate(30.194 8.418)">
        <g id="Group_1099518" data-name="Group 1099518" transform="translate(0 0)" clip-path="url(#clip-path-4)">
          <rect id="Rectangle_401147" data-name="Rectangle 401147" width="2.778" height="2.612" transform="translate(0 0)" fill="#005865"/>
        </g>
      </g>
      <g id="Group_1099521" data-name="Group 1099521" transform="translate(23.332 8.418)">
        <g id="Group_1099520" data-name="Group 1099520" transform="translate(0 0)" clip-path="url(#clip-path-5)">
          <rect id="Rectangle_401148" data-name="Rectangle 401148" width="2.778" height="2.612" transform="translate(0 0)" fill="#005865"/>
        </g>
      </g>
      <g id="Group_1099523" data-name="Group 1099523" transform="translate(16.47 8.418)">
        <g id="Group_1099522" data-name="Group 1099522" transform="translate(0 0)" clip-path="url(#clip-path-6)">
          <rect id="Rectangle_401149" data-name="Rectangle 401149" width="2.777" height="2.612" transform="translate(0 0)" fill="#005865"/>
        </g>
      </g>
      <g id="Group_1099525" data-name="Group 1099525" transform="translate(34.311 0)">
        <g id="Group_1099524" data-name="Group 1099524" clip-path="url(#clip-path-4)">
          <rect id="Rectangle_401150" data-name="Rectangle 401150" width="2.778" height="2.612" transform="translate(0 0)" fill="#005865"/>
        </g>
      </g>
      <g id="Group_1099529" data-name="Group 1099529" transform="translate(27.448 0)">
        <g id="Group_1099528" data-name="Group 1099528" transform="translate(0)" clip-path="url(#clip-path-5)">
          <rect id="Rectangle_401152" data-name="Rectangle 401152" width="2.778" height="2.612" transform="translate(0 0)" fill="#005865"/>
        </g>
      </g>
      <g id="Group_1099531" data-name="Group 1099531" transform="translate(13.724 0)">
        <g id="Group_1099530" data-name="Group 1099530" transform="translate(0)" clip-path="url(#clip-path-9)">
          <rect id="Rectangle_401153" data-name="Rectangle 401153" width="2.777" height="2.612" transform="translate(0 0)" fill="#005865"/>
        </g>
      </g>
      <g id="Group_1099533" data-name="Group 1099533" transform="translate(6.862 0)">
        <g id="Group_1099532" data-name="Group 1099532" clip-path="url(#clip-path-4)">
          <rect id="Rectangle_401154" data-name="Rectangle 401154" width="2.778" height="2.612" transform="translate(0 0)" fill="#005865"/>
        </g>
      </g>
      <g id="Group_1099535" data-name="Group 1099535" transform="translate(0 0)">
        <g id="Group_1099534" data-name="Group 1099534" transform="translate(0)" clip-path="url(#clip-path-5)">
          <rect id="Rectangle_401155" data-name="Rectangle 401155" width="2.778" height="2.612" transform="translate(0 0)" fill="#005865"/>
        </g>
      </g>
    </g>
    <g id="Group_1100238" data-name="Group 1100238" transform="translate(-22980.445 -3724.661)">
      <g id="Group_1099505-2" data-name="Group 1099505" transform="translate(1.808 8.418)">
        <g id="Group_1099504-2" data-name="Group 1099504" transform="translate(0)" clip-path="url(#clip-path-2)">
          <rect id="Rectangle_401140-2" data-name="Rectangle 401140" width="2.777" height="2.613" transform="translate(0)" fill="#005865"/>
        </g>
      </g>
      <g id="Group_1099517-2" data-name="Group 1099517" transform="translate(37.056 8.418)">
        <g id="Group_1099516-2" data-name="Group 1099516" transform="translate(0)" clip-path="url(#clip-path-3)">
          <rect id="Rectangle_401146-2" data-name="Rectangle 401146" width="2.778" height="2.613" transform="translate(0 0)" fill="#005865"/>
        </g>
      </g>
      <g id="Group_1099519-2" data-name="Group 1099519" transform="translate(30.194 8.418)">
        <g id="Group_1099518-2" data-name="Group 1099518" transform="translate(0 0)" clip-path="url(#clip-path-4)">
          <rect id="Rectangle_401147-2" data-name="Rectangle 401147" width="2.778" height="2.612" transform="translate(0 0)" fill="#005865"/>
        </g>
      </g>
      <g id="Group_1099521-2" data-name="Group 1099521" transform="translate(23.332 8.418)">
        <g id="Group_1099520-2" data-name="Group 1099520" transform="translate(0 0)" clip-path="url(#clip-path-5)">
          <rect id="Rectangle_401148-2" data-name="Rectangle 401148" width="2.778" height="2.612" transform="translate(0 0)" fill="#005865"/>
        </g>
      </g>
      <g id="Group_1099523-2" data-name="Group 1099523" transform="translate(16.47 8.418)">
        <g id="Group_1099522-2" data-name="Group 1099522" transform="translate(0 0)" clip-path="url(#clip-path-6)">
          <rect id="Rectangle_401149-2" data-name="Rectangle 401149" width="2.777" height="2.612" transform="translate(0 0)" fill="#005865"/>
        </g>
      </g>
      <g id="Group_1099525-2" data-name="Group 1099525" transform="translate(34.311 0)">
        <g id="Group_1099524-2" data-name="Group 1099524" clip-path="url(#clip-path-4)">
          <rect id="Rectangle_401150-2" data-name="Rectangle 401150" width="2.778" height="2.612" transform="translate(0 0)" fill="#005865"/>
        </g>
      </g>
      <g id="Group_1099529-2" data-name="Group 1099529" transform="translate(27.448 0)">
        <g id="Group_1099528-2" data-name="Group 1099528" transform="translate(0)" clip-path="url(#clip-path-5)">
          <rect id="Rectangle_401152-2" data-name="Rectangle 401152" width="2.778" height="2.612" transform="translate(0 0)" fill="#005865"/>
        </g>
      </g>
      <g id="Group_1099531-2" data-name="Group 1099531" transform="translate(13.724 0)">
        <g id="Group_1099530-2" data-name="Group 1099530" transform="translate(0)" clip-path="url(#clip-path-9)">
          <rect id="Rectangle_401153-2" data-name="Rectangle 401153" width="2.777" height="2.612" transform="translate(0 0)" fill="#005865"/>
        </g>
      </g>
      <g id="Group_1099533-2" data-name="Group 1099533" transform="translate(6.862 0)">
        <g id="Group_1099532-2" data-name="Group 1099532" clip-path="url(#clip-path-4)">
          <rect id="Rectangle_401154-2" data-name="Rectangle 401154" width="2.778" height="2.612" transform="translate(0 0)" fill="#005865"/>
        </g>
      </g>
      <g id="Group_1099535-2" data-name="Group 1099535" transform="translate(0 0)">
        <g id="Group_1099534-2" data-name="Group 1099534" transform="translate(0)" clip-path="url(#clip-path-5)">
          <rect id="Rectangle_401155-2" data-name="Rectangle 401155" width="2.778" height="2.612" transform="translate(0 0)" fill="#005865"/>
        </g>
      </g>
    </g>
    <path id="Union_17" data-name="Union 17" d="M-4150.107,4311.383l-33.056-32.927a18.528,18.528,0,0,1,0-26.2l33.054-32.926a18.7,18.7,0,0,1,26.3,0l33.056,32.928a18.528,18.528,0,0,1,0,26.2l-33.056,32.927a18.576,18.576,0,0,1-13.15,5.4A18.575,18.575,0,0,1-4150.107,4311.383Z" transform="translate(-18858.305 -8017.512)" fill="#41cee2" stroke="rgba(0,0,0,0)" stroke-miterlimit="10" stroke-width="1"/>
    <circle id="Ellipse_11579" data-name="Ellipse 11579" cx="39.5" cy="39.5" r="39.5" transform="translate(-23034.504 -3791.418)" fill="#005865"/>
    <g id="Mask_Group_1098697" data-name="Mask Group 1098697" transform="translate(-23022.008 -3778.646)" clip-path="url(#clip-path-22)">
      <g id="Group_1110717" data-name="Group 1110717" transform="translate(5.794 2.318)">
        <g id="Group_1110716" data-name="Group 1110716" clip-path="url(#clip-path-23)">
          <path id="Path_884561" data-name="Path 884561" d="M43.684,50.155a3.851,3.851,0,0,1-1.148.64c-13.612.26-27.39.361-40.982-.052A2.562,2.562,0,0,1,0,49.286V1.674A2.567,2.567,0,0,1,1.83.118L35.177,0l.861.456,8.1,8.083c.356,13.526.175,27.191.092,40.747a6.46,6.46,0,0,1-.542.869M34.529,1.682H2.078c-.459,0-.559,1.312-.47,1.693H17.5a1.681,1.681,0,0,1,.373.379,50.192,50.192,0,0,1,0,7.331,1.681,1.681,0,0,1-.373.379H1.607V48.808a1.681,1.681,0,0,0,.379.373H42.24a1.681,1.681,0,0,0,.379-.373V9.96H35.188a2.883,2.883,0,0,1-.658-.47ZM41.49,8.267,36.034,3V8.267Zm-25.209-3.2H1.607V9.96H16.281Z" fill="#fff"/>
          <path id="Path_884562" data-name="Path 884562" d="M59.611,397.481l37.126.061.383,1.122c-.506,7.673.642,16.144,0,23.722a1.744,1.744,0,0,1-.286,1.031l-37.35.091-.29-.463.054-25.174Zm11.163,4.86v-3.1l-.282-.282H60.8v3.386Zm13.169,0v-3.1l-.282-.282H72.56l-.282.282v3.1Zm11.476-3.386H85.729l-.282.282v3.1h9.971Zm-24.645,5.079H60.8v3.2h9.971Zm13.169,0H72.278v3.2H83.942Zm11.476,0H85.447v3.2h9.971Zm-24.645,4.891H60.8v3.2h9.971Zm13.169,0H72.278v3.2H83.942Zm11.476,0H85.447v3.2h9.971Zm-24.645,4.891H60.8v3.2h9.971Zm13.169,0H72.278v3.2H83.942Zm11.476,0H85.447v3.2h9.971Zm-24.645,4.891H60.8v3.2h9.971Zm13.169,0H72.278v3.2H83.942Zm11.476,0H85.447v3.2h9.971Z" transform="translate(-55.997 -376.014)" fill="#fff"/>
          <path id="Path_884563" data-name="Path 884563" d="M373.729,65.7a15.61,15.61,0,0,1,3.1,2.641.741.741,0,0,1-.416,1.087,33.547,33.547,0,0,1-4.661.034c-.555-.106-.889-.951-1.514-.933-.492.014-.718.82-1.316.933a33.388,33.388,0,0,1-4.661-.034c-2.1-.621,2.686-3.549,2.686-4.006L364,62.829c-.409-.558-.346-1.3.418-1.446a18.623,18.623,0,0,1,4.862.207c.312.161.772.856.962.871.625-.136.925-.967,1.512-1.079a33.448,33.448,0,0,1,4.661.034c2.21.654-3.117,3.68-2.688,4.285m0,2.26c.1-.37-.153-.364-.316-.529-1.486-1.5-3.334-2.69-4.766-4.264l-1.69-.1,5.27,4.792Zm0-4.888c-.722.049-1.836-.307-2.056.632l.5.474c.415.106,1.345-.688,1.56-1.106m-6.961,4.887c.906.01,1.7.214,2.249-.657l-.8-.634Z" transform="translate(-344.09 -58.003)" fill="#fff"/>
          <path id="Path_884564" data-name="Path 884564" d="M68.095,251.713l-11.118.06c-.292-.186-.3-.725-.321-1.042a28.571,28.571,0,0,1,.106-4.8,1.617,1.617,0,0,1,.47-.47H67.759a1.615,1.615,0,0,1,.47.47c.224.509.189,5.457-.134,5.783m-1.46-4.659H58.357v3.2h8.278Z" transform="translate(-53.551 -232.204)" fill="#fff"/>
          <path id="Path_884565" data-name="Path 884565" d="M311.932,251.713l-11.118.06c-.292-.186-.3-.725-.321-1.042a28.577,28.577,0,0,1,.106-4.8,1.616,1.616,0,0,1,.47-.47H311.6a1.616,1.616,0,0,1,.47.47c.224.509.189,5.457-.134,5.783m-1.46-4.659h-8.278v3.2h8.278Z" transform="translate(-284.22 -232.204)" fill="#fff"/>
          <path id="Path_884566" data-name="Path 884566" d="M555.77,251.713l-11.118.06c-.292-.186-.3-.725-.321-1.042a28.584,28.584,0,0,1,.106-4.8,1.617,1.617,0,0,1,.47-.47h10.527a1.616,1.616,0,0,1,.47.47c.224.509.189,5.457-.134,5.783m-1.46-4.659h-8.278v3.2h8.278Z" transform="translate(-514.889 -232.204)" fill="#fff"/>
          <rect id="Rectangle_405363" data-name="Rectangle 405363" width="11.664" height="1.693" transform="translate(3.112 6.574)" fill="#fff"/>
        </g>
      </g>
    </g>
  </g>
</svg>
