<svg xmlns="http://www.w3.org/2000/svg" xmlns:xlink="http://www.w3.org/1999/xlink" width="122" height="122" viewBox="0 0 122 122">
  <defs>
    <clipPath id="clip-path">
      <rect id="Rectangle_400938" data-name="Rectangle 400938" width="122" height="122" fill="#2bc897"/>
    </clipPath>
    <clipPath id="clip-path-2">
      <path id="Path_873460" data-name="Path 873460" d="M0,1.307A1.349,1.349,0,0,0,1.389,2.613,1.349,1.349,0,0,0,2.778,1.307,1.349,1.349,0,0,0,1.389,0,1.349,1.349,0,0,0,0,1.307" transform="translate(0)" fill="#005865"/>
    </clipPath>
    <clipPath id="clip-path-3">
      <path id="Path_873466" data-name="Path 873466" d="M0,1.307A1.349,1.349,0,0,0,1.39,2.613,1.349,1.349,0,0,0,2.778,1.307,1.349,1.349,0,0,0,1.39,0,1.349,1.349,0,0,0,0,1.307" fill="#005865"/>
    </clipPath>
    <clipPath id="clip-path-4">
      <path id="Path_873467" data-name="Path 873467" d="M0,1.306A1.349,1.349,0,0,0,1.389,2.612,1.349,1.349,0,0,0,2.778,1.306,1.349,1.349,0,0,0,1.389,0,1.349,1.349,0,0,0,0,1.306" transform="translate(0 0)" fill="#005865"/>
    </clipPath>
    <clipPath id="clip-path-5">
      <path id="Path_873468" data-name="Path 873468" d="M0,1.306A1.349,1.349,0,0,0,1.39,2.612,1.349,1.349,0,0,0,2.778,1.306,1.349,1.349,0,0,0,1.39,0,1.349,1.349,0,0,0,0,1.306" transform="translate(0 0)" fill="#005865"/>
    </clipPath>
    <clipPath id="clip-path-6">
      <path id="Path_873469" data-name="Path 873469" d="M0,1.306A1.349,1.349,0,0,0,1.389,2.612,1.349,1.349,0,0,0,2.777,1.306,1.349,1.349,0,0,0,1.389,0,1.349,1.349,0,0,0,0,1.306" transform="translate(0 0)" fill="#005865"/>
    </clipPath>
    <clipPath id="clip-path-9">
      <path id="Path_873473" data-name="Path 873473" d="M0,1.306A1.349,1.349,0,0,0,1.39,2.612,1.348,1.348,0,0,0,2.778,1.306,1.349,1.349,0,0,0,1.39,0,1.349,1.349,0,0,0,0,1.306" transform="translate(0 0)" fill="#005865"/>
    </clipPath>
    <clipPath id="clip-path-22">
      <rect id="Rectangle_401492" data-name="Rectangle 401492" width="54.022" height="54.022" transform="translate(-0.207 -0.301)" fill="#fff" stroke="#707070" stroke-width="1"/>
    </clipPath>
    <clipPath id="clip-path-23">
      <rect id="Rectangle_405367" data-name="Rectangle 405367" width="47.245" height="44.257" transform="translate(0 0)" fill="#fff"/>
    </clipPath>
  </defs>
  <g id="Group_1110707" data-name="Group 1110707" transform="translate(23057.926 3814.948)">
    <g id="Group_1100237" data-name="Group 1100237" transform="translate(-23054.037 -3797.84)">
      <g id="Group_1099505" data-name="Group 1099505" transform="translate(1.808 8.418)">
        <g id="Group_1099504" data-name="Group 1099504" transform="translate(0)" clip-path="url(#clip-path-2)">
          <rect id="Rectangle_401140" data-name="Rectangle 401140" width="2.777" height="2.613" transform="translate(0)" fill="#005865"/>
        </g>
      </g>
      <g id="Group_1099517" data-name="Group 1099517" transform="translate(37.056 8.418)">
        <g id="Group_1099516" data-name="Group 1099516" transform="translate(0)" clip-path="url(#clip-path-3)">
          <rect id="Rectangle_401146" data-name="Rectangle 401146" width="2.778" height="2.613" transform="translate(0 0)" fill="#005865"/>
        </g>
      </g>
      <g id="Group_1099519" data-name="Group 1099519" transform="translate(30.194 8.418)">
        <g id="Group_1099518" data-name="Group 1099518" transform="translate(0 0)" clip-path="url(#clip-path-4)">
          <rect id="Rectangle_401147" data-name="Rectangle 401147" width="2.778" height="2.612" transform="translate(0 0)" fill="#005865"/>
        </g>
      </g>
      <g id="Group_1099521" data-name="Group 1099521" transform="translate(23.332 8.418)">
        <g id="Group_1099520" data-name="Group 1099520" transform="translate(0 0)" clip-path="url(#clip-path-5)">
          <rect id="Rectangle_401148" data-name="Rectangle 401148" width="2.778" height="2.612" transform="translate(0 0)" fill="#005865"/>
        </g>
      </g>
      <g id="Group_1099523" data-name="Group 1099523" transform="translate(16.47 8.418)">
        <g id="Group_1099522" data-name="Group 1099522" transform="translate(0 0)" clip-path="url(#clip-path-6)">
          <rect id="Rectangle_401149" data-name="Rectangle 401149" width="2.777" height="2.612" transform="translate(0 0)" fill="#005865"/>
        </g>
      </g>
      <g id="Group_1099525" data-name="Group 1099525" transform="translate(34.311 0)">
        <g id="Group_1099524" data-name="Group 1099524" clip-path="url(#clip-path-4)">
          <rect id="Rectangle_401150" data-name="Rectangle 401150" width="2.778" height="2.612" transform="translate(0 0)" fill="#005865"/>
        </g>
      </g>
      <g id="Group_1099529" data-name="Group 1099529" transform="translate(27.448 0)">
        <g id="Group_1099528" data-name="Group 1099528" transform="translate(0)" clip-path="url(#clip-path-5)">
          <rect id="Rectangle_401152" data-name="Rectangle 401152" width="2.778" height="2.612" transform="translate(0 0)" fill="#005865"/>
        </g>
      </g>
      <g id="Group_1099531" data-name="Group 1099531" transform="translate(13.724 0)">
        <g id="Group_1099530" data-name="Group 1099530" transform="translate(0)" clip-path="url(#clip-path-9)">
          <rect id="Rectangle_401153" data-name="Rectangle 401153" width="2.777" height="2.612" transform="translate(0 0)" fill="#005865"/>
        </g>
      </g>
      <g id="Group_1099533" data-name="Group 1099533" transform="translate(6.862 0)">
        <g id="Group_1099532" data-name="Group 1099532" clip-path="url(#clip-path-4)">
          <rect id="Rectangle_401154" data-name="Rectangle 401154" width="2.778" height="2.612" transform="translate(0 0)" fill="#005865"/>
        </g>
      </g>
      <g id="Group_1099535" data-name="Group 1099535" transform="translate(0 0)">
        <g id="Group_1099534" data-name="Group 1099534" transform="translate(0)" clip-path="url(#clip-path-5)">
          <rect id="Rectangle_401155" data-name="Rectangle 401155" width="2.778" height="2.612" transform="translate(0 0)" fill="#005865"/>
        </g>
      </g>
    </g>
    <g id="Group_1100238" data-name="Group 1100238" transform="translate(-22980.445 -3724.661)">
      <g id="Group_1099505-2" data-name="Group 1099505" transform="translate(1.808 8.418)">
        <g id="Group_1099504-2" data-name="Group 1099504" transform="translate(0)" clip-path="url(#clip-path-2)">
          <rect id="Rectangle_401140-2" data-name="Rectangle 401140" width="2.777" height="2.613" transform="translate(0)" fill="#005865"/>
        </g>
      </g>
      <g id="Group_1099517-2" data-name="Group 1099517" transform="translate(37.056 8.418)">
        <g id="Group_1099516-2" data-name="Group 1099516" transform="translate(0)" clip-path="url(#clip-path-3)">
          <rect id="Rectangle_401146-2" data-name="Rectangle 401146" width="2.778" height="2.613" transform="translate(0 0)" fill="#005865"/>
        </g>
      </g>
      <g id="Group_1099519-2" data-name="Group 1099519" transform="translate(30.194 8.418)">
        <g id="Group_1099518-2" data-name="Group 1099518" transform="translate(0 0)" clip-path="url(#clip-path-4)">
          <rect id="Rectangle_401147-2" data-name="Rectangle 401147" width="2.778" height="2.612" transform="translate(0 0)" fill="#005865"/>
        </g>
      </g>
      <g id="Group_1099521-2" data-name="Group 1099521" transform="translate(23.332 8.418)">
        <g id="Group_1099520-2" data-name="Group 1099520" transform="translate(0 0)" clip-path="url(#clip-path-5)">
          <rect id="Rectangle_401148-2" data-name="Rectangle 401148" width="2.778" height="2.612" transform="translate(0 0)" fill="#005865"/>
        </g>
      </g>
      <g id="Group_1099523-2" data-name="Group 1099523" transform="translate(16.47 8.418)">
        <g id="Group_1099522-2" data-name="Group 1099522" transform="translate(0 0)" clip-path="url(#clip-path-6)">
          <rect id="Rectangle_401149-2" data-name="Rectangle 401149" width="2.777" height="2.612" transform="translate(0 0)" fill="#005865"/>
        </g>
      </g>
      <g id="Group_1099525-2" data-name="Group 1099525" transform="translate(34.311 0)">
        <g id="Group_1099524-2" data-name="Group 1099524" clip-path="url(#clip-path-4)">
          <rect id="Rectangle_401150-2" data-name="Rectangle 401150" width="2.778" height="2.612" transform="translate(0 0)" fill="#005865"/>
        </g>
      </g>
      <g id="Group_1099529-2" data-name="Group 1099529" transform="translate(27.448 0)">
        <g id="Group_1099528-2" data-name="Group 1099528" transform="translate(0)" clip-path="url(#clip-path-5)">
          <rect id="Rectangle_401152-2" data-name="Rectangle 401152" width="2.778" height="2.612" transform="translate(0 0)" fill="#005865"/>
        </g>
      </g>
      <g id="Group_1099531-2" data-name="Group 1099531" transform="translate(13.724 0)">
        <g id="Group_1099530-2" data-name="Group 1099530" transform="translate(0)" clip-path="url(#clip-path-9)">
          <rect id="Rectangle_401153-2" data-name="Rectangle 401153" width="2.777" height="2.612" transform="translate(0 0)" fill="#005865"/>
        </g>
      </g>
      <g id="Group_1099533-2" data-name="Group 1099533" transform="translate(6.862 0)">
        <g id="Group_1099532-2" data-name="Group 1099532" clip-path="url(#clip-path-4)">
          <rect id="Rectangle_401154-2" data-name="Rectangle 401154" width="2.778" height="2.612" transform="translate(0 0)" fill="#005865"/>
        </g>
      </g>
      <g id="Group_1099535-2" data-name="Group 1099535" transform="translate(0 0)">
        <g id="Group_1099534-2" data-name="Group 1099534" transform="translate(0)" clip-path="url(#clip-path-5)">
          <rect id="Rectangle_401155-2" data-name="Rectangle 401155" width="2.778" height="2.612" transform="translate(0 0)" fill="#005865"/>
        </g>
      </g>
    </g>
    <path id="Union_17" data-name="Union 17" d="M-4150.107,4311.383l-33.056-32.927a18.528,18.528,0,0,1,0-26.2l33.054-32.926a18.7,18.7,0,0,1,26.3,0l33.056,32.928a18.528,18.528,0,0,1,0,26.2l-33.056,32.927a18.576,18.576,0,0,1-13.15,5.4A18.575,18.575,0,0,1-4150.107,4311.383Z" transform="translate(-18858.305 -8017.512)" fill="#41cee2" stroke="rgba(0,0,0,0)" stroke-miterlimit="10" stroke-width="1"/>
    <circle id="Ellipse_11579" data-name="Ellipse 11579" cx="39.5" cy="39.5" r="39.5" transform="translate(-23034.504 -3791.418)" fill="#005865"/>
    <g id="Mask_Group_1098697" data-name="Mask Group 1098697" transform="translate(-23022.008 -3778.646)" clip-path="url(#clip-path-22)">
      <g id="Group_1110723" data-name="Group 1110723" transform="translate(3.793 4.7)">
        <g id="Group_1110722" data-name="Group 1110722" transform="translate(0 0)" clip-path="url(#clip-path-23)">
          <path id="Path_884584" data-name="Path 884584" d="M45.419,20.736a6.121,6.121,0,0,1-5.773-9.308c.24-.37,1.214-1.219,1.17-1.465L37.1,6.212a6.153,6.153,0,0,1-10.8-4.4H20.949a6.152,6.152,0,0,1-10.8,4.4c-.688,1.031-3.165,2.7-3.643,3.63-.2.4.8,1.119,1.1,1.586a6.1,6.1,0,0,1-5.773,9.308c-.225.225.236,5.433-.038,6.366-.258.877-1.47.8-1.663-.553a39.3,39.3,0,0,1-.027-6.107C.293,18.384,1.782,19.2,3.252,19c3.362-.449,4.57-4.547,2.592-7.147-.487-.639-1.837-1.331-1.43-2.2l5.623-5.463c.5-.11,2.4,1.947,3.3,2.269a4.43,4.43,0,0,0,5.873-3.422c.109-.814-.329-2.758.686-2.946,1.348.268,6.917-.4,7.744.094.606.358.3,2.287.426,3.015a4.446,4.446,0,0,0,5.844,3.26c1.118-.4,2.559-2.29,3.191-2.285.61.005,4.993,4.866,5.8,5.612.22.786-1.14,1.536-1.585,2.169a4.462,4.462,0,0,0,1.541,6.654c1.43.7,2.565.095,3.892.7a2.273,2.273,0,0,1,.392,1.328,36.446,36.446,0,0,1-.055,6.077c-.19,1.042-.836,1.273-1.578.526Z" transform="translate(0 0)" fill="#fff"/>
          <path id="Path_884585" data-name="Path 884585" d="M7.411,73.9a4.51,4.51,0,0,1,3.726-3.155l34.035-.007c2.009,0,4.5,2.391,3.871,4.461a.756.756,0,0,1-1.313.243c-.7-.864-.225-2.722-2.369-2.981H11.134c-.9-.087-2.193,1.487-2.193,2.2V81.93a1.177,1.177,0,0,1-.679.487l-.85-.487c.286-2.419-.384-5.724,0-8.028" transform="translate(-4.621 -44.85)" fill="#fff"/>
          <path id="Path_884586" data-name="Path 884586" d="M47.734,89.479a1.125,1.125,0,0,1,.679-.487c.244-.1.85.347.85.487v8.028c0,1.26-2.386,3.28-3.729,3.152l-34.032.01a4.211,4.211,0,0,1-3.779-2.91c-.16-.634-.4-1.989.548-2.076,1.261-.116.65,2.672,2.565,3.168l34.7.094c.957.1,2.194-1.434,2.194-2.2Z" transform="translate(-4.801 -56.412)" fill="#fff"/>
          <path id="Path_884587" data-name="Path 884587" d="M39.267,26.413a13.963,13.963,0,0,1,12.811,6c1.267,1.865,2.646,5.361,2.337,7.62-.119.876-1.035,1.238-1.523.549a25.008,25.008,0,0,1-.49-3.141c-2.566-12.432-20.956-12.407-23.516,0-.182.879-.139,3.326-.96,3.453l-.777-.184c-.773-.612.119-4.2.442-5.138a14.092,14.092,0,0,1,11.675-9.16" transform="translate(-17.018 -16.707)" fill="#fff"/>
          <path id="Path_884588" data-name="Path 884588" d="M59.753,85.621h-4.97V90.3c0,.866-1.72.99-1.72.382V81.32c0-.543,1.068-1.771,1.542-2.09a5.4,5.4,0,0,1,5.213-.077c.516.32,1.656,1.586,1.656,2.167v9.366c0,.138-.771.573-1.015.455a2,2,0,0,1-.706-.837Zm0-1.529c.108-2.539.218-3.969-2.78-3.831-2.631.121-2.2,1.734-2.19,3.831Z" transform="translate(-33.642 -49.783)" fill="#fff"/>
          <path id="Path_884589" data-name="Path 884589" d="M30.574,89.382a1.885,1.885,0,0,0,.545-3.412c-1.339-.811-2.878,0-4.263-.9a3.558,3.558,0,0,1,.76-6.295,16.414,16.414,0,0,1,5.534-.191.878.878,0,0,1,.069,1.589c-1.549.529-5.786-1.031-6.3,1.555a2.259,2.259,0,0,0,.783,1.921c.887.638,2.049.261,3.045.4A3.56,3.56,0,0,1,32.072,90.5a7.257,7.257,0,0,1-1.5.6H25.8c-.605,0-.605-1.721,0-1.721a35.993,35.993,0,0,0,4.779,0" transform="translate(-16.028 -49.721)" fill="#fff"/>
          <path id="Path_884590" data-name="Path 884590" d="M82.22,85.519v4.875c0,.732-1.494.985-1.715-.2.314-3.334-.435-7.478-.015-10.71a1.108,1.108,0,0,1,.875-1.036,16.156,16.156,0,0,1,5.386.339,3.53,3.53,0,0,1,.827,6.064,4.547,4.547,0,0,1-1.248.664Zm0-1.529h3.536c.675,0,1.583-1.139,1.613-1.833.028-.649-.854-1.991-1.421-1.991H82.22Z" transform="translate(-50.948 -49.681)" fill="#fff"/>
        </g>
      </g>
    </g>
  </g>
</svg>
