<svg xmlns="http://www.w3.org/2000/svg" xmlns:xlink="http://www.w3.org/1999/xlink" width="178" height="178" viewBox="0 0 178 178">
  <defs>
    <clipPath id="clip-path">
      <rect id="Rectangle_406240" data-name="Rectangle 406240" width="82.302" height="43.486" fill="none"/>
    </clipPath>
  </defs>
  <g id="Group_1111635" data-name="Group 1111635" transform="translate(-5849.074 8599.579)">
    <g id="Group_1109503" data-name="Group 1109503" transform="translate(5849.074 -8599.578)">
      <path id="Path_882862" data-name="Path 882862" d="M89,0A89,89,0,1,1,0,89,89,89,0,0,1,89,0Z" transform="translate(0 -0.001)" fill="#005865"/>
      <path id="Path_882863" data-name="Path 882863" d="M78.668,0A78.668,78.668,0,1,1,0,78.668,78.668,78.668,0,0,1,78.668,0Z" transform="translate(10.332 10.331)" fill="#f3f9ff"/>
    </g>
    <g id="Group_1109504" data-name="Group 1109504" transform="translate(5888.074 -8560.579)">
      <rect id="Rectangle_401104" data-name="Rectangle 401104" width="99.117" height="100.574" fill="none"/>
      <g id="Group_1111505" data-name="Group 1111505" transform="translate(4.407 52.089)">
        <g id="Group_1111504" data-name="Group 1111504" transform="translate(0 0)" clip-path="url(#clip-path)">
          <path id="Rectangle_406231" data-name="Rectangle 406231" d="M1.836,0H62.552a1.835,1.835,0,0,1,1.835,1.835V3.593a1.836,1.836,0,0,1-1.836,1.836H1.835A1.835,1.835,0,0,1,0,3.594V1.836A1.836,1.836,0,0,1,1.836,0Z" transform="translate(8.957 38.057)" fill="#bdc3c7"/>
          <path id="Path_886078" data-name="Path 886078" d="M70.2,9.7V35.459a1.608,1.608,0,0,1-1.6,1.6H64.714a1.6,1.6,0,0,1-1.606-1.6V9.7a1.6,1.6,0,0,1,1.606-1.6h3.881a1.6,1.6,0,0,1,1.6,1.6" transform="translate(4.267 0.547)" fill="#4dbfd9"/>
          <path id="Path_886079" data-name="Path 886079" d="M68.93,18.575V33.54a1.068,1.068,0,0,1-1.069,1.067H65.287a1.064,1.064,0,0,1-1.058-1.067V18.575Z" transform="translate(4.343 1.255)" fill="#b8fafd"/>
          <path id="Rectangle_406232" data-name="Rectangle 406232" d="M1.5,0h4.98a1.5,1.5,0,0,1,1.5,1.5V12.666a1.5,1.5,0,0,1-1.5,1.5H1.5a1.5,1.5,0,0,1-1.5-1.5V1.5A1.5,1.5,0,0,1,1.5,0Z" transform="translate(66.929 3.123)" fill="#1c90bf"/>
          <path id="Path_886080" data-name="Path 886080" d="M63.939,15.4a.415.415,0,1,1-.83,0V8.8a.415.415,0,1,1,.83,0Z" transform="translate(4.267 0.566)" fill="#4dbfd9"/>
          <path id="Path_886081" data-name="Path 886081" d="M65.361,15.4a.415.415,0,1,1-.83,0V8.8a.415.415,0,1,1,.83,0Z" transform="translate(4.363 0.566)" fill="#4dbfd9"/>
          <path id="Path_886082" data-name="Path 886082" d="M66.782,15.4a.415.415,0,1,1-.831,0V8.8a.415.415,0,1,1,.831,0Z" transform="translate(4.459 0.566)" fill="#4dbfd9"/>
          <path id="Path_886083" data-name="Path 886083" d="M68.2,15.4a.416.416,0,0,1-.832,0V8.8a.416.416,0,0,1,.832,0Z" transform="translate(4.555 0.566)" fill="#4dbfd9"/>
          <path id="Path_886084" data-name="Path 886084" d="M69.625,15.4a.415.415,0,0,1-.831,0V8.8a.415.415,0,1,1,.831,0Z" transform="translate(4.651 0.566)" fill="#4dbfd9"/>
          <path id="Path_886085" data-name="Path 886085" d="M70.076,17.695v7.956H66.525a1.6,1.6,0,0,1-1.6-1.6V19.3a1.535,1.535,0,0,1,.144-.665,1.6,1.6,0,0,1,1.46-.938Z" transform="translate(4.389 1.196)" fill="#fff"/>
          <path id="Path_886086" data-name="Path 886086" d="M70.006,19.019V19.6H66.238a.288.288,0,0,1,0-.577Z" transform="translate(4.459 1.286)" fill="gray"/>
          <path id="Path_886087" data-name="Path 886087" d="M70.006,21.23v.577H66.238a.291.291,0,0,1-.288-.288.286.286,0,0,1,.288-.288Z" transform="translate(4.459 1.435)" fill="gray"/>
          <path id="Path_886088" data-name="Path 886088" d="M70.006,23.441v.577H66.238a.288.288,0,0,1,0-.577Z" transform="translate(4.459 1.584)" fill="gray"/>
          <path id="Path_886089" data-name="Path 886089" d="M70.1,5.758a1.05,1.05,0,0,1-1.048,1.052H65.581a1.052,1.052,0,0,1,0-2.1h3.473A1.05,1.05,0,0,1,70.1,5.758" transform="translate(4.363 0.318)" fill="#fff"/>
          <path id="Path_886090" data-name="Path 886090" d="M29.766,7.075v28.8A1.832,1.832,0,0,1,27.94,37.7H8.435A1.829,1.829,0,0,1,6.62,35.879V7.075A1.787,1.787,0,0,1,7.144,5.8,1.829,1.829,0,0,1,8.435,5.26H27.94a.179.179,0,0,1,.075.011,1.746,1.746,0,0,1,1.206.523,1.808,1.808,0,0,1,.544,1.281" transform="translate(0.448 0.355)" fill="#4dbfd9"/>
          <path id="Path_886103" data-name="Path 886103" d="M1.7,0H23.48a1.7,1.7,0,0,1,1.7,1.7v8.4a1.7,1.7,0,0,1-1.7,1.7H1.7A1.7,1.7,0,0,1,0,10.1V1.7A1.7,1.7,0,0,1,1.7,0Z" transform="translate(6.047 0.397)" fill="#006543"/>
          <path id="Rectangle_406234" data-name="Rectangle 406234" d="M1.7,0H18.261a1.7,1.7,0,0,1,1.7,1.7V8.435a1.7,1.7,0,0,1-1.7,1.7H1.7A1.7,1.7,0,0,1,0,8.435V1.7A1.7,1.7,0,0,1,1.7,0Z" transform="translate(8.658 26.258)" fill="#f0851d"/>
          <path id="Path_886091" data-name="Path 886091" d="M20.189,15.671V26.2a1.607,1.607,0,0,1-1.6,1.6H6.62V14.07H18.588a1.607,1.607,0,0,1,1.6,1.6" transform="translate(0.448 0.951)" fill="#fff"/>
          <path id="Path_886092" data-name="Path 886092" d="M18.19,16.6a.535.535,0,0,1-.536.537H6.617V16.071H17.654a.535.535,0,0,1,.536.53" transform="translate(0.447 1.086)" fill="gray"/>
          <path id="Path_886093" data-name="Path 886093" d="M18.19,19.605a.536.536,0,0,1-.536.538H6.617V19.077H17.654a.534.534,0,0,1,.536.528" transform="translate(0.447 1.289)" fill="gray"/>
          <path id="Path_886094" data-name="Path 886094" d="M14.181,22.453a.538.538,0,0,1-.537.537H6.617V21.915h7.027a.538.538,0,0,1,.537.538" transform="translate(0.447 1.481)" fill="gray"/>
          <path id="Rectangle_406235" data-name="Rectangle 406235" d="M1.7,0H21.44a1.7,1.7,0,0,1,1.7,1.7V30.74a1.7,1.7,0,0,1-1.7,1.7H1.7A1.7,1.7,0,0,1,0,30.74V1.7A1.7,1.7,0,0,1,1.7,0Z" transform="translate(36.675 5.218)" fill="#4dbfd9"/>
          <path id="Rectangle_406236" data-name="Rectangle 406236" d="M1.7,0H23.481a1.7,1.7,0,0,1,1.7,1.7v8.4a1.7,1.7,0,0,1-1.7,1.7H1.7A1.7,1.7,0,0,1,0,10.1V1.7A1.7,1.7,0,0,1,1.7,0Z" transform="translate(35.655 0)" fill="#f0851d"/>
          <path id="Path_886095" data-name="Path 886095" d="M56.022,32.943a1.817,1.817,0,0,1-1.815,1.816H37.873a1.815,1.815,0,0,1-1.814-1.816,9.358,9.358,0,0,1,.527-4.372,1.1,1.1,0,0,1,1.053-.752s-.3.035-.7-.874c-1.42-3.247,2.442-5.65,5.464-8.673C43.307,31.657,51.135,21,56.022,29.729Z" transform="translate(2.433 1.235)" fill="#663f30"/>
          <path id="Path_886096" data-name="Path 886096" d="M50.2,29.456s-1.133-1.816-4.533-2.269-3.974-1.883-3.974-3.176c0-.113-1.133,3.176,1.137,4.424s5.786-.455,7.37,1.021" transform="translate(2.8 1.623)" fill="#582a1a"/>
          <path id="Rectangle_406237" data-name="Rectangle 406237" d="M1.5,0H14.948a1.5,1.5,0,0,1,1.5,1.5V13.323a1.5,1.5,0,0,1-1.5,1.5H1.5a1.5,1.5,0,0,1-1.5-1.5V1.5A1.5,1.5,0,0,1,1.5,0Z" transform="translate(39.323 14.619)" fill="#fff"/>
          <path id="Path_886097" data-name="Path 886097" d="M51.611,16.767a.569.569,0,0,1-.569.567H39.384a.567.567,0,0,1,0-1.135H51.042a.569.569,0,0,1,.569.568" transform="translate(2.625 1.095)" fill="gray"/>
          <path id="Path_886098" data-name="Path 886098" d="M51.611,19.894a.569.569,0,0,1-.569.568H39.384a.567.567,0,0,1,0-1.135H51.042a.568.568,0,0,1,.569.567" transform="translate(2.625 1.306)" fill="gray"/>
          <path id="Path_886099" data-name="Path 886099" d="M51.611,23.071a.569.569,0,0,1-.569.568H39.384a.568.568,0,0,1,0-1.136H51.042a.569.569,0,0,1,.569.568" transform="translate(2.625 1.521)" fill="gray"/>
          <path id="Rectangle_406238" data-name="Rectangle 406238" d="M1.835,0h21.51A1.835,1.835,0,0,1,25.18,1.835V5.517a1.835,1.835,0,0,1-1.835,1.835H1.836A1.836,1.836,0,0,1,0,5.516V1.835A1.835,1.835,0,0,1,1.835,0Z" transform="translate(6.047 2.549)" fill="#2bc897"/>
          <path id="Rectangle_406239" data-name="Rectangle 406239" d="M1.835,0H23.346a1.835,1.835,0,0,1,1.835,1.835V5.516a1.836,1.836,0,0,1-1.836,1.836H1.836A1.836,1.836,0,0,1,0,5.516V1.835A1.835,1.835,0,0,1,1.835,0Z" transform="translate(35.655 2.549)" fill="#e8721b"/>
          <path id="Path_886100" data-name="Path 886100" d="M27.438,4.753a1.391,1.391,0,0,1-1.39,1.392h-7.2a1.392,1.392,0,1,1,0-2.783h7.2a1.39,1.39,0,0,1,1.39,1.391" transform="translate(1.18 0.227)" fill="#fff"/>
          <path id="Path_886101" data-name="Path 886101" d="M54.949,4.38a1.391,1.391,0,0,1-1.392,1.392h-7.2a1.392,1.392,0,1,1,0-2.783h7.2A1.391,1.391,0,0,1,54.949,4.38" transform="translate(3.04 0.202)" fill="#fff"/>
          <path id="Path_886102" data-name="Path 886102" d="M82.3,34.043v1.463a1.957,1.957,0,0,1-1.954,1.964H1.954a1.865,1.865,0,0,1-.694-.128A1.956,1.956,0,0,1,0,35.506V34.043a1.957,1.957,0,0,1,1.954-1.964H80.349A1.957,1.957,0,0,1,82.3,34.043" transform="translate(0 2.169)" fill="#95a5a6"/>
        </g>
      </g>
      <g id="Group_1111506" data-name="Group 1111506" transform="translate(4.407 1.802)">
        <g id="Group_1111504-2" data-name="Group 1111504" transform="translate(0 0)" clip-path="url(#clip-path)">
          <path id="Rectangle_406231-2" data-name="Rectangle 406231" d="M1.836,0H62.552a1.835,1.835,0,0,1,1.835,1.835V3.593a1.836,1.836,0,0,1-1.836,1.836H1.835A1.835,1.835,0,0,1,0,3.594V1.836A1.836,1.836,0,0,1,1.836,0Z" transform="translate(8.957 38.057)" fill="#bdc3c7"/>
          <path id="Path_886078-2" data-name="Path 886078" d="M70.2,9.7V35.459a1.608,1.608,0,0,1-1.6,1.6H64.714a1.6,1.6,0,0,1-1.606-1.6V9.7a1.6,1.6,0,0,1,1.606-1.6h3.881a1.6,1.6,0,0,1,1.6,1.6" transform="translate(4.267 0.547)" fill="#4dbfd9"/>
          <path id="Path_886079-2" data-name="Path 886079" d="M68.93,18.575V33.54a1.068,1.068,0,0,1-1.069,1.067H65.287a1.064,1.064,0,0,1-1.058-1.067V18.575Z" transform="translate(4.343 1.255)" fill="#e1feff"/>
          <path id="Rectangle_406232-2" data-name="Rectangle 406232" d="M1.5,0h4.98a1.5,1.5,0,0,1,1.5,1.5V12.666a1.5,1.5,0,0,1-1.5,1.5H1.5a1.5,1.5,0,0,1-1.5-1.5V1.5A1.5,1.5,0,0,1,1.5,0Z" transform="translate(66.929 3.123)" fill="#1c90bf"/>
          <path id="Path_886080-2" data-name="Path 886080" d="M63.939,15.4a.415.415,0,1,1-.83,0V8.8a.415.415,0,1,1,.83,0Z" transform="translate(4.267 0.566)" fill="#4dbfd9"/>
          <path id="Path_886081-2" data-name="Path 886081" d="M65.361,15.4a.415.415,0,1,1-.83,0V8.8a.415.415,0,1,1,.83,0Z" transform="translate(4.363 0.566)" fill="#4dbfd9"/>
          <path id="Path_886082-2" data-name="Path 886082" d="M66.782,15.4a.415.415,0,1,1-.831,0V8.8a.415.415,0,1,1,.831,0Z" transform="translate(4.459 0.566)" fill="#4dbfd9"/>
          <path id="Path_886083-2" data-name="Path 886083" d="M68.2,15.4a.416.416,0,0,1-.832,0V8.8a.416.416,0,0,1,.832,0Z" transform="translate(4.555 0.566)" fill="#4dbfd9"/>
          <path id="Path_886084-2" data-name="Path 886084" d="M69.625,15.4a.415.415,0,0,1-.831,0V8.8a.415.415,0,1,1,.831,0Z" transform="translate(4.651 0.566)" fill="#4dbfd9"/>
          <path id="Path_886085-2" data-name="Path 886085" d="M70.076,17.695v7.956H66.525a1.6,1.6,0,0,1-1.6-1.6V19.3a1.535,1.535,0,0,1,.144-.665,1.6,1.6,0,0,1,1.46-.938Z" transform="translate(4.389 1.196)" fill="#fff"/>
          <path id="Path_886086-2" data-name="Path 886086" d="M70.006,19.019V19.6H66.238a.288.288,0,0,1,0-.577Z" transform="translate(4.459 1.286)" fill="gray"/>
          <path id="Path_886087-2" data-name="Path 886087" d="M70.006,21.23v.577H66.238a.291.291,0,0,1-.288-.288.286.286,0,0,1,.288-.288Z" transform="translate(4.459 1.435)" fill="gray"/>
          <path id="Path_886088-2" data-name="Path 886088" d="M70.006,23.441v.577H66.238a.288.288,0,0,1,0-.577Z" transform="translate(4.459 1.584)" fill="gray"/>
          <path id="Path_886089-2" data-name="Path 886089" d="M70.1,5.758a1.05,1.05,0,0,1-1.048,1.052H65.581a1.052,1.052,0,0,1,0-2.1h3.473A1.05,1.05,0,0,1,70.1,5.758" transform="translate(4.363 0.318)" fill="#fff"/>
          <path id="Path_886090-2" data-name="Path 886090" d="M29.766,7.075v28.8A1.832,1.832,0,0,1,27.94,37.7H8.435A1.829,1.829,0,0,1,6.62,35.879V7.075A1.787,1.787,0,0,1,7.144,5.8,1.829,1.829,0,0,1,8.435,5.26H27.94a.179.179,0,0,1,.075.011,1.746,1.746,0,0,1,1.206.523,1.808,1.808,0,0,1,.544,1.281" transform="translate(0.448 0.355)" fill="#4dbfd9"/>
          <path id="Path_886104" data-name="Path 886104" d="M1.7,0H23.48a1.7,1.7,0,0,1,1.7,1.7v8.4a1.7,1.7,0,0,1-1.7,1.7H1.7A1.7,1.7,0,0,1,0,10.1V1.7A1.7,1.7,0,0,1,1.7,0Z" transform="translate(6.047 0.397)" fill="#006543"/>
          <path id="Rectangle_406234-2" data-name="Rectangle 406234" d="M1.7,0H18.261a1.7,1.7,0,0,1,1.7,1.7V8.435a1.7,1.7,0,0,1-1.7,1.7H1.7A1.7,1.7,0,0,1,0,8.435V1.7A1.7,1.7,0,0,1,1.7,0Z" transform="translate(8.658 26.258)" fill="#f0851d"/>
          <path id="Path_886091-2" data-name="Path 886091" d="M20.189,15.671V26.2a1.607,1.607,0,0,1-1.6,1.6H6.62V14.07H18.588a1.607,1.607,0,0,1,1.6,1.6" transform="translate(0.448 0.951)" fill="#fff"/>
          <path id="Path_886092-2" data-name="Path 886092" d="M18.19,16.6a.535.535,0,0,1-.536.537H6.617V16.071H17.654a.535.535,0,0,1,.536.53" transform="translate(0.447 1.086)" fill="gray"/>
          <path id="Path_886093-2" data-name="Path 886093" d="M18.19,19.605a.536.536,0,0,1-.536.538H6.617V19.077H17.654a.534.534,0,0,1,.536.528" transform="translate(0.447 1.289)" fill="gray"/>
          <path id="Path_886094-2" data-name="Path 886094" d="M14.181,22.453a.538.538,0,0,1-.537.537H6.617V21.915h7.027a.538.538,0,0,1,.537.538" transform="translate(0.447 1.481)" fill="gray"/>
          <path id="Rectangle_406235-2" data-name="Rectangle 406235" d="M1.7,0H21.44a1.7,1.7,0,0,1,1.7,1.7V30.74a1.7,1.7,0,0,1-1.7,1.7H1.7A1.7,1.7,0,0,1,0,30.74V1.7A1.7,1.7,0,0,1,1.7,0Z" transform="translate(36.675 5.218)" fill="#4dbfd9"/>
          <path id="Rectangle_406236-2" data-name="Rectangle 406236" d="M1.7,0H23.481a1.7,1.7,0,0,1,1.7,1.7v8.4a1.7,1.7,0,0,1-1.7,1.7H1.7A1.7,1.7,0,0,1,0,10.1V1.7A1.7,1.7,0,0,1,1.7,0Z" transform="translate(35.655 0)" fill="#f0851d"/>
          <path id="Path_886095-2" data-name="Path 886095" d="M56.022,32.943a1.817,1.817,0,0,1-1.815,1.816H37.873a1.815,1.815,0,0,1-1.814-1.816,9.358,9.358,0,0,1,.527-4.372,1.1,1.1,0,0,1,1.053-.752s-.3.035-.7-.874c-1.42-3.247,2.442-5.65,5.464-8.673C43.307,31.657,51.135,21,56.022,29.729Z" transform="translate(2.433 1.235)" fill="#663f30"/>
          <path id="Path_886096-2" data-name="Path 886096" d="M50.2,29.456s-1.133-1.816-4.533-2.269-3.974-1.883-3.974-3.176c0-.113-1.133,3.176,1.137,4.424s5.786-.455,7.37,1.021" transform="translate(2.8 1.623)" fill="#582a1a"/>
          <path id="Rectangle_406237-2" data-name="Rectangle 406237" d="M1.5,0H14.948a1.5,1.5,0,0,1,1.5,1.5V13.323a1.5,1.5,0,0,1-1.5,1.5H1.5a1.5,1.5,0,0,1-1.5-1.5V1.5A1.5,1.5,0,0,1,1.5,0Z" transform="translate(39.323 14.619)" fill="#fff"/>
          <path id="Path_886097-2" data-name="Path 886097" d="M51.611,16.767a.569.569,0,0,1-.569.567H39.384a.567.567,0,0,1,0-1.135H51.042a.569.569,0,0,1,.569.568" transform="translate(2.625 1.095)" fill="gray"/>
          <path id="Path_886098-2" data-name="Path 886098" d="M51.611,19.894a.569.569,0,0,1-.569.568H39.384a.567.567,0,0,1,0-1.135H51.042a.568.568,0,0,1,.569.567" transform="translate(2.625 1.306)" fill="gray"/>
          <path id="Path_886099-2" data-name="Path 886099" d="M51.611,23.071a.569.569,0,0,1-.569.568H39.384a.568.568,0,0,1,0-1.136H51.042a.569.569,0,0,1,.569.568" transform="translate(2.625 1.521)" fill="gray"/>
          <path id="Rectangle_406238-2" data-name="Rectangle 406238" d="M1.835,0h21.51A1.835,1.835,0,0,1,25.18,1.835V5.517a1.835,1.835,0,0,1-1.835,1.835H1.836A1.836,1.836,0,0,1,0,5.516V1.835A1.835,1.835,0,0,1,1.835,0Z" transform="translate(6.047 2.549)" fill="#2bc897"/>
          <path id="Rectangle_406239-2" data-name="Rectangle 406239" d="M1.835,0H23.346a1.835,1.835,0,0,1,1.835,1.835V5.516a1.836,1.836,0,0,1-1.836,1.836H1.836A1.836,1.836,0,0,1,0,5.516V1.835A1.835,1.835,0,0,1,1.835,0Z" transform="translate(35.655 2.549)" fill="#e8721b"/>
          <path id="Path_886100-2" data-name="Path 886100" d="M27.438,4.753a1.391,1.391,0,0,1-1.39,1.392h-7.2a1.392,1.392,0,1,1,0-2.783h7.2a1.39,1.39,0,0,1,1.39,1.391" transform="translate(1.18 0.227)" fill="#fff"/>
          <path id="Path_886101-2" data-name="Path 886101" d="M54.949,4.38a1.391,1.391,0,0,1-1.392,1.392h-7.2a1.392,1.392,0,1,1,0-2.783h7.2A1.391,1.391,0,0,1,54.949,4.38" transform="translate(3.04 0.202)" fill="#fff"/>
          <path id="Path_886102-2" data-name="Path 886102" d="M82.3,34.043v1.463a1.957,1.957,0,0,1-1.954,1.964H1.954a1.865,1.865,0,0,1-.694-.128A1.956,1.956,0,0,1,0,35.506V34.043a1.957,1.957,0,0,1,1.954-1.964H80.349A1.957,1.957,0,0,1,82.3,34.043" transform="translate(0 2.169)" fill="#95a5a6"/>
        </g>
      </g>
    </g>
  </g>
</svg>
