<svg xmlns="http://www.w3.org/2000/svg" xmlns:xlink="http://www.w3.org/1999/xlink" width="99" height="99" viewBox="0 0 99 99">
  <defs>
    <clipPath id="clip-path">
      <rect id="Rectangle_401223" data-name="Rectangle 401223" width="99" height="99" transform="translate(0)" fill="#844804"/>
    </clipPath>
    <clipPath id="clip-path-2">
      <rect id="Rectangle_401223-2" data-name="Rectangle 401223" width="88.539" height="88.539" fill="#f3f9ff"/>
    </clipPath>
    <clipPath id="clip-path-3">
      <rect id="Rectangle_405406" data-name="Rectangle 405406" width="51" height="69" fill="none"/>
    </clipPath>
  </defs>
  <g id="Group_1109773" data-name="Group 1109773" transform="translate(-619.921 -5755.871)">
    <g id="Group_1100724" data-name="Group 1100724" transform="translate(619.921 5755.871)">
      <g id="Group_1099654" data-name="Group 1099654" transform="translate(0 0)">
        <g id="Group_1099652" data-name="Group 1099652" clip-path="url(#clip-path)">
          <path id="Path_873521" data-name="Path 873521" d="M99,77.066A22,22,0,0,1,77.066,99H21.934A22,22,0,0,1,0,77.066V21.933A22,22,0,0,1,21.934,0H77.066A22,22,0,0,1,99,21.934Z" transform="translate(0)" fill="#005865"/>
        </g>
      </g>
      <g id="Group_1099659" data-name="Group 1099659" transform="translate(4.77 5.723)">
        <g id="Group_1099652-2" data-name="Group 1099652" transform="translate(0 0)" clip-path="url(#clip-path-2)">
          <path id="Path_873521-2" data-name="Path 873521" d="M88.539,68.922A19.674,19.674,0,0,1,68.923,88.539H19.616A19.674,19.674,0,0,1,0,68.922V19.616A19.674,19.674,0,0,1,19.616,0H68.923A19.674,19.674,0,0,1,88.539,19.616Z" fill="#f3f9ff"/>
        </g>
      </g>
    </g>
    <g id="Group_1100725" data-name="Group 1100725" transform="translate(636.343 5771.293)">
      <rect id="Rectangle_401104" data-name="Rectangle 401104" width="68" height="69" transform="translate(-0.422 0.438)" fill="none"/>
      <g id="Group_1110733" data-name="Group 1110733" transform="translate(8.578 0.438)">
        <g id="Group_1110732" data-name="Group 1110732" transform="translate(0 0)" clip-path="url(#clip-path-3)">
          <path id="Path_884643" data-name="Path 884643" d="M25.049,7.976a2.5,2.5,0,0,1-2.61,2.366H21.131a2.5,2.5,0,0,1-2.61-2.366L17.216,3.6a2.5,2.5,0,0,1,2.609-2.367h3.917A2.5,2.5,0,0,1,26.355,3.6Z" transform="translate(3.715 0.125)" fill="#2c3e50"/>
          <path id="Path_884644" data-name="Path 884644" d="M51,8.758V66.416a1.95,1.95,0,0,1-1.787,1.862,2.2,2.2,0,0,1-.278.022H2.079A1.994,1.994,0,0,1,0,66.416V8.758A1.986,1.986,0,0,1,2.079,6.885H48.934A1.975,1.975,0,0,1,51,8.758" transform="translate(0 0.699)" fill="#f3a744"/>
          <path id="Rectangle_405388" data-name="Rectangle 405388" d="M1.811,0H40.548A1.812,1.812,0,0,1,42.36,1.812V54.139a1.81,1.81,0,0,1-1.81,1.81H1.811A1.811,1.811,0,0,1,0,54.138V1.811A1.811,1.811,0,0,1,1.811,0Z" transform="translate(4.319 10.316)" fill="#fff"/>
          <path id="Path_884645" data-name="Path 884645" d="M32.107,7.2v3.7A1.739,1.739,0,0,1,30.3,12.551H15.013A1.75,1.75,0,0,1,13.189,10.9V7.2a.4.4,0,0,1,.026-.176,1.74,1.74,0,0,1,1.8-1.476H30.3a2.2,2.2,0,0,1,.388.033,1.7,1.7,0,0,1,1.4,1.443.417.417,0,0,1,.024.176" transform="translate(2.846 0.563)" fill="#34495e"/>
          <rect id="Rectangle_405389" data-name="Rectangle 405389" width="17.071" height="0.911" transform="translate(24.923 16.914)" fill="#bdc3c7"/>
          <rect id="Rectangle_405390" data-name="Rectangle 405390" width="17.071" height="0.911" transform="translate(24.923 19.208)" fill="#bdc3c7"/>
          <rect id="Rectangle_405391" data-name="Rectangle 405391" width="27.969" height="0.911" transform="translate(7.481 26.709)" fill="#bdc3c7"/>
          <rect id="Rectangle_405392" data-name="Rectangle 405392" width="27.969" height="0.911" transform="translate(7.481 29.002)" fill="#bdc3c7"/>
          <rect id="Rectangle_405393" data-name="Rectangle 405393" width="27.969" height="0.911" transform="translate(7.481 35.879)" fill="#bdc3c7"/>
          <rect id="Rectangle_405394" data-name="Rectangle 405394" width="27.969" height="0.911" transform="translate(7.481 38.172)" fill="#bdc3c7"/>
          <rect id="Rectangle_405395" data-name="Rectangle 405395" width="27.969" height="0.911" transform="translate(7.481 44.753)" fill="#bdc3c7"/>
          <rect id="Rectangle_405396" data-name="Rectangle 405396" width="27.969" height="0.911" transform="translate(7.481 47.048)" fill="#bdc3c7"/>
          <rect id="Rectangle_405397" data-name="Rectangle 405397" width="27.969" height="0.911" transform="translate(7.481 53.888)" fill="#bdc3c7"/>
          <rect id="Rectangle_405398" data-name="Rectangle 405398" width="27.969" height="0.911" transform="translate(7.481 56.182)" fill="#bdc3c7"/>
          <path id="Path_884646" data-name="Path 884646" d="M17.032,15.384H14.894V13.448a.55.55,0,0,0-.574-.521H12.259a.549.549,0,0,0-.573.521v1.936H9.552a.547.547,0,0,0-.573.52v1.867a.547.547,0,0,0,.573.521h2.135v1.933a.548.548,0,0,0,.573.521H14.32a.549.549,0,0,0,.574-.521V18.292h2.139a.549.549,0,0,0,.574-.521V15.9a.548.548,0,0,0-.574-.52" transform="translate(1.937 1.313)" fill="#15a0c9"/>
          <path id="Rectangle_405399" data-name="Rectangle 405399" d="M.2,0h4.3a.195.195,0,0,1,.195.195V3.956a.2.2,0,0,1-.2.2H.194A.194.194,0,0,1,0,3.958V.2A.2.2,0,0,1,.2,0Z" transform="translate(37.643 25.195)" fill="#95a5a6"/>
          <path id="Rectangle_405400" data-name="Rectangle 405400" d="M.2,0h4.3a.195.195,0,0,1,.195.195V3.957a.195.195,0,0,1-.195.195H.2a.2.2,0,0,1-.2-.2V.2A.2.2,0,0,1,.2,0Z" transform="translate(37.643 31.315)" fill="#95a5a6"/>
          <path id="Rectangle_405401" data-name="Rectangle 405401" d="M.194,0h4.3a.195.195,0,0,1,.195.195V3.957a.195.195,0,0,1-.195.195H.2a.2.2,0,0,1-.2-.2V.194A.194.194,0,0,1,.194,0Z" transform="translate(37.643 37.434)" fill="#95a5a6"/>
          <path id="Rectangle_405402" data-name="Rectangle 405402" d="M.2,0h4.3a.195.195,0,0,1,.195.195V3.958a.195.195,0,0,1-.195.195H.194A.194.194,0,0,1,0,3.959V.2A.2.2,0,0,1,.2,0Z" transform="translate(37.643 43.553)" fill="#95a5a6"/>
          <path id="Rectangle_405403" data-name="Rectangle 405403" d="M.2,0h4.3a.195.195,0,0,1,.195.195V3.957a.195.195,0,0,1-.195.195H.2a.2.2,0,0,1-.2-.2V.2A.2.2,0,0,1,.2,0Z" transform="translate(37.643 49.673)" fill="#95a5a6"/>
          <path id="Rectangle_405404" data-name="Rectangle 405404" d="M.2,0h4.3a.195.195,0,0,1,.195.195V3.957a.195.195,0,0,1-.195.195H.194A.194.194,0,0,1,0,3.958V.2A.2.2,0,0,1,.2,0Z" transform="translate(37.643 55.793)" fill="#95a5a6"/>
          <path id="Path_884647" data-name="Path 884647" d="M36.769,13.972a.674.674,0,0,1-.184-.026,3.864,3.864,0,0,1-2.625-3.566,7.534,7.534,0,0,1,.745-2.7,7.276,7.276,0,0,0,.812-3.5,1.618,1.618,0,0,0-1.47-1.5.558.558,0,0,1-.568-.534.552.552,0,0,1,.576-.52,2.755,2.755,0,0,1,2.608,2.364c.247,1.239-.343,2.729-.866,4.042a7.31,7.31,0,0,0-.678,2.309,2.8,2.8,0,0,0,1.833,2.6.515.515,0,0,1,.366.665.577.577,0,0,1-.551.36" transform="translate(7.224 0.165)" fill="#e49306"/>
          <path id="Path_884648" data-name="Path 884648" d="M33.676,2.388a1.023,1.023,0,0,1-2.036,0V.922a1.023,1.023,0,0,1,2.036,0Z" transform="translate(6.827 0)" fill="#e49306"/>
          <path id="Path_884649" data-name="Path 884649" d="M33.032,35.622a.438.438,0,0,1-.872,0V32.974a.438.438,0,0,1,.872,0Z" transform="translate(6.939 3.31)" fill="#152d3d"/>
          <path id="Path_884650" data-name="Path 884650" d="M34.572,33.685c0,.582-.52,2.634-1.161,2.634H32.249c-.644,0-1.165-2.052-1.165-2.634V13.751A1.112,1.112,0,0,1,32.249,12.7h1.162a1.111,1.111,0,0,1,1.161,1.053Z" transform="translate(6.707 1.29)" fill="#2bc897"/>
          <path id="Path_884651" data-name="Path 884651" d="M34.568,2.443V22.371a1.105,1.105,0,0,1-1.154,1.058H32.247a1.118,1.118,0,0,1-1.168-1.058V2.443a.778.778,0,0,1,.085-.375,1.02,1.02,0,0,1,.6-.584.185.185,0,0,1,.073-.022,1.026,1.026,0,0,1,.415-.077h1.167a1.143,1.143,0,0,1,.388.066,1.072,1.072,0,0,1,.475.286,1,1,0,0,1,.291.705" transform="translate(6.706 0.141)" fill="#2bc897"/>
          <rect id="Rectangle_405405" data-name="Rectangle 405405" width="3.488" height="1.302" transform="translate(37.791 22.515)" fill="#006543"/>
        </g>
      </g>
    </g>
  </g>
</svg>
