<svg xmlns="http://www.w3.org/2000/svg" xmlns:xlink="http://www.w3.org/1999/xlink" width="178" height="178" viewBox="0 0 178 178">
  <defs>
    <clipPath id="clip-path">
      <rect id="Rectangle_406230" data-name="Rectangle 406230" width="96.117" height="96.286" fill="none"/>
    </clipPath>
  </defs>
  <g id="Group_1111636" data-name="Group 1111636" transform="translate(-6207 8599.579)">
    <g id="Group_1109506" data-name="Group 1109506" transform="translate(6207 -8599.578)">
      <path id="Path_882862" data-name="Path 882862" d="M89,0A89,89,0,1,1,0,89,89,89,0,0,1,89,0Z" transform="translate(0 -0.001)" fill="#005865"/>
      <path id="Path_882863" data-name="Path 882863" d="M78.668,0A78.668,78.668,0,1,1,0,78.668,78.668,78.668,0,0,1,78.668,0Z" transform="translate(10.332 10.331)" fill="#f3f9ff"/>
    </g>
    <g id="Group_1109507" data-name="Group 1109507" transform="translate(6246 -8560.579)">
      <rect id="Rectangle_401104" data-name="Rectangle 401104" width="99.117" height="100.574" transform="translate(0 -0.421)" fill="none"/>
      <g id="Group_1111503" data-name="Group 1111503" transform="translate(2 2.579)">
        <g id="Group_1111502" data-name="Group 1111502" clip-path="url(#clip-path)">
          <path id="Path_886062" data-name="Path 886062" d="M186.056,264.057c.212.772.587,1.62.807,2.42,1.885,6.87,3.523,13.833,5.575,20.657.138.458-.186,1.018.61.856v1.345H147.333c1.915-7.622,3.816-15.287,5.916-22.858.221-.795.577-1.6.807-2.42Z" transform="translate(-107.713 -193.049)" fill="#fde252"/>
          <path id="Path_886063" data-name="Path 886063" d="M273.182,136.041v36.841h-4.034c-1.264-4.585-1.3-12.266-6.925-13.647-2.476-.608-4.857.58-5.189-2.878-.3-3.1.249-6.675.014-9.829a8.813,8.813,0,0,0,2.419.806V136.041c4.567.032,9.147-.024,13.715,0" transform="translate(-187.847 -99.453)" fill="#fed2b2"/>
          <path id="Path_886064" data-name="Path 886064" d="M254.72,31.284c2.314-.634,3.444-2.1,4.436-4.172,1,1.984,2.175,3.567,4.435,4.174-.815.8-1.964.966-2.79,1.817-.753.776-1,1.862-1.646,2.7a6.861,6.861,0,0,0-4.435-4.348Z" transform="translate(-186.223 -19.821)" fill="#7dd1f5"/>
          <path id="Path_886065" data-name="Path 886065" d="M0,125.562c2.314-.634,3.444-2.1,4.436-4.172,1,1.984,2.175,3.567,4.435,4.174-.815.8-1.964.966-2.79,1.817-.753.776-1,1.862-1.646,2.7A6.861,6.861,0,0,0,0,125.736Z" transform="translate(0 -88.747)" fill="#7dd1f5"/>
          <path id="Path_886066" data-name="Path 886066" d="M329.812,80.724c.28,2.458,1.845,3.172,3.691,4.244.225.13.447-.077.341.458-2.364,1.043-2.681,1.864-3.97,3.821-.114.173.07.484-.463.352-.148-.037-1.181-2.211-1.571-2.6s-2.565-1.424-2.6-1.571c-.129-.522.158-.349.348-.465,1.8-1.108,3.423-1.727,3.688-4.238Z" transform="translate(-237.754 -59.016)" fill="#7dd1f5"/>
          <path id="Path_886067" data-name="Path 886067" d="M58.016,137.041l.137,11.029c1.162.09,3.278-1.9,4.569-1.9.874,0,4.2,2.156,4.436,1.9V137.041c4.567.029,9.148-.021,13.715,0v23.664c-.4.5-1.129.888-1.606,1.486-2.113,2.654-2.33,8.155-3.5,11.422q-15.725,0-31.464,0c0-2.417.009-4.845,0-7.262,0-1.252,0-2.513,0-3.765-.026-8.511,0-17.036,0-25.547,4.567-.023,9.148.03,13.715,0" transform="translate(-32.38 -100.185)" fill="#fed2b2"/>
          <path id="Path_886068" data-name="Path 886068" d="M58.042.04l.137,11.3c1.158-.2,3.605-2.135,4.569-2.135.728,0,4.289,2.33,4.434,2.132l0-11.294c4.567.031,9.149-.022,13.716,0,.049,11.469-.07,22.953,0,34.422H44.328q.012-17.2,0-34.422c4.567-.021,9.149.033,13.716,0" transform="translate(-32.406 -0.024)" fill="#fed2b2"/>
          <path id="Path_886069" data-name="Path 886069" d="M183.9,111.156c.054-3.565-.921-8.772,4.174-9.151,2.192-.163,4.969,2.016,4.969,4.176v4.975c1.52.008,3.051-.011,4.572,0V122.45a8.813,8.813,0,0,1-2.419-.806c-.61-.276-1.335-1.1-2.151-1.076v12.5A7.8,7.8,0,0,0,194,134.8c2.234,2.72,5.747.564,8.055,3.24,1.3,1.511,1.717,5.5,2.278,7.537h-32c.582-2.065,1.181-6.3,2.582-7.772,2.061-2.159,4.565-.728,6.656-1.949a5.449,5.449,0,0,0,2.337-4.117c.567-6.332-.109-14.053-.011-20.583m3.687-6.664c-2.66.613-1.6,4.959,1.162,4.409a2.29,2.29,0,1,0-1.162-4.409" transform="translate(-125.99 -74.569)" fill="#6e82b6"/>
          <path id="Path_886070" data-name="Path 886070" d="M188.028,136.057l-.058,21.321c-.511,2.284-4.871,1.381-6.665,2.343-.041-7.793.055-15.6,0-23.4,0-.09,0-.179,0-.269Z" transform="translate(-132.542 -99.47)" fill="#fed2b2"/>
          <path id="Path_886071" data-name="Path 886071" d="M175.854,136.057c-.1,6.529.578,14.251.011,20.583a5.449,5.449,0,0,1-2.337,4.117c-2.091,1.221-4.595-.209-6.656,1.949-1.4,1.467-2,5.707-2.581,7.772-.23.816-.586,1.626-.807,2.42h-2.151c1.173-3.266,1.39-8.767,3.5-11.422.477-.6,1.2-.986,1.606-1.486.066-.081.223-.138.269-.269,1.795-.962,6.155-.06,6.665-2.343l.058-21.321Z" transform="translate(-117.948 -99.47)" fill="#f3b78d"/>
          <path id="Path_886072" data-name="Path 886072" d="M104.476.015l0,11.294c-.145.2-3.707-2.132-4.434-2.132-.963,0-3.411,1.936-4.569,2.135L95.333.015c2.969-.02,6.153-.021,9.143,0" transform="translate(-69.697 0)" fill="#6e82b6"/>
          <path id="Path_886073" data-name="Path 886073" d="M80.9,128.057c0,.378.264,1.363.269,2.151,0,.09,0,.179,0,.269H80.9c-4.567-.021-9.148.029-13.715,0-2.966-.019-6.156-.02-9.143,0-4.567.03-9.148-.023-13.715,0,0-.8,0-1.615,0-2.42Z" transform="translate(-32.411 -93.621)" fill="#f3b78d"/>
          <path id="Path_886074" data-name="Path 886074" d="M251.484,172.131c.236,3.154-.312,6.729-.014,9.829.333,3.458,2.714,2.27,5.189,2.878,5.624,1.381,5.661,9.062,6.925,13.647h-2.151c-.219-.8-.595-1.648-.807-2.42-.561-2.041-.975-6.027-2.278-7.537-2.308-2.676-5.821-.52-8.055-3.24a7.8,7.8,0,0,1-.962-1.727v-12.5c.816-.024,1.541.8,2.151,1.076" transform="translate(-182.284 -125.056)" fill="#f3b78d"/>
          <path id="Path_886075" data-name="Path 886075" d="M104.476,137.018v11.024c-.234.259-3.562-1.9-4.436-1.9-1.291,0-3.406,1.991-4.569,1.9l-.137-11.029c2.987-.02,6.177-.019,9.143,0" transform="translate(-69.697 -100.161)" fill="#6e82b6"/>
          <path id="Path_886076" data-name="Path 886076" d="M180.6,160.452c-.046.131-.2.187-.269.269V137.057h.269c.055,7.793-.041,15.6,0,23.4" transform="translate(-131.839 -100.201)" fill="#6e82b6"/>
          <path id="Path_886077" data-name="Path 886077" d="M224.867,111.007a2.29,2.29,0,1,1,1.162,4.409c-2.764.55-3.822-3.8-1.162-4.409" transform="translate(-163.274 -81.084)"/>
        </g>
      </g>
    </g>
  </g>
</svg>
