<svg xmlns="http://www.w3.org/2000/svg" xmlns:xlink="http://www.w3.org/1999/xlink" width="158.949" height="159.181" viewBox="0 0 158.949 159.181">
  <defs>
    <clipPath id="clip-path">
      <rect id="Rectangle_400938" data-name="Rectangle 400938" width="152.656" height="152.656" fill="none"/>
    </clipPath>
    <clipPath id="clip-path-2">
      <path id="Path_873460" data-name="Path 873460" d="M0,1.693A1.747,1.747,0,0,0,1.8,3.385,1.747,1.747,0,0,0,3.6,1.693,1.748,1.748,0,0,0,1.8,0,1.748,1.748,0,0,0,0,1.693" transform="translate(0)" fill="#005865"/>
    </clipPath>
    <clipPath id="clip-path-3">
      <path id="Path_873466" data-name="Path 873466" d="M0,1.693A1.748,1.748,0,0,0,1.8,3.385,1.747,1.747,0,0,0,3.6,1.693,1.747,1.747,0,0,0,1.8,0,1.748,1.748,0,0,0,0,1.693" fill="#005865"/>
    </clipPath>
    <clipPath id="clip-path-4">
      <path id="Path_873467" data-name="Path 873467" d="M0,1.692A1.748,1.748,0,0,0,1.8,3.384,1.748,1.748,0,0,0,3.6,1.692,1.748,1.748,0,0,0,1.8,0,1.748,1.748,0,0,0,0,1.692" transform="translate(0 0)" fill="#005865"/>
    </clipPath>
    <clipPath id="clip-path-6">
      <path id="Path_873469" data-name="Path 873469" d="M0,1.692A1.748,1.748,0,0,0,1.8,3.384,1.747,1.747,0,0,0,3.6,1.692,1.747,1.747,0,0,0,1.8,0,1.748,1.748,0,0,0,0,1.692" transform="translate(0 0)" fill="#005865"/>
    </clipPath>
    <clipPath id="clip-path-22">
      <rect id="Rectangle_401492" data-name="Rectangle 401492" width="69.989" height="69.99" transform="translate(0 0)" fill="#fff" stroke="#707070" stroke-width="1"/>
    </clipPath>
    <clipPath id="clip-path-23">
      <rect id="Rectangle_405579" data-name="Rectangle 405579" width="63.417" height="62.819" fill="#fff"/>
    </clipPath>
  </defs>
  <g id="Group_1109602" data-name="Group 1109602" transform="translate(-318.664 -4483.287)">
    <g id="Group_1108942" data-name="Group 1108942" transform="translate(318.664 4483.287)">
      <g id="Group_1100237" data-name="Group 1100237" transform="translate(5.038 22.163)">
        <g id="Group_1099505" data-name="Group 1099505" transform="translate(2.342 10.905)">
          <g id="Group_1099504" data-name="Group 1099504" transform="translate(0)" clip-path="url(#clip-path-2)">
            <rect id="Rectangle_401140" data-name="Rectangle 401140" width="3.598" height="3.385" transform="translate(0)" fill="#005865"/>
          </g>
        </g>
        <g id="Group_1099517" data-name="Group 1099517" transform="translate(48.007 10.905)">
          <g id="Group_1099516" data-name="Group 1099516" transform="translate(0)" clip-path="url(#clip-path-3)">
            <rect id="Rectangle_401146" data-name="Rectangle 401146" width="3.599" height="3.385" transform="translate(0 0)" fill="#005865"/>
          </g>
        </g>
        <g id="Group_1099519" data-name="Group 1099519" transform="translate(39.117 10.906)">
          <g id="Group_1099518" data-name="Group 1099518" transform="translate(0 0)" clip-path="url(#clip-path-4)">
            <rect id="Rectangle_401147" data-name="Rectangle 401147" width="3.599" height="3.384" transform="translate(0 0)" fill="#005865"/>
          </g>
        </g>
        <g id="Group_1099521" data-name="Group 1099521" transform="translate(30.227 10.906)">
          <g id="Group_1099520" data-name="Group 1099520" transform="translate(0 0)" clip-path="url(#clip-path-4)">
            <rect id="Rectangle_401148" data-name="Rectangle 401148" width="3.599" height="3.384" transform="translate(0 0)" fill="#005865"/>
          </g>
        </g>
        <g id="Group_1099523" data-name="Group 1099523" transform="translate(21.337 10.906)">
          <g id="Group_1099522" data-name="Group 1099522" transform="translate(0 0)" clip-path="url(#clip-path-6)">
            <rect id="Rectangle_401149" data-name="Rectangle 401149" width="3.598" height="3.384" transform="translate(0 0)" fill="#005865"/>
          </g>
        </g>
        <g id="Group_1099525" data-name="Group 1099525" transform="translate(44.45 0)">
          <g id="Group_1099524" data-name="Group 1099524" clip-path="url(#clip-path-4)">
            <rect id="Rectangle_401150" data-name="Rectangle 401150" width="3.599" height="3.384" transform="translate(0 0)" fill="#005865"/>
          </g>
        </g>
        <g id="Group_1099529" data-name="Group 1099529" transform="translate(35.56 0)">
          <g id="Group_1099528" data-name="Group 1099528" transform="translate(0)" clip-path="url(#clip-path-6)">
            <rect id="Rectangle_401152" data-name="Rectangle 401152" width="3.599" height="3.384" transform="translate(0 0)" fill="#005865"/>
          </g>
        </g>
        <g id="Group_1099531" data-name="Group 1099531" transform="translate(17.78 0)">
          <g id="Group_1099530" data-name="Group 1099530" transform="translate(0)" clip-path="url(#clip-path-6)">
            <rect id="Rectangle_401153" data-name="Rectangle 401153" width="3.598" height="3.384" transform="translate(0 0)" fill="#005865"/>
          </g>
        </g>
        <g id="Group_1099533" data-name="Group 1099533" transform="translate(8.89 0)">
          <g id="Group_1099532" data-name="Group 1099532" clip-path="url(#clip-path-6)">
            <rect id="Rectangle_401154" data-name="Rectangle 401154" width="3.599" height="3.384" transform="translate(0 0)" fill="#005865"/>
          </g>
        </g>
        <g id="Group_1099535" data-name="Group 1099535" transform="translate(0 0)">
          <g id="Group_1099534" data-name="Group 1099534" transform="translate(0)" clip-path="url(#clip-path-6)">
            <rect id="Rectangle_401155" data-name="Rectangle 401155" width="3.599" height="3.384" transform="translate(0 0)" fill="#005865"/>
          </g>
        </g>
      </g>
      <g id="Group_1100238" data-name="Group 1100238" transform="translate(101.296 117.824)">
        <g id="Group_1099505-2" data-name="Group 1099505" transform="translate(2.342 10.905)">
          <g id="Group_1099504-2" data-name="Group 1099504" transform="translate(0)" clip-path="url(#clip-path-2)">
            <rect id="Rectangle_401140-2" data-name="Rectangle 401140" width="3.598" height="3.385" transform="translate(0)" fill="#005865"/>
          </g>
        </g>
        <g id="Group_1099517-2" data-name="Group 1099517" transform="translate(48.007 10.905)">
          <g id="Group_1099516-2" data-name="Group 1099516" transform="translate(0)" clip-path="url(#clip-path-3)">
            <rect id="Rectangle_401146-2" data-name="Rectangle 401146" width="3.599" height="3.385" transform="translate(0 0)" fill="#005865"/>
          </g>
        </g>
        <g id="Group_1099519-2" data-name="Group 1099519" transform="translate(39.117 10.906)">
          <g id="Group_1099518-2" data-name="Group 1099518" transform="translate(0 0)" clip-path="url(#clip-path-4)">
            <rect id="Rectangle_401147-2" data-name="Rectangle 401147" width="3.599" height="3.384" transform="translate(0 0)" fill="#005865"/>
          </g>
        </g>
        <g id="Group_1099521-2" data-name="Group 1099521" transform="translate(30.227 10.906)">
          <g id="Group_1099520-2" data-name="Group 1099520" transform="translate(0 0)" clip-path="url(#clip-path-4)">
            <rect id="Rectangle_401148-2" data-name="Rectangle 401148" width="3.599" height="3.384" transform="translate(0 0)" fill="#005865"/>
          </g>
        </g>
        <g id="Group_1099523-2" data-name="Group 1099523" transform="translate(21.337 10.906)">
          <g id="Group_1099522-2" data-name="Group 1099522" transform="translate(0 0)" clip-path="url(#clip-path-6)">
            <rect id="Rectangle_401149-2" data-name="Rectangle 401149" width="3.598" height="3.384" transform="translate(0 0)" fill="#005865"/>
          </g>
        </g>
        <g id="Group_1099525-2" data-name="Group 1099525" transform="translate(44.45 0)">
          <g id="Group_1099524-2" data-name="Group 1099524" clip-path="url(#clip-path-4)">
            <rect id="Rectangle_401150-2" data-name="Rectangle 401150" width="3.599" height="3.384" transform="translate(0 0)" fill="#005865"/>
          </g>
        </g>
        <g id="Group_1099529-2" data-name="Group 1099529" transform="translate(35.56 0)">
          <g id="Group_1099528-2" data-name="Group 1099528" transform="translate(0)" clip-path="url(#clip-path-6)">
            <rect id="Rectangle_401152-2" data-name="Rectangle 401152" width="3.599" height="3.384" transform="translate(0 0)" fill="#005865"/>
          </g>
        </g>
        <g id="Group_1099531-2" data-name="Group 1099531" transform="translate(17.78 0)">
          <g id="Group_1099530-2" data-name="Group 1099530" transform="translate(0)" clip-path="url(#clip-path-6)">
            <rect id="Rectangle_401153-2" data-name="Rectangle 401153" width="3.598" height="3.384" transform="translate(0 0)" fill="#005865"/>
          </g>
        </g>
        <g id="Group_1099533-2" data-name="Group 1099533" transform="translate(8.89 0)">
          <g id="Group_1099532-2" data-name="Group 1099532" clip-path="url(#clip-path-6)">
            <rect id="Rectangle_401154-2" data-name="Rectangle 401154" width="3.599" height="3.384" transform="translate(0 0)" fill="#005865"/>
          </g>
        </g>
        <g id="Group_1099535-2" data-name="Group 1099535" transform="translate(0 0)">
          <g id="Group_1099534-2" data-name="Group 1099534" transform="translate(0)" clip-path="url(#clip-path-6)">
            <rect id="Rectangle_401155-2" data-name="Rectangle 401155" width="3.599" height="3.384" transform="translate(0 0)" fill="#005865"/>
          </g>
        </g>
      </g>
      <path id="Path_873784" data-name="Path 873784" d="M109.2,24.037A24.184,24.184,0,0,0,85.034-.128L24.2-.036A24.36,24.36,0,0,0-.037,24.2L-.128,85.032A24.184,24.184,0,0,0,24.037,109.2l60.832-.091a24.361,24.361,0,0,0,24.238-24.238Z" transform="translate(81.645 159) rotate(-135)" fill="#41cee2"/>
      <ellipse id="Ellipse_11579" data-name="Ellipse 11579" cx="51.175" cy="51.175" rx="51.175" ry="51.175" transform="translate(30.842 31.057)" fill="#005865"/>
      <g id="Mask_Group_1098697" data-name="Mask Group 1098697" transform="translate(47.016 47.59)" clip-path="url(#clip-path-22)">
        <g id="Group_1110996" data-name="Group 1110996" transform="translate(0.279 3.473)">
          <g id="Group_1110995" data-name="Group 1110995" transform="translate(2)" clip-path="url(#clip-path-23)">
            <path id="Path_885002" data-name="Path 885002" d="M203.828,184.7c2.2-1.769,3.473-5.043,6.907-3.634a4.046,4.046,0,0,1,1.466,6.145l-8.294,8.91c-.389,1.4.465,5.511-.609,6.395a1.321,1.321,0,0,1-.909.309c-5.795.533-12.4-.416-18.28,0a1.467,1.467,0,0,1-1.223-.909l-.073-30.539a3.529,3.529,0,0,1,4.275-3.351c.494.1,1.358.694,1.592.687a10.232,10.232,0,0,1,1.98-.755c1.419-.113,2.076.737,2.585.753.538.017,1.386-.88,2.743-.756a16.179,16.179,0,0,1,1.979.757c.188-.006.822-.48,1.227-.595a3.517,3.517,0,0,1,4.3,1.925,10.234,10.234,0,0,1,.336,1.339Zm-18.574-13.778v29.46h16.138v-4.8a5.561,5.561,0,0,1,.529-.841c2.2-2.838,5.6-5.547,7.923-8.368.673-.819,1.317-1.763.51-2.8-1.213-1.555-2.8.642-3.637,1.5-.695.708-3.068,3.693-3.758,3.854-1.005.234-1.487-.3-1.574-1.255-.47-5.171.364-11.054.011-16.3a1.145,1.145,0,0,0-2.29,0v13.093a1.161,1.161,0,0,1-2.287-.294c-.363-3.963.531-8.962,0-12.786a1.149,1.149,0,0,0-2.282-.17l-.029,13.065a1.206,1.206,0,0,1-2.4-.112c-.472-3.979.368-8.859-.005-12.935a1.144,1.144,0,0,0-2.278.14v13.093a1.162,1.162,0,0,1-2.283-.146c-.468-3.954.537-9.042-.007-12.934a1.209,1.209,0,0,0-2.274-.467" transform="translate(-157.103 -142.371)" fill="#fff"/>
            <path id="Path_885003" data-name="Path 885003" d="M58.168,95.034,55.8,92.754l-9.063-.072c-1.246-.39-.672-2.215.084-2.215h6.623c.066-.266-.11-.3-.227-.458-.781-1.02-3.041-2.223-2.434-3.65L63.726,73.416l.227-.458H54.895c-.784,0-1.329-1.976.188-2.247l11.228-.04,2.363-2.28H63.116c-.69,0-1.646-2.113.3-2.291,2.416-.221,5.138.205,7.588-.024l4.529-4.453,1.066-.17L94.33,79.045a1.276,1.276,0,0,1,.31,1.381c-.282.875-3.18,3.013-3.813,3.951a1.081,1.081,0,0,1-1.458-.068c-1.622-1.391,1.87-3.208,2.379-4.2.06-.117.1-.187,0-.3L76.078,64.291l-22.627,22.6L65.323,98.765a1.236,1.236,0,0,1,.157,1.679c-1.382,1.705-3.778-2.525-4.955-2.97-2.663-.178-5.594.225-8.223,0-1.057-.09-1.835-.347-1.589-1.6.055-.279.625-.841.833-.841Z" transform="translate(-41.131 -52.097)" fill="#fff"/>
            <path id="Path_885004" data-name="Path 885004" d="M99.474,351c2.15-.465,2.021,3.366.411,3.47-1.586.1-1.786-3.173-.411-3.47" transform="translate(-85.675 -297.531)" fill="#fff"/>
            <path id="Path_885005" data-name="Path 885005" d="M100.7,392.116c-1.922,1.915-3.175-3.073-.943-3.164,1.51-.061,1.644,2.466.943,3.164" transform="translate(-85.68 -329.734)" fill="#fff"/>
            <path id="Path_885006" data-name="Path 885006" d="M437.928,221.06c2,2.008-3.717,3.249-3.125.525.247-1.137,2.529-1.123,3.125-.525" transform="translate(-375.999 -187.063)" fill="#fff"/>
            <path id="Path_885007" data-name="Path 885007" d="M397.688,220.829c.862-.193,2.554-.063,2.631,1.12.1,1.568-3.185,1.709-3.47.411a1.228,1.228,0,0,1,.84-1.531" transform="translate(-343.828 -187.147)" fill="#fff"/>
            <path id="Path_885008" data-name="Path 885008" d="M.693,152.589c1.17-.342,3.554.036,2.615,1.7-.374.664-1.51.634-2.193.553a1.182,1.182,0,0,1-.422-2.255" transform="translate(1.062 -129.26)" fill="#fff"/>
            <path id="Path_885009" data-name="Path 885009" d="M23.331,168.024c1.807-.4,1.784,2.684.949,3.234-1.992,1.311-2.571-2.872-.949-3.234" transform="translate(-17.92 -142.412)" fill="#fff"/>
            <path id="Path_885010" data-name="Path 885010" d="M183.753,22.73c.846-.188,2.515-.177,2.631.971.143,1.41-1.51,1.425-2.5,1.271a1.144,1.144,0,0,1-.128-2.242" transform="translate(-157.168 -19.193)" fill="#fff"/>
            <path id="Path_885011" data-name="Path 885011" d="M168.35,38.038c1.736-.353,1.814,2.672.947,3.239-2.044,1.335-2.532-2.916-.947-3.239" transform="translate(-144.045 -32.223)" fill="#fff"/>
            <path id="Path_885012" data-name="Path 885012" d="M366.753,68.672c.881-.2,2.509-.216,2.631.971.141,1.366-1.53,1.424-2.5,1.271a1.144,1.144,0,0,1-.129-2.242" transform="translate(-312.306 -58.131)" fill="#fff"/>
            <path id="Path_885013" data-name="Path 885013" d="M168.374.03c2.309-.47,1.7,4.767-.413,3.242-.763-.551-.744-3.007.413-3.242" transform="translate(-144.069 0)" fill="#fff"/>
            <path id="Path_885014" data-name="Path 885014" d="M145.753,22.73c.846-.188,2.515-.177,2.631.971.138,1.367-1.528,1.424-2.5,1.271a1.144,1.144,0,0,1-.129-2.242" transform="translate(-124.953 -19.193)" fill="#fff"/>
            <path id="Path_885015" data-name="Path 885015" d="M351.372,46.021c2.393-.491,1.643,4.905-.5,3.175-.658-.532-.641-2.941.5-3.175" transform="translate(-299.206 -38.987)" fill="#fff"/>
            <path id="Path_885016" data-name="Path 885016" d="M328.752,68.73c.846-.188,2.515-.177,2.631.971.138,1.367-1.528,1.424-2.5,1.271a1.144,1.144,0,0,1-.129-2.242" transform="translate(-280.091 -58.19)" fill="#fff"/>
            <path id="Path_885017" data-name="Path 885017" d="M351.374,84.03c2.309-.47,1.7,4.767-.413,3.242-.763-.551-.744-3.007.413-3.242" transform="translate(-299.208 -71.212)" fill="#fff"/>
            <path id="Path_885018" data-name="Path 885018" d="M22.8,132.931c-.828-.823-.462-3.927,1.444-3.041.662.308.629,2.154.378,2.741a1.176,1.176,0,0,1-1.822.3" transform="translate(-17.917 -109.981)" fill="#fff"/>
            <path id="Path_885019" data-name="Path 885019" d="M38.434,154.673a1.176,1.176,0,0,1,.3-1.822c.587-.251,2.433-.284,2.741.378.886,1.906-2.218,2.272-3.041,1.444" transform="translate(-31.263 -129.439)" fill="#fff"/>
            <path id="Path_885020" data-name="Path 885020" d="M421.5,198.607c.828.824.462,3.927-1.444,3.041-.662-.308-.629-2.154-.378-2.741a1.176,1.176,0,0,1,1.822-.3" transform="translate(-363.072 -168.112)" fill="#fff"/>
            <path id="Path_885021" data-name="Path 885021" d="M420,236.759c2.215-.672,2.127,2.952,1,3.288-2.181.652-1.824-3.039-1-3.288" transform="translate(-362.946 -200.643)" fill="#fff"/>
            <path id="Path_885022" data-name="Path 885022" d="M76.885,375.666a1.38,1.38,0,0,1,.3-1.828c.563-.258,2.443-.273,2.743.38.919,2-2.324,2.215-3.044,1.448" transform="translate(-67.116 -316.782)" fill="#fff"/>
            <path id="Path_885023" data-name="Path 885023" d="M117.73,375.666c-.72.768-3.963.548-3.044-1.448.3-.653,2.181-.638,2.743-.38a1.38,1.38,0,0,1,.3,1.828" transform="translate(-99.21 -316.782)" fill="#fff"/>
          </g>
        </g>
      </g>
    </g>
  </g>
</svg>
