<svg xmlns="http://www.w3.org/2000/svg" xmlns:xlink="http://www.w3.org/1999/xlink" width="70" height="70" viewBox="0 0 70 70">
  <defs>
    <clipPath id="clip-path">
      <rect id="Rectangle_405451" data-name="Rectangle 405451" width="45.149" height="34" fill="#006543"/>
    </clipPath>
  </defs>
  <g id="Group_1109781" data-name="Group 1109781" transform="translate(-269 -958)">
    <circle id="Ellipse_5614" data-name="Ellipse 5614" cx="35" cy="35" r="35" transform="translate(269 958)" fill="#fff"/>
    <g id="Group_1110759" data-name="Group 1110759" transform="translate(280.711 975.26)">
      <g id="Group_1110758" data-name="Group 1110758" clip-path="url(#clip-path)">
        <path id="Path_884718" data-name="Path 884718" d="M125.325,147.946a20.473,20.473,0,0,0-2.157.814c-3.139.967-8.733,1.289-11.616-.439-.769-.461-1.116-1-2.129-1.137-3.118-.419-7.031.327-10.184-.036a2.413,2.413,0,0,1,.085-4.818c4.05-.348,11.146.839,14.638-.737.5-.227.92-.5.731-1.113-.32-1.037-1.809-.153-2.533.015-2.512.583-5.534.146-8.119.215l10.879-10.774c3.733,2.132,7.63,4.373,11.938,5.116l0,12.9c-.486.046-1.067-.063-1.538,0" transform="translate(-87.371 -117.138)" fill="#006543"/>
        <path id="Path_884719" data-name="Path 884719" d="M38.605,70.906l3.813,3.683c.1.085.11.133.05.248a10.241,10.241,0,0,1-1.35,1.227Q36.145,81.091,31.1,86.011c-.386.376-1.107,1.467-1.627,1.536-.84.111-1.877-.1-2.758.02a4.068,4.068,0,0,0-3.341,4.644c.048.36.454.986.342,1.236-.093.208-.53.41-.7.591a14.14,14.14,0,0,1-2.028,2.035l-.2-.007-3.771-3.747Z" transform="translate(-15.324 -63.923)" fill="#006543"/>
        <path id="Path_884720" data-name="Path 884720" d="M414.439,166.507a21.255,21.255,0,0,1,2.95-.015.715.715,0,0,1,.627.658l.026,14.455c-.046.33-.2.733-.569.814a18.047,18.047,0,0,1-2.934,0,.72.72,0,0,1-.543-.642l-.026-14.554a.874.874,0,0,1,.469-.716" transform="translate(-372.893 -150.057)" fill="#006543"/>
        <path id="Path_884721" data-name="Path 884721" d="M25.795,92.873a5.127,5.127,0,0,1,.8-1.672L37.613,78.7a5.511,5.511,0,0,1,5.644-1.29L25.993,94.549l-.2-.1c.05-.495-.068-1.1,0-1.576" transform="translate(-23.216 -69.501)" fill="#006543"/>
        <path id="Path_884722" data-name="Path 884722" d="M249.211,36.747a.5.5,0,0,1,.48.077c.418.654,3.272,2.951,3.4,3.424.139.5-.4.658-.635.909a13.8,13.8,0,0,1-1.5,1.573l-3.9-3.8a15.717,15.717,0,0,1,2.148-2.185" transform="translate(-222.548 -33.103)" fill="#006543"/>
        <path id="Path_884723" data-name="Path 884723" d="M124.995,320.834a2.061,2.061,0,1,1-4.068,0Z" transform="translate(-108.921 -289.239)" fill="#006543"/>
        <path id="Path_884724" data-name="Path 884724" d="M178.016,320.834h3.771c.32.322.09,1-.1,1.373a2.048,2.048,0,0,1-3.77-.58c-.046-.264-.145-.6.1-.793" transform="translate(-160.206 -289.239)" fill="#006543"/>
        <path id="Path_884725" data-name="Path 884725" d="M3.968,307.789,0,308.774l.993-3.939Z" transform="translate(0 -274.816)" fill="#006543"/>
        <path id="Path_884726" data-name="Path 884726" d="M72.564,312.474c.449,2.247-1.819,3.712-3.554,2.1l2.479-2.567c.3-.164.725.429,1.076.465" transform="translate(-62.162 -281.257)" fill="#006543"/>
        <path id="Path_884727" data-name="Path 884727" d="M327.252,0a6.452,6.452,0,1,0,6.5,6.452A6.477,6.477,0,0,0,327.252,0m3.523,8.043a1.209,1.209,0,0,1,.063,1.717,1.231,1.231,0,0,1-1.73.063l-1.857-1.713L325.4,9.823a1.231,1.231,0,0,1-1.73-.063,1.209,1.209,0,0,1,.063-1.717l1.725-1.591-1.725-1.591a1.208,1.208,0,0,1-.063-1.717,1.231,1.231,0,0,1,1.73-.063l1.857,1.713,1.857-1.713a1.231,1.231,0,0,1,1.73.063,1.208,1.208,0,0,1-.063,1.717L329.05,6.452Z" transform="translate(-288.924)" fill="#006543"/>
      </g>
    </g>
  </g>
</svg>
