<svg xmlns="http://www.w3.org/2000/svg" xmlns:xlink="http://www.w3.org/1999/xlink" width="147" height="147" viewBox="0 0 147 147">
  <defs>
    <clipPath id="clip-path">
      <rect id="Rectangle_400938" data-name="Rectangle 400938" width="147" height="147" fill="none"/>
    </clipPath>
    <clipPath id="clip-path-2">
      <rect id="Rectangle_401492" data-name="Rectangle 401492" width="78.518" height="78.519" transform="translate(2.586 3.186)" fill="#b8fafd" stroke="#707070" stroke-width="1"/>
    </clipPath>
    <clipPath id="clip-path-3">
      <rect id="Rectangle_405446" data-name="Rectangle 405446" width="72.611" height="65.396" fill="#b8fafd"/>
    </clipPath>
  </defs>
  <g id="Group_1108953" data-name="Group 1108953" transform="translate(-310 -7635)">
    <g id="Group_1102000" data-name="Group 1102000" transform="translate(448.975 7781.705) rotate(180)">
      <path id="Path_874029" data-name="Path 874029" d="M626.466,575.286l-64.987-36.674V465.259l64.987-36.677,64.987,36.677v73.354Zm-62.05-38.332,62.05,35.019,62.05-35.019V466.916l-62.05-35.022-62.05,35.022Z" transform="translate(-561.479 -428.582)" fill="#2bc897"/>
      <path id="Path_874030" data-name="Path 874030" d="M574.458,477v66.873l59.374,33.436L693.2,543.876V477l-59.373-33.436Z" transform="translate(-568.844 -437.087)" fill="#005865"/>
    </g>
    <g id="Mask_Group_1098697" data-name="Mask Group 1098697" transform="translate(341.414 7665.634)" clip-path="url(#clip-path-2)">
      <g id="Group_1110749" data-name="Group 1110749" transform="translate(5.586 10.186)">
        <g id="Group_1110748" data-name="Group 1110748" clip-path="url(#clip-path-3)">
          <path id="Path_884695" data-name="Path 884695" d="M46.423,51.627l2.251,11.138,7.723.086a1.4,1.4,0,0,1,0,2.545l-40.284-.047a1.4,1.4,0,0,1,.1-2.5l7.723-.086,2.251-11.138H6.926C3.656,51.627-.11,47.578,0,44.27L.027,6.793A7.7,7.7,0,0,1,6.92,0H65.842a7.73,7.73,0,0,1,6.769,7.066L72.6,44.559c-.047,3.2-3.736,7.069-6.915,7.069ZM69.779,37.643V6.626a9.672,9.672,0,0,0-.682-1.55,5.3,5.3,0,0,0-4.592-2.4L7.821,2.686c-1.849-.223-4.985,2.083-4.985,3.94V31.99h8.554c.844,0,1.359,1.321,1.038,2.08a3.086,3.086,0,0,1-.889.747h-8.7v2.826Zm0,2.826H2.835v4.389c0,1.608,2.829,4.118,4.54,3.94l57.576.009a4.935,4.935,0,0,0,4.146-2.4,9.677,9.677,0,0,0,.682-1.55ZM26.935,62.784H45.679L43.51,51.619l-14.486.016Z" transform="translate(0)" fill="#b8fafd"/>
          <path id="Path_884696" data-name="Path 884696" d="M230.448,110.248c1.422,1.529-1.675,3.452-2.48,4.491,0,.254,3.121,2.7,3.262,3.579a2.315,2.315,0,0,1,0,.727c-.093.5-2.513,2.939-3.039,3.359-.572.457-1.06.795-1.826.478-.694-.287-2.864-3.08-3.256-3.149-1.356.883-3.81,4.828-4.954,1.542-1.338-3.841-1.646-8.739-2.953-12.678a1.45,1.45,0,0,1,1.939-1.63c3.963,1.212,8.677,1.619,12.555,2.915a1.913,1.913,0,0,1,.75.366m-3.821,1.74-8.181-1.786,1.857,7.886c.189.236.149.1.3,0,1.008-.663,1.7-2.579,3.273-1.489.833.577,2.181,2.538,2.9,2.91.3.157,1.061-.694,1.028-.88-.491-1.042-3.242-2.873-3.24-3.89,0-1.084,1.527-1.908,2.062-2.75" transform="translate(-183.178 -91.004)" fill="#b8fafd"/>
          <path id="Path_884697" data-name="Path 884697" d="M217.881,56.047a1.383,1.383,0,0,1,1.669,1.1c.2,1.258.237,4.222-1.785,3.57-1.479-.477-1.467-4.315.116-4.666" transform="translate(-184.441 -47.682)" fill="#b8fafd"/>
          <path id="Path_884698" data-name="Path 884698" d="M165.689,108.567c.948-.214,3.3-.27,3.582.968.442,1.959-1.811,1.983-3.167,1.828a1.421,1.421,0,0,1-.415-2.8" transform="translate(-140.136 -92.314)" fill="#b8fafd"/>
          <path id="Path_884699" data-name="Path 884699" d="M182.646,137.154a1.438,1.438,0,0,1,1.455,1.917,12.281,12.281,0,0,1-1.96,2.055,1.4,1.4,0,0,1-2.072-1.626,7.5,7.5,0,0,1,2.577-2.346" transform="translate(-153.216 -116.741)" fill="#b8fafd"/>
          <path id="Path_884700" data-name="Path 884700" d="M248.721,71.558a1.466,1.466,0,0,1,1.408,1.476,6.338,6.338,0,0,1-2.024,2.441,1.371,1.371,0,0,1-2.023-1.725c.242-.587,1.921-2.189,2.639-2.192" transform="translate(-209.364 -60.913)" fill="#b8fafd"/>
          <path id="Path_884701" data-name="Path 884701" d="M184.045,75.377c-1.168,1.179-2.732-.47-3.448-1.433a1.366,1.366,0,0,1,1.669-2.116,10.638,10.638,0,0,1,2.061,2.1,1.41,1.41,0,0,1-.281,1.445" transform="translate(-153.441 -60.992)" fill="#b8fafd"/>
          <path id="Path_884702" data-name="Path 884702" d="M95.18,215.1c1.743-.289,2.335,2.566.395,2.8a1.413,1.413,0,0,1-.395-2.8" transform="translate(-80.033 -183.083)" fill="#b8fafd"/>
          <path id="Path_884703" data-name="Path 884703" d="M227.794,281.023c3.654-.592,4.392,4.8,1.27,5.435-4.1.837-4.8-4.864-1.27-5.435" transform="translate(-191.972 -239.178)" fill="#b8fafd"/>
        </g>
      </g>
    </g>
  </g>
</svg>
