<svg xmlns="http://www.w3.org/2000/svg" xmlns:xlink="http://www.w3.org/1999/xlink" width="147" height="147" viewBox="0 0 147 147">
  <defs>
    <clipPath id="clip-path">
      <rect id="Rectangle_400938" data-name="Rectangle 400938" width="147" height="147" fill="none"/>
    </clipPath>
    <clipPath id="clip-path-2">
      <rect id="Rectangle_401492" data-name="Rectangle 401492" width="78.518" height="78.519" transform="translate(2.297 3.278)" fill="#b8fafd" stroke="#707070" stroke-width="1"/>
    </clipPath>
    <clipPath id="clip-path-3">
      <rect id="Rectangle_405885" data-name="Rectangle 405885" width="70.403" height="70.332" fill="#b8fafd"/>
    </clipPath>
  </defs>
  <g id="Group_1109296" data-name="Group 1109296" transform="translate(-310 -7635)">
    <g id="Group_1102000" data-name="Group 1102000" transform="translate(448.975 7781.705) rotate(180)">
      <path id="Path_874029" data-name="Path 874029" d="M626.466,575.286l-64.987-36.674V465.259l64.987-36.677,64.987,36.677v73.354Zm-62.05-38.332,62.05,35.019,62.05-35.019V466.916l-62.05-35.022-62.05,35.022Z" transform="translate(-561.479 -428.582)" fill="#2bc897"/>
      <path id="Path_874030" data-name="Path 874030" d="M574.458,477v66.873l59.374,33.436L693.2,543.876V477l-59.373-33.436Z" transform="translate(-568.844 -437.087)" fill="#005865"/>
    </g>
    <g id="Mask_Group_1098697" data-name="Mask Group 1098697" transform="translate(341.414 7665.634)" clip-path="url(#clip-path-2)">
      <g id="Group_1111367" data-name="Group 1111367" transform="translate(6.3 7.28)">
        <g id="Group_1111366" data-name="Group 1111366" clip-path="url(#clip-path-3)">
          <path id="Path_885718" data-name="Path 885718" d="M30.479,63.408H63.1a4.472,4.472,0,0,1,1.847,1.249,3.63,3.63,0,0,1-2.956,5.825c-8.075-.685-17.738.935-25.625-.022a3.694,3.694,0,0,1-3.4-2.791c-.093-.528.153-1.836-.04-1.946l-2.444-.1V72.7H53.147c.941,0,.941,2.432,0,2.432H30.479V81.21a13.084,13.084,0,0,1-1.661,2.762,6.058,6.058,0,0,1-3.093,1.551c-6.447.724-14.2-.544-20.789,0A5.7,5.7,0,0,1,.174,80.556c-.56-6.268.444-13.345,0-19.7a1.1,1.1,0,0,1,2.2.023c.8,5.738-.638,13.157.021,19.006a3.645,3.645,0,0,0,3.64,3.435c6.034.541,12.886-.406,19.008-.028a3.779,3.779,0,0,0,3.235-3.62c.862-9.639-.67-20.541,0-30.314a3.73,3.73,0,0,0-3.66-3.638c-5.913-.6-12.78.443-18.8,0C4.536,45.624,2.395,47.5,2.395,48.7v8.183c0,.721-2.212.721-2.212,0V47.818c0-1.572,3.105-4.275,4.774-4.294,6.543.413,13.889-.614,20.335-.028a5.774,5.774,0,0,1,4.614,3.126c.1.207.574,1.34.574,1.417Zm5.9,2.258c-1.392.126-1.5,2.56.178,2.391,1.426-.144,1.25-2.52-.178-2.391m9.585-.047H39.767a4.389,4.389,0,0,1,0,2.433h6.192a3.926,3.926,0,0,1,0-2.433m2.486,2.157a1.19,1.19,0,0,0,1.732-1.62c-.988-1.379-2.822.524-1.732,1.62m10.341-2.157H52.593a3.52,3.52,0,0,1,0,2.433h6.192Zm3.256.037c-1.441.22-1.294,2.472.15,2.4a1.2,1.2,0,1,0-.15-2.4" transform="translate(0 -15.421)" fill="#b8fafd"/>
          <path id="Path_885719" data-name="Path 885719" d="M54.029,9.422v8.183c2.761-.263,2.521,1.37,2.432,3.539,4.079-.555,8.806,1.622,9.29,6.079a37.377,37.377,0,0,1-.1,6.754c-.429,1.621-2.66,3.064-4.266,2.151-1.2-2.356,1.733-1.511,2.11-3.2a16.434,16.434,0,0,0-.506-6.7c-.431-.978-2.281-2.653-3.318-2.653H56.461c-.093,1.044.424,3.019-.872,3.441-2.981-.048-6.5.4-9.425.111-2.087-.2-1.288-1.988-1.424-3.552H41.534c-1.146,0-3.014,1.676-3.469,2.723a20.7,20.7,0,0,0-.353,6.849c.3,1.314,1.869.78,2.281,1.715.838,1.9-3.253,2.327-4.367-.513-.71-1.809-.512-6.517.1-8.4,1.237-3.821,5.327-5.182,9.018-4.8l.109-2.877a2.2,2.2,0,0,1,2.1-.663V9.422H20.194v3.87a4.113,4.113,0,0,1-.941.828,37.81,37.81,0,0,1-7.109.146c-.486-.07-1.459-.413-1.459-.974V9.422H.844c-.721,0-.721-2.211,0-2.211h69c.722,0,.722,2.211,0,2.211Zm-36.267,0H13.118v2.433h4.644Zm34.055,3.539V9.755c-.583-.63-1.642-.232-2.432-.332v3.539Zm0,2.432H49.384v2.214h2.435Zm2.21,4.645H46.952v4.644h7.076Z" transform="translate(-0.108 -2.567)" fill="#b8fafd"/>
          <path id="Path_885720" data-name="Path 885720" d="M61.713,52.409c.245-1.216,2.043-1.916,2.206-2.659.348-1.589-.406-1.063-.827-1.482S62.668,42.5,63.023,42a1.815,1.815,0,0,1,1.227-.542,60.075,60.075,0,0,1,8.64-.005c1.07.1,1.52.3,1.652,1.444a28.987,28.987,0,0,1-.01,4.642c-.2,1.039-1.6.617-1.052,2.394.174.57,2.164,1.572,2.164,2.7v5.418h8.514c1.168,0,3.256,2.018,3.768,3.088.746,1.56.753,6.461.545,8.3a5.952,5.952,0,0,1-5.034,4.918,46.675,46.675,0,0,1-7.694.068,1.233,1.233,0,0,1-.384-2.4c1.767-.507,5.758.225,7.895-.066,3.529-.48,3.256-5.354,3.014-8.061a3.641,3.641,0,0,0-3.649-3.649l-30.514-.012c-1.155.07-1.405-1.853-.41-2.146,2.931-.345,6.391.3,9.254-.033.322-.037.569-.027.763-.343.214-1.555-.291-3.862,0-5.307m10.393-8.514H65.03c.1.791-.3,1.849.332,2.433h6.745ZM71,48.539H66.356a4.843,4.843,0,0,1-.4,2.587c-.368.714-2.034,1.8-2.034,1.946v4.976H73.1l.332-.332v-4.2c0-.865-1.016-1.046-1.442-1.433A4.22,4.22,0,0,1,71,48.539" transform="translate(-18.185 -14.704)" fill="#b8fafd"/>
          <path id="Path_885721" data-name="Path 885721" d="M25.993,60.782c.027.654-.774,1.186-.856,1.709-.1.617.695,1.164.317,1.836L18.186,76.859c-.665.556-1.4.044-1.464.086-.28.178-1.3,2.86-2.017,3.4-.961.726-1.376-.071-2.3-.309-.621.147-2,4.87-3.616,3.247-1.061-1.064,1.1-3.407,1.442-4.483l-1.5-1.553c-.1-.99,1.532-2.542,1.738-3.367.178-.712-.563-.97-.372-1.652l7.642-12.95c1.407.182,1.592-.8,2.191-1.806l-.008-.234c-1.4-.31-2.256-2.571-.458-2.67,1.654-.091,7.021,4.126,8.945,4.785,1.369,2.17-.831,2.649-2.417,1.426m-2.007-1.306L22.148,58.6c-.5.1-.959,1.507-1.245,1.953l2.07.908ZM22.658,64.12,18.8,61.9l-1.22,2.079c1.419.579,2.575,1.75,4.068,2.129Zm-6.268,1.986-1,1.832c.741.87,3.059,1.276,2.311,2.8s-2.614-.218-3.544-.61l-1.2,1.8,3.824,2.332,3.673-5.843ZM12.5,74.714l-.87,1.851c.082.477,1.468.915,1.866,1.224l1.2-1.862Z" transform="translate(-3.027 -19.429)" fill="#b8fafd"/>
          <path id="Path_885722" data-name="Path 885722" d="M.837,0H39.315a2.172,2.172,0,0,1,.77.989c.009.31-.586,1.222-.77,1.222H.837C.229,2.211-.023.3.837,0" transform="translate(-0.101)" fill="#b8fafd"/>
          <path id="Path_885723" data-name="Path 885723" d="M66.348,0H93.106c.721,0,.721,2.211,0,2.211H66.348c-.725,0-1.121-1.845,0-2.211" transform="translate(-23.374)" fill="#b8fafd"/>
          <path id="Path_885724" data-name="Path 885724" d="M18.877,21.7a9.54,9.54,0,0,1,5.581,1.15c1.043.566,3.875,2.625,1.658,3.454-1.133.424-1.51-.652-2.251-1.091a7.141,7.141,0,0,0-7.889,0c-.773.443-1.321,1.583-2.58.959s.156-2.025.78-2.538a10.155,10.155,0,0,1,4.7-1.933" transform="translate(-4.589 -7.707)" fill="#b8fafd"/>
          <path id="Path_885725" data-name="Path 885725" d="M34.033,84.039c3.258-2.377,2.206,4.64,1.938,6.25-.354.354-5.365.418-5.986.231a1.25,1.25,0,0,1,.4-2.39h3.649Z" transform="translate(-10.408 -29.748)" fill="#b8fafd"/>
          <path id="Path_885726" data-name="Path 885726" d="M9.652,60.44v4.091c-3.258,2.377-2.206-4.64-1.938-6.25.4-.4,5.255-.4,5.931-.176,1.4.458.643,2.335-.124,2.335Z" transform="translate(-2.613 -20.635)" fill="#b8fafd"/>
          <path id="Path_885727" data-name="Path 885727" d="M18.428,30.324c.879-1.044,3.135-1.415,4.434-1.139,1.665.354,3.914,2.079,1.551,3.232-.817.086-1.507-1.054-2.623-1.052-1.037,0-1.9,1.072-2.566,1a1.252,1.252,0,0,1-.8-2.045" transform="translate(-6.458 -10.36)" fill="#b8fafd"/>
          <path id="Path_885728" data-name="Path 885728" d="M20.745,98.216h4.644c.721,0,.721,2.211,0,2.211H20.745a1.356,1.356,0,0,1,0-2.211" transform="translate(-7.183 -34.97)" fill="#b8fafd"/>
          <path id="Path_885729" data-name="Path 885729" d="M22.516,36.4c1.81-.623,2.461,1.475,1.176,2.059-1.614.733-2.348-1.656-1.176-2.059" transform="translate(-7.812 -12.918)" fill="#b8fafd"/>
          <path id="Path_885730" data-name="Path 885730" d="M14.968,51.066c1.1-1.09,3,.744,1.62,1.732a1.19,1.19,0,0,1-1.62-1.732" transform="translate(-5.221 -18.063)" fill="#b8fafd"/>
          <path id="Path_885731" data-name="Path 885731" d="M7.725,51.082c.9-.9,2.738.358,1.737,1.626-.924,1.169-2.9-.45-1.737-1.626" transform="translate(-2.623 -18.079)" fill="#b8fafd"/>
          <path id="Path_885732" data-name="Path 885732" d="M76.147,62.4c-.178-.177-.142-.6-.32-.782-.361-.361-1.445-.247-1.025-1.664.034-.113,1.514-1.654,1.611-1.72a.912.912,0,0,1,.847-.171c.439.086,2.483,1.961,2.122,2.682-.783.708-2.115,2.774-3.235,1.655" transform="translate(-26.599 -20.662)" fill="#b8fafd"/>
        </g>
      </g>
    </g>
  </g>
</svg>
