<svg xmlns="http://www.w3.org/2000/svg" xmlns:xlink="http://www.w3.org/1999/xlink" width="85" height="85" viewBox="0 0 85 85">
  <defs>
    <clipPath id="clip-path">
      <rect id="Rectangle_404010" data-name="Rectangle 404010" width="68.541" height="68.541" transform="translate(0.371 0)" fill="#fff" stroke="#707070" stroke-width="1"/>
    </clipPath>
    <clipPath id="clip-path-2">
      <rect id="Rectangle_405892" data-name="Rectangle 405892" width="64.837" height="61.748" fill="#fff"/>
    </clipPath>
  </defs>
  <g id="Group_1111602" data-name="Group 1111602" transform="translate(-285.34 -5337)">
    <rect id="Rectangle_404009" data-name="Rectangle 404009" width="85" height="85" transform="translate(285.34 5337)" fill="#005865"/>
    <g id="Mask_Group_1098861" data-name="Mask Group 1098861" transform="translate(293.34 5345)" clip-path="url(#clip-path)">
      <g id="Group_1111386" data-name="Group 1111386" transform="translate(1.371 3)">
        <g id="Group_1111385" data-name="Group 1111385" clip-path="url(#clip-path-2)">
          <path id="Path_885767" data-name="Path 885767" d="M191.462,21.681a1.992,1.992,0,0,0,.551.338l28.079-.08a1.622,1.622,0,0,0,.854-1.419c.49-4.317-.358-9.536-.009-13.949-.373-2.346-4-.506-3.883-2.432.07-1.123,1.849-1,2.676-.905A3.642,3.642,0,0,1,222.9,6.555c.41,4.595-.32,9.792-.006,14.453.183.61-.981,1.862-.981,2.109s1.245,1.606.987,2.266v35.4a3.574,3.574,0,0,1-3.327,3.327H192.292a3.766,3.766,0,0,1-3.113-2.406c-.486-11.947-.064-24.005-.214-35.993a4.025,4.025,0,0,1,1.134-2.591,4.15,4.15,0,0,1-1.129-2.272c.3-4.567-.393-9.62-.005-14.127a3.733,3.733,0,0,1,3.17-3.484l16.8.085a1,1,0,0,1-.394,1.871c-5.064.339-10.772-.479-15.759-.015-1.71.159-2.033,1.391-1.789,2.938.9.292,1.709.044,2.637.446a3.1,3.1,0,0,1,1.6,1.811,34.869,34.869,0,0,1,.083,5.936,2.9,2.9,0,0,1-2.375,2.657c-.453.061-1.741-.125-1.943.167a3.171,3.171,0,0,0,.472,2.551m-.544-4.65c.689-.054,1.956.256,2.315-.526a24.8,24.8,0,0,0,0-5.6,1.657,1.657,0,0,0-2.312-.447Zm1.251,7.176a1.832,1.832,0,0,0-1.233,1.689c-.288,2.368.175,5.191-.019,7.61l.266.383c1.85-.18,3.427.226,4.044,2.124-.134,3.987.426,8.5.079,12.432a3.083,3.083,0,0,1-2.073,2.634c-.553.112-2.136-.177-2.294.3.148,2.818-.275,5.972-.029,8.749a1.91,1.91,0,0,0,1.187,1.9l26.987.131a1.917,1.917,0,0,0,1.738-1.022l.131-35.269a1.758,1.758,0,0,0-.99-1.607Zm-1.251,24.962c.831-.043,2.155.294,2.4-.765-.188-3.639.368-7.751.043-11.335a1.343,1.343,0,0,0-.494-1.129l-1.948-.081Z" transform="translate(-158.192 -2.66)" fill="#fff"/>
          <path id="Path_885768" data-name="Path 885768" d="M16.658,131.759v2.84c0,1.681-3.11,4.245-3.646,5.606a6.894,6.894,0,0,0-.124,1.337,2.579,2.579,0,0,1-2.472,1.91,56.231,56.231,0,0,1-7.96-.006c-2.186-.237-2.609-2.073-2.361-3.985a.961.961,0,0,1,1.833-.355c.265.631.04,1.317.146,1.964l.243.243,8.509-.048c.317-.589.03-1.169.279-1.831.475-1.265,2.681-3,3.288-4.5.693-1.72-.091-3.473.776-5.229.83-1.682,4.15-3.506,4.093-5.321a2.039,2.039,0,0,0-3.172-1.548c-1.639,1.135-3.984,4.669-5.59,5.447a1.856,1.856,0,0,1-2.192-.261,5.573,5.573,0,0,1-.414-.722v-9.5c-.383-.1-.274.1-.371.208-1.287,1.456-4.494,4.31-5.151,5.875-.947,2.254.008,8.1-.317,10.882-.136,1.163-1.145,1.479-1.867.561.062-3.283-.373-7.054-.091-10.309.335-3.858,5.38-7.125,7.614-10.078.378-.684.078-1.509.193-2.241.222-1.406,1.937-.842,1.937-.335v13.715c.383.1.274-.1.371-.208.714-.807,1.476-1.548,2.214-2.33-.311-.576-.949-1.119-1.088-1.8a3.26,3.26,0,0,1,2.968-4.1,52.375,52.375,0,0,1,7.933.016c4.561.553,3.536,7.1-1.038,6.474v1.3h5.356V101c0-.292-1.084-1.353-1.538-1.221l-13.762.042c-1.994.408-1.112,2.562-1.452,3.742a.991.991,0,0,1-1.879-.163c-.518-2.254.409-5.2,2.982-5.551,4.651.287,9.852-.43,14.438-.021a3.554,3.554,0,0,1,3.087,2.757l.079,27.528c-.421,5.651-8.116,3.06-11.856,3.645m-2.152-12.134c-1.481.247-1.715,1.55-.526,2.393a4.339,4.339,0,0,1,5.461-.913c.4.25.817.84,1.2.912.854.163,2.345.171,2.5-.9s-.422-1.393-1.39-1.511a43.821,43.821,0,0,0-7.246.02m12.053,7.914H19.823c-.621.756-1.66,1.367-2.029,2.272h7.385c.827,0,1.624-1.484,1.38-2.272" transform="translate(0 -81.843)" fill="#fff"/>
          <path id="Path_885769" data-name="Path 885769" d="M74.429,6.212c-.987.937-1.976-.963-2.551-1.5a9.939,9.939,0,0,0-12.741-.723c-.884.69-2.167,2.943-3.26,2.278-1.621-.987,1.867-3.748,2.7-4.3a11.669,11.669,0,0,1,13.25.194c.871.608,3.813,2.9,2.6,4.051" transform="translate(-46.451 0)" fill="#fff"/>
          <path id="Path_885770" data-name="Path 885770" d="M84.742,29.779a7.357,7.357,0,0,1,5.468,2.227c.444.528.99,1.172.549,1.851-.915,1.41-2.307-.885-3.116-1.394a4.867,4.867,0,0,0-5.546.36c-.643.5-1.336,1.817-2.36,1.214-.889-.524.068-1.865.572-2.353a7.691,7.691,0,0,1,4.434-1.905" transform="translate(-66.49 -24.941)" fill="#fff"/>
          <path id="Path_885771" data-name="Path 885771" d="M79.252,144.813c.83-.059,2,.033,2.128,1.054,0,1.494-3.8,1.644-4.079-.645-.1-.856-.212-2.758,1.048-2.68,1.119.07.916,1.5.9,2.27" transform="translate(-64.705 -119.405)" fill="#fff"/>
          <path id="Path_885772" data-name="Path 885772" d="M124.227,144.874l1.91.362c1,1.993-1.926,2.13-3.053,1.35-1.054-.729-1.308-3.733.126-3.959,1.155-.182,1.081,1.516,1.018,2.247" transform="translate(-102.376 -119.466)" fill="#fff"/>
          <path id="Path_885773" data-name="Path 885773" d="M79.226,187.876c.859-.055,2.138-.128,2.123,1.059-.019,1.546-3.826,1.454-4.074-.65-.111-.94-.23-2.657,1.059-2.669,1.066-.01.924,1.547.892,2.26" transform="translate(-64.68 -155.488)" fill="#fff"/>
          <path id="Path_885774" data-name="Path 885774" d="M124.235,187.875c.812-.025,1.995-.171,2.109.907.186,1.763-3.2,1.477-3.856.11-.4-.822-.489-3.072.729-3.264,1.155-.182,1.08,1.516,1.018,2.247" transform="translate(-102.384 -155.487)" fill="#fff"/>
          <path id="Path_885775" data-name="Path 885775" d="M106.15,61.632c2.226-.288,2.585,3.163.429,3.377s-2.553-3.1-.429-3.377" transform="translate(-87.745 -51.614)" fill="#fff"/>
          <path id="Path_885776" data-name="Path 885776" d="M104.633,117.056c-1.229-2.183,2.695-2.369,2.371-.569-.187,1.041-1.625.9-2.371.569" transform="translate(-87.449 -96.556)" fill="#fff"/>
          <path id="Path_885777" data-name="Path 885777" d="M332.071,4.84c-1.147-1.089.8-2.461,1.752-1.509,1.147,1.144-.844,2.372-1.752,1.509" transform="translate(-277.878 -2.522)" fill="#fff"/>
          <path id="Path_885778" data-name="Path 885778" d="M49.461,153.755c1.377-.15,1.483,2.3.129,2.392-1.382.091-1.4-2.254-.129-2.392" transform="translate(-40.654 -128.793)" fill="#fff"/>
          <path id="Path_885779" data-name="Path 885779" d="M258.459,159.62c2.762-.33,4.4,1.9,4.589,4.417.286,3.836-.568,9.08,0,12.657.085.533.913,1.4,1.158,2.089,1.122,3.16-.821,7.186-4.331,7.579-5.787.649-8.588-5.311-5.121-9.666.261-4.167-.322-8.7,0-12.821.171-2.184,1.419-3.982,3.7-4.255m-.169,2.107a2.214,2.214,0,0,0-1.558,2.174c-.475,4.26.315,9.27-.024,13.61-1.183,1.5-2.077,3.179-1,5.069a3.686,3.686,0,0,0,6.851-2.308c-.155-1.5-1.435-2.036-1.609-3.259l-.051-13.907a2.063,2.063,0,0,0-2.6-1.379" transform="translate(-212.137 -133.684)" fill="#fff"/>
          <path id="Path_885780" data-name="Path 885780" d="M326.3,213.426c.866-.154,3.364-.164,2.935,1.305-.308,1.056-3.568,1.036-3.835.167a1.024,1.024,0,0,1,.9-1.473" transform="translate(-272.516 -178.728)" fill="#fff"/>
          <path id="Path_885781" data-name="Path 885781" d="M326.244,170.257c.672-.148,2.679-.215,3.011.492.874,1.858-2.961,1.749-3.749.988-.155-.68-.018-1.314.738-1.481" transform="translate(-272.626 -142.543)" fill="#fff"/>
          <path id="Path_885782" data-name="Path 885782" d="M326.137,256.387a7.637,7.637,0,0,1,2.327.038c1.019.31,1.095,1.679.068,1.871a13.133,13.133,0,0,1-2.837-.076c-.612-.3-.477-1.63.441-1.832" transform="translate(-272.519 -214.713)" fill="#fff"/>
          <path id="Path_885783" data-name="Path 885783" d="M325.957,192.455a2,2,0,0,1,1.51.2c.608,1.135-.309,2-1.472,1.635-.855-.269-.983-1.629-.038-1.838" transform="translate(-272.5 -161.168)" fill="#fff"/>
          <path id="Path_885784" data-name="Path 885784" d="M327.442,235.66a1.1,1.1,0,0,1-.224,1.565c-1.628.923-2.372-1.114-1.577-1.616a2.222,2.222,0,0,1,1.8.051" transform="translate(-272.518 -197.229)" fill="#fff"/>
          <path id="Path_885785" data-name="Path 885785" d="M275.894,229a1.4,1.4,0,0,0,.217-.84c.231-2.7-.189-5.711,0-8.443a.933.933,0,0,1,1.778,0l0,8.925c.079.408.785.567,1.012,1.26,1.177,3.586-4.254,3.832-4.055.727.065-1.017.62-1.1,1.048-1.629" transform="translate(-230.231 -183.51)" fill="#fff"/>
        </g>
      </g>
    </g>
  </g>
</svg>
