<svg xmlns="http://www.w3.org/2000/svg" xmlns:xlink="http://www.w3.org/1999/xlink" width="147" height="147" viewBox="0 0 147 147">
  <defs>
    <clipPath id="clip-path">
      <rect id="Rectangle_400938" data-name="Rectangle 400938" width="147" height="147" fill="none"/>
    </clipPath>
    <clipPath id="clip-path-2">
      <rect id="Rectangle_401492" data-name="Rectangle 401492" width="78.518" height="78.519" transform="translate(2.586 3.366)" fill="#b8fafd" stroke="#707070" stroke-width="1"/>
    </clipPath>
    <clipPath id="clip-path-3">
      <rect id="Rectangle_405886" data-name="Rectangle 405886" width="70.387" height="72.665" fill="#b8fafd"/>
    </clipPath>
  </defs>
  <g id="Group_1109297" data-name="Group 1109297" transform="translate(-310 -7635)">
    <g id="Group_1102000" data-name="Group 1102000" transform="translate(448.975 7781.705) rotate(180)">
      <path id="Path_874029" data-name="Path 874029" d="M626.466,575.286l-64.987-36.674V465.259l64.987-36.677,64.987,36.677v73.354Zm-62.05-38.332,62.05,35.019,62.05-35.019V466.916l-62.05-35.022-62.05,35.022Z" transform="translate(-561.479 -428.582)" fill="#2bc897"/>
      <path id="Path_874030" data-name="Path 874030" d="M574.458,477v66.873l59.374,33.436L693.2,543.876V477l-59.373-33.436Z" transform="translate(-568.844 -437.087)" fill="#005865"/>
    </g>
    <g id="Mask_Group_1098697" data-name="Mask Group 1098697" transform="translate(341.414 7663.634)" clip-path="url(#clip-path-2)">
      <g id="Group_1111369" data-name="Group 1111369" transform="translate(6.596 6.946)">
        <g id="Group_1111368" data-name="Group 1111368" clip-path="url(#clip-path-3)">
          <path id="Path_885733" data-name="Path 885733" d="M7.927,20.856H9.851V10.7c0-.446.923-1.089,1.4-1.164,2.924-.457,6.893.314,9.932-.013v-4.6a4.116,4.116,0,0,1,.734-.977l17.333-.194c1.664.58,1.111,2.213,1.181,3.631H55.51a4.379,4.379,0,0,1,.873.624c.787.988-.033,4.624.4,6.019.451.648,3.087-.656,3.329,1.586.1.928-.2,4.617.093,5.043l2.259.2V1.074c0-.432.7-.91,1.166-.973A36.752,36.752,0,0,1,69.4.126c.44.068.923.238.977.734l.012,70.8c.034.63-.434.851-.989.936a43.7,43.7,0,0,1-6.3-.091,2.913,2.913,0,0,1-.64-.857V68.119H7.927v3.529a2.914,2.914,0,0,1-.64.857,43.7,43.7,0,0,1-6.3.091C.436,72.511-.032,72.29,0,71.66L.014.86C.067.364.551.194.991.126A36.755,36.755,0,0,1,6.761.1c.463.063,1.166.541,1.166.973ZM5.788,2.251H2.152V70.472H5.788V39.141c0-.651,2.139-.846,2.139.214V56.571H9.638V42.991a3.184,3.184,0,0,1,1.181-.958c.9-.171,3.908.24,4.393-.1.717-2.187-.955-4.209,2.256-4.588a95.219,95.219,0,0,1,14.088-.021c.692.07,2.249.551,2.249,1.387v6.523H36.37V40.424c0-.259.941-1.163,1.386-.963,5.177.351,10.95-.465,16.054-.01.778.069,1.808.5,1.808,1.4v8.875h3.315c.51,0,1.818.873,1.818,1.39v5.453h1.711V32.4H7.927c.141,1.62.093,4.605-2.139,2.887Zm62.447,0H64.6V70.472h3.636ZM38.295,5.886H23.324V9.522a1.9,1.9,0,0,1,2.139,1.39v9.944H38.295ZM54.548,9.522H40.433V20.856h5.988V15.4a4.573,4.573,0,0,1,.962-1.176h7.164ZM23.324,11.66H11.99v9.2H23.324v-1.5h-3.1c-2.093,0-2.05-3.046-1.713-4.5.117-.5.8-1.276,1.285-1.276h3.529Zm0,4.062H20.543l.094,1.3c.289.421,2.109.105,2.688.2Zm34.644.429H48.881l-.321.321v4.384c.866-.189,2.677.077,2.322,1.343a3.258,3.258,0,0,1-.718.8H7.927v1.5H62.461v-1.5H54.227c-.7,0-.7-2.139,0-2.139H57.97Zm4.491,10.479H7.927v3.636H62.461ZM22.576,39.462H17.55v2.567c.1.1,2.323-.112,2.844.043a4.468,4.468,0,0,1,1.006.919v13.58h3.315c.866-.8-.47-3.4,1.283-3.4s.417,2.6,1.283,3.4H38.295v-1.5h-3.1a5.19,5.19,0,0,1-1.278-.646c-.645-.736-.623-5.128.851-5.128h3.529V47.375H27.174c-.505.985.379,3.2-1.177,3.19-.254,0-.962-.362-.962-.517V46.2a4.573,4.573,0,0,1,1.176-.962h5.453V39.462H29.953c.019,1.151.167,3.172-1.124,3.688a17.085,17.085,0,0,1-4.333.168c-2.733-.322-.979-3.564-1.92-3.854m5.24,1.712c-.04-.43.156-1.369-.2-1.618l-2.581-.094v1.713Zm25.662.427H38.508v3.636c.475-.249,1.925.653,1.925.962V56.25l.321.321h6.309V50.9c0-.7,2.043-1.1,2.112-1.2.184-.281-.061-3.4.023-4.147a1.149,1.149,0,0,1,2.142-.638v4.812h2.139ZM14.556,44.167h-2.78v12.4h7.485v-12.4H16.695v4.17c0,1.4-2.139,1.281-2.139.642ZM38.3,51.437H35.727v1.5H38.3Zm20.316.429H49.2v4.7h9.41Zm3.849,6.843H7.927v1.5H62.461Zm0,3.636H7.927v3.636H62.461Z" transform="translate(0 0)" fill="#b8fafd"/>
          <path id="Path_885734" data-name="Path 885734" d="M160.065,40.945a1.166,1.166,0,0,1,1.164-.542,1.212,1.212,0,0,1,.878.853,33.243,33.243,0,0,1,0,6.437c-.4,1.319-2.042.821-2.042.31Z" transform="translate(-125.834 -31.744)" fill="#b8fafd"/>
          <path id="Path_885735" data-name="Path 885735" d="M144.326,40.216c2.107-.921,1.953,3.483.99,3.774-2.268.684-1.767-3.506-.99-3.774" transform="translate(-112.946 -31.516)" fill="#b8fafd"/>
          <path id="Path_885736" data-name="Path 885736" d="M135.551,226.406c2.03-.613,2.084,2.314.432,2.062-1.11-.169-1.44-1.758-.432-2.062" transform="translate(-106.087 -177.921)" fill="#b8fafd"/>
          <path id="Path_885737" data-name="Path 885737" d="M135.712,240.318c1.929-.669,2.19,2.29.4,2.11-1.056-.106-1.291-1.8-.4-2.11" transform="translate(-106.256 -188.846)" fill="#b8fafd"/>
          <path id="Path_885738" data-name="Path 885738" d="M215.276,207.443c2.268-.684,1.768,3.506.99,3.774-2.107.921-1.953-3.483-.99-3.774" transform="translate(-168.704 -163.02)" fill="#b8fafd"/>
          <path id="Path_885739" data-name="Path 885739" d="M213.551,49.406c2.03-.612,2.084,2.314.432,2.062-1.11-.169-1.44-1.758-.432-2.062" transform="translate(-167.406 -38.774)" fill="#b8fafd"/>
          <path id="Path_885740" data-name="Path 885740" d="M229.551,49.406c2.03-.612,2.084,2.314.432,2.062-1.11-.169-1.44-1.758-.432-2.062" transform="translate(-179.985 -38.774)" fill="#b8fafd"/>
          <path id="Path_885741" data-name="Path 885741" d="M65.29,59.4a1.087,1.087,0,1,1,.552,2.063A1.087,1.087,0,0,1,65.29,59.4" transform="translate(-50.799 -46.633)" fill="#b8fafd"/>
          <path id="Path_885742" data-name="Path 885742" d="M66.451,73.595c.916.913-.567,2.6-1.655,1.548-1.107-1.075.685-2.514,1.655-1.548" transform="translate(-50.664 -57.606)" fill="#b8fafd"/>
        </g>
      </g>
    </g>
  </g>
</svg>
