<svg xmlns="http://www.w3.org/2000/svg" xmlns:xlink="http://www.w3.org/1999/xlink" width="70" height="70" viewBox="0 0 70 70">
  <defs>
    <clipPath id="clip-path">
      <rect id="Rectangle_405448" data-name="Rectangle 405448" width="40.057" height="40.077" fill="#006543"/>
    </clipPath>
  </defs>
  <g id="Group_1109778" data-name="Group 1109778" transform="translate(-268.711 -957.7)">
    <circle id="Ellipse_5614" data-name="Ellipse 5614" cx="35" cy="35" r="35" transform="translate(268.711 957.7)" fill="#fff"/>
    <g id="Group_1110753" data-name="Group 1110753" transform="translate(283.711 972.7)">
      <g id="Group_1110752" data-name="Group 1110752" clip-path="url(#clip-path)">
        <path id="Path_884711" data-name="Path 884711" d="M15.077.033A16.122,16.122,0,0,1,28.314,26.647c.248.179,1,1.167,1.253,1.1l1.987-1.96,7.627,7.64a4.112,4.112,0,0,1-5.905,5.659l-7.508-7.513,1.96-1.987c.067-.255-.92-1-1.1-1.253A16.335,16.335,0,0,1,19.053,32,16.135,16.135,0,1,1,15.077.033m.246,3.284A12.838,12.838,0,1,0,28.348,20.036,12.855,12.855,0,0,0,15.323,3.317" transform="translate(0 -0.001)" fill="#006543"/>
        <path id="Path_884712" data-name="Path 884712" d="M78.454,69.06a10.462,10.462,0,1,0,9.655,15.976A10.5,10.5,0,0,0,78.454,69.06m-6.56,6.178h9.851v2.408H71.894Zm8.9,10h-8.9V82.827h8.9Zm3.94-3.5H71.894V79.324H84.736Zm.876-2.271a6.407,6.407,0,0,0-5-6.2,6.481,6.481,0,0,1-1.4-.243V70.76a8.749,8.749,0,0,1,8.784,8.7Z" transform="translate(-63.13 -63.363)" fill="#006543"/>
      </g>
    </g>
  </g>
</svg>
