<svg xmlns="http://www.w3.org/2000/svg" xmlns:xlink="http://www.w3.org/1999/xlink" width="147" height="147" viewBox="0 0 147 147">
  <defs>
    <clipPath id="clip-path">
      <rect id="Rectangle_400938" data-name="Rectangle 400938" width="147" height="147" fill="none"/>
    </clipPath>
    <clipPath id="clip-path-2">
      <rect id="Rectangle_401492" data-name="Rectangle 401492" width="78.518" height="78.519" transform="translate(2.297 3.278)" fill="#b8fafd" stroke="#707070" stroke-width="1"/>
    </clipPath>
    <clipPath id="clip-path-3">
      <rect id="Rectangle_405887" data-name="Rectangle 405887" width="70.593" height="69.826" fill="#b8fafd"/>
    </clipPath>
  </defs>
  <g id="Group_1109298" data-name="Group 1109298" transform="translate(-310 -7635)">
    <g id="Group_1102000" data-name="Group 1102000" transform="translate(448.975 7781.705) rotate(180)">
      <path id="Path_874029" data-name="Path 874029" d="M626.466,575.286l-64.987-36.674V465.259l64.987-36.677,64.987,36.677v73.354Zm-62.05-38.332,62.05,35.019,62.05-35.019V466.916l-62.05-35.022-62.05,35.022Z" transform="translate(-561.479 -428.582)" fill="#2bc897"/>
      <path id="Path_874030" data-name="Path 874030" d="M574.458,477v66.873l59.374,33.436L693.2,543.876V477l-59.373-33.436Z" transform="translate(-568.844 -437.087)" fill="#005865"/>
    </g>
    <g id="Mask_Group_1098697" data-name="Mask Group 1098697" transform="translate(341.414 7665.634)" clip-path="url(#clip-path-2)">
      <g id="Group_1111371" data-name="Group 1111371" transform="translate(6.297 7.279)">
        <g id="Group_1111370" data-name="Group 1111370" clip-path="url(#clip-path-3)">
          <path id="Path_885743" data-name="Path 885743" d="M0,39.514a3.439,3.439,0,0,1,.537-1.852L5.3,30.224c.124-.192.7-.781.857-.781H16.664V2.961c0-1.7,1.69-2.735,3.109-2.847,4.571-.361,9.574.269,14.191.024A2.947,2.947,0,0,1,36.356,1.9a8.848,8.848,0,0,1,.3,1.06V5.954h3.7a3.334,3.334,0,0,1,2.131,1.427c.58,1.028.589,4.808.142,5.894-.143.347-.756.971-.757,1.2.44.565,1.167,1.987,1.81,2.08,2.312.336,5.742-.447,7.944.027A3.055,3.055,0,0,1,53.432,18.2c.056.129.327.981.327,1.035V29.443H64.264c.179,0,.709.6.857.781,1.922,2.41,3.461,5.946,5.308,8.5.584,1.02-.5,3-1.528,3H65.35V48.4a3.12,3.12,0,0,1-.352.855,1.405,1.405,0,0,1-2.546-.855V41.724H41.224a4.5,4.5,0,0,1-1.376-.845L36.66,35.891V66.9H62.452V60.07a2.848,2.848,0,0,1,.649-1.154c1.217-.933,2.147.321,2.255,1.608.115,1.372.15,6.165-.224,7.3a3.109,3.109,0,0,1-2.478,1.98l-54.617.022a3.207,3.207,0,0,1-2.965-2.845V41.724H1.521a1,1,0,0,1-.508-.2A2.4,2.4,0,0,1,0,39.514ZM33.762,3.038h-14.2V29.443h5.651V20.769a12.71,12.71,0,0,1,.33-1.646c.48-1.655,2.038-3.147,2.988-4.525.086-.343-.571-.919-.737-1.323-.459-1.114-.448-4.949.2-5.991a3.442,3.442,0,0,1,2.077-1.33h3.7Zm6.376,8.9V9.1l-.217-.23H30.5l-.217.23v2.84ZM28.111,21h14.2L42,19.412l-3.339-4.52h-6.9C30.7,16.928,28.173,18.581,28.111,21m22.75-1.535H44.919c.6,3.249.152,6.671.29,9.979H50.86Zm-8.549,4.452h-14.2v5.527h14.2ZM32.6,32.36H7.317L3.333,38.808h25.14Zm34.487,6.448L63.1,32.36H37.819l4.13,6.448ZM33.762,66.9V36.044c-1.222,1.24-2.08,3.62-3.189,4.835a4.5,4.5,0,0,1-1.376.845H7.969V66.9Z" transform="translate(0 0)" fill="#b8fafd"/>
          <path id="Path_885744" data-name="Path 885744" d="M408.518,343.765c1.749-.378,2.32,2.438.8,2.852-2.182.595-2.326-2.522-.8-2.852" transform="translate(-344.945 -290.961)" fill="#b8fafd"/>
          <path id="Path_885745" data-name="Path 885745" d="M82.427,397.346a1.55,1.55,0,0,1-1.18,2.556c-3.2-.32-7.163.433-10.276-.014-1.879-.27-1.8-2.668-.439-2.894,3.5.319,7.751-.456,11.155-.016a1.252,1.252,0,0,1,.74.368" transform="translate(-58.859 -335.917)" fill="#b8fafd"/>
          <path id="Path_885746" data-name="Path 885746" d="M70.74,358.555a12.96,12.96,0,0,1,3.991.154,1.491,1.491,0,0,1-.265,2.719,20.694,20.694,0,0,1-4.229-.107c-1.055-.478-.806-2.485.5-2.766" transform="translate(-58.897 -303.439)" fill="#b8fafd"/>
        </g>
      </g>
    </g>
  </g>
</svg>
