<svg xmlns="http://www.w3.org/2000/svg" xmlns:xlink="http://www.w3.org/1999/xlink" width="147" height="147" viewBox="0 0 147 147">
  <defs>
    <clipPath id="clip-path">
      <rect id="Rectangle_400938" data-name="Rectangle 400938" width="147" height="147" fill="none"/>
    </clipPath>
    <clipPath id="clip-path-2">
      <rect id="Rectangle_401492" data-name="Rectangle 401492" width="78.518" height="78.519" transform="translate(2.586 3.366)" fill="#b8fafd" stroke="#707070" stroke-width="1"/>
    </clipPath>
    <clipPath id="clip-path-3">
      <rect id="Rectangle_401491" data-name="Rectangle 401491" width="36.674" height="46.126" fill="#b8fafd"/>
    </clipPath>
    <clipPath id="clip-path-4">
      <rect id="Rectangle_401491-2" data-name="Rectangle 401491" width="36.674" height="46.125" fill="#b8fafd"/>
    </clipPath>
  </defs>
  <g id="Group_1108952" data-name="Group 1108952" transform="translate(-310 -7635)">
    <g id="Group_1102000" data-name="Group 1102000" transform="translate(448.975 7781.705) rotate(180)">
      <path id="Path_874029" data-name="Path 874029" d="M626.466,575.286l-64.987-36.674V465.259l64.987-36.677,64.987,36.677v73.354Zm-62.05-38.332,62.05,35.019,62.05-35.019V466.916l-62.05-35.022-62.05,35.022Z" transform="translate(-561.479 -428.582)" fill="#2bc897"/>
      <path id="Path_874030" data-name="Path 874030" d="M574.458,477v66.873l59.374,33.436L693.2,543.876V477l-59.373-33.436Z" transform="translate(-568.844 -437.087)" fill="#005865"/>
    </g>
    <g id="Mask_Group_1098697" data-name="Mask Group 1098697" transform="translate(341.414 7665.634)" clip-path="url(#clip-path-2)">
      <g id="Group_1100236" data-name="Group 1100236" transform="translate(42.672 17.059)">
        <g id="Group_1100235" data-name="Group 1100235" transform="translate(0 0.001)" clip-path="url(#clip-path-3)">
          <path id="Path_873786" data-name="Path 873786" d="M32.628,37.1h.314c.639,0,1.277-.018,1.915-.007a1.2,1.2,0,0,1,.547.126.886.886,0,0,1,.429.852,8.239,8.239,0,0,1-1.452,4.711,7.3,7.3,0,0,1-4.707,3.2,7.026,7.026,0,0,1-1.395.139q-11.722.012-23.444,0A4.553,4.553,0,0,1,.476,43.17a5.462,5.462,0,0,1-.434-1.953C.014,40.778,0,40.337,0,39.9Q0,21.558.009,3.218A4.5,4.5,0,0,1,.233,1.744,2.456,2.456,0,0,1,2.646,0h25.53a2.494,2.494,0,0,1,1.831.707,2.8,2.8,0,0,1,.831,1.948c.008.179.008.358.008.537q0,9.423,0,18.846a.423.423,0,0,0,.137.283,10.777,10.777,0,0,0,4.722,2.269,1.761,1.761,0,0,1,.418.13.77.77,0,0,1,.441.629,15.256,15.256,0,0,1,.11,1.585,13.887,13.887,0,0,1-3.155,9.109c-.286.347-.6.665-.9,1l.01.061m-9.259-9.064c0-.554-.014-1.077,0-1.6a7.743,7.743,0,0,1,.115-1.126.78.78,0,0,1,.66-.674c.224-.041.447-.088.671-.133a8.924,8.924,0,0,0,4.259-2.168.488.488,0,0,0,.124-.314c.011-.365-.007-.73-.007-1.095q.005-9.03.016-18.06c0-.588-.279-1.067-.961-1.056-1.568.026-3.136.008-4.7.008h-21a.792.792,0,0,0-.857.788,2.938,2.938,0,0,0-.02.432q0,18.886,0,37.773a5.927,5.927,0,0,0,.076.923,3.047,3.047,0,0,0,2.47,2.552,2.869,2.869,0,0,0,3.16-2.072,5.174,5.174,0,0,0,.159-1.654c0-.833,0-1.667.007-2.5a.871.871,0,0,1,.82-.963,2.174,2.174,0,0,1,.265-.014l18.474.011c.108,0,.216-.016.371-.029a13.751,13.751,0,0,1-3.828-7.225c-.064,0-.119-.01-.175-.01H12.891a3.6,3.6,0,0,1-.416-.019.885.885,0,0,1-.78-.88.908.908,0,0,1,.778-.87,4.453,4.453,0,0,1,.511-.026q4.884,0,9.768,0h.617M34.142,38.865h-.364q-5.177,0-10.354,0-7.017,0-14.034,0c-.167,0-.217.05-.214.233.01.7.013,1.391,0,2.087a5.092,5.092,0,0,1-.991,3.033.4.4,0,0,0-.031.091H8.38q10.1,0,20.2,0a3.762,3.762,0,0,0,.718-.053,6.213,6.213,0,0,0,4.847-5.385m-9.091-12.6a13.258,13.258,0,0,0,.2,3.234,11.634,11.634,0,0,0,4.518,7.266c.252.189.257.192.512,0a11.774,11.774,0,0,0,4.744-10.328c0-.156-.052-.208-.187-.243a12.123,12.123,0,0,1-3.751-1.672c-.358-.24-.705-.5-1.057-.751a10.839,10.839,0,0,1-4.978,2.494" transform="translate(0 -0.001)" fill="#b8fafd"/>
          <path id="Path_873787" data-name="Path 873787" d="M38.851,38.955H28.763a2.427,2.427,0,0,1-.3-.012.889.889,0,0,1-.833-1q-.005-4.876,0-9.751a.9.9,0,0,1,.892-1c.183-.012.366,0,.55,0q9.956,0,19.912,0a1.883,1.883,0,0,1,.451.048.954.954,0,0,1,.688.9c0,.068,0,.138,0,.206q0,4.721,0,9.441c0,.779-.331,1.16-1.052,1.163-2,.008-3.995,0-5.992,0H38.851m9.593-9.985H47.372q-8.943,0-17.885,0c-.184,0-.231.051-.231.252q.01,3.874,0,7.748c0,.158.04.2.18.194,1.144-.007,2.289-.006,3.433-.007l15.363,0c.067,0,.135-.006.211-.01Z" transform="translate(-23.417 -22.676)" fill="#b8fafd"/>
          <path id="Path_873788" data-name="Path 873788" d="M33.417,172.186c0,.681-.027,1.364.007,2.044a1,1,0,0,1-1.064,1.152c-.758,0-1.516,0-2.274,0-.556,0-1.112-.01-1.666-.039a.85.85,0,0,1-.8-.913q-.014-2.24,0-4.48a.832.832,0,0,1,.784-.9c.195-.019.391-.013.587-.014,1.105,0,2.211,0,3.317,0a1.839,1.839,0,0,1,.523.067.883.883,0,0,1,.594.879q0,1.1,0,2.209m-1.676-1.359c-.792,0-1.563,0-2.334,0-.138,0-.167.056-.166.2.008.792.007,1.584.01,2.376a1.507,1.507,0,0,0,.015.15h2.475Z" transform="translate(-23.402 -140.995)" fill="#b8fafd"/>
          <path id="Path_873789" data-name="Path 873789" d="M33.433,117.749q0,1.105,0,2.21a.854.854,0,0,1-.853.939q-2.029,0-4.057,0a.851.851,0,0,1-.893-.956q-.01-2.189,0-4.378a.859.859,0,0,1,.89-.947c1.327,0,2.654,0,3.981,0a.851.851,0,0,1,.84.516.865.865,0,0,1,.087.349c.008.757,0,1.515,0,2.272m-1.678-1.3a.633.633,0,0,0-.08-.011c-.758,0-1.515,0-2.273-.014-.147,0-.143.082-.142.2,0,.729,0,1.458.007,2.187,0,.087,0,.173,0,.261h2.488Z" transform="translate(-23.417 -95.604)" fill="#b8fafd"/>
          <path id="Path_873790" data-name="Path 873790" d="M83.794,114.622q3.053,0,6.106,0a1.489,1.489,0,0,1,.356.041.895.895,0,0,1,.064,1.666,2,2,0,0,1-.594.107q-5.812.009-11.623,0a3.044,3.044,0,0,1-.677-.071.936.936,0,0,1-.7-.923.907.907,0,0,1,.886-.821c1.125,0,2.25,0,3.375,0h2.806Z" transform="translate(-65.036 -95.612)" fill="#b8fafd"/>
          <path id="Path_873791" data-name="Path 873791" d="M81.309,196.365q1.839,0,3.679,0a.871.871,0,0,1,.876,1,.854.854,0,0,1-.574.742,1.625,1.625,0,0,1-.466.076q-3.328.007-6.656,0a6.176,6.176,0,0,1-.662-.039.892.892,0,0,1,.087-1.778q1.858,0,3.717,0" transform="translate(-65.034 -163.798)" fill="#b8fafd"/>
          <path id="Path_873792" data-name="Path 873792" d="M81.342,143.357H77.626a.8.8,0,0,1-.74-.447.821.821,0,0,1,.227-1.118,1.41,1.41,0,0,1,.707-.244c2.338-.018,4.676-.013,7.014-.006a1.505,1.505,0,0,1,.5.106.88.88,0,0,1,.558,1.017.83.83,0,0,1-.814.69c-1.131,0-2.262,0-3.393,0h-.341" transform="translate(-65.067 -118.062)" fill="#b8fafd"/>
          <path id="Path_873793" data-name="Path 873793" d="M180.2,170.531c.39-.427.768-.84,1.145-1.255.4-.435.782-.88,1.187-1.3a.8.8,0,0,1,1.392.382.923.923,0,0,1-.265.913c-.28.317-.57.625-.856.935q-.966,1.049-1.934,2.1a.891.891,0,0,1-.676.359.685.685,0,0,1-.516-.215c-.414-.443-.835-.881-1.237-1.337a.928.928,0,0,1-.072-1.166.8.8,0,0,1,1.2-.089c.21.207.4.434.631.68" transform="translate(-151.051 -139.878)" fill="#b8fafd"/>
        </g>
      </g>
      <g id="Group_1110747" data-name="Group 1110747" transform="translate(4.586 17.06)">
        <g id="Group_1100235-2" data-name="Group 1100235" transform="translate(0 0)" clip-path="url(#clip-path-4)">
          <path id="Path_873786-2" data-name="Path 873786" d="M4.047,37.1H3.733c-.639,0-1.277-.018-1.915-.007a1.2,1.2,0,0,0-.547.126.886.886,0,0,0-.429.852,8.238,8.238,0,0,0,1.452,4.711A7.3,7.3,0,0,0,7,45.979a7.026,7.026,0,0,0,1.395.139q11.722.012,23.444,0A4.553,4.553,0,0,0,36.2,43.17a5.462,5.462,0,0,0,.434-1.953c.028-.439.041-.88.041-1.32q0-18.339-.007-36.679a4.5,4.5,0,0,0-.224-1.474A2.456,2.456,0,0,0,34.029,0H8.5A2.494,2.494,0,0,0,6.667.709a2.8,2.8,0,0,0-.831,1.948c-.008.179-.008.358-.008.537q0,9.423,0,18.846a.423.423,0,0,1-.137.283A10.777,10.777,0,0,1,.968,24.591a1.761,1.761,0,0,0-.418.13.77.77,0,0,0-.441.629A15.257,15.257,0,0,0,0,26.935a13.886,13.886,0,0,0,3.155,9.109c.286.347.6.665.9,1l-.01.061m9.259-9.064c0-.554.014-1.077,0-1.6a7.743,7.743,0,0,0-.115-1.126.78.78,0,0,0-.66-.674c-.224-.041-.447-.088-.671-.133A8.924,8.924,0,0,1,7.6,22.337a.488.488,0,0,1-.124-.314c-.011-.365.007-.73.007-1.095q-.005-9.03-.016-18.06c0-.588.279-1.067.961-1.056,1.568.026,3.136.008,4.7.008h21a.792.792,0,0,1,.857.788A2.938,2.938,0,0,1,35,3.04q0,18.886,0,37.772a5.926,5.926,0,0,1-.076.923,3.047,3.047,0,0,1-2.47,2.552,2.869,2.869,0,0,1-3.16-2.072,5.173,5.173,0,0,1-.159-1.654c0-.833,0-1.667-.007-2.5a.871.871,0,0,0-.82-.963,2.176,2.176,0,0,0-.265-.014L9.568,37.1c-.108,0-.216-.016-.371-.029a13.751,13.751,0,0,0,3.828-7.225c.064,0,.119-.01.175-.01H23.784a3.594,3.594,0,0,0,.416-.019.885.885,0,0,0,.78-.88.908.908,0,0,0-.778-.87,4.453,4.453,0,0,0-.511-.026q-4.884,0-9.768,0h-.617M2.533,38.865H2.9q5.177,0,10.354,0,7.017,0,14.034,0c.167,0,.217.05.214.233-.01.7-.013,1.391,0,2.087a5.092,5.092,0,0,0,.991,3.033.4.4,0,0,1,.031.091h-.223q-10.1,0-20.2,0a3.762,3.762,0,0,1-.718-.053,5.878,5.878,0,0,1-4.364-3.577,5.834,5.834,0,0,1-.484-1.808m9.091-12.6a13.258,13.258,0,0,1-.2,3.234,11.634,11.634,0,0,1-4.518,7.266c-.252.189-.257.192-.512,0A11.774,11.774,0,0,1,1.651,26.441c0-.156.052-.208.187-.243a12.123,12.123,0,0,0,3.751-1.672c.358-.24.705-.5,1.057-.751a10.839,10.839,0,0,0,4.978,2.494" transform="translate(0 -0.001)" fill="#b8fafd"/>
          <path id="Path_873787-2" data-name="Path 873787" d="M38.9,38.955H48.986a2.426,2.426,0,0,0,.3-.012.889.889,0,0,0,.833-1q.005-4.876,0-9.751a.9.9,0,0,0-.892-1c-.183-.012-.367,0-.55,0q-9.956,0-19.912,0a1.883,1.883,0,0,0-.451.048.954.954,0,0,0-.688.9c0,.068,0,.138,0,.206q0,4.721,0,9.441c0,.779.331,1.16,1.052,1.163,2,.008,3.995,0,5.992,0H38.9M29.3,28.97h1.072q8.943,0,17.885,0c.184,0,.231.051.231.252q-.01,3.874,0,7.748c0,.158-.04.2-.18.194-1.144-.007-2.289-.006-3.433-.007l-15.363,0c-.067,0-.135-.006-.211-.01Z" transform="translate(-17.658 -22.676)" fill="#b8fafd"/>
          <path id="Path_873788-2" data-name="Path 873788" d="M27.616,172.186c0,.681.027,1.364-.007,2.044a1,1,0,0,0,1.064,1.152c.758,0,1.516,0,2.274,0,.556,0,1.112-.01,1.666-.038a.85.85,0,0,0,.8-.913q.014-2.24,0-4.48a.832.832,0,0,0-.784-.9c-.195-.019-.391-.013-.587-.014-1.105,0-2.211,0-3.317,0a1.839,1.839,0,0,0-.523.067.883.883,0,0,0-.594.879q0,1.1,0,2.209m1.676-1.359c.792,0,1.563,0,2.334,0,.138,0,.167.056.166.2-.008.792-.007,1.584-.01,2.376a1.507,1.507,0,0,1-.015.15H29.292Z" transform="translate(-0.957 -140.995)" fill="#b8fafd"/>
          <path id="Path_873789-2" data-name="Path 873789" d="M27.626,117.749q0,1.105,0,2.21a.854.854,0,0,0,.853.939q2.029,0,4.057,0a.851.851,0,0,0,.893-.956q.01-2.189,0-4.378a.859.859,0,0,0-.89-.947c-1.327,0-2.654,0-3.981,0a.851.851,0,0,0-.84.516.865.865,0,0,0-.087.349c-.008.757,0,1.515,0,2.272m1.678-1.3a.634.634,0,0,1,.08-.011c.758,0,1.515,0,2.273-.014.147,0,.143.082.142.2,0,.729,0,1.458-.007,2.187,0,.087,0,.173,0,.261H29.3Z" transform="translate(-0.967 -95.604)" fill="#b8fafd"/>
          <path id="Path_873790-2" data-name="Path 873790" d="M83.787,114.622q-3.053,0-6.106,0a1.49,1.49,0,0,0-.356.041.895.895,0,0,0-.064,1.666,2,2,0,0,0,.594.107q5.812.009,11.623,0a3.045,3.045,0,0,0,.677-.071.936.936,0,0,0,.7-.923.907.907,0,0,0-.886-.821c-1.125,0-2.25,0-3.375,0H83.787Z" transform="translate(-65.87 -95.612)" fill="#b8fafd"/>
          <path id="Path_873791-2" data-name="Path 873791" d="M81.276,196.365q-1.839,0-3.679,0a.871.871,0,0,0-.876,1,.854.854,0,0,0,.574.742,1.626,1.626,0,0,0,.466.076q3.328.007,6.656,0a6.188,6.188,0,0,0,.662-.039.892.892,0,0,0-.087-1.778q-1.858,0-3.717,0" transform="translate(-60.877 -163.798)" fill="#b8fafd"/>
          <path id="Path_873792-2" data-name="Path 873792" d="M81.321,143.357h3.715a.8.8,0,0,0,.74-.447.821.821,0,0,0-.227-1.118,1.411,1.411,0,0,0-.707-.244c-2.338-.018-4.676-.013-7.014-.006a1.505,1.505,0,0,0-.5.106.88.88,0,0,0-.558,1.017.83.83,0,0,0,.814.69c1.131,0,2.262,0,3.393,0h.341" transform="translate(-60.922 -118.063)" fill="#b8fafd"/>
          <path id="Path_884693" data-name="Path 884693" d="M3.446,1.371l2.827-.119A.687.687,0,0,0,6.85.917a.518.518,0,0,0-.14-.77A1.066,1.066,0,0,0,6.179,0C4.4.063,2.622.142.843.222A1.3,1.3,0,0,0,.46.312a.664.664,0,0,0-.455.724.556.556,0,0,0,.6.453c.861-.034,1.721-.072,2.582-.108l.26-.011" transform="translate(4.013 31.513) rotate(-47)" fill="#b8fafd"/>
          <path id="Path_884694" data-name="Path 884694" d="M3.472,1.383,6.278,1.5a.559.559,0,0,0,.546-.289.577.577,0,0,0-.2-.79A1.208,1.208,0,0,0,6.078.23C4.312.142,2.546.071.781,0A1.163,1.163,0,0,0,.407.059.557.557,0,0,0,.016.753a.683.683,0,0,0,.635.509c.854.039,1.709.073,2.563.11l.258.011" transform="translate(9.159 32.52) rotate(-138)" fill="#b8fafd"/>
          <path id="Path_873793-2" data-name="Path 873793" d="M181.9,170.259" transform="translate(-174.371 -139.606)" fill="#b8fafd"/>
        </g>
      </g>
    </g>
  </g>
</svg>
