<svg xmlns="http://www.w3.org/2000/svg" xmlns:xlink="http://www.w3.org/1999/xlink" width="70" height="70" viewBox="0 0 70 70">
  <defs>
    <clipPath id="clip-path">
      <rect id="Rectangle_405450" data-name="Rectangle 405450" width="36.44" height="40.947" fill="#006543"/>
    </clipPath>
  </defs>
  <g id="Group_1109780" data-name="Group 1109780" transform="translate(-268.711 -957.7)">
    <circle id="Ellipse_5614" data-name="Ellipse 5614" cx="35" cy="35" r="35" transform="translate(268.711 957.7)" fill="#fff"/>
    <g id="Group_1110757" data-name="Group 1110757" transform="translate(286.271 972.577)">
      <g id="Group_1110756" data-name="Group 1110756" clip-path="url(#clip-path)">
        <path id="Path_884715" data-name="Path 884715" d="M27.712,19.229a11.643,11.643,0,0,0-12.149,6.814,12.235,12.235,0,0,0-.174,9.14h-14A1.6,1.6,0,0,1,0,33.705V1.6C.051.619.773.2,1.677.12,7.2.413,13.112-.258,18.593.119a2.252,2.252,0,0,1,1.383.432l7.308,7.308a2.974,2.974,0,0,1,.428.814ZM7.053,3.108A1.45,1.45,0,0,0,6.94,5.944h9.445a1.452,1.452,0,0,0-.193-2.851Zm0,5.827a1.45,1.45,0,0,0-.112,2.837h9.445a1.452,1.452,0,0,0-.193-2.851Zm13.088,0a1.458,1.458,0,0,0-.113,2.837,1.458,1.458,0,1,0,.113-2.837M7.053,14.762A1.45,1.45,0,0,0,6.94,17.6h9.445a1.452,1.452,0,0,0-.193-2.851Zm13.088,0a1.458,1.458,0,0,0-.113,2.837,1.458,1.458,0,1,0,.113-2.837" transform="translate(0 0)" fill="#006543"/>
        <path id="Path_884716" data-name="Path 884716" d="M177.233,215.181a10.208,10.208,0,1,1-7.088,16.488,10.23,10.23,0,0,1,7.088-16.488m-.193,2.959a7.384,7.384,0,0,0-5.713,4.7,7.293,7.293,0,0,0,10.694,8.688c6.559-4.047,3.1-14.3-4.981-13.388" transform="translate(-151.928 -194.587)" fill="#006543"/>
        <path id="Path_884717" data-name="Path 884717" d="M234.742,279.1c1.346-.185,3.331.169,2.8,1.989-.358,1.231-1.817.958-2.8.971.03.911.162,2.6-1.024,2.844-1.938.4-2.058-1.418-1.936-2.844-.986.009-2.526.223-2.825-1.043-.425-1.8,1.5-2.078,2.825-1.917-.14-1.217,0-3.034,1.661-2.86,1.423.149,1.371,1.786,1.3,2.86" transform="translate(-207.03 -249.84)" fill="#006543"/>
      </g>
    </g>
  </g>
</svg>
