<svg xmlns="http://www.w3.org/2000/svg" xmlns:xlink="http://www.w3.org/1999/xlink" width="100.499" height="150" viewBox="0 0 100.499 150">
  <defs>
    <clipPath id="clip-path">
      <rect id="Rectangle_403416" data-name="Rectangle 403416" width="71.683" height="58.902" fill="#59c4c8"/>
    </clipPath>
    <clipPath id="clip-path-2">
      <path id="Path_875268" data-name="Path 875268" d="M1.1,22.912,0,23.293v7.9a5.187,5.187,0,0,0,2.421,4.17L29.988,55.009a10.8,10.8,0,0,0,11.707,0L69.263,35.37a5.21,5.21,0,0,0,2.42-4.1c0-.066,0-.132,0-.2h0V23.367l-1.728-1.185C69.468,25.819,66,28.217,63.1,28.715L43.345,42.969l-8.621,3.841L7.207,29.288l.636-.453c-2.351-1.356-3.618-4.456-4.89-7.285Z" transform="translate(0 -21.549)" fill="#61dfe4"/>
    </clipPath>
    <clipPath id="clip-path-3">
      <rect id="Rectangle_403409" data-name="Rectangle 403409" width="71.683" height="58.902" fill="none"/>
    </clipPath>
    <clipPath id="clip-path-4">
      <rect id="Rectangle_403408" data-name="Rectangle 403408" width="35.842" height="34.45" fill="none"/>
    </clipPath>
    <clipPath id="clip-path-5">
      <path id="Path_875270" data-name="Path 875270" d="M26.3,6.628,3.311,23.549c1.272,2.829,2.539,5.929,4.89,7.285L34.324,12.221a3.459,3.459,0,0,1,3.749,0L63.74,30.508l-.285.207c2.9-.5,6.37-2.9,6.858-6.533L41.508,4.411,33.126,1.678Z" transform="translate(-3.311 -1.678)" fill="#61dfe4"/>
    </clipPath>
    <clipPath id="clip-path-7">
      <rect id="Rectangle_403411" data-name="Rectangle 403411" width="32.888" height="29.156" fill="none"/>
    </clipPath>
    <clipPath id="clip-path-8">
      <path id="Path_875272" data-name="Path 875272" d="M33.967,46.513,6.4,26.872a1.539,1.539,0,0,1,0-2.672L33.966,4.56a3.457,3.457,0,0,1,3.749,0L65.283,24.2a1.538,1.538,0,0,1,0,2.671L37.716,46.512a3.458,3.458,0,0,1-3.749,0M35.736,0a10.166,10.166,0,0,0-5.749,1.725L2.421,21.365c-3.227,2.3-3.227,6.041,0,8.341L29.989,49.347a10.793,10.793,0,0,0,11.707,0L69.263,29.706c3.227-2.3,3.227-6.041,0-8.341L41.695,1.725A10.166,10.166,0,0,0,35.946,0Z" transform="translate(-0.001)" fill="#2bc897"/>
    </clipPath>
    <clipPath id="clip-path-10">
      <path id="Path_875275" data-name="Path 875275" d="M33.322,46.995,5.755,27.355a2.178,2.178,0,0,1,0-3.782L33.321,3.934a4.894,4.894,0,0,1,5.307,0L66.195,23.574a2.177,2.177,0,0,1,0,3.781L38.628,46.995a4.894,4.894,0,0,1-5.306,0M30.9,2.208,3.333,21.847c-2.8,1.994-2.8,5.239,0,7.232L30.9,48.722a9.367,9.367,0,0,0,10.151,0L68.617,29.08c2.8-1.992,2.8-5.237,0-7.231L41.049,2.208a9.359,9.359,0,0,0-10.151,0" transform="translate(-1.234 -0.712)" fill="#2bc897"/>
    </clipPath>
    <clipPath id="clip-path-11">
      <rect id="Rectangle_403518" data-name="Rectangle 403518" width="60.873" height="61.12" fill="#fff"/>
    </clipPath>
    <clipPath id="clip-path-12">
      <rect id="Rectangle_403232" data-name="Rectangle 403232" width="72.996" height="50.71" fill="#61dfe4"/>
    </clipPath>
    <clipPath id="clip-path-13">
      <rect id="Rectangle_405888" data-name="Rectangle 405888" width="35" height="34.958" fill="#005865"/>
    </clipPath>
  </defs>
  <g id="Group_1111616" data-name="Group 1111616" transform="translate(-810 -5038.949)">
    <rect id="Rectangle_404837" data-name="Rectangle 404837" width="85" height="150" transform="translate(810 5038.949)" fill="#b8fafd"/>
    <g id="Group_1111606" data-name="Group 1111606">
      <g id="Group_1109429" data-name="Group 1109429" transform="translate(838.258 5077.449)">
        <g id="Group_1100744" data-name="Group 1100744" transform="translate(0.004 14.098)">
          <g id="Group_1100514" data-name="Group 1100514" clip-path="url(#clip-path)">
            <g id="Group_1100495" data-name="Group 1100495" transform="translate(0 23.717)">
              <g id="Group_1100494" data-name="Group 1100494" clip-path="url(#clip-path-2)">
                <path id="Path_875399" data-name="Path 875399" d="M0,0,71.633-6.175l-7.76,81.049L-7.76,81.049Z" transform="translate(-12.548 26.819) rotate(-60)" fill="#61dfe4"/>
              </g>
            </g>
            <g id="Group_1100500" data-name="Group 1100500" transform="translate(0 0)">
              <g id="Group_1100499" data-name="Group 1100499" clip-path="url(#clip-path-3)">
                <g id="Group_1100498" data-name="Group 1100498" transform="translate(35.841 24.452)" opacity="0.3">
                  <g id="Group_1100497" data-name="Group 1100497">
                    <g id="Group_1100496" data-name="Group 1100496" clip-path="url(#clip-path-4)">
                      <path id="Path_875269" data-name="Path 875269" d="M67.442,28.647,47.689,42.9l-7.5,3.344V56.667a10.2,10.2,0,0,0,5.854-1.725L73.606,35.3a5.208,5.208,0,0,0,2.42-4.1c0-.066,0-.133,0-.2l0,0V23.3l-1.58-1.084h-.165c-.539,3.58-3.968,5.937-6.841,6.431" transform="translate(-40.185 -22.217)" fill="#0f054c"/>
                    </g>
                  </g>
                </g>
              </g>
            </g>
            <g id="Group_1100502" data-name="Group 1100502" transform="translate(2.953 1.847)">
              <g id="Group_1100501" data-name="Group 1100501" clip-path="url(#clip-path-5)">
                <path id="Path_875400" data-name="Path 875400" d="M0,0,63.434-5.469,56.357,68.457-7.078,73.925Z" transform="matrix(0.5, -0.866, 0.866, 0.5, -10.231, 21.867)" fill="#61dfe4"/>
              </g>
            </g>
            <g id="Group_1100507" data-name="Group 1100507" transform="translate(0 0)">
              <g id="Group_1100506" data-name="Group 1100506" clip-path="url(#clip-path-3)">
                <g id="Group_1100505" data-name="Group 1100505" transform="translate(2.953 1.847)" opacity="0.3">
                  <g id="Group_1100504" data-name="Group 1100504">
                    <g id="Group_1100503" data-name="Group 1100503" clip-path="url(#clip-path-7)">
                      <path id="Path_875271" data-name="Path 875271" d="M36.2,2.68l-3.073-1L26.3,6.628,3.311,23.548c1.272,2.829,2.538,5.93,4.89,7.286L34.324,12.221A3.27,3.27,0,0,1,36.2,11.67Z" transform="translate(-3.311 -1.678)" fill="#0f054c"/>
                    </g>
                  </g>
                </g>
              </g>
            </g>
            <g id="Group_1100509" data-name="Group 1100509" transform="translate(0)">
              <g id="Group_1100508" data-name="Group 1100508" clip-path="url(#clip-path-8)">
                <rect id="Rectangle_403413" data-name="Rectangle 403413" width="73.296" height="51.647" transform="translate(-0.807 0)" fill="#2bc897"/>
              </g>
            </g>
            <g id="Group_1100511" data-name="Group 1100511" transform="translate(0 0)">
              <g id="Group_1100510" data-name="Group 1100510" clip-path="url(#clip-path-3)">
                <path id="Path_875273" data-name="Path 875273" d="M65.965,23.834,38.4,4.193a3.457,3.457,0,0,0-3.749,0L7.082,23.833A1.547,1.547,0,0,0,6.4,25.649a1.843,1.843,0,0,1,.686-.855L34.649,5.153a3.457,3.457,0,0,1,3.749,0L65.965,24.794a1.846,1.846,0,0,1,.686.856,1.546,1.546,0,0,0-.686-1.816" transform="translate(-0.682 0.367)" fill="#fff"/>
                <path id="Path_875274" data-name="Path 875274" d="M69.263,27.329,41.7,46.968a10.793,10.793,0,0,1-11.707,0L2.422,27.327A5.344,5.344,0,0,1,.03,23.637a5.047,5.047,0,0,0,2.392,4.651L29.989,47.929a10.8,10.8,0,0,0,11.707,0L69.263,28.288a5.045,5.045,0,0,0,2.391-4.65,5.344,5.344,0,0,1-2.391,3.69" transform="translate(0 2.379)" fill="#fff"/>
              </g>
            </g>
            <g id="Group_1100513" data-name="Group 1100513" transform="translate(1.1 0.784)">
              <g id="Group_1100512" data-name="Group 1100512" clip-path="url(#clip-path-10)">
                <rect id="Rectangle_403415" data-name="Rectangle 403415" width="70.881" height="50.002" transform="translate(-0.7 0)" fill="#2bc897"/>
              </g>
            </g>
          </g>
        </g>
        <g id="Group_1100749" data-name="Group 1100749" transform="translate(5.307)">
          <g id="Group_1100748" data-name="Group 1100748" clip-path="url(#clip-path-11)">
            <path id="Path_875398" data-name="Path 875398" d="M6.247,0H54.48A6.338,6.338,0,0,1,60.8,6.356l.14,34.756-26.7,18.94a7.554,7.554,0,0,1-7.744,0L-.145,41.219-.072,6.356A6.338,6.338,0,0,1,6.247,0" transform="translate(0.074 0)" fill="#fff"/>
          </g>
        </g>
        <g id="Group_1100745" data-name="Group 1100745" transform="translate(-0.755 6.578)">
          <g id="Group_1100096" data-name="Group 1100096" transform="translate(0 0)" clip-path="url(#clip-path-12)">
            <path id="Path_873771" data-name="Path 873771" d="M36.5,50.711a9.642,9.642,0,0,1-5.42-1.551L2.316,29.276A4.816,4.816,0,0,1,0,25.354a4.813,4.813,0,0,1,2.316-3.921L31.077,1.55a10.26,10.26,0,0,1,10.843,0L70.681,21.434A4.813,4.813,0,0,1,73,25.355a4.816,4.816,0,0,1-2.316,3.922L41.92,49.16A9.645,9.645,0,0,1,36.5,50.711M36.5.595a9.2,9.2,0,0,0-5.169,1.477L2.568,21.955A4.223,4.223,0,0,0,.5,25.354a4.22,4.22,0,0,0,2.064,3.4L31.331,48.638a9.785,9.785,0,0,0,10.337,0L70.429,28.755a4.22,4.22,0,0,0,2.064-3.4,4.22,4.22,0,0,0-2.064-3.4L41.667,2.072A9.2,9.2,0,0,0,36.5.595" transform="translate(0 -0.001)" fill="#61dfe4"/>
          </g>
        </g>
        <rect id="Rectangle_403516" data-name="Rectangle 403516" width="60.873" height="30.446" transform="translate(5.307 4.578)" fill="#fff"/>
      </g>
      <g id="Group_1109433" data-name="Group 1109433" transform="translate(855.17 5082.695)">
        <g id="Group_1099618" data-name="Group 1099618" transform="translate(-0.459 0)">
          <rect id="Rectangle_401104" data-name="Rectangle 401104" width="37.658" height="38.112" transform="translate(0)" fill="none"/>
        </g>
        <g id="Group_1111373" data-name="Group 1111373" transform="translate(1.541 1.555)">
          <g id="Group_1111372" data-name="Group 1111372" transform="translate(0 0)" clip-path="url(#clip-path-13)">
            <path id="Path_885747" data-name="Path 885747" d="M.531,54.619c-.645-.114-.737-1.125.3-1.222l33.63.054a.665.665,0,0,1,.473.669c.267,2.9-.209,6.206,0,9.149a.625.625,0,0,1-.515.628L.613,63.91C-.51,63.55.192,62.481,1.18,62.7l0-6.137c.036-.431.146-.793.646-.8l9.3,0a.622.622,0,0,1,.57.5V62.7h1.752V58.467c0-.336.629-.4.873-.422,2.66-.192,5.548.15,8.233,0,.2,0,.723.2.723.419V62.7h1.143V56.333a2.957,2.957,0,0,1,.175-.4.625.625,0,0,1,1.044.321V62.7h8.076V54.619Zm5.3,2.286H2.4v1.143H5.827Zm4.648,0H7.046v1.372a2.388,2.388,0,0,1,3.429-.076ZM8.55,58.674c-1.689.29-.847,3.066.786,2.158a1.165,1.165,0,0,0-.786-2.158m-2.723.592H2.4V60.41H5.827Zm10.515,0H14.589V60.41h1.752Zm2.9,0H17.485V60.41h1.752Zm2.9,0H20.38V60.41h1.752ZM10.475,61.4a2.332,2.332,0,0,1-3.429,0v1.3h3.429Zm-4.648.152H2.4V62.7H5.827Zm10.515,0H14.589V62.7h1.752Zm2.9,0H17.485V62.7h1.752Zm2.9,0H20.38V62.7h1.752Z" transform="translate(-0.02 -28.952)" fill="#005865"/>
            <path id="Path_885748" data-name="Path 885748" d="M3.549,4.6c.122-.906.974-1.436,1.109-2.091.179-.867-.416-2.341.754-2.446a15.217,15.217,0,0,1,2.215,0,.579.579,0,0,1,.565.5c.146.933-.331,2.085.576,2.775.866-.642.47-1.731.569-2.629A.638.638,0,0,1,9.986.064,15.357,15.357,0,0,1,12.41.082c.743.166.317,1.827.487,2.484.124.477.608.786.828,1.23a8.857,8.857,0,0,1,.259,3.389.575.575,0,0,1-1.1.047c-.2-.651.09-1.854-.067-2.6C12.678,4,11.7,3.372,11.7,2.618V1.285H10.559a4.961,4.961,0,0,1-.245,1.926c-.177.42-.973,1.2-.973,1.541V8.714l.114.114h5.677a10.614,10.614,0,0,1,.219-1.953c.212-.909.749-1.653.913-2.592.218-1.238.005-2.531.1-3.782.1-.33.306-.41.628-.439A14.741,14.741,0,0,1,19.279.07c.42.066.543.414.579.793.126,1.345-.208,2.745.187,4.08a3.492,3.492,0,0,1,.268.761c.186.054.2-.171.263-.307C21.3,3.743,20.8,2.278,21,.636a.587.587,0,0,1,.326-.512A14.93,14.93,0,0,1,23.857.064.705.705,0,0,1,24.5.79c.158,1.407-.238,2.862.226,4.27.124.376.382.775.518,1.158a6.944,6.944,0,0,1,.4,2.611h1.143V.485c0-.145.383-.466.569-.421,2.211.155,4.685-.2,6.863,0,.511.046.678.212.724.724.182,2.005-.14,4.289-.008,6.324-.114.715-1.181.674-1.139-.034H27.931V8.714l.114.114H34.6a1.441,1.441,0,0,1,.286.325.6.6,0,0,1-.513.819l-33.683,0A.589.589,0,0,1,.1,9.153a1.441,1.441,0,0,1,.286-.325H3.549Zm3.5-3.314H5.911a4.952,4.952,0,0,1-.245,1.926c-.177.42-.973,1.2-.973,1.541v1.1H8.2V4.676c0-.423-1.144-1.321-1.144-2.057Zm11.582,0H17.492V4.066c0,1.137-1.142,2.65-1.142,3.657v1.1h3.428V7.571c0-.937-1.143-2.405-1.143-3.657Zm4.648,0H22.141V2.962h1.143Zm10.438,0H27.932V2.428h5.791Zm0,2.286H27.932V5.857h5.791ZM21,7.724c-.038.349.026.749,0,1.1h3.39c.038,0,.125-.126.117-.19-.1-.509-.076-.972-.192-1.487-.224-1-.948-1.89-.954-2.971H22.065c-.011,1.242-.94,2.346-1.067,3.542M8.2,7.076h-3.5V8.714l.114.114H8.2Z" transform="translate(-0.029 0)" fill="#005865"/>
            <path id="Path_885749" data-name="Path 885749" d="M9.311,30.524H8.168v1.333c0,.722-1.143,1.666-1.143,2.057v4.153h3.429c-.206-1.54,1.464-1.557,1.219,0h1.143V32.695c0-.145.383-.466.57-.421,2.235.156,4.736-.2,6.939,0,.218.02.644.171.644.423v5.372h1.752v-3.39c0-.094-.614-.2-.613-.686,0-.4.31-.545.648-.575,1.49-.135,3.2.095,4.712.02a.572.572,0,0,1,.21,1.017.884.884,0,0,1-.308.109v3.5H29.2a3.681,3.681,0,0,1-.155-.8,22.017,22.017,0,0,1,.116-4.385,1.967,1.967,0,0,1,1.109-1.117c.141-.589-.358-2.259.421-2.382a15.793,15.793,0,0,1,2.437-.009c1.069.1.491,1.692.656,2.43a1.828,1.828,0,0,1,1.124,1.427,31.448,31.448,0,0,1,.009,4.263c-.012.24-.153.516-.146.686.006.149.146.266.149.453a.594.594,0,0,1-.44.556L.585,39.211c-1.138-.346-.437-1.412.573-1.144V34.219l.094-.592c.209-.952,1.041-1.22,1.128-2.224.04-.463-.179-1.772.244-1.966a17.36,17.36,0,0,1,2.689-.058c.455.052.528.317.569.727.086.865-.275,1.826.5,2.471.99-.579.5-1.864.644-2.772.047-.3.206-.392.489-.425a16.3,16.3,0,0,1,2.511.006c.835.137.365,1.866.536,2.512.1.39.591.753.789,1.116.279.513.632,2.475-.04,2.675-1.19.355-.737-1.345-.912-1.952-.153-.529-1.092-1.2-1.092-1.956Zm-4.648,0H3.521v1.333c0,.722-1.143,1.666-1.143,2.057v1.257H5.807V33.838c0-.3-1.143-1.336-1.143-2.057Zm27.887,0H31.408v1.143h1.143Zm1.143,4.648V33.152c0-.133-.434-.315-.578-.336a13.489,13.489,0,0,0-2.13-.01c-.226.021-.721.14-.721.422v1.943ZM16.321,33.419H13.959v1.143h2.362Zm3.429,0H17.464V35.7H19.75Zm6.4,1.143H23.865v3.5h2.286Zm-9.829,1.219H13.959v2.286h2.362Zm-10.515.533H2.378v1.752H5.807Zm27.887,0H30.265v1.334c0,.251.426.4.644.423a14.861,14.861,0,0,0,2.285-.008c.129-.021.5-.248.5-.339Zm-13.944.609H17.464v1.143H19.75Z" transform="translate(0 -15.905)" fill="#005865"/>
            <path id="Path_885750" data-name="Path 885750" d="M.484,24.287l33.817-.02a.581.581,0,0,1,.153,1.15H.54a.58.58,0,0,1-.056-1.13" transform="translate(-0.033 -13.157)" fill="#005865"/>
            <path id="Path_885751" data-name="Path 885751" d="M58.835,61.02c1.512.075,3.223-.156,4.712-.02.39.036.6.164.645.574a15.571,15.571,0,0,1,0,2.365.577.577,0,0,1-.571.571,32.222,32.222,0,0,1-4.577,0c-.336-.031-.582-.139-.64-.5a15.611,15.611,0,0,1-.006-2.435.583.583,0,0,1,.437-.553m4.213,1.2h-3.5v1.143h3.5Z" transform="translate(-31.64 -33.051)" fill="#005865"/>
          </g>
        </g>
      </g>
    </g>
  </g>
</svg>
