<svg xmlns="http://www.w3.org/2000/svg" xmlns:xlink="http://www.w3.org/1999/xlink" width="100.495" height="150" viewBox="0 0 100.495 150">
  <defs>
    <clipPath id="clip-path">
      <rect id="Rectangle_403416" data-name="Rectangle 403416" width="71.683" height="58.902" fill="#59c4c8"/>
    </clipPath>
    <clipPath id="clip-path-2">
      <path id="Path_875268" data-name="Path 875268" d="M1.1,22.912,0,23.293v7.9a5.187,5.187,0,0,0,2.421,4.17L29.988,55.009a10.8,10.8,0,0,0,11.707,0L69.263,35.37a5.21,5.21,0,0,0,2.42-4.1c0-.066,0-.132,0-.2h0V23.367l-1.728-1.185C69.468,25.819,66,28.217,63.1,28.715L43.345,42.969l-8.621,3.841L7.207,29.288l.636-.453c-2.351-1.356-3.618-4.456-4.89-7.285Z" transform="translate(0 -21.549)" fill="#61dfe4"/>
    </clipPath>
    <clipPath id="clip-path-3">
      <rect id="Rectangle_403409" data-name="Rectangle 403409" width="71.683" height="58.902" fill="none"/>
    </clipPath>
    <clipPath id="clip-path-4">
      <rect id="Rectangle_403408" data-name="Rectangle 403408" width="35.842" height="34.45" fill="none"/>
    </clipPath>
    <clipPath id="clip-path-5">
      <path id="Path_875270" data-name="Path 875270" d="M26.3,6.628,3.311,23.549c1.272,2.829,2.539,5.929,4.89,7.285L34.324,12.221a3.459,3.459,0,0,1,3.749,0L63.74,30.508l-.285.207c2.9-.5,6.37-2.9,6.858-6.533L41.508,4.411,33.126,1.678Z" transform="translate(-3.311 -1.678)" fill="#61dfe4"/>
    </clipPath>
    <clipPath id="clip-path-7">
      <rect id="Rectangle_403411" data-name="Rectangle 403411" width="32.888" height="29.156" fill="none"/>
    </clipPath>
    <clipPath id="clip-path-8">
      <path id="Path_875272" data-name="Path 875272" d="M33.967,46.513,6.4,26.872a1.539,1.539,0,0,1,0-2.672L33.966,4.56a3.457,3.457,0,0,1,3.749,0L65.283,24.2a1.538,1.538,0,0,1,0,2.671L37.716,46.512a3.458,3.458,0,0,1-3.749,0M35.736,0a10.166,10.166,0,0,0-5.749,1.725L2.421,21.365c-3.227,2.3-3.227,6.041,0,8.341L29.989,49.347a10.793,10.793,0,0,0,11.707,0L69.263,29.706c3.227-2.3,3.227-6.041,0-8.341L41.695,1.725A10.166,10.166,0,0,0,35.946,0Z" transform="translate(-0.001)" fill="#2bc897"/>
    </clipPath>
    <clipPath id="clip-path-10">
      <path id="Path_875275" data-name="Path 875275" d="M33.322,46.995,5.755,27.355a2.178,2.178,0,0,1,0-3.782L33.321,3.934a4.894,4.894,0,0,1,5.307,0L66.195,23.574a2.177,2.177,0,0,1,0,3.781L38.628,46.995a4.894,4.894,0,0,1-5.306,0M30.9,2.208,3.333,21.847c-2.8,1.994-2.8,5.239,0,7.232L30.9,48.722a9.367,9.367,0,0,0,10.151,0L68.617,29.08c2.8-1.992,2.8-5.237,0-7.231L41.049,2.208a9.359,9.359,0,0,0-10.151,0" transform="translate(-1.234 -0.712)" fill="#2bc897"/>
    </clipPath>
    <clipPath id="clip-path-11">
      <rect id="Rectangle_403518" data-name="Rectangle 403518" width="60.873" height="61.12" fill="#fff"/>
    </clipPath>
    <clipPath id="clip-path-12">
      <rect id="Rectangle_403232" data-name="Rectangle 403232" width="72.996" height="50.71" fill="#61dfe4"/>
    </clipPath>
    <clipPath id="clip-path-13">
      <rect id="Rectangle_405798" data-name="Rectangle 405798" width="37.399" height="37.399" fill="#005865"/>
    </clipPath>
  </defs>
  <g id="Group_1111613" data-name="Group 1111613" transform="translate(-180 -4868.949)">
    <rect id="Rectangle_404834" data-name="Rectangle 404834" width="85" height="150" transform="translate(180 4868.949)" fill="#b8fafd"/>
    <g id="Group_1111604" data-name="Group 1111604">
      <g id="Group_1109427" data-name="Group 1109427" transform="translate(208.254 4907.449)">
        <g id="Group_1100744" data-name="Group 1100744" transform="translate(0.004 14.098)">
          <g id="Group_1100514" data-name="Group 1100514" clip-path="url(#clip-path)">
            <g id="Group_1100495" data-name="Group 1100495" transform="translate(0 23.717)">
              <g id="Group_1100494" data-name="Group 1100494" clip-path="url(#clip-path-2)">
                <path id="Path_875399" data-name="Path 875399" d="M0,0,71.633-6.175l-7.76,81.049L-7.76,81.049Z" transform="translate(-12.548 26.819) rotate(-60)" fill="#61dfe4"/>
              </g>
            </g>
            <g id="Group_1100500" data-name="Group 1100500" transform="translate(0 0)">
              <g id="Group_1100499" data-name="Group 1100499" clip-path="url(#clip-path-3)">
                <g id="Group_1100498" data-name="Group 1100498" transform="translate(35.841 24.452)" opacity="0.3">
                  <g id="Group_1100497" data-name="Group 1100497">
                    <g id="Group_1100496" data-name="Group 1100496" clip-path="url(#clip-path-4)">
                      <path id="Path_875269" data-name="Path 875269" d="M67.442,28.647,47.689,42.9l-7.5,3.344V56.667a10.2,10.2,0,0,0,5.854-1.725L73.606,35.3a5.208,5.208,0,0,0,2.42-4.1c0-.066,0-.133,0-.2l0,0V23.3l-1.58-1.084h-.165c-.539,3.58-3.968,5.937-6.841,6.431" transform="translate(-40.185 -22.217)" fill="#0f054c"/>
                    </g>
                  </g>
                </g>
              </g>
            </g>
            <g id="Group_1100502" data-name="Group 1100502" transform="translate(2.953 1.847)">
              <g id="Group_1100501" data-name="Group 1100501" clip-path="url(#clip-path-5)">
                <path id="Path_875400" data-name="Path 875400" d="M0,0,63.434-5.469,56.357,68.457-7.078,73.925Z" transform="matrix(0.5, -0.866, 0.866, 0.5, -10.231, 21.867)" fill="#61dfe4"/>
              </g>
            </g>
            <g id="Group_1100507" data-name="Group 1100507" transform="translate(0 0)">
              <g id="Group_1100506" data-name="Group 1100506" clip-path="url(#clip-path-3)">
                <g id="Group_1100505" data-name="Group 1100505" transform="translate(2.953 1.847)" opacity="0.3">
                  <g id="Group_1100504" data-name="Group 1100504">
                    <g id="Group_1100503" data-name="Group 1100503" clip-path="url(#clip-path-7)">
                      <path id="Path_875271" data-name="Path 875271" d="M36.2,2.68l-3.073-1L26.3,6.628,3.311,23.548c1.272,2.829,2.538,5.93,4.89,7.286L34.324,12.221A3.27,3.27,0,0,1,36.2,11.67Z" transform="translate(-3.311 -1.678)" fill="#0f054c"/>
                    </g>
                  </g>
                </g>
              </g>
            </g>
            <g id="Group_1100509" data-name="Group 1100509" transform="translate(0)">
              <g id="Group_1100508" data-name="Group 1100508" clip-path="url(#clip-path-8)">
                <rect id="Rectangle_403413" data-name="Rectangle 403413" width="73.296" height="51.647" transform="translate(-0.807 0)" fill="#2bc897"/>
              </g>
            </g>
            <g id="Group_1100511" data-name="Group 1100511" transform="translate(0 0)">
              <g id="Group_1100510" data-name="Group 1100510" clip-path="url(#clip-path-3)">
                <path id="Path_875273" data-name="Path 875273" d="M65.965,23.834,38.4,4.193a3.457,3.457,0,0,0-3.749,0L7.082,23.833A1.547,1.547,0,0,0,6.4,25.649a1.843,1.843,0,0,1,.686-.855L34.649,5.153a3.457,3.457,0,0,1,3.749,0L65.965,24.794a1.846,1.846,0,0,1,.686.856,1.546,1.546,0,0,0-.686-1.816" transform="translate(-0.682 0.367)" fill="#fff"/>
                <path id="Path_875274" data-name="Path 875274" d="M69.263,27.329,41.7,46.968a9.878,9.878,0,0,1-4.163,1.6,10.471,10.471,0,0,1-7.544-1.6L2.422,27.327A5.344,5.344,0,0,1,.03,23.637a5.047,5.047,0,0,0,2.392,4.651L29.989,47.929a10.8,10.8,0,0,0,11.707,0L69.263,28.288a5.045,5.045,0,0,0,2.391-4.65,5.344,5.344,0,0,1-2.391,3.69" transform="translate(0 2.379)" fill="#fff"/>
              </g>
            </g>
            <g id="Group_1100513" data-name="Group 1100513" transform="translate(1.1 0.784)">
              <g id="Group_1100512" data-name="Group 1100512" clip-path="url(#clip-path-10)">
                <rect id="Rectangle_403415" data-name="Rectangle 403415" width="70.881" height="50.002" transform="translate(-0.7 0)" fill="#2bc897"/>
              </g>
            </g>
          </g>
        </g>
        <g id="Group_1100749" data-name="Group 1100749" transform="translate(5.307)">
          <g id="Group_1100748" data-name="Group 1100748" clip-path="url(#clip-path-11)">
            <path id="Path_875398" data-name="Path 875398" d="M6.247,0H54.48A6.338,6.338,0,0,1,60.8,6.356l.14,34.756-26.7,18.94a7.554,7.554,0,0,1-7.744,0L-.145,41.219-.072,6.356A6.338,6.338,0,0,1,6.247,0" transform="translate(0.074 0)" fill="#fff"/>
          </g>
        </g>
        <g id="Group_1100745" data-name="Group 1100745" transform="translate(-0.755 6.578)">
          <g id="Group_1100096" data-name="Group 1100096" transform="translate(0 0)" clip-path="url(#clip-path-12)">
            <path id="Path_873771" data-name="Path 873771" d="M36.5,50.711a9.642,9.642,0,0,1-5.42-1.551L2.316,29.276A4.816,4.816,0,0,1,0,25.354a4.813,4.813,0,0,1,2.316-3.921L31.077,1.55a10.26,10.26,0,0,1,10.843,0L70.681,21.434A4.813,4.813,0,0,1,73,25.355a4.816,4.816,0,0,1-2.316,3.922L41.92,49.16A9.645,9.645,0,0,1,36.5,50.711M36.5.595a9.2,9.2,0,0,0-5.169,1.477L2.568,21.955A4.223,4.223,0,0,0,.5,25.354a4.22,4.22,0,0,0,2.064,3.4L31.331,48.638a9.785,9.785,0,0,0,10.337,0L70.429,28.755a4.22,4.22,0,0,0,2.064-3.4,4.22,4.22,0,0,0-2.064-3.4L41.667,2.072A9.2,9.2,0,0,0,36.5.595" transform="translate(0 -0.001)" fill="#61dfe4"/>
          </g>
        </g>
        <rect id="Rectangle_403516" data-name="Rectangle 403516" width="60.873" height="30.446" transform="translate(5.307 4.578)" fill="#fff"/>
      </g>
      <g id="Group_1109431" data-name="Group 1109431" transform="translate(225.166 4912.695)">
        <g id="Group_1099618" data-name="Group 1099618" transform="translate(-0.455 0.305)">
          <rect id="Rectangle_401104" data-name="Rectangle 401104" width="37.658" height="38.112" transform="translate(0)" fill="none"/>
        </g>
        <g id="Group_1111225" data-name="Group 1111225" transform="translate(0.545 1.305)">
          <g id="Group_1111224" data-name="Group 1111224" clip-path="url(#clip-path-13)">
            <path id="Path_885554" data-name="Path 885554" d="M6.031,2.231H31.367V.623c0-.258.475-.508.729-.538a31.489,31.489,0,0,1,4.587,0,.736.736,0,0,1,.633.633,31.5,31.5,0,0,1,0,4.587c-.03.254-.28.729-.538.729H35.168V31.367h1.608c.258,0,.509.475.538.729a31.477,31.477,0,0,1,0,4.587.736.736,0,0,1-.633.633,31.5,31.5,0,0,1-4.587,0c-.254-.03-.729-.28-.729-.538V35.167H6.031v1.608c0,.258-.475.508-.729.538a31.5,31.5,0,0,1-4.587,0,.736.736,0,0,1-.633-.633,31.476,31.476,0,0,1,0-4.587c.03-.254.28-.729.538-.729H2.231V6.031H.623c-.258,0-.508-.475-.538-.729a31.49,31.49,0,0,1,0-4.587A.736.736,0,0,1,.715.082,31.49,31.49,0,0,1,5.3.085c.254.03.729.28.729.538ZM4.375,1.646H1.646V4.375H4.375Zm31.377,0H33.024V4.375h2.728ZM31.367,3.888H6.031V5.5a2.052,2.052,0,0,1-.536.536H3.888V31.367H5.5a2.052,2.052,0,0,1,.536.536v1.608H31.367V31.9a1.213,1.213,0,0,1,.536-.536h1.608V6.031H31.9a2.052,2.052,0,0,1-.536-.536ZM4.375,33.024H1.646v2.728H4.375Zm31.377,0H33.024v2.728h2.728Z" transform="translate(0 0)" fill="#005865"/>
            <path id="Path_885555" data-name="Path 885555" d="M64.048,63.09c.263.294.623.828,1.018.881H82.908c.395-.053.755-.587,1.018-.881-.384-.038-.84.054-1.212-.007a.787.787,0,0,1,.089-1.556,25.856,25.856,0,0,1,3.459.053.83.83,0,0,1,.4.577,21.484,21.484,0,0,1,0,3.128c-.041.466-.225.8-.744.817-1.05.044-.808-1.153-.821-1.845-.294.263-.828.623-.881,1.018l.007,17.933c.053.277.642.725.874.928.038-.384-.054-.84.007-1.212a.787.787,0,0,1,1.556.09,25.853,25.853,0,0,1-.053,3.459.83.83,0,0,1-.577.4,21.483,21.483,0,0,1-3.128,0c-.466-.041-.8-.225-.817-.744-.044-1.05,1.153-.808,1.845-.821-.263-.294-.623-.828-1.018-.881l-17.933.007c-.277.053-.725.642-.928.874.384.038.84-.054,1.212.007a.787.787,0,0,1-.089,1.556,25.854,25.854,0,0,1-3.459-.053.831.831,0,0,1-.4-.577,21.484,21.484,0,0,1,0-3.128c.041-.466.225-.8.744-.817,1.05-.044.808,1.153.821,1.845.232-.2.821-.651.874-.928l.008-17.836c-.009-.509-.551-.8-.882-1.115-.038.384.054.84-.007,1.212a.787.787,0,0,1-1.556-.089,22.69,22.69,0,0,1,0-3.313.848.848,0,0,1,.536-.536,26.026,26.026,0,0,1,3.559.042.834.834,0,0,1,.29,1.275c-.333.412-1.185.184-1.659.242m18.514,2.533H65.412v17.15h17.15Z" transform="translate(-55.287 -55.498)" fill="#005865"/>
          </g>
        </g>
      </g>
    </g>
  </g>
</svg>
