<svg xmlns="http://www.w3.org/2000/svg" xmlns:xlink="http://www.w3.org/1999/xlink" width="70" height="70" viewBox="0 0 70 70">
  <defs>
    <clipPath id="clip-path">
      <rect id="Rectangle_405493" data-name="Rectangle 405493" width="42.05" height="43.542" fill="#006543"/>
    </clipPath>
  </defs>
  <g id="Group_1111624" data-name="Group 1111624" transform="translate(-299.711 -5657)">
    <g id="Group_1109783" data-name="Group 1109783" transform="translate(30.711 4699)">
      <circle id="Ellipse_5614" data-name="Ellipse 5614" cx="35" cy="35" r="35" transform="translate(269 958)" fill="#fff"/>
    </g>
    <g id="Group_1110848" data-name="Group 1110848" transform="translate(313.711 5671)">
      <g id="Group_1110847" data-name="Group 1110847" clip-path="url(#clip-path)">
        <path id="Path_884799" data-name="Path 884799" d="M41.605,256.968c1.238.063,1.505.624,1.358,1.734l-3.9,15.643a2.8,2.8,0,0,1-2.35,1.734H2.3c-1.129-.1-1.339-.752-1.207-1.738l3.9-15.643a2.786,2.786,0,0,1,2.449-1.733l26.893.009c.485.074,2.79,2.334,3.426,2.791a2.173,2.173,0,0,0,1.852.466,3.664,3.664,0,0,0,2.088-2.373c.022-.317-.123-.576-.092-.888" transform="translate(-0.95 -232.537)" fill="#006543"/>
        <path id="Path_884800" data-name="Path 884800" d="M84.4,6.274c-.6-.059-1.151-.284-1.742-.369a9.722,9.722,0,0,0-5.325.846l-11.763,0a.578.578,0,0,0-.105,1.135H75.6l-1.75,2.168-8.384.02c-.7.128-.382,1.139-.1,1.139h7.96c-.205.567-.217,1.521-.415,2.026-.029.074-.052.131-.142.148l-7.509.1c-.526.542-.093,1.124.6,1.148h7.069l.4,2.09H65.463c-.44,0-.848,1.079.407,1.225l8.076.009.765,1.092.887,1H65.463c-.45,0-.669,1.015,0,1.139l11.765,0c.634.154,1.168.466,1.808.638a9.487,9.487,0,0,0,5.361-.163v1.521H62.15V4.088h2.521c.438,0,1.137-.968,1.137-1.378V0H84.151A1.625,1.625,0,0,1,84.4.238Z" transform="translate(-56.005)" fill="#006543"/>
        <path id="Path_884801" data-name="Path 884801" d="M4.86,127v11.455a4.644,4.644,0,0,0-1.981,2.183L.115,151.43l-.1-22.39c-.115-.684.7-2.04,1.438-2.04Z" transform="translate(0 -114.927)" fill="#006543"/>
        <path id="Path_884802" data-name="Path 884802" d="M191.981,74.232c9.6-.363,9.885,13.687.468,13.856-9.384.168-9.829-13.5-.468-13.856m-.5,1.044c-8.377.919-6.3,13.662,2.374,11.6,7.127-1.7,5.351-12.445-2.374-11.6" transform="translate(-166.871 -67.169)" fill="#006543"/>
        <path id="Path_884803" data-name="Path 884803" d="M335.082,217.964a1.1,1.1,0,0,1,.867.27c1.451,1.03,2.825,2.605,4.287,3.674a.723.723,0,0,1,.194.726,9.888,9.888,0,0,1-.972,1.065.984.984,0,0,1-.937-.237l-4.348-3.71c-.59-.43.553-1.687.908-1.787" transform="translate(-300.981 -197.225)" fill="#006543"/>
        <path id="Path_884804" data-name="Path 884804" d="M336.325,185.1c-.885-.47-1.638-1.616-2.573-1.947a6.857,6.857,0,0,1-.942-.235c-.075-.042-1.2-1.024-1.238-1.094-.2-.337.209-.765.37-1.1,1.021.137,2.794-.29,3.642.288a3.117,3.117,0,0,1,.741,1Z" transform="translate(-298.735 -163.521)" fill="#006543"/>
        <path id="Path_884805" data-name="Path 884805" d="M301.633,30.438l-1.483-.951V24.829c.469.063,1.111-.153,1.483.143Z" transform="translate(-270.471 -22.453)" fill="#006543"/>
        <path id="Path_884806" data-name="Path 884806" d="M302.622,221.8H300.15v-2.139a.493.493,0,0,1,.4-.188c.095.026,1.419,1.062,1.534,1.184.256.27.284.833.542,1.143" transform="translate(-270.471 -198.606)" fill="#006543"/>
        <path id="Path_884807" data-name="Path 884807" d="M314.064,203.014c-.109-.147.709-.8.853-.942l1.019.8-.835.9Z" transform="translate(-283 -182.863)" fill="#006543"/>
        <path id="Path_884808" data-name="Path 884808" d="M71.722,11.948v1.473a1.089,1.089,0,0,1-.2.285H70.139a10.951,10.951,0,0,1,1.235-1.569c.1-.1.173-.221.348-.189" transform="translate(-63.204 -10.807)" fill="#006543"/>
        <path id="Path_884809" data-name="Path 884809" d="M211.043,97.76c5.51-.717,7.91,6.1,3.389,8.677-3.875,2.209-8.5-1.275-7.217-5.417a4.946,4.946,0,0,1,3.828-3.26" transform="translate(-186.53 -88.419)" fill="#006543"/>
      </g>
    </g>
  </g>
</svg>
