<svg xmlns="http://www.w3.org/2000/svg" xmlns:xlink="http://www.w3.org/1999/xlink" width="85" height="85" viewBox="0 0 85 85">
  <defs>
    <clipPath id="clip-path">
      <rect id="Rectangle_404056" data-name="Rectangle 404056" width="69.19" height="69.19" transform="translate(0 0)" fill="#fff" stroke="#707070" stroke-width="1"/>
    </clipPath>
    <clipPath id="clip-path-2">
      <rect id="Rectangle_405889" data-name="Rectangle 405889" width="63.255" height="60.939" fill="#fff"/>
    </clipPath>
  </defs>
  <g id="Group_1111600" data-name="Group 1111600" transform="translate(-810.34 -5443)">
    <path id="Path_885752" data-name="Path 885752" d="M0,0H85V85H0Z" transform="translate(810.34 5443)" fill="#005865"/>
    <g id="Mask_Group_1098867" data-name="Mask Group 1098867" transform="translate(818.34 5451)" clip-path="url(#clip-path)">
      <g id="Group_1111380" data-name="Group 1111380" transform="translate(2.782 4)">
        <g id="Group_1111379" data-name="Group 1111379" clip-path="url(#clip-path-2)">
          <path id="Path_885753" data-name="Path 885753" d="M15.166,9.144C15.441,5.9,17.7,2.9,21.216,3.094a6.836,6.836,0,0,1,2.841.977,5.462,5.462,0,0,1,10.564,0A9.483,9.483,0,0,0,35.7,3.549c4.582-1.8,8.189,2.194,7.819,6.637,3.315-2.085,7.3.046,8.238,3.641.459,1.752.434,8.086.244,10.053-.2,2.024-2.723,2.16-2.93-.28-.233-2.749.406-6.407-.028-9a2.723,2.723,0,0,0-4.891-1.205c-1.225,1.709-.39,5.555-.634,7.7-.231,2.035-2.707,2.118-2.923-.412-.337-3.95.29-8.342-.028-12.34-.9-3.366-4.838-3.071-5.514.257L35,25.091a1.291,1.291,0,0,1-.935,1.148c-1.372.361-1.852-.618-1.954-1.8-.526-6.12.414-12.972-.007-19.169-.882-3.422-4.968-3.166-5.531.281l-.144,23.062a1.433,1.433,0,0,1-2.753-.6L23.63,8.461C22.841,5.008,18.793,5.2,18.1,8.6l-.078,27.715a1.408,1.408,0,0,1-2.227.691L7.6,27.551C4.577,24.98,1.683,29,3.381,31.906c3.629,4.672,7.285,9.318,10.787,14.088,3.023,4.117,4.506,6.911,9.52,9.1,1.322.577,2.722.832,4.054,1.365,1.139,1.212.375,2.678-1.355,2.466-4.356-.533-9.647-4.479-12.25-7.9-4.52-5.94-8.63-12.237-13.407-18-2.926-5.834,3.522-12.13,8.806-7.555L15.166,32Z" transform="translate(0 0)" fill="#fff"/>
          <path id="Path_885754" data-name="Path 885754" d="M251.124,218.271a4.306,4.306,0,0,1,4.18,1.724L266.329,241.9c1.733,3.292.021,6.492-3.7,6.77-7.034.525-14.718-.4-21.82-.008a4.3,4.3,0,0,1-3.891-5.832l11.249-22.519a4.034,4.034,0,0,1,2.959-2.044m.557,2.769c-.793.09-.985.588-1.337,1.176-3.938,6.567-6.759,14.518-10.606,21.217-.527.956-.274,2.179.924,2.32l22.716-.08a1.419,1.419,0,0,0,.813-1.485l-11.063-22.3a1.49,1.49,0,0,0-1.449-.85" transform="translate(-203.753 -187.899)" fill="#fff"/>
          <path id="Path_885755" data-name="Path 885755" d="M336.532,284.366a1.5,1.5,0,0,1,1.7,1.291,39.6,39.6,0,0,1-.012,5.97,1.4,1.4,0,0,1-2.773.012,43.514,43.514,0,0,1,.01-6.249,1.5,1.5,0,0,1,1.071-1.023" transform="translate(-288.744 -244.832)" fill="#fff"/>
          <path id="Path_885756" data-name="Path 885756" d="M336.5,366.169a2.285,2.285,0,0,1,1.256.076c1.409.565.976,5.245-1.452,3.814-.961-.567-.869-3.575.2-3.89" transform="translate(-289 -315.238)" fill="#fff"/>
        </g>
      </g>
    </g>
  </g>
</svg>
