<svg xmlns="http://www.w3.org/2000/svg" xmlns:xlink="http://www.w3.org/1999/xlink" width="70" height="70" viewBox="0 0 70 70">
  <defs>
    <clipPath id="clip-path">
      <rect id="Rectangle_405922" data-name="Rectangle 405922" width="39.586" height="39.906" fill="#006543"/>
    </clipPath>
  </defs>
  <g id="Group_1111628" data-name="Group 1111628" transform="translate(-299.711 -7807)">
    <circle id="Ellipse_5614" data-name="Ellipse 5614" cx="35" cy="35" r="35" transform="translate(299.711 7807)" fill="#fff"/>
    <g id="Group_1111412" data-name="Group 1111412" transform="translate(314.711 7822)" clip-path="url(#clip-path)">
      <path id="Path_885911" data-name="Path 885911" d="M29.323,15a20.406,20.406,0,0,1,1.5,3.753,24.506,24.506,0,0,1,.835,11.279c-.093.542-.643,1.869-.361,2.252a.731.731,0,0,0,.784.255c.309-.139,1.41-1.716,1.882-2.148a14.76,14.76,0,0,1,4.742-2.65,23.352,23.352,0,0,1,3.437-.962c1.313.038.42,1.707.127,2.321-.537,1.129-1.308,2.288-1.95,3.369-.3.072-.779-1.109-.971-1.361a1.988,1.988,0,0,0-2.938-.409l-5.753,10.07c-.283.214-.62-.876-.684-1.065-.266-.789-.316-2.544-.6-3a.874.874,0,0,0-.918-.154c-.364.18-.323,1.462-.424,1.913a7.625,7.625,0,0,1-2.817,4.576c-.61.525-3.682,2.606-4.317,2.507-1.256-.195-.455-1.881-.191-2.606a10.469,10.469,0,0,1,2.819-4.314c.477-.383,1.649-.84,1.877-1.1,1-1.163-1.371-1.243-1.957-1.406a10.019,10.019,0,0,1-5.362-3.457A22.93,22.93,0,0,1,14.8,27.895c-.577-1.914,2.881-.559,3.764-.259a15.633,15.633,0,0,1,4.758,2.5c.519.444,1.894,2.281,2.146,2.4a.642.642,0,0,0,.842-.33A9.231,9.231,0,0,0,25.9,29.9a25.355,25.355,0,0,1,1.923-14.077c.277-.576.688-1.5,1.5-.823m.006,6.477c-.233-.233-.907-.246-1.072.1L28.185,32.8a.659.659,0,0,0,1.311-.13c-.228-3.407.279-7.152,0-10.517-.017-.2-.022-.534-.166-.677" transform="translate(-6.405 -6.416)" fill="#006543"/>
      <path id="Path_885912" data-name="Path 885912" d="M18.156,29.566a21.449,21.449,0,0,0,0,6.355,20.76,20.76,0,0,0-8.817-3.957c-.668-.142-3-.805-3.226.028-.275,1,2.808,5.668,3.562,6.639,1.8,2.315,3.919,4.476,6.925,5.072.048.2-.031.208-.138.314-.356.353-.791.628-1.155,1.05-.627.728-1.073,1.614-1.625,2.4H0v-17.9Z" transform="translate(0 -12.848)" fill="#006543"/>
      <path id="Path_885913" data-name="Path 885913" d="M14.785,10.53c-.086.615.209,1.458-.195,1.945H7.976c-.362,0-.362,1.167,0,1.167h8.43a9.038,9.038,0,0,1,1.58.5c.3.141,1.373.873,1.449,1.155L18.221,20H0V17.209c0-1.679,1.886-3.32,3.47-3.533.565-.076,2.366.206,2.366-.617V10.53Z" transform="translate(0 -4.576)" fill="#006543"/>
      <path id="Path_885914" data-name="Path 885914" d="M48.69,44.426a.656.656,0,0,1,.983.173l7.568,13.181c.318.979.068,1.19-.867,1.266-4.712-.249-9.73.314-14.406,0a1.774,1.774,0,0,1-1.036-.26l.041-1.007Zm-.167,3.786v6.225c0,.411,1.167.411,1.167,0V48.213c0-.331-1.025-.506-1.167,0m.162,9.372c.7.624,1.506-.966.747-1.331-1.1-.531-1.078,1.037-.747,1.331" transform="translate(-17.787 -19.239)" fill="#006543"/>
      <path id="Path_885915" data-name="Path 885915" d="M6.562.149c3.816.212,8.149-.387,11.906-.036.467.044,1.12.167,1.224.722a19.41,19.41,0,0,1-.054,3.311.8.8,0,0,1-.783.513L6.2,4.6a.76.76,0,0,1-.5-.664A18.534,18.534,0,0,1,5.681.954c.067-.518.415-.695.88-.806" transform="translate(-2.446 0)" fill="#006543"/>
      <path id="Path_885916" data-name="Path 885916" d="M49.335,14.293c.189-.051.216.051.325.126,1.563,1.072,3.217,3.688,4.8,4.8.541.381,1.346.319,1.21-.425s-4.363-4.283-5.042-5.21a.459.459,0,0,1-.128-.391,7.64,7.64,0,0,1,2.159-.833c5.35-.616,7.461,6.644,2.89,8.985a4.836,4.836,0,0,1-6.208-7.053" transform="translate(-21.06 -5.355)" fill="#006543"/>
      <path id="Path_885917" data-name="Path 885917" d="M13.2,63.51l-.9,3.7c-2.437-.038-4.906.345-7.343.192S.6,66.027.23,63.51Z" transform="translate(-0.1 -27.598)" fill="#006543"/>
    </g>
  </g>
</svg>
