<svg xmlns="http://www.w3.org/2000/svg" width="178" height="178" viewBox="0 0 178 178">
  <g id="Group_1111620" data-name="Group 1111620" transform="translate(-1060.785 -7317.38)">
    <g id="Group_1109454" data-name="Group 1109454" transform="translate(1060.785 7317.381)">
      <path id="Path_882862" data-name="Path 882862" d="M89,0A89,89,0,1,1,0,89,89,89,0,0,1,89,0Z" transform="translate(0 -0.001)" fill="#005865"/>
      <path id="Path_882863" data-name="Path 882863" d="M78.668,0A78.668,78.668,0,1,1,0,78.668,78.668,78.668,0,0,1,78.668,0Z" transform="translate(10.332 10.331)" fill="#f3f9ff"/>
    </g>
    <g id="Group_1109457" data-name="Group 1109457" transform="translate(1099.785 7356.38)">
      <rect id="Rectangle_401104" data-name="Rectangle 401104" width="99.117" height="100.574" fill="none"/>
      <g id="Group_1111448" data-name="Group 1111448" transform="translate(5.215 1.434)">
        <rect id="Rectangle_406028" data-name="Rectangle 406028" width="2.734" height="92.948" transform="translate(0 4.759)" fill="#e0e0e0"/>
        <rect id="Rectangle_406029" data-name="Rectangle 406029" width="2.734" height="92.948" transform="translate(44.5 4.759)" fill="#e0e0e0"/>
        <rect id="Rectangle_406030" data-name="Rectangle 406030" width="2.734" height="92.948" transform="translate(88.999 4.759)" fill="#e0e0e0"/>
        <rect id="Rectangle_406031" data-name="Rectangle 406031" width="41.766" height="3.139" transform="translate(2.734 89.607)" fill="#f29e1f"/>
        <rect id="Rectangle_406032" data-name="Rectangle 406032" width="41.765" height="3.139" transform="translate(47.234 89.607)" fill="#f29e1f"/>
        <rect id="Rectangle_406033" data-name="Rectangle 406033" width="41.766" height="3.139" transform="translate(2.734 54.219)" fill="#f29e1f"/>
        <rect id="Rectangle_406034" data-name="Rectangle 406034" width="41.765" height="3.139" transform="translate(47.234 54.219)" fill="#f29e1f"/>
        <rect id="Rectangle_406035" data-name="Rectangle 406035" width="41.766" height="3.139" transform="translate(2.734 18.832)" fill="#f29e1f"/>
        <rect id="Rectangle_406036" data-name="Rectangle 406036" width="41.765" height="3.139" transform="translate(47.234 18.832)" fill="#f29e1f"/>
        <rect id="Rectangle_406037" data-name="Rectangle 406037" width="34.823" height="1.393" transform="translate(6.206 84.478)" fill="#ecca56"/>
        <rect id="Rectangle_406038" data-name="Rectangle 406038" width="5.128" height="3.736" transform="translate(6.206 85.871)" fill="#ecca56"/>
        <rect id="Rectangle_406039" data-name="Rectangle 406039" width="5.128" height="3.736" transform="translate(21.053 85.871)" fill="#ecca56"/>
        <rect id="Rectangle_406040" data-name="Rectangle 406040" width="5.128" height="3.736" transform="translate(35.901 85.871)" fill="#ecca56"/>
        <rect id="Rectangle_406041" data-name="Rectangle 406041" width="13.821" height="10.324" transform="translate(8.769 74.154)" fill="#b29877"/>
        <rect id="Rectangle_406042" data-name="Rectangle 406042" width="8.076" height="6.033" transform="translate(9.342 68.121)" fill="#d2b48d"/>
        <rect id="Rectangle_406043" data-name="Rectangle 406043" width="13.821" height="10.324" transform="translate(23.617 74.154)" fill="#d2b48d"/>
        <rect id="Rectangle_406044" data-name="Rectangle 406044" width="13.821" height="10.325" transform="translate(18.022 63.829)" fill="#fed9aa"/>
        <rect id="Rectangle_406045" data-name="Rectangle 406045" width="35.738" height="1.43" transform="translate(50.247 84.343)" fill="#ecca56"/>
        <rect id="Rectangle_406046" data-name="Rectangle 406046" width="5.264" height="3.833" transform="translate(50.247 85.774)" fill="#ecca56"/>
        <rect id="Rectangle_406047" data-name="Rectangle 406047" width="5.264" height="3.833" transform="translate(65.485 85.774)" fill="#ecca56"/>
        <rect id="Rectangle_406048" data-name="Rectangle 406048" width="5.264" height="3.833" transform="translate(80.721 85.774)" fill="#ecca56"/>
        <rect id="Rectangle_406049" data-name="Rectangle 406049" width="10.523" height="7.861" transform="translate(51.762 76.482)" fill="#fed9aa"/>
        <rect id="Rectangle_406050" data-name="Rectangle 406050" width="10.522" height="7.861" transform="translate(62.856 76.482)" fill="#d2b48d"/>
        <rect id="Rectangle_406051" data-name="Rectangle 406051" width="10.524" height="7.861" transform="translate(73.949 76.482)" fill="#fed9aa"/>
        <rect id="Rectangle_406052" data-name="Rectangle 406052" width="10.522" height="7.861" transform="translate(69.393 68.622)" fill="#b29877"/>
        <rect id="Rectangle_406053" data-name="Rectangle 406053" width="10.524" height="7.861" transform="translate(58.09 68.622)" fill="#fed9aa"/>
        <rect id="Rectangle_406054" data-name="Rectangle 406054" width="36.54" height="1.462" transform="translate(5.347 48.837)" fill="#ecca56"/>
        <rect id="Rectangle_406055" data-name="Rectangle 406055" width="5.381" height="3.92" transform="translate(5.348 50.299)" fill="#ecca56"/>
        <rect id="Rectangle_406056" data-name="Rectangle 406056" width="5.381" height="3.92" transform="translate(20.927 50.299)" fill="#ecca56"/>
        <rect id="Rectangle_406057" data-name="Rectangle 406057" width="5.382" height="3.92" transform="translate(36.505 50.299)" fill="#ecca56"/>
        <rect id="Rectangle_406058" data-name="Rectangle 406058" width="11.569" height="8.642" transform="translate(8.638 40.196)" fill="#b29877"/>
        <rect id="Rectangle_406059" data-name="Rectangle 406059" width="8.474" height="6.33" transform="translate(9.803 33.866)" fill="#d2b48d"/>
        <rect id="Rectangle_406060" data-name="Rectangle 406060" width="11.569" height="8.642" transform="translate(21.067 40.196)" fill="#b29877"/>
        <rect id="Rectangle_406061" data-name="Rectangle 406061" width="9.141" height="11.436" transform="translate(31.422 37.401)" fill="#fed9aa"/>
        <rect id="Rectangle_406062" data-name="Rectangle 406062" width="11.664" height="8.712" transform="translate(18.911 31.483)" fill="#d2b48d"/>
        <rect id="Rectangle_406063" data-name="Rectangle 406063" width="35.214" height="1.409" transform="translate(50.51 49.032)" fill="#ecca56"/>
        <rect id="Rectangle_406064" data-name="Rectangle 406064" width="5.186" height="3.778" transform="translate(50.51 50.441)" fill="#ecca56"/>
        <rect id="Rectangle_406065" data-name="Rectangle 406065" width="5.186" height="3.778" transform="translate(65.524 50.441)" fill="#ecca56"/>
        <rect id="Rectangle_406066" data-name="Rectangle 406066" width="5.186" height="3.778" transform="translate(80.538 50.441)" fill="#ecca56"/>
        <rect id="Rectangle_406067" data-name="Rectangle 406067" width="10.369" height="7.745" transform="translate(52.002 41.288)" fill="#b29877"/>
        <rect id="Rectangle_406068" data-name="Rectangle 406068" width="10.368" height="7.745" transform="translate(62.933 41.288)" fill="#d2b48d"/>
        <rect id="Rectangle_406069" data-name="Rectangle 406069" width="6.989" height="5.22" transform="translate(57.968 43.812)" fill="#fed9aa"/>
        <rect id="Rectangle_406070" data-name="Rectangle 406070" width="10.363" height="10.311" transform="translate(73.775 38.722)" fill="#fed9aa"/>
        <rect id="Rectangle_406071" data-name="Rectangle 406071" width="9.686" height="7.234" transform="translate(61.461 34.053)" fill="#b29877"/>
        <rect id="Rectangle_406072" data-name="Rectangle 406072" width="6.87" height="5.131" transform="translate(53.771 36.156)" fill="#d2b48d"/>
        <rect id="Rectangle_406073" data-name="Rectangle 406073" width="36.113" height="1.445" transform="translate(5.561 13.513)" fill="#ecca56"/>
        <rect id="Rectangle_406074" data-name="Rectangle 406074" width="5.318" height="3.874" transform="translate(5.561 14.958)" fill="#ecca56"/>
        <rect id="Rectangle_406075" data-name="Rectangle 406075" width="5.318" height="3.874" transform="translate(20.958 14.958)" fill="#ecca56"/>
        <rect id="Rectangle_406076" data-name="Rectangle 406076" width="5.318" height="3.874" transform="translate(36.356 14.958)" fill="#ecca56"/>
        <rect id="Rectangle_406077" data-name="Rectangle 406077" width="8.427" height="12.087" transform="translate(7.8 1.426)" fill="#d2b48d"/>
        <rect id="Rectangle_406078" data-name="Rectangle 406078" width="7.24" height="10.383" transform="translate(16.744 3.13)" fill="#b29877"/>
        <rect id="Rectangle_406079" data-name="Rectangle 406079" width="11.434" height="8.54" transform="translate(21.097 4.972)" fill="#fed9aa"/>
        <rect id="Rectangle_406080" data-name="Rectangle 406080" width="9.033" height="11.304" transform="translate(31.333 2.209)" fill="#d2b48d"/>
        <rect id="Rectangle_406081" data-name="Rectangle 406081" width="11.691" height="8.732" transform="translate(49.948 10.1)" fill="#d2b48d"/>
        <rect id="Rectangle_406082" data-name="Rectangle 406082" width="11.689" height="8.732" transform="translate(62.272 10.1)" fill="#d2b48d"/>
        <rect id="Rectangle_406083" data-name="Rectangle 406083" width="8.491" height="7.745" transform="translate(56.674 11.087)" fill="#fed9aa"/>
        <rect id="Rectangle_406084" data-name="Rectangle 406084" width="8.041" height="7.998" transform="translate(74.495 10.833)" fill="#b29877"/>
        <rect id="Rectangle_406085" data-name="Rectangle 406085" width="10.921" height="10.1" transform="translate(60.613)" fill="#d2b48d"/>
        <rect id="Rectangle_406086" data-name="Rectangle 406086" width="7.746" height="5.786" transform="translate(52.322 4.314)" fill="#b29877"/>
      </g>
    </g>
  </g>
</svg>
