<svg xmlns="http://www.w3.org/2000/svg" xmlns:xlink="http://www.w3.org/1999/xlink" width="158.949" height="159.181" viewBox="0 0 158.949 159.181">
  <defs>
    <clipPath id="clip-path">
      <rect id="Rectangle_400938" data-name="Rectangle 400938" width="152.656" height="152.656" fill="none"/>
    </clipPath>
    <clipPath id="clip-path-2">
      <path id="Path_873460" data-name="Path 873460" d="M0,1.693A1.747,1.747,0,0,0,1.8,3.385,1.747,1.747,0,0,0,3.6,1.693,1.748,1.748,0,0,0,1.8,0,1.748,1.748,0,0,0,0,1.693" transform="translate(0)" fill="#005865"/>
    </clipPath>
    <clipPath id="clip-path-3">
      <path id="Path_873466" data-name="Path 873466" d="M0,1.693A1.748,1.748,0,0,0,1.8,3.385,1.747,1.747,0,0,0,3.6,1.693,1.747,1.747,0,0,0,1.8,0,1.748,1.748,0,0,0,0,1.693" fill="#005865"/>
    </clipPath>
    <clipPath id="clip-path-4">
      <path id="Path_873467" data-name="Path 873467" d="M0,1.692A1.748,1.748,0,0,0,1.8,3.384,1.748,1.748,0,0,0,3.6,1.692,1.748,1.748,0,0,0,1.8,0,1.748,1.748,0,0,0,0,1.692" transform="translate(0 0)" fill="#005865"/>
    </clipPath>
    <clipPath id="clip-path-6">
      <path id="Path_873469" data-name="Path 873469" d="M0,1.692A1.748,1.748,0,0,0,1.8,3.384,1.747,1.747,0,0,0,3.6,1.692,1.747,1.747,0,0,0,1.8,0,1.748,1.748,0,0,0,0,1.692" transform="translate(0 0)" fill="#005865"/>
    </clipPath>
    <clipPath id="clip-path-22">
      <rect id="Rectangle_401492" data-name="Rectangle 401492" width="69.989" height="69.99" transform="translate(-0.473 0.41)" fill="#fff" stroke="#707070" stroke-width="1"/>
    </clipPath>
    <clipPath id="clip-path-23">
      <rect id="Rectangle_405459" data-name="Rectangle 405459" width="57.5" height="57.252" fill="#fff"/>
    </clipPath>
  </defs>
  <g id="Group_1108945" data-name="Group 1108945" transform="translate(-318.664 -4483.287)">
    <g id="Group_1108942" data-name="Group 1108942" transform="translate(318.664 4483.287)">
      <g id="Group_1100237" data-name="Group 1100237" transform="translate(5.038 22.163)">
        <g id="Group_1099505" data-name="Group 1099505" transform="translate(2.342 10.905)">
          <g id="Group_1099504" data-name="Group 1099504" transform="translate(0)" clip-path="url(#clip-path-2)">
            <rect id="Rectangle_401140" data-name="Rectangle 401140" width="3.598" height="3.385" transform="translate(0)" fill="#005865"/>
          </g>
        </g>
        <g id="Group_1099517" data-name="Group 1099517" transform="translate(48.007 10.905)">
          <g id="Group_1099516" data-name="Group 1099516" transform="translate(0)" clip-path="url(#clip-path-3)">
            <rect id="Rectangle_401146" data-name="Rectangle 401146" width="3.599" height="3.385" transform="translate(0 0)" fill="#005865"/>
          </g>
        </g>
        <g id="Group_1099519" data-name="Group 1099519" transform="translate(39.117 10.906)">
          <g id="Group_1099518" data-name="Group 1099518" transform="translate(0 0)" clip-path="url(#clip-path-4)">
            <rect id="Rectangle_401147" data-name="Rectangle 401147" width="3.599" height="3.384" transform="translate(0 0)" fill="#005865"/>
          </g>
        </g>
        <g id="Group_1099521" data-name="Group 1099521" transform="translate(30.227 10.906)">
          <g id="Group_1099520" data-name="Group 1099520" transform="translate(0 0)" clip-path="url(#clip-path-4)">
            <rect id="Rectangle_401148" data-name="Rectangle 401148" width="3.599" height="3.384" transform="translate(0 0)" fill="#005865"/>
          </g>
        </g>
        <g id="Group_1099523" data-name="Group 1099523" transform="translate(21.337 10.906)">
          <g id="Group_1099522" data-name="Group 1099522" transform="translate(0 0)" clip-path="url(#clip-path-6)">
            <rect id="Rectangle_401149" data-name="Rectangle 401149" width="3.598" height="3.384" transform="translate(0 0)" fill="#005865"/>
          </g>
        </g>
        <g id="Group_1099525" data-name="Group 1099525" transform="translate(44.45 0)">
          <g id="Group_1099524" data-name="Group 1099524" clip-path="url(#clip-path-4)">
            <rect id="Rectangle_401150" data-name="Rectangle 401150" width="3.599" height="3.384" transform="translate(0 0)" fill="#005865"/>
          </g>
        </g>
        <g id="Group_1099529" data-name="Group 1099529" transform="translate(35.56 0)">
          <g id="Group_1099528" data-name="Group 1099528" transform="translate(0)" clip-path="url(#clip-path-6)">
            <rect id="Rectangle_401152" data-name="Rectangle 401152" width="3.599" height="3.384" transform="translate(0 0)" fill="#005865"/>
          </g>
        </g>
        <g id="Group_1099531" data-name="Group 1099531" transform="translate(17.78 0)">
          <g id="Group_1099530" data-name="Group 1099530" transform="translate(0)" clip-path="url(#clip-path-6)">
            <rect id="Rectangle_401153" data-name="Rectangle 401153" width="3.598" height="3.384" transform="translate(0 0)" fill="#005865"/>
          </g>
        </g>
        <g id="Group_1099533" data-name="Group 1099533" transform="translate(8.89 0)">
          <g id="Group_1099532" data-name="Group 1099532" clip-path="url(#clip-path-6)">
            <rect id="Rectangle_401154" data-name="Rectangle 401154" width="3.599" height="3.384" transform="translate(0 0)" fill="#005865"/>
          </g>
        </g>
        <g id="Group_1099535" data-name="Group 1099535" transform="translate(0 0)">
          <g id="Group_1099534" data-name="Group 1099534" transform="translate(0)" clip-path="url(#clip-path-6)">
            <rect id="Rectangle_401155" data-name="Rectangle 401155" width="3.599" height="3.384" transform="translate(0 0)" fill="#005865"/>
          </g>
        </g>
      </g>
      <g id="Group_1100238" data-name="Group 1100238" transform="translate(101.296 117.824)">
        <g id="Group_1099505-2" data-name="Group 1099505" transform="translate(2.342 10.905)">
          <g id="Group_1099504-2" data-name="Group 1099504" transform="translate(0)" clip-path="url(#clip-path-2)">
            <rect id="Rectangle_401140-2" data-name="Rectangle 401140" width="3.598" height="3.385" transform="translate(0)" fill="#005865"/>
          </g>
        </g>
        <g id="Group_1099517-2" data-name="Group 1099517" transform="translate(48.007 10.905)">
          <g id="Group_1099516-2" data-name="Group 1099516" transform="translate(0)" clip-path="url(#clip-path-3)">
            <rect id="Rectangle_401146-2" data-name="Rectangle 401146" width="3.599" height="3.385" transform="translate(0 0)" fill="#005865"/>
          </g>
        </g>
        <g id="Group_1099519-2" data-name="Group 1099519" transform="translate(39.117 10.906)">
          <g id="Group_1099518-2" data-name="Group 1099518" transform="translate(0 0)" clip-path="url(#clip-path-4)">
            <rect id="Rectangle_401147-2" data-name="Rectangle 401147" width="3.599" height="3.384" transform="translate(0 0)" fill="#005865"/>
          </g>
        </g>
        <g id="Group_1099521-2" data-name="Group 1099521" transform="translate(30.227 10.906)">
          <g id="Group_1099520-2" data-name="Group 1099520" transform="translate(0 0)" clip-path="url(#clip-path-4)">
            <rect id="Rectangle_401148-2" data-name="Rectangle 401148" width="3.599" height="3.384" transform="translate(0 0)" fill="#005865"/>
          </g>
        </g>
        <g id="Group_1099523-2" data-name="Group 1099523" transform="translate(21.337 10.906)">
          <g id="Group_1099522-2" data-name="Group 1099522" transform="translate(0 0)" clip-path="url(#clip-path-6)">
            <rect id="Rectangle_401149-2" data-name="Rectangle 401149" width="3.598" height="3.384" transform="translate(0 0)" fill="#005865"/>
          </g>
        </g>
        <g id="Group_1099525-2" data-name="Group 1099525" transform="translate(44.45 0)">
          <g id="Group_1099524-2" data-name="Group 1099524" clip-path="url(#clip-path-4)">
            <rect id="Rectangle_401150-2" data-name="Rectangle 401150" width="3.599" height="3.384" transform="translate(0 0)" fill="#005865"/>
          </g>
        </g>
        <g id="Group_1099529-2" data-name="Group 1099529" transform="translate(35.56 0)">
          <g id="Group_1099528-2" data-name="Group 1099528" transform="translate(0)" clip-path="url(#clip-path-6)">
            <rect id="Rectangle_401152-2" data-name="Rectangle 401152" width="3.599" height="3.384" transform="translate(0 0)" fill="#005865"/>
          </g>
        </g>
        <g id="Group_1099531-2" data-name="Group 1099531" transform="translate(17.78 0)">
          <g id="Group_1099530-2" data-name="Group 1099530" transform="translate(0)" clip-path="url(#clip-path-6)">
            <rect id="Rectangle_401153-2" data-name="Rectangle 401153" width="3.598" height="3.384" transform="translate(0 0)" fill="#005865"/>
          </g>
        </g>
        <g id="Group_1099533-2" data-name="Group 1099533" transform="translate(8.89 0)">
          <g id="Group_1099532-2" data-name="Group 1099532" clip-path="url(#clip-path-6)">
            <rect id="Rectangle_401154-2" data-name="Rectangle 401154" width="3.599" height="3.384" transform="translate(0 0)" fill="#005865"/>
          </g>
        </g>
        <g id="Group_1099535-2" data-name="Group 1099535" transform="translate(0 0)">
          <g id="Group_1099534-2" data-name="Group 1099534" transform="translate(0)" clip-path="url(#clip-path-6)">
            <rect id="Rectangle_401155-2" data-name="Rectangle 401155" width="3.599" height="3.384" transform="translate(0 0)" fill="#005865"/>
          </g>
        </g>
      </g>
      <path id="Path_873784" data-name="Path 873784" d="M109.2,24.037A24.184,24.184,0,0,0,85.034-.128L24.2-.036A24.36,24.36,0,0,0-.037,24.2L-.128,85.032A24.184,24.184,0,0,0,24.037,109.2l60.832-.091a24.361,24.361,0,0,0,24.238-24.238Z" transform="translate(81.645 159) rotate(-135)" fill="#41cee2"/>
      <ellipse id="Ellipse_11579" data-name="Ellipse 11579" cx="51.175" cy="51.175" rx="51.175" ry="51.175" transform="translate(30.842 31.057)" fill="#005865"/>
      <g id="Mask_Group_1098697" data-name="Mask Group 1098697" transform="translate(47.016 47.59)" clip-path="url(#clip-path-22)">
        <g id="Group_1110782" data-name="Group 1110782" transform="translate(5.527 6.411)">
          <g id="Group_1110781" data-name="Group 1110781" clip-path="url(#clip-path-23)">
            <path id="Path_884746" data-name="Path 884746" d="M13.164,40.516,10.239,24.333a6.731,6.731,0,0,1,6.688-7.451l.01-15.453A1.667,1.667,0,0,1,18.214,0H46.1l.7.356L57.2,10.772l.3.989-.033,44.191a1.641,1.641,0,0,1-1.169,1.3H1.309a1.659,1.659,0,0,1-1.2-1.507c-.254-2.37-.214-5.577,1.709-7.229.674-.579,2.02-.963,2.356-1.289,1.005-.977,1.874-3.68,2.876-4.885a5.88,5.88,0,0,1,3.231-1.825ZM44.09,3.358H20.337v14.4a6.935,6.935,0,0,1,3.278,6.571c-.456,5.029-2.239,10.5-2.893,15.569a2.814,2.814,0,0,0-.033.614H23.57a6.446,6.446,0,0,1,2.585,1.178,5.967,5.967,0,0,1,1.451,2.077c.349.584,1.773,3.279,2.048,3.537.084.079,1.407.524,1.774.755a5.469,5.469,0,0,1,2.314,3.683v2.175H54.085V13.353H45.207a2.182,2.182,0,0,1-1.117-1.117Zm7.526,6.7L47.383,5.827V10.06ZM17.28,40.517l3.032-16.875a3.4,3.4,0,0,0-6.794,0l3.057,16.873Zm8.466,6.7c-.853-1.068-1.16-3.144-2.758-3.3l-12.443.034c-1.21.22-1.72,2.4-2.438,3.265ZM3.521,51.746c-.127.577.093,1.547,0,2.175H30.332V51.864c0-.441-.763-1.072-1.172-1.18L4.991,50.629a1.847,1.847,0,0,0-1.47,1.117" transform="translate(0)" fill="#fff"/>
            <path id="Path_884747" data-name="Path 884747" d="M351.182,344.655c6.17-.577,7.676,8.425,1.675,9.905-6.9,1.7-8.717-9.246-1.675-9.905m-.008,3.4a1.686,1.686,0,0,0,.219,3.255,1.686,1.686,0,1,0-.219-3.255" transform="translate(-305.941 -304.104)" fill="#fff"/>
            <path id="Path_884748" data-name="Path 884748" d="M241.823,56.636a1.7,1.7,0,0,1,1.883,2c-.121.708-1.265,1.685-1.793,2.207-1.948,1.926-3.985,3.783-5.977,5.665a1.674,1.674,0,0,1-1.886-.16,30.99,30.99,0,0,1-3.373-3.329c-1.554-1.916.4-3.884,2.227-2.58.4.283,2.061,2.2,2.287,2.157l5.483-5.343a2.757,2.757,0,0,1,1.149-.62" transform="translate(-203.053 -49.96)" fill="#fff"/>
            <path id="Path_884749" data-name="Path 884749" d="M319.1,170.449a67.459,67.459,0,0,1,9.495-.04,2.116,2.116,0,0,1,1.918.9,1.649,1.649,0,0,1-1.228,2.5c-3.182.434-7.283-.294-10.563,0-1.853-.263-2.113-3.085.377-3.365" transform="translate(-279.971 -150.241)" fill="#fff"/>
            <path id="Path_884750" data-name="Path 884750" d="M318.453,286.66l10.663-.017a1.648,1.648,0,0,1,1.228,2.5,1.937,1.937,0,0,1-1.7.884,66.69,66.69,0,0,1-9.612,0c-2.291-.223-2.636-2.6-.576-3.368" transform="translate(-279.804 -252.936)" fill="#fff"/>
            <path id="Path_884751" data-name="Path 884751" d="M318.6,229.639l10.9-.019a1.67,1.67,0,0,1,0,3.277H318.7a1.685,1.685,0,0,1-.1-3.258" transform="translate(-280.074 -202.619)" fill="#fff"/>
            <path id="Path_884752" data-name="Path 884752" d="M259.441,172.237c3.064-.7,2.837,4,.054,3.188a1.694,1.694,0,0,1-.054-3.188" transform="translate(-227.968 -151.921)" fill="#fff"/>
            <path id="Path_884753" data-name="Path 884753" d="M259.457,229.412a1.679,1.679,0,0,1,.888,3.238,1.679,1.679,0,0,1-.888-3.238" transform="translate(-227.864 -202.391)" fill="#fff"/>
            <path id="Path_884754" data-name="Path 884754" d="M259.514,286.577a1.675,1.675,0,1,1-1.256,1.1,1.721,1.721,0,0,1,1.256-1.1" transform="translate(-227.802 -252.855)" fill="#fff"/>
          </g>
        </g>
      </g>
    </g>
  </g>
</svg>
