<svg xmlns="http://www.w3.org/2000/svg" xmlns:xlink="http://www.w3.org/1999/xlink" width="70" height="70" viewBox="0 0 70 70">
  <defs>
    <clipPath id="clip-path">
      <rect id="Rectangle_405496" data-name="Rectangle 405496" width="38.378" height="42.826" fill="#006543"/>
    </clipPath>
  </defs>
  <g id="Group_1111625" data-name="Group 1111625" transform="translate(-1229.711 -5657)">
    <g id="Group_1109786" data-name="Group 1109786" transform="translate(960.711 4699)">
      <circle id="Ellipse_5614" data-name="Ellipse 5614" cx="35" cy="35" r="35" transform="translate(269 958)" fill="#fff"/>
    </g>
    <g id="Group_1110854" data-name="Group 1110854" transform="translate(1245.711 5671)">
      <g id="Group_1110853" data-name="Group 1110853" clip-path="url(#clip-path)">
        <path id="Path_884818" data-name="Path 884818" d="M19.06,0l.332.036a35.231,35.231,0,0,0,16.632,6.2c.873.081,2.133-.348,2.245.882a96.8,96.8,0,0,1-.113,9.9c-.086,4.169.164,11.528-1.713,15.173-2.691,5.224-8.419,8.339-13.9,9.87a19.883,19.883,0,0,1-3.311.762,16.692,16.692,0,0,1-2.905-.636c-6.362-1.677-14.006-5.86-15.35-12.9C.222,25.315.306,21.054.223,17.02a96.279,96.279,0,0,1-.113-9.9A.782.782,0,0,1,.328,6.5c.408-.384,2.357-.293,3.068-.372A35.6,35.6,0,0,0,19.06,0m-.212,7.929a1.572,1.572,0,0,0-.893.565L6.522,28.122A1.568,1.568,0,0,0,7.98,30.11H30.4A1.579,1.579,0,0,0,31.882,28.2L20.383,8.43a1.625,1.625,0,0,0-1.535-.5" transform="translate(0)" fill="#006543"/>
        <path id="Path_884819" data-name="Path 884819" d="M169.889,120.463c.724-.13,2.158-.179,2.314.763l-.312,8.223c.061.758-1.686.686-2.111.559-.593-.177-.355-1.79-.381-2.329-.1-2.114-.227-4.231-.319-6.357a.931.931,0,0,1,.808-.858" transform="translate(-151.457 -107.843)" fill="#006543"/>
        <path id="Path_884820" data-name="Path 884820" d="M166.911,227.793c2.946-.477,3.2,4.468-.123,3.929-2.027-.329-2.007-3.584.123-3.929" transform="translate(-148.062 -204.02)" fill="#006543"/>
      </g>
    </g>
  </g>
</svg>
