<svg xmlns="http://www.w3.org/2000/svg" xmlns:xlink="http://www.w3.org/1999/xlink" width="158.949" height="159.181" viewBox="0 0 158.949 159.181">
  <defs>
    <clipPath id="clip-path">
      <rect id="Rectangle_400938" data-name="Rectangle 400938" width="152.656" height="152.656" fill="none"/>
    </clipPath>
    <clipPath id="clip-path-2">
      <path id="Path_873460" data-name="Path 873460" d="M0,1.693A1.747,1.747,0,0,0,1.8,3.385,1.747,1.747,0,0,0,3.6,1.693,1.748,1.748,0,0,0,1.8,0,1.748,1.748,0,0,0,0,1.693" transform="translate(0)" fill="#005865"/>
    </clipPath>
    <clipPath id="clip-path-3">
      <path id="Path_873466" data-name="Path 873466" d="M0,1.693A1.748,1.748,0,0,0,1.8,3.385,1.747,1.747,0,0,0,3.6,1.693,1.747,1.747,0,0,0,1.8,0,1.748,1.748,0,0,0,0,1.693" fill="#005865"/>
    </clipPath>
    <clipPath id="clip-path-4">
      <path id="Path_873467" data-name="Path 873467" d="M0,1.692A1.748,1.748,0,0,0,1.8,3.384,1.748,1.748,0,0,0,3.6,1.692,1.748,1.748,0,0,0,1.8,0,1.748,1.748,0,0,0,0,1.692" transform="translate(0 0)" fill="#005865"/>
    </clipPath>
    <clipPath id="clip-path-6">
      <path id="Path_873469" data-name="Path 873469" d="M0,1.692A1.748,1.748,0,0,0,1.8,3.384,1.747,1.747,0,0,0,3.6,1.692,1.747,1.747,0,0,0,1.8,0,1.748,1.748,0,0,0,0,1.692" transform="translate(0 0)" fill="#005865"/>
    </clipPath>
    <clipPath id="clip-path-22">
      <rect id="Rectangle_401492" data-name="Rectangle 401492" width="69.989" height="69.99" transform="translate(-0.137 0.41)" fill="#fff" stroke="#707070" stroke-width="1"/>
    </clipPath>
    <clipPath id="clip-path-23">
      <rect id="Rectangle_405460" data-name="Rectangle 405460" width="61.823" height="63.5" fill="#fff"/>
    </clipPath>
  </defs>
  <g id="Group_1108943" data-name="Group 1108943" transform="translate(-318.664 -4483.287)">
    <g id="Group_1108942" data-name="Group 1108942" transform="translate(318.664 4483.287)">
      <g id="Group_1100237" data-name="Group 1100237" transform="translate(5.038 22.163)">
        <g id="Group_1099505" data-name="Group 1099505" transform="translate(2.342 10.905)">
          <g id="Group_1099504" data-name="Group 1099504" transform="translate(0)" clip-path="url(#clip-path-2)">
            <rect id="Rectangle_401140" data-name="Rectangle 401140" width="3.598" height="3.385" transform="translate(0)" fill="#005865"/>
          </g>
        </g>
        <g id="Group_1099517" data-name="Group 1099517" transform="translate(48.007 10.905)">
          <g id="Group_1099516" data-name="Group 1099516" transform="translate(0)" clip-path="url(#clip-path-3)">
            <rect id="Rectangle_401146" data-name="Rectangle 401146" width="3.599" height="3.385" transform="translate(0 0)" fill="#005865"/>
          </g>
        </g>
        <g id="Group_1099519" data-name="Group 1099519" transform="translate(39.117 10.906)">
          <g id="Group_1099518" data-name="Group 1099518" transform="translate(0 0)" clip-path="url(#clip-path-4)">
            <rect id="Rectangle_401147" data-name="Rectangle 401147" width="3.599" height="3.384" transform="translate(0 0)" fill="#005865"/>
          </g>
        </g>
        <g id="Group_1099521" data-name="Group 1099521" transform="translate(30.227 10.906)">
          <g id="Group_1099520" data-name="Group 1099520" transform="translate(0 0)" clip-path="url(#clip-path-4)">
            <rect id="Rectangle_401148" data-name="Rectangle 401148" width="3.599" height="3.384" transform="translate(0 0)" fill="#005865"/>
          </g>
        </g>
        <g id="Group_1099523" data-name="Group 1099523" transform="translate(21.337 10.906)">
          <g id="Group_1099522" data-name="Group 1099522" transform="translate(0 0)" clip-path="url(#clip-path-6)">
            <rect id="Rectangle_401149" data-name="Rectangle 401149" width="3.598" height="3.384" transform="translate(0 0)" fill="#005865"/>
          </g>
        </g>
        <g id="Group_1099525" data-name="Group 1099525" transform="translate(44.45 0)">
          <g id="Group_1099524" data-name="Group 1099524" clip-path="url(#clip-path-4)">
            <rect id="Rectangle_401150" data-name="Rectangle 401150" width="3.599" height="3.384" transform="translate(0 0)" fill="#005865"/>
          </g>
        </g>
        <g id="Group_1099529" data-name="Group 1099529" transform="translate(35.56 0)">
          <g id="Group_1099528" data-name="Group 1099528" transform="translate(0)" clip-path="url(#clip-path-6)">
            <rect id="Rectangle_401152" data-name="Rectangle 401152" width="3.599" height="3.384" transform="translate(0 0)" fill="#005865"/>
          </g>
        </g>
        <g id="Group_1099531" data-name="Group 1099531" transform="translate(17.78 0)">
          <g id="Group_1099530" data-name="Group 1099530" transform="translate(0)" clip-path="url(#clip-path-6)">
            <rect id="Rectangle_401153" data-name="Rectangle 401153" width="3.598" height="3.384" transform="translate(0 0)" fill="#005865"/>
          </g>
        </g>
        <g id="Group_1099533" data-name="Group 1099533" transform="translate(8.89 0)">
          <g id="Group_1099532" data-name="Group 1099532" clip-path="url(#clip-path-6)">
            <rect id="Rectangle_401154" data-name="Rectangle 401154" width="3.599" height="3.384" transform="translate(0 0)" fill="#005865"/>
          </g>
        </g>
        <g id="Group_1099535" data-name="Group 1099535" transform="translate(0 0)">
          <g id="Group_1099534" data-name="Group 1099534" transform="translate(0)" clip-path="url(#clip-path-6)">
            <rect id="Rectangle_401155" data-name="Rectangle 401155" width="3.599" height="3.384" transform="translate(0 0)" fill="#005865"/>
          </g>
        </g>
      </g>
      <g id="Group_1100238" data-name="Group 1100238" transform="translate(101.296 117.824)">
        <g id="Group_1099505-2" data-name="Group 1099505" transform="translate(2.342 10.905)">
          <g id="Group_1099504-2" data-name="Group 1099504" transform="translate(0)" clip-path="url(#clip-path-2)">
            <rect id="Rectangle_401140-2" data-name="Rectangle 401140" width="3.598" height="3.385" transform="translate(0)" fill="#005865"/>
          </g>
        </g>
        <g id="Group_1099517-2" data-name="Group 1099517" transform="translate(48.007 10.905)">
          <g id="Group_1099516-2" data-name="Group 1099516" transform="translate(0)" clip-path="url(#clip-path-3)">
            <rect id="Rectangle_401146-2" data-name="Rectangle 401146" width="3.599" height="3.385" transform="translate(0 0)" fill="#005865"/>
          </g>
        </g>
        <g id="Group_1099519-2" data-name="Group 1099519" transform="translate(39.117 10.906)">
          <g id="Group_1099518-2" data-name="Group 1099518" transform="translate(0 0)" clip-path="url(#clip-path-4)">
            <rect id="Rectangle_401147-2" data-name="Rectangle 401147" width="3.599" height="3.384" transform="translate(0 0)" fill="#005865"/>
          </g>
        </g>
        <g id="Group_1099521-2" data-name="Group 1099521" transform="translate(30.227 10.906)">
          <g id="Group_1099520-2" data-name="Group 1099520" transform="translate(0 0)" clip-path="url(#clip-path-4)">
            <rect id="Rectangle_401148-2" data-name="Rectangle 401148" width="3.599" height="3.384" transform="translate(0 0)" fill="#005865"/>
          </g>
        </g>
        <g id="Group_1099523-2" data-name="Group 1099523" transform="translate(21.337 10.906)">
          <g id="Group_1099522-2" data-name="Group 1099522" transform="translate(0 0)" clip-path="url(#clip-path-6)">
            <rect id="Rectangle_401149-2" data-name="Rectangle 401149" width="3.598" height="3.384" transform="translate(0 0)" fill="#005865"/>
          </g>
        </g>
        <g id="Group_1099525-2" data-name="Group 1099525" transform="translate(44.45 0)">
          <g id="Group_1099524-2" data-name="Group 1099524" clip-path="url(#clip-path-4)">
            <rect id="Rectangle_401150-2" data-name="Rectangle 401150" width="3.599" height="3.384" transform="translate(0 0)" fill="#005865"/>
          </g>
        </g>
        <g id="Group_1099529-2" data-name="Group 1099529" transform="translate(35.56 0)">
          <g id="Group_1099528-2" data-name="Group 1099528" transform="translate(0)" clip-path="url(#clip-path-6)">
            <rect id="Rectangle_401152-2" data-name="Rectangle 401152" width="3.599" height="3.384" transform="translate(0 0)" fill="#005865"/>
          </g>
        </g>
        <g id="Group_1099531-2" data-name="Group 1099531" transform="translate(17.78 0)">
          <g id="Group_1099530-2" data-name="Group 1099530" transform="translate(0)" clip-path="url(#clip-path-6)">
            <rect id="Rectangle_401153-2" data-name="Rectangle 401153" width="3.598" height="3.384" transform="translate(0 0)" fill="#005865"/>
          </g>
        </g>
        <g id="Group_1099533-2" data-name="Group 1099533" transform="translate(8.89 0)">
          <g id="Group_1099532-2" data-name="Group 1099532" clip-path="url(#clip-path-6)">
            <rect id="Rectangle_401154-2" data-name="Rectangle 401154" width="3.599" height="3.384" transform="translate(0 0)" fill="#005865"/>
          </g>
        </g>
        <g id="Group_1099535-2" data-name="Group 1099535" transform="translate(0 0)">
          <g id="Group_1099534-2" data-name="Group 1099534" transform="translate(0)" clip-path="url(#clip-path-6)">
            <rect id="Rectangle_401155-2" data-name="Rectangle 401155" width="3.599" height="3.384" transform="translate(0 0)" fill="#005865"/>
          </g>
        </g>
      </g>
      <path id="Path_873784" data-name="Path 873784" d="M109.2,24.037A24.184,24.184,0,0,0,85.034-.128L24.2-.036A24.36,24.36,0,0,0-.037,24.2L-.128,85.032A24.184,24.184,0,0,0,24.037,109.2l60.832-.091a24.361,24.361,0,0,0,24.238-24.238Z" transform="translate(81.645 159) rotate(-135)" fill="#41cee2"/>
      <ellipse id="Ellipse_11579" data-name="Ellipse 11579" cx="51.175" cy="51.175" rx="51.175" ry="51.175" transform="translate(30.842 31.057)" fill="#005865"/>
      <g id="Mask_Group_1098697" data-name="Mask Group 1098697" transform="translate(47.016 47.59)" clip-path="url(#clip-path-22)">
        <g id="Group_1110784" data-name="Group 1110784" transform="translate(3.862 3.41)">
          <g id="Group_1110783" data-name="Group 1110783" clip-path="url(#clip-path-23)">
            <path id="Path_884755" data-name="Path 884755" d="M61.79,12.313v-.07l-.015-.068c-.144-.639-.942-1.363-2.053-2.315-.274-.235-.533-.456-.67-.6-.909-.915-1.826-1.861-2.712-2.776C54.314,4.4,52.22,2.24,50.031.242L49.852.078,3.909,0h-.04A4.126,4.126,0,0,0,0,3.7l0,.032,0,43A4,4,0,0,0,1.221,49.2a3.462,3.462,0,0,0,2.133,1.176H22.721l-.038.85L18.6,57.878l-.019.046a1.3,1.3,0,0,0,.1,1.314A1.38,1.38,0,0,0,20,59.695a14.069,14.069,0,0,0,2.429-.908c.549-.231,1.289-.541,1.793-.729.036.428.058.883.08,1.354a17.3,17.3,0,0,0,.3,2.938,1.484,1.484,0,0,0,.9,1.085,1.172,1.172,0,0,0,1.127-.2l.054-.047a24.957,24.957,0,0,0,2.228-3.543c.645-1.116,1.511-2.616,1.831-3.013a1.27,1.27,0,0,1,.348.015l3.734,6.194.608.564.134.043a1.2,1.2,0,0,0,.361.056,1.171,1.171,0,0,0,.583-.156,1.549,1.549,0,0,0,.7-.995,17.206,17.206,0,0,0,.3-2.939c.022-.475.044-.933.081-1.364.426.16,1.023.414,1.5.619a10.5,10.5,0,0,0,3.044,1.052A1.213,1.213,0,0,0,43.387,58.5l.008-.187L39.171,51.2l-.053-.818H58.471a3.687,3.687,0,0,0,2.207-1.264,3.752,3.752,0,0,0,1.143-2.382Zm-33.3,42.943-1.707,2.82c-.127-1.766-.3-2.662-.889-2.959A1.136,1.136,0,0,0,25.373,55,6.956,6.956,0,0,0,23,55.78l-.092.041,1.16-1.85a4.96,4.96,0,0,0,2.218.358c1,0,1.684,0,2.206.927m5.793-.891a3.324,3.324,0,0,1,1.306-.063,3.981,3.981,0,0,0,2.2-.277l1.129,1.8-.382-.166a11.116,11.116,0,0,0-1.61-.636,1.441,1.441,0,0,0-1.138.2,1.532,1.532,0,0,0-.606,1.067,13.97,13.97,0,0,0-.132,1.637q0,.116-.01.233l-1.7-2.874a5.407,5.407,0,0,1,.942-.915m6.932-7.177.032-.081c.706-1.783-.537-2.78-1.359-3.44-.334-.268-.712-.571-.78-.792a4.594,4.594,0,0,1-.058-1.247c.036-1.136.081-2.549-1.149-3.23a3.926,3.926,0,0,0-2.378-.329,2.92,2.92,0,0,1-1.253-.056,2.248,2.248,0,0,1-.823-.8,3,3,0,0,0-2.624-1.5,3.074,3.074,0,0,0-2.442,1.476,2.259,2.259,0,0,1-.913.829,3.284,3.284,0,0,1-1.215.041,3.638,3.638,0,0,0-2.452.415c-1.115.726-1.067,2.065-1.029,3.14a4.425,4.425,0,0,1-.057,1.256c-.068.221-.447.524-.78.792-.822.66-2.065,1.657-1.359,3.44l.032.081.52.678H3.913a1.642,1.642,0,0,1-1.019-.6,1.255,1.255,0,0,1-.386-.86l0-.035V4.061c.017-.361.09-1.389,1.842-1.549l43.6,0,.193.037v9.319c0,.147,0,.536.823,1.263a2.217,2.217,0,0,0,1.27.69h9.07V46.747a2.258,2.258,0,0,1-1.4,1.118H40.7Zm-13.511,4.6a3.754,3.754,0,0,0-.484-.024c-.191,0-.407.007-.639.014a10.7,10.7,0,0,1-1.293-.011,7.651,7.651,0,0,1-.041-1.154A5.72,5.72,0,0,0,25,48.375a5.65,5.65,0,0,0-1.248-1.438c-.244-.231-.588-.557-.751-.758a3.323,3.323,0,0,1,.8-.825,3.746,3.746,0,0,0,1.3-1.6,6.051,6.051,0,0,0,.156-1.906,8.064,8.064,0,0,1,.042-1.235,10.719,10.719,0,0,1,1.292-.011,7.953,7.953,0,0,0,1.123-.011,4.042,4.042,0,0,0,2.519-1.7,2.8,2.8,0,0,1,.651-.649c.2.043.666.593.89.859a4.943,4.943,0,0,0,.8.826,3.937,3.937,0,0,0,2.8.657A6.525,6.525,0,0,1,36.5,40.6a3.971,3.971,0,0,1,.08,1.467,6.332,6.332,0,0,0-.008.989A3.444,3.444,0,0,0,38,45.327a3.736,3.736,0,0,1,.819.868c-.158.189-.472.484-.7.694a4.823,4.823,0,0,0-1.473,1.86,6.679,6.679,0,0,0-.078,1.636,8.37,8.37,0,0,1-.036,1.383,10.65,10.65,0,0,1-1.294.011,7.914,7.914,0,0,0-1.123.011,4.387,4.387,0,0,0-2.564,1.722,4.339,4.339,0,0,1-.622.624,4.56,4.56,0,0,1-.691-.661,4.48,4.48,0,0,0-2.536-1.685M57.321,11.307h-6.5c-.05-.036-.11-.082-.165-.125V4.538Z" fill="#fff"/>
            <path id="Path_884756" data-name="Path 884756" d="M170.166,64.436q.293.019.581.019a7.988,7.988,0,0,0,6.937-3.842,8.188,8.188,0,0,0-.028-8.839,8.356,8.356,0,0,0-8.064-3.783,7.963,7.963,0,0,0-6.054,4.025,8.456,8.456,0,0,0-.4,7.61,8.208,8.208,0,0,0,7.025,4.811m-.156-13.941a5.4,5.4,0,0,1,6.243,5.039c.314,2.753-1.043,5.917-4.764,6.357a5.468,5.468,0,0,1-5.276-2.064,6.4,6.4,0,0,1-.69-6.188,5.28,5.28,0,0,1,4.487-3.145" transform="translate(-139.758 -41.246)" fill="#fff"/>
            <path id="Path_884757" data-name="Path 884757" d="M117.851,191.469l1.111-.274.377-.91-.713-1.264-26.083-.076a1.418,1.418,0,0,0-1.467.776,1.285,1.285,0,0,0,.4,1.516l.177.155,26.125.076Z" transform="translate(-78.275 -162.575)" fill="#fff"/>
            <path id="Path_884758" data-name="Path 884758" d="M176.687,230.035H150.093l-.173.14a1.325,1.325,0,0,0-.479,1.423,1.388,1.388,0,0,0,1.228.953l.03,0,26.049-.08.121-.054a1.319,1.319,0,0,0,.742-1.516,1,1,0,0,0-.924-.869" transform="translate(-128.542 -197.937)" fill="#fff"/>
            <path id="Path_884759" data-name="Path 884759" d="M311.689,188.941a1.575,1.575,0,0,0-1.041-.354l-.077-.006a25.2,25.2,0,0,0-3.943.018,1.3,1.3,0,0,0-.937.719,1.417,1.417,0,0,0,.045,1.273l.035.065.049.055a1.339,1.339,0,0,0,.852.366c.392.051,1.486.093,2.5.093a13.253,13.253,0,0,0,1.867-.088,1.223,1.223,0,0,0,.958-.852,1.3,1.3,0,0,0-.313-1.288Z" transform="translate(-262.925 -162.208)" fill="#fff"/>
            <path id="Path_884760" data-name="Path 884760" d="M96.881,230.063l-.091-.028h-4.7a1.065,1.065,0,0,0-.951,1.04,1.2,1.2,0,0,0,.841,1.388,15.739,15.739,0,0,0,2.424.124,12.251,12.251,0,0,0,2.284-.134,1.347,1.347,0,0,0,.629-.408l.033-.039.026-.044a1.711,1.711,0,0,0,.075-1.332.906.906,0,0,0-.569-.565" transform="translate(-78.41 -197.937)" fill="#fff"/>
            <path id="Path_884761" data-name="Path 884761" d="M186.283,300.753a5.421,5.421,0,0,0,4.782-3.1,6.473,6.473,0,0,0-.523-6.361,5.473,5.473,0,0,0-5.3-2.213,5.87,5.87,0,0,0,.588,11.689q.223,0,.455-.014m-.762-9.174a3.2,3.2,0,0,1,3.511,2.413,3.147,3.147,0,0,1-1.676,3.878,2.956,2.956,0,0,1-3.432-.265,3.912,3.912,0,0,1-1.117-3.943,2.938,2.938,0,0,1,2.714-2.083" transform="translate(-154.985 -248.705)" fill="#fff"/>
            <path id="Path_884762" data-name="Path 884762" d="M185.127,76.9a2.849,2.849,0,0,0,2.212.638c0,.062-.007.124-.01.177-.039.636-.111,1.819.991,2.258a4.21,4.21,0,0,0,1.368.181,3.805,3.805,0,0,0,1.812-.348c.806-.519.754-1.537.716-2.279v-.007a2.719,2.719,0,0,0,2.164-.59c.61-.621.635-1.6.485-2.882-.185-1.574-1.671-1.631-2.6-1.61a2.717,2.717,0,0,0-.582-2.116,2.879,2.879,0,0,0-2.461-.52c-1.995.211-1.938,1.551-1.9,2.529,0,.039,0,.077,0,.116l-.055,0c-.907-.029-2.427-.081-2.595,1.754-.116,1.279-.08,2.131.452,2.7" transform="translate(-158.86 -60.025)" fill="#fff"/>
          </g>
        </g>
      </g>
    </g>
  </g>
</svg>
