<svg xmlns="http://www.w3.org/2000/svg" xmlns:xlink="http://www.w3.org/1999/xlink" width="70" height="70" viewBox="0 0 70 70">
  <defs>
    <clipPath id="clip-path">
      <rect id="Rectangle_405495" data-name="Rectangle 405495" width="42.21" height="42.86" fill="#006543"/>
    </clipPath>
  </defs>
  <g id="Group_1109785" data-name="Group 1109785" transform="translate(-268.711 -957.523)">
    <circle id="Ellipse_5614" data-name="Ellipse 5614" cx="35" cy="35" r="35" transform="translate(268.711 957.523)" fill="#fff"/>
    <g id="Group_1110852" data-name="Group 1110852" transform="translate(282.711 971.523)">
      <g id="Group_1110851" data-name="Group 1110851" clip-path="url(#clip-path)">
        <path id="Path_884815" data-name="Path 884815" d="M257.93,254.2c0-.009,0-.019,0-.028a4.3,4.3,0,0,0-.242-1.316,2.867,2.867,0,0,0-2.64-2.166H250.8V246.44a5.37,5.37,0,0,0-.422-1.243,2.78,2.78,0,0,0-.633-.786l-.013-.016h-.006a4.137,4.137,0,0,0-5.039,0h-.041c-.042.054-.085.1-.128.156a2.766,2.766,0,0,0-.37.451,2.05,2.05,0,0,0-.163.266,5.7,5.7,0,0,0-.391,1.187v4.237h-4.235a2.725,2.725,0,0,0-.609.165c-.109.031-.2.059-.238.072a3.345,3.345,0,0,0-2.055,3.345c0,.037,0,.075,0,.112,0,.009,0,.019,0,.028a4.3,4.3,0,0,0,.242,1.316,2.867,2.867,0,0,0,2.64,2.166h4.252v4.252a5.37,5.37,0,0,0,.422,1.243,2.777,2.777,0,0,0,.633.786l.013.016h.006a4.137,4.137,0,0,0,5.039,0h.041c.042-.054.085-.1.128-.156a2.764,2.764,0,0,0,.37-.451,2.034,2.034,0,0,0,.163-.266,5.7,5.7,0,0,0,.391-1.187V257.9h4.235a2.727,2.727,0,0,0,.609-.165c.109-.031.2-.059.238-.072a3.344,3.344,0,0,0,2.055-3.345c0-.037,0-.075,0-.112" transform="translate(-215.723 -222.189)" fill="#006543"/>
        <path id="Path_884816" data-name="Path 884816" d="M23.117,246.453c.267-.03,1.115.06,1.222-.093A9.476,9.476,0,0,1,24.9,243.2a12.051,12.051,0,0,0-1.879-.358c-5.2-.349-10.892.188-16.123.1a9.154,9.154,0,0,0-5.667,3.363v.078l-.372.666c-.117.395-.29.78-.394,1.178a38.908,38.908,0,0,0-.349,9.191,1.692,1.692,0,0,0,1.116,1.39v.079H19.38c-4.13-3.933-2.281-11.758,3.737-12.438" transform="translate(0 -221.445)" fill="#006543"/>
        <path id="Path_884817" data-name="Path 884817" d="M90.91,13.505a8.924,8.924,0,1,0-15.012.473,8.946,8.946,0,0,0,15.012-.473" transform="translate(-67.812 0)" fill="#006543"/>
      </g>
    </g>
  </g>
</svg>
