<svg xmlns="http://www.w3.org/2000/svg" xmlns:xlink="http://www.w3.org/1999/xlink" width="178" height="178" viewBox="0 0 178 178">
  <defs>
    <clipPath id="clip-path">
      <rect id="Rectangle_406027" data-name="Rectangle 406027" width="92.428" height="80.022" fill="none"/>
    </clipPath>
    <clipPath id="clip-path-2">
      <rect id="Rectangle_405956" data-name="Rectangle 405956" width="92.428" height="80.021" fill="none"/>
    </clipPath>
    <clipPath id="clip-path-3">
      <rect id="Rectangle_405951" data-name="Rectangle 405951" width="13.612" height="3.211" fill="none"/>
    </clipPath>
    <clipPath id="clip-path-7">
      <rect id="Rectangle_405963" data-name="Rectangle 405963" width="6.329" height="21.01" fill="none"/>
    </clipPath>
    <clipPath id="clip-path-8">
      <rect id="Rectangle_405964" data-name="Rectangle 405964" width="5.094" height="20.505" fill="none"/>
    </clipPath>
  </defs>
  <g id="Group_1111619" data-name="Group 1111619" transform="translate(-703.785 -7317.38)">
    <g id="Group_1109453" data-name="Group 1109453" transform="translate(703.785 7317.381)">
      <path id="Path_882862" data-name="Path 882862" d="M89,0A89,89,0,1,1,0,89,89,89,0,0,1,89,0Z" transform="translate(0 -0.001)" fill="#005865"/>
      <path id="Path_882863" data-name="Path 882863" d="M78.668,0A78.668,78.668,0,1,1,0,78.668,78.668,78.668,0,0,1,78.668,0Z" transform="translate(10.332 10.331)" fill="#f3f9ff"/>
    </g>
    <g id="Group_1109456" data-name="Group 1109456" transform="translate(742.785 7356.38)">
      <rect id="Rectangle_401104" data-name="Rectangle 401104" width="99.117" height="100.574" fill="none"/>
      <g id="Group_1111447" data-name="Group 1111447" transform="translate(3.165 13.931)">
        <g id="Group_1111446" data-name="Group 1111446" clip-path="url(#clip-path)">
          <rect id="Rectangle_405945" data-name="Rectangle 405945" width="92.428" height="4.077" transform="translate(0 63.919)" fill="#fed974"/>
          <rect id="Rectangle_405946" data-name="Rectangle 405946" width="92.428" height="4.074" transform="translate(0 75.948)" fill="#fed974"/>
          <rect id="Rectangle_405947" data-name="Rectangle 405947" width="13.612" height="7.953" transform="translate(0 67.995)" fill="#e5c368"/>
          <rect id="Rectangle_405948" data-name="Rectangle 405948" width="13.611" height="7.953" transform="translate(39.41 67.995)" fill="#e5c368"/>
          <rect id="Rectangle_405949" data-name="Rectangle 405949" width="13.612" height="7.953" transform="translate(78.817 67.995)" fill="#e5c368"/>
          <g id="Group_1111437" data-name="Group 1111437" transform="translate(0 0)">
            <g id="Group_1111436" data-name="Group 1111436" clip-path="url(#clip-path-2)">
              <g id="Group_1111429" data-name="Group 1111429" transform="translate(0 67.995)" opacity="0.57" style="mix-blend-mode: multiply;isolation: isolate">
                <g id="Group_1111428" data-name="Group 1111428">
                  <g id="Group_1111427" data-name="Group 1111427" clip-path="url(#clip-path-3)">
                    <rect id="Rectangle_405950" data-name="Rectangle 405950" width="13.611" height="3.211" transform="translate(0 0)" fill="#e7d3b6"/>
                  </g>
                </g>
              </g>
              <g id="Group_1111432" data-name="Group 1111432" transform="translate(39.41 67.995)" opacity="0.57" style="mix-blend-mode: multiply;isolation: isolate">
                <g id="Group_1111431" data-name="Group 1111431">
                  <g id="Group_1111430" data-name="Group 1111430" clip-path="url(#clip-path-3)">
                    <rect id="Rectangle_405952" data-name="Rectangle 405952" width="13.611" height="3.211" transform="translate(0 0)" fill="#e7d3b6"/>
                  </g>
                </g>
              </g>
              <g id="Group_1111435" data-name="Group 1111435" transform="translate(78.816 67.995)" opacity="0.57" style="mix-blend-mode: multiply;isolation: isolate">
                <g id="Group_1111434" data-name="Group 1111434">
                  <g id="Group_1111433" data-name="Group 1111433" clip-path="url(#clip-path-3)">
                    <rect id="Rectangle_405954" data-name="Rectangle 405954" width="13.611" height="3.211" transform="translate(0.001 0)" fill="#e7d3b6"/>
                  </g>
                </g>
              </g>
            </g>
          </g>
          <rect id="Rectangle_405957" data-name="Rectangle 405957" width="15.845" height="39.268" transform="translate(40.756 24.652)" fill="#bea37f"/>
          <rect id="Rectangle_405958" data-name="Rectangle 405958" width="37.194" height="41.011" transform="translate(3.562 22.91)" fill="#e7c69a"/>
          <rect id="Rectangle_405959" data-name="Rectangle 405959" width="39.33" height="31.953" transform="translate(46.822 31.966)" fill="#e7c69a"/>
          <rect id="Rectangle_405960" data-name="Rectangle 405960" width="37.193" height="24.214" transform="translate(29.293 39.707)" fill="#f6d3a5"/>
          <rect id="Rectangle_405961" data-name="Rectangle 405961" width="25.058" height="22.91" transform="translate(13.001 0)" fill="#dabb92"/>
          <rect id="Rectangle_405962" data-name="Rectangle 405962" width="25.058" height="22.912" transform="translate(50.138 9.054)" fill="#dabb92"/>
          <g id="Group_1111445" data-name="Group 1111445" transform="translate(0 0)">
            <g id="Group_1111444" data-name="Group 1111444" clip-path="url(#clip-path-2)">
              <g id="Group_1111440" data-name="Group 1111440" transform="translate(22.965 42.91)" opacity="0.57" style="mix-blend-mode: multiply;isolation: isolate">
                <g id="Group_1111439" data-name="Group 1111439">
                  <g id="Group_1111438" data-name="Group 1111438" clip-path="url(#clip-path-7)">
                    <path id="Path_885937" data-name="Path 885937" d="M22.675,27.7V48.711H16.346L20.854,27.7Z" transform="translate(-16.346 -27.701)" fill="#e7d3b6"/>
                  </g>
                </g>
              </g>
              <g id="Group_1111443" data-name="Group 1111443" transform="translate(66.486 43.415)" opacity="0.57" style="mix-blend-mode: multiply;isolation: isolate">
                <g id="Group_1111442" data-name="Group 1111442">
                  <g id="Group_1111441" data-name="Group 1111441" clip-path="url(#clip-path-8)">
                    <path id="Path_885938" data-name="Path 885938" d="M47.323,48.532h5.094L48.7,28.028h-1.38Z" transform="translate(-47.323 -28.027)" fill="#e7d3b6"/>
                  </g>
                </g>
              </g>
              <path id="Path_885939" data-name="Path 885939" d="M23.123,29.576a1.557,1.557,0,0,0,.4,1.067,1.332,1.332,0,0,0,.8.429c-.006.61-.11,1.695-.733,1.695v.27h1.8v-.27c-.627,0-.724-1.084-.733-1.695a1.471,1.471,0,0,0,1.2-1.5V28.027H23.123Z" transform="translate(9.363 15.387)" fill="#988d87"/>
              <path id="Path_885940" data-name="Path 885940" d="M26.105,32.191h.584V29.142h.292l-.291-.556-.291-.559-.3.559-.291.556h.291Z" transform="translate(10.453 15.387)" fill="#988d87"/>
              <path id="Path_885941" data-name="Path 885941" d="M27.656,28.027l-.294.558-.292.558h.292v3.048h.584V29.143h.292l-.292-.558Z" transform="translate(10.962 15.388)" fill="#988d87"/>
              <rect id="Rectangle_405965" data-name="Rectangle 405965" width="2.933" height="0.486" transform="translate(36.267 47.938)" fill="#988d87"/>
              <path id="Path_885942" data-name="Path 885942" d="M30.406,29.254h1.738a2.063,2.063,0,0,0-3.772,0h1.741v2.661a.718.718,0,0,1-.128.454.567.567,0,0,1-.461.178v.321a.817.817,0,0,0,.677-.285,1.038,1.038,0,0,0,.205-.682Z" transform="translate(11.489 15.387)" fill="#988d87"/>
              <path id="Path_885943" data-name="Path 885943" d="M4.845,18.949a1.575,1.575,0,0,0,.4,1.067,1.327,1.327,0,0,0,.8.429c-.006.612-.11,1.7-.733,1.7v.27h1.8v-.27c-.625,0-.724-1.084-.732-1.7a1.471,1.471,0,0,0,1.2-1.5V17.4H4.845Z" transform="translate(1.962 9.554)" fill="#afa29b"/>
              <path id="Path_885944" data-name="Path 885944" d="M7.826,21.563H8.41V18.517h.3l-.292-.558L8.12,17.4l-.294.556-.291.558h.291Z" transform="translate(3.051 9.554)" fill="#afa29b"/>
              <path id="Path_885945" data-name="Path 885945" d="M9.377,17.4l-.292.556-.294.559h.294v3.045h.583V18.518h.3l-.3-.559Z" transform="translate(3.56 9.554)" fill="#afa29b"/>
              <rect id="Rectangle_405966" data-name="Rectangle 405966" width="2.936" height="0.488" transform="translate(10.586 31.478)" fill="#afa29b"/>
              <path id="Path_885946" data-name="Path 885946" d="M12.127,18.627h1.739a2.064,2.064,0,0,0-3.772,0h1.738V21.29a.722.722,0,0,1-.128.454.569.569,0,0,1-.458.177v.321a.819.819,0,0,0,.676-.283,1.04,1.04,0,0,0,.2-.683Z" transform="translate(4.087 9.554)" fill="#afa29b"/>
              <path id="Path_885947" data-name="Path 885947" d="M52.133,24.992a1.582,1.582,0,0,0,.4,1.067,1.321,1.321,0,0,0,.8.428c0,.615-.107,1.7-.731,1.7v.266h1.8v-.266c-.627,0-.726-1.084-.732-1.7a1.466,1.466,0,0,0,1.2-1.495V23.446H52.133Z" transform="translate(21.11 12.872)" fill="#aa9d97"/>
              <path id="Path_885948" data-name="Path 885948" d="M55.117,27.608H55.7V24.561h.3L55.7,24l-.288-.558L55.117,24l-.294.558h.294Z" transform="translate(22.2 12.872)" fill="#aa9d97"/>
              <path id="Path_885949" data-name="Path 885949" d="M56.663,23.446,56.373,24l-.292.559h.292v3.047h.583V24.562h.294L56.956,24Z" transform="translate(22.709 12.872)" fill="#aa9d97"/>
              <rect id="Rectangle_405967" data-name="Rectangle 405967" width="2.936" height="0.486" transform="translate(77.023 40.84)" fill="#aa9d97"/>
              <path id="Path_885950" data-name="Path 885950" d="M59.415,24.67h1.737a2.062,2.062,0,0,0-3.768,0h1.736l0,2.663a.72.72,0,0,1-.128.454.577.577,0,0,1-.461.177v.322A.823.823,0,0,0,59.209,28a1.042,1.042,0,0,0,.205-.682Z" transform="translate(23.236 12.872)" fill="#aa9d97"/>
              <path id="Path_885951" data-name="Path 885951" d="M37.268,8.56a1.2,1.2,0,0,0,.3.805,1.008,1.008,0,0,0,.6.324c0,.46-.08,1.279-.551,1.279v.2h1.36v-.2c-.472,0-.547-.819-.552-1.279A1.109,1.109,0,0,0,39.34,8.56V7.394H37.268Z" transform="translate(15.091 4.059)" fill="#b2a49e"/>
              <path id="Path_885952" data-name="Path 885952" d="M39.516,10.53h.44V8.236h.223l-.223-.421-.218-.42-.222.42-.219.421h.219Z" transform="translate(15.913 4.06)" fill="#b2a49e"/>
              <path id="Path_885953" data-name="Path 885953" d="M40.684,7.394l-.221.421-.219.42h.219V10.53h.441V8.236h.219l-.219-.42Z" transform="translate(16.296 4.059)" fill="#b2a49e"/>
              <rect id="Rectangle_405968" data-name="Rectangle 405968" width="2.211" height="0.367" transform="translate(55.21 14.864)" fill="#b2a49e"/>
              <path id="Path_885954" data-name="Path 885954" d="M42.761,8.319h1.311a1.558,1.558,0,0,0-2.846,0h1.312v2.008a.525.525,0,0,1-.1.342.428.428,0,0,1-.347.132v.245a.62.62,0,0,0,.511-.215.8.8,0,0,0,.155-.516Z" transform="translate(16.693 4.059)" fill="#b2a49e"/>
              <path id="Path_885955" data-name="Path 885955" d="M11.436,2.609a1.189,1.189,0,0,0,.306.805.981.981,0,0,0,.6.321c0,.463-.08,1.281-.552,1.281v.2h1.361v-.2c-.472,0-.548-.818-.554-1.281a1.106,1.106,0,0,0,.909-1.126V1.441H11.436Z" transform="translate(4.631 0.791)" fill="#b2a49e"/>
              <path id="Path_885956" data-name="Path 885956" d="M13.684,4.579h.441v-2.3h.222l-.222-.421-.219-.42-.222.42-.218.421h.218Z" transform="translate(5.453 0.791)" fill="#b2a49e"/>
              <path id="Path_885957" data-name="Path 885957" d="M14.852,1.441l-.221.42-.218.421h.218v2.3h.441v-2.3h.221l-.221-.421Z" transform="translate(5.837 0.791)" fill="#b2a49e"/>
              <rect id="Rectangle_405969" data-name="Rectangle 405969" width="2.211" height="0.366" transform="translate(18.919 5.645)" fill="#b2a49e"/>
              <path id="Path_885958" data-name="Path 885958" d="M16.926,2.366h1.312a1.556,1.556,0,0,0-2.845,0h1.314V4.373a.539.539,0,0,1-.1.342.419.419,0,0,1-.344.135v.242a.619.619,0,0,0,.51-.214.767.767,0,0,0,.153-.516Z" transform="translate(6.233 0.791)" fill="#b2a49e"/>
              <rect id="Rectangle_405970" data-name="Rectangle 405970" width="0.698" height="5.401" transform="translate(55.54 56.313)" fill="#988d87"/>
              <rect id="Rectangle_405971" data-name="Rectangle 405971" width="0.702" height="5.401" transform="translate(57.58 56.313)" fill="#988d87"/>
              <rect id="Rectangle_405972" data-name="Rectangle 405972" width="0.351" height="5.401" transform="translate(56.62 56.313)" fill="#988d87"/>
              <rect id="Rectangle_405973" data-name="Rectangle 405973" width="0.539" height="5.401" transform="translate(58.515 56.313)" fill="#988d87"/>
              <rect id="Rectangle_405974" data-name="Rectangle 405974" width="0.174" height="5.401" transform="translate(57.247 56.313)" fill="#988d87"/>
              <rect id="Rectangle_405975" data-name="Rectangle 405975" width="0.701" height="5.401" transform="translate(62.774 56.313)" fill="#988d87"/>
              <rect id="Rectangle_405976" data-name="Rectangle 405976" width="0.35" height="5.401" transform="translate(61.811 56.313)" fill="#988d87"/>
              <rect id="Rectangle_405977" data-name="Rectangle 405977" width="0.176" height="5.401" transform="translate(62.438 56.313)" fill="#988d87"/>
              <rect id="Rectangle_405978" data-name="Rectangle 405978" width="0.177" height="5.401" transform="translate(59.243 56.313)" fill="#988d87"/>
              <rect id="Rectangle_405979" data-name="Rectangle 405979" width="0.173" height="5.401" transform="translate(60.106 56.313)" fill="#988d87"/>
              <rect id="Rectangle_405980" data-name="Rectangle 405980" width="0.174" height="5.401" transform="translate(60.426 56.313)" fill="#988d87"/>
              <rect id="Rectangle_405981" data-name="Rectangle 405981" width="0.502" height="5.401" transform="translate(60.803 56.313)" fill="#988d87"/>
              <rect id="Rectangle_405982" data-name="Rectangle 405982" width="0.253" height="5.401" transform="translate(61.457 56.313)" fill="#988d87"/>
              <rect id="Rectangle_405983" data-name="Rectangle 405983" width="0.281" height="5.401" transform="translate(59.6 56.313)" fill="#988d87"/>
              <rect id="Rectangle_405984" data-name="Rectangle 405984" width="0.545" height="4.229" transform="translate(77.131 57.486)" fill="#aa9d97"/>
              <rect id="Rectangle_405985" data-name="Rectangle 405985" width="0.549" height="4.229" transform="translate(78.73 57.486)" fill="#aa9d97"/>
              <rect id="Rectangle_405986" data-name="Rectangle 405986" width="0.274" height="4.229" transform="translate(77.977 57.486)" fill="#aa9d97"/>
              <rect id="Rectangle_405987" data-name="Rectangle 405987" width="0.421" height="4.229" transform="translate(79.46 57.486)" fill="#aa9d97"/>
              <rect id="Rectangle_405988" data-name="Rectangle 405988" width="0.138" height="4.229" transform="translate(78.467 57.486)" fill="#aa9d97"/>
              <rect id="Rectangle_405989" data-name="Rectangle 405989" width="0.551" height="4.229" transform="translate(82.791 57.486)" fill="#aa9d97"/>
              <rect id="Rectangle_405990" data-name="Rectangle 405990" width="0.27" height="4.229" transform="translate(82.042 57.486)" fill="#aa9d97"/>
              <rect id="Rectangle_405991" data-name="Rectangle 405991" width="0.136" height="4.229" transform="translate(82.531 57.486)" fill="#aa9d97"/>
              <rect id="Rectangle_405992" data-name="Rectangle 405992" width="0.138" height="4.229" transform="translate(80.031 57.486)" fill="#aa9d97"/>
              <rect id="Rectangle_405993" data-name="Rectangle 405993" width="0.135" height="4.229" transform="translate(80.705 57.486)" fill="#aa9d97"/>
              <rect id="Rectangle_405994" data-name="Rectangle 405994" width="0.136" height="4.229" transform="translate(80.955 57.486)" fill="#aa9d97"/>
              <rect id="Rectangle_405995" data-name="Rectangle 405995" width="0.392" height="4.229" transform="translate(81.25 57.486)" fill="#aa9d97"/>
              <rect id="Rectangle_405996" data-name="Rectangle 405996" width="0.197" height="4.229" transform="translate(81.763 57.486)" fill="#aa9d97"/>
              <rect id="Rectangle_405997" data-name="Rectangle 405997" width="0.219" height="4.229" transform="translate(80.309 57.486)" fill="#aa9d97"/>
              <rect id="Rectangle_405998" data-name="Rectangle 405998" width="0.472" height="3.648" transform="translate(67.888 25.813)" fill="#b2a49e"/>
              <rect id="Rectangle_405999" data-name="Rectangle 405999" width="0.475" height="3.648" transform="translate(69.266 25.813)" fill="#b2a49e"/>
              <rect id="Rectangle_406000" data-name="Rectangle 406000" width="0.235" height="3.648" transform="translate(68.618 25.813)" fill="#b2a49e"/>
              <rect id="Rectangle_406001" data-name="Rectangle 406001" width="0.365" height="3.648" transform="translate(69.897 25.813)" fill="#b2a49e"/>
              <rect id="Rectangle_406002" data-name="Rectangle 406002" width="0.118" height="3.648" transform="translate(69.04 25.813)" fill="#b2a49e"/>
              <rect id="Rectangle_406003" data-name="Rectangle 406003" width="0.473" height="3.648" transform="translate(72.77 25.813)" fill="#b2a49e"/>
              <rect id="Rectangle_406004" data-name="Rectangle 406004" width="0.236" height="3.648" transform="translate(72.121 25.813)" fill="#b2a49e"/>
              <rect id="Rectangle_406005" data-name="Rectangle 406005" width="0.119" height="3.648" transform="translate(72.544 25.813)" fill="#b2a49e"/>
              <rect id="Rectangle_406006" data-name="Rectangle 406006" width="0.118" height="3.648" transform="translate(70.39 25.813)" fill="#b2a49e"/>
              <rect id="Rectangle_406007" data-name="Rectangle 406007" width="0.117" height="3.648" transform="translate(70.97 25.813)" fill="#b2a49e"/>
              <rect id="Rectangle_406008" data-name="Rectangle 406008" width="0.118" height="3.648" transform="translate(71.185 25.813)" fill="#b2a49e"/>
              <rect id="Rectangle_406009" data-name="Rectangle 406009" width="0.339" height="3.648" transform="translate(71.439 25.813)" fill="#b2a49e"/>
              <rect id="Rectangle_406010" data-name="Rectangle 406010" width="0.169" height="3.648" transform="translate(71.883 25.813)" fill="#b2a49e"/>
              <rect id="Rectangle_406011" data-name="Rectangle 406011" width="0.191" height="3.648" transform="translate(70.626 25.813)" fill="#b2a49e"/>
              <rect id="Rectangle_406012" data-name="Rectangle 406012" width="0.473" height="3.646" transform="translate(31.181 17.423)" fill="#b2a49e"/>
              <rect id="Rectangle_406013" data-name="Rectangle 406013" width="0.473" height="3.646" transform="translate(32.561 17.423)" fill="#b2a49e"/>
              <rect id="Rectangle_406014" data-name="Rectangle 406014" width="0.236" height="3.646" transform="translate(31.912 17.423)" fill="#b2a49e"/>
              <rect id="Rectangle_406015" data-name="Rectangle 406015" width="0.365" height="3.646" transform="translate(33.192 17.423)" fill="#b2a49e"/>
              <rect id="Rectangle_406016" data-name="Rectangle 406016" width="0.118" height="3.646" transform="translate(32.335 17.423)" fill="#b2a49e"/>
              <rect id="Rectangle_406017" data-name="Rectangle 406017" width="0.473" height="3.646" transform="translate(36.065 17.423)" fill="#b2a49e"/>
              <rect id="Rectangle_406018" data-name="Rectangle 406018" width="0.236" height="3.646" transform="translate(35.416 17.423)" fill="#b2a49e"/>
              <rect id="Rectangle_406019" data-name="Rectangle 406019" width="0.118" height="3.646" transform="translate(35.838 17.423)" fill="#b2a49e"/>
              <rect id="Rectangle_406020" data-name="Rectangle 406020" width="0.118" height="3.646" transform="translate(33.683 17.423)" fill="#b2a49e"/>
              <rect id="Rectangle_406021" data-name="Rectangle 406021" width="0.118" height="3.646" transform="translate(34.264 17.423)" fill="#b2a49e"/>
              <rect id="Rectangle_406022" data-name="Rectangle 406022" width="0.118" height="3.646" transform="translate(34.48 17.423)" fill="#b2a49e"/>
              <rect id="Rectangle_406023" data-name="Rectangle 406023" width="0.339" height="3.646" transform="translate(34.734 17.423)" fill="#b2a49e"/>
              <rect id="Rectangle_406024" data-name="Rectangle 406024" width="0.17" height="3.646" transform="translate(35.177 17.423)" fill="#b2a49e"/>
              <rect id="Rectangle_406025" data-name="Rectangle 406025" width="0.191" height="3.646" transform="translate(33.921 17.423)" fill="#b2a49e"/>
            </g>
          </g>
        </g>
      </g>
    </g>
  </g>
</svg>
