<svg xmlns="http://www.w3.org/2000/svg" xmlns:xlink="http://www.w3.org/1999/xlink" width="400" height="802.354" viewBox="0 0 400 802.354">
  <defs>
    <linearGradient id="linear-gradient" x1="0.5" x2="0.5" y2="1" gradientUnits="objectBoundingBox">
      <stop offset="0" stop-color="#eed"/>
      <stop offset="1" stop-color="#fbf4ec"/>
    </linearGradient>
    <linearGradient id="linear-gradient-2" x1="0.5" x2="0.5" y2="1" gradientUnits="objectBoundingBox">
      <stop offset="0" stop-color="#f6fffa"/>
      <stop offset="1" stop-color="#e1feff"/>
    </linearGradient>
    <clipPath id="clip-path">
      <path id="Path_611005" data-name="Path 611005" d="M0,0H400V782.025H0Z" fill="url(#linear-gradient)"/>
    </clipPath>
    <clipPath id="clip-path-2">
      <rect id="Rectangle_405908" data-name="Rectangle 405908" width="304.333" height="268.609" fill="none"/>
    </clipPath>
  </defs>
  <g id="Group_1111611" data-name="Group 1111611" transform="translate(926.5 5457.021)">
    <g id="Group_1111405" data-name="Group 1111405">
      <g id="Group_1073695" data-name="Group 1073695" transform="translate(-241.5 -4208.167) rotate(180)">
        <path id="Path_608309" data-name="Path 608309" d="M0,0H400V802.354H0Z" transform="translate(285 446.5)" fill="url(#linear-gradient-2)"/>
      </g>
      <g id="Group_1111402" data-name="Group 1111402" transform="translate(-1442.5 -5430.781)">
        <g id="Group_1111390" data-name="Group 1111390" transform="translate(560 -17.628)">
          <g id="Group_1111389" data-name="Group 1111389" transform="translate(0 0)" clip-path="url(#clip-path-2)">
            <line id="Line_3251" data-name="Line 3251" x2="26.631" transform="translate(15.182 86.245)" fill="none" stroke="#95b0bd" stroke-miterlimit="10" stroke-width="1"/>
            <g id="Group_1111396" data-name="Group 1111396" transform="translate(10.002 7.388)">
              <path id="Path_885794" data-name="Path 885794" d="M198.914,537.549c0,2.31-14.487,4.182-32.359,4.182s-32.359-1.872-32.359-4.182,14.488-4.182,32.359-4.182,32.359,1.872,32.359,4.182" transform="translate(-57.448 -297.783)" fill="#c3e8d0"/>
              <rect id="Rectangle_405897" data-name="Rectangle 405897" width="46.896" height="39.96" transform="translate(88.005 201.664)" fill="#a86031"/>
              <path id="Path_885795" data-name="Path 885795" d="M196.022,487.225h-46.9l4.846-2.167h46.9Z" transform="translate(-61.121 -285.562)" fill="#d9854c"/>
              <path id="Path_885796" data-name="Path 885796" d="M216.173,525.018l-4.846,2.169v-39.96l4.846-2.169Z" transform="translate(-76.426 -285.562)" fill="#804c2a"/>
              <rect id="Rectangle_405898" data-name="Rectangle 405898" width="46.896" height="39.96" transform="translate(92.382 159.845)" fill="#a86031"/>
              <path id="Path_885797" data-name="Path 885797" d="M201.828,431.244h-46.9l4.846-2.167h46.9Z" transform="translate(-62.55 -271.4)" fill="#d9854c"/>
              <path id="Path_885798" data-name="Path 885798" d="M221.979,469.037l-4.846,2.169v-39.96l4.846-2.169Z" transform="translate(-77.855 -271.4)" fill="#804c2a"/>
              <rect id="Rectangle_405899" data-name="Rectangle 405899" width="46.896" height="39.96" transform="translate(85.504 118.645)" fill="#a86031"/>
              <path id="Path_885799" data-name="Path 885799" d="M192.7,376.092h-46.9l4.846-2.167h46.9Z" transform="translate(-60.305 -257.447)" fill="#d9854c"/>
              <path id="Path_885800" data-name="Path 885800" d="M212.856,413.885l-4.846,2.169v-39.96l4.846-2.169Z" transform="translate(-75.61 -257.447)" fill="#804c2a"/>
              <path id="Path_885801" data-name="Path 885801" d="M32.4,530.842c0,2.4,15.032,4.339,33.575,4.339s33.575-1.943,33.575-4.339S84.519,526.5,65.975,526.5,32.4,528.446,32.4,530.842" transform="translate(-32.4 -296.047)" fill="#c3e8d0"/>
              <path id="Path_885802" data-name="Path 885802" d="M61.311,516.118s-1.7,9.518,5.039,12.337c5.1,2.134,6.355,5.906,5.169,7.224-2.583,2.87-7.81.744-10.417-.555s-1.873-3-3.738-4.788-5.074-.508-4.868-3.953,1.432-9.775,1.432-9.775Z" transform="translate(-37.342 -293.419)" fill="#333"/>
              <path id="Path_885803" data-name="Path 885803" d="M98.128,518.029s.18,3.15,5.261,4.8,11.875,1.767,13.331,3.024.21,3.919-.939,4.259a45.087,45.087,0,0,1-12.611-.2c-3.731-.841-5.426-1.316-6.907-.887a15.631,15.631,0,0,1-4.775.717c-1.815-.026-2.831-8.022-.858-11.028s7.5-.678,7.5-.678" transform="translate(-46.464 -293.685)" fill="#333"/>
              <path id="Path_885804" data-name="Path 885804" d="M93.655,488.168c-.571-11.446,5.582-43.612,5.582-43.612a7.315,7.315,0,0,0-.091-1.881L88.8,391.887l-25.645,2.777,22.127,49.579L82.73,488.489l4.864.746a9.586,9.586,0,0,0,6.062-1.068" transform="translate(-39.968 -261.991)" fill="#ff424c"/>
              <path id="Path_885805" data-name="Path 885805" d="M83.2,406.275s7.881,15.257,2.572,36.133l-10.7-23.985c3.01-4.394,8.133-12.147,8.133-12.147" transform="translate(-42.898 -265.631)" fill="#d12a32"/>
              <path id="Path_885806" data-name="Path 885806" d="M61.975,491.894c1.126-15.126,7.216-33.89,10.707-39.86a9.609,9.609,0,0,0,1.309-4.621L81.1,394.342l-21.4-.1-2.293,8.311a28.1,28.1,0,0,0-.164,8.432l1.956,8.189.112,28.2c-4.773,9.336-3.916,11.719-4.482,27.418l-2.184,16.963,3.36.937a7.638,7.638,0,0,0,5.967-.8" transform="translate(-37.382 -262.587)" fill="#ff424c"/>
              <path id="Path_885807" data-name="Path 885807" d="M145.264,339.978l4.666-.069a4.766,4.766,0,0,0,3.957-1.413s2.078-3.131,2.137-3.3c.544-1.573.582-1.468.455-2.519-.143-1.174-.291-1.464-1.087-1.593-.525-.084-2.441,1.369-2.845,1.646-.866.6-.62.163-3.329,1.224l-.81-.171c-1.726-.273,3.275-1.274,2.079-3.694L146.6,332.6a1.338,1.338,0,0,0-.4.444l-2.5,3.228Z" transform="translate(-59.786 -246.358)" fill="#ffb780"/>
              <path id="Path_885808" data-name="Path 885808" d="M98.366,348.739l10.851,5.368a2.479,2.479,0,0,0,2.251-.028l24.09-12.675-2.194-3.25-21.25,6.313-8.357-4.02" transform="translate(-48.631 -248.398)" fill="#ffb780"/>
              <path id="Path_885809" data-name="Path 885809" d="M98.4,338.582l-15.26-7.342a4.567,4.567,0,0,0-6.451,3.126,4.5,4.5,0,0,0,2.272,4.9L94.6,349.745" transform="translate(-43.273 -246.533)" fill="#fff"/>
              <path id="Path_885810" data-name="Path 885810" d="M116.205,346.578a3.509,3.509,0,0,0,2.633.625l.061.442c-.673.128-1.346.3-2.021.424-.544.143-1.482.162-1.911.546l-.054-.019c.133-.391.525-.539.83-.707a8.834,8.834,0,0,1,3.1-.686.223.223,0,1,1,.062.442,3.5,3.5,0,0,1-2.735-1.026Z" transform="translate(-52.703 -250.529)" fill="#da8d66"/>
              <path id="Path_885811" data-name="Path 885811" d="M76.847,333.924a4.569,4.569,0,0,1,6.328-2.683l1.8.867c1.543,2.038,3.13,4.5,4.558,6.725,2.143,3.331,3.234,7.784,3.9,10.106L79,339.267a4.508,4.508,0,0,1-2.259-3.024,21.911,21.911,0,0,1,.109-2.319" transform="translate(-43.31 -246.533)" fill="#c3e8d0"/>
              <path id="Path_885812" data-name="Path 885812" d="M76.562,330.5c-5.45-1.763-19-4.5-21.879,9.985-1.955,9.839,1.325,19.733,3.941,26.347,2.242,5.674,0,15.483,0,15.483l6.722.554a53.242,53.242,0,0,0,23.877-3.131l-3.394-18.642c.574-12.619.918-13.622-1.573-19.871-1.04-2.612-4.349-9.287-6.935-10.435a7.755,7.755,0,0,0-.755-.291" transform="translate(-37.737 -246.098)" fill="#fff"/>
              <path id="Path_885813" data-name="Path 885813" d="M73.664,303.235l-8.817,7.548,1.04,12.663a2.119,2.119,0,0,0,.773,1.638c4.055,2.671,7.379,1.183,7.379,1.183,3.236-.887.767-3.436.161-7.059Z" transform="translate(-40.384 -239.564)" fill="#ffb780"/>
              <path id="Path_885814" data-name="Path 885814" d="M68.278,303.4l5.559-.164.535,15.973a14.306,14.306,0,0,0,.6,2.264c-1.781-.2-5.888-1.553-7.724-3.861-.906-1.138-1.065-2.626-1.463-4.911-.811-4.655.56-7.585,2.49-9.3" transform="translate(-40.557 -239.564)" fill="#da8d66"/>
              <path id="Path_885815" data-name="Path 885815" d="M75.756,300.081c1.384,1.872.621,4.038,2.5,7.354,1.163,2.051.306,4.667.145,6.462-.593,6.575-4.108,5.919-10.95,2.532-1.276-.631-2.087-4.174-2.32-6.421-1.109-10.68,9.487-11.466,10.624-9.928" transform="translate(-40.434 -238.614)" fill="#ffb780"/>
              <path id="Path_885816" data-name="Path 885816" d="M58.43,303.032c-.584-8.983,13-8.739,14.949-7.337,3.768,2.711,1.485,4.413,1.485,4.413a1.586,1.586,0,0,0-1.247-.719c-2.308.422-10.367,2.363-7.658,8.606.683,1.574-.682,2.228-2.33,2.37-.079,1.933.267,4.911.02,4.737-.585-.412-4.446-.18-5.219-12.07" transform="translate(-38.8 -237.472)" fill="#333"/>
              <path id="Path_885817" data-name="Path 885817" d="M67.5,316.642c-.728.682-2.122.394-3.111-.644s-1.2-2.432-.472-3.114,2.122-.394,3.112.644,1.2,2.432.471,3.114" transform="translate(-40.049 -241.912)" fill="#ffb780"/>
              <path id="Path_885818" data-name="Path 885818" d="M89.311,370.42l-6.22,2.361a2.594,2.594,0,0,1-2.279-.948L66.074,353.57,78.64,374.649a2.59,2.59,0,0,0,2.209,1.258l9.488-.034Z" transform="translate(-40.686 -252.298)" fill="#c3e8d0"/>
              <path id="Path_885819" data-name="Path 885819" d="M113.883,367.93l1,1.753,37.883-21.233a.464.464,0,0,0,.178-.636l-.769-1.346Z" transform="translate(-52.449 -250.501)" fill="#a86031"/>
              <path id="Path_885820" data-name="Path 885820" d="M118.462,361.128a5.951,5.951,0,0,0-2.412,2.346l-2.162,4.3,38.293-21.462-4.081-.483c-1,.155-29.638,15.3-29.638,15.3" transform="translate(-52.451 -250.34)" fill="#fff"/>
              <path id="Path_885821" data-name="Path 885821" d="M116.611,374.809s8.255-.886,10.9-4.756c.645-.945,5.623-4.714,1.221-2.73-2.767,1.247-6.74,3.814-7.424,2.243-.668-1.534,4.433-.994,3.71-3.891l-5.486,1.792a1.3,1.3,0,0,0-.5.3l-2.78,2.677Z" transform="translate(-53.033 -255.361)" fill="#ffb780"/>
              <path id="Path_885822" data-name="Path 885822" d="M68.886,362.991l8.159,11.195a2.47,2.47,0,0,0,2.219,1l26.58-2.424-.77-4.395L83.151,365l-5.8-7.194" transform="translate(-41.378 -253.369)" fill="#ffb780"/>
              <path id="Path_885823" data-name="Path 885823" d="M74.015,352.782,63.431,339.646a4.585,4.585,0,0,0-7.181.069,4.483,4.483,0,0,0-.078,5.393l9.372,12.859" transform="translate(-38.037 -248.346)" fill="#fff"/>
              <path id="Path_885824" data-name="Path 885824" d="M82.2,367.9a3.08,3.08,0,0,1,4.224-.651,22.1,22.1,0,0,0-4.224.651" transform="translate(-44.655 -255.614)" fill="#da8d66"/>
              <path id="Path_885825" data-name="Path 885825" d="M96.39,532.024a15.635,15.635,0,0,1-4.775.717c-.654-.009-1.2-1.054-1.546-2.525,1.269.3,2.867,1.228,4.892.666,1.439-.4,1.263-1.046,2.591-1.558,3.01-1.161,5,1.741,10.451,2.56,2.1.316,4.617.693,6.908-.633a7.146,7.146,0,0,0,2.219-2.082c.979,1.339-.161,3.632-1.221,3.946a45.093,45.093,0,0,1-12.612-.2c-3.731-.841-5.425-1.315-6.907-.887" transform="translate(-46.59 -296.692)"/>
              <path id="Path_885826" data-name="Path 885826" d="M52.5,529.485c.02-.342.051-.713.09-1.1.714,1.226,1.331,2.865,2.539,2.881.737.01,1.25-.61,2.014-.3a2.319,2.319,0,0,1,1.139,1.348c1,2.328,2.253,4.666,4.559,5.452,2.347.8,5.419,1.666,7.286.377a4.093,4.093,0,0,0,1.421-2.175,2.621,2.621,0,0,1-.026,2.82c-2.582,2.87-7.905,1.063-10.622-.576-2.493-1.5-1.668-2.983-3.532-4.767s-5.074-.507-4.868-3.952" transform="translate(-37.342 -296.522)"/>
              <path id="Path_885827" data-name="Path 885827" d="M80,312.071s-.255,3.158-10.027,3.078c0,0,2.506,6.126,7.128,4.688,2.922-.909,3.541-4.976,2.9-7.766" transform="translate(-41.644 -241.799)" fill="#fff"/>
              <path id="Path_885828" data-name="Path 885828" d="M67.695,313.411a7.607,7.607,0,0,0,4.279,4.242" transform="translate(-41.085 -242.138)" fill="#fff"/>
              <rect id="Rectangle_405900" data-name="Rectangle 405900" width="68.994" height="70.945" transform="translate(80.901)" fill="#fff"/>
              <path id="Path_885829" data-name="Path 885829" d="M155.778,234.377l1.424,1.245,1.84-2.315" transform="translate(-62.758 -221.874)" fill="none" stroke="#95b0bd" stroke-miterlimit="10" stroke-width="1"/>
              <rect id="Rectangle_405901" data-name="Rectangle 405901" width="5.575" height="5.524" transform="translate(91.83 9.876)" fill="none" stroke="#95b0bd" stroke-miterlimit="10" stroke-width="1"/>
              <path id="Path_885830" data-name="Path 885830" d="M155.778,249.213l1.424,1.245,1.84-2.315" transform="translate(-62.758 -225.627)" fill="none" stroke="#95b0bd" stroke-miterlimit="10" stroke-width="1"/>
              <rect id="Rectangle_405902" data-name="Rectangle 405902" width="5.575" height="5.524" transform="translate(91.83 20.958)" fill="none" stroke="#95b0bd" stroke-miterlimit="10" stroke-width="1"/>
              <line id="Line_3252" data-name="Line 3252" x2="36.996" transform="translate(101.009 23.585)" fill="none" stroke="#95b0bd" stroke-miterlimit="10" stroke-width="1"/>
              <path id="Path_885831" data-name="Path 885831" d="M155.778,264.048l1.424,1.245,1.84-2.315" transform="translate(-62.758 -229.38)" fill="none" stroke="#95b0bd" stroke-miterlimit="10" stroke-width="1"/>
              <rect id="Rectangle_405903" data-name="Rectangle 405903" width="5.575" height="5.524" transform="translate(91.83 32.04)" fill="none" stroke="#95b0bd" stroke-miterlimit="10" stroke-width="1"/>
              <line id="Line_3253" data-name="Line 3253" x2="36.996" transform="translate(101.009 34.668)" fill="none" stroke="#95b0bd" stroke-miterlimit="10" stroke-width="1"/>
              <rect id="Rectangle_405904" data-name="Rectangle 405904" width="5.575" height="5.524" transform="translate(91.83 43.123)" fill="none" stroke="#95b0bd" stroke-miterlimit="10" stroke-width="1"/>
              <line id="Line_3254" data-name="Line 3254" x2="36.996" transform="translate(101.009 45.75)" fill="none" stroke="#95b0bd" stroke-miterlimit="10" stroke-width="1"/>
              <rect id="Rectangle_405905" data-name="Rectangle 405905" width="5.575" height="5.524" transform="translate(91.83 54.205)" fill="none" stroke="#95b0bd" stroke-miterlimit="10" stroke-width="1"/>
              <line id="Line_3255" data-name="Line 3255" x2="36.996" transform="translate(101.009 56.833)" fill="none" stroke="#95b0bd" stroke-miterlimit="10" stroke-width="1"/>
              <path id="Path_885832" data-name="Path 885832" d="M139.705,308.993v10.028l10.248-9.652Z" transform="translate(-58.803 -241.021)" fill="#fff"/>
              <path id="Path_885833" data-name="Path 885833" d="M58.622,308.341S61.1,297.689,74.7,297.166c0,0,4.953-1.566,5.586-2.193s-4.286.4-6.113.993c0,0-4.854-5.835-11.278-2.141-10.716,6.161-6.166,11.348-4.269,14.516" transform="translate(-38.213 -236.874)" fill="#ff424c"/>
              <path id="Path_885834" data-name="Path 885834" d="M77.441,296.868s-5.112.052-8.116,2.193c0,0,1.607-1.874,7.431-2.892a3.925,3.925,0,0,1,.685.7" transform="translate(-41.486 -237.777)" fill="#d12a32"/>
              <path id="Path_885835" data-name="Path 885835" d="M256.087,345.152l3.452-12.73a4.861,4.861,0,0,0-9.439-2.306l-4.486,16.325" transform="translate(-84.863 -245.466)" fill="#fff"/>
              <path id="Path_885836" data-name="Path 885836" d="M266.985,318.806c-2.2.4-12.794,3.818-16.354,8.07L242.881,437.5s23.426,13.213,55.286-2.577L286.792,323.979l-15.4-6.59Z" transform="translate(-84.19 -243.145)" fill="#95b0bd"/>
              <path id="Path_885837" data-name="Path 885837" d="M303.428,532.873c0,2.5-15.705,4.534-35.079,4.534s-35.08-2.03-35.08-4.534,15.705-4.534,35.08-4.534,35.079,2.03,35.079,4.534" transform="translate(-81.825 -296.511)" fill="#c3e8d0"/>
              <path id="Path_885838" data-name="Path 885838" d="M247.477,515.509s1.245,10.024-5.942,12.6c-5.44,1.948-6.957,5.816-5.793,7.256,2.536,3.135,8.107,1.2,10.9-.012s2.12-3.033,4.166-4.793,5.322-.253,5.3-3.858-.952-10.276-.952-10.276Z" transform="translate(-82.343 -293.266)" fill="#333"/>
              <path id="Path_885839" data-name="Path 885839" d="M256.106,530.1c0-.358-.014-.748-.032-1.156-.813,1.239-1.547,2.916-2.808,2.868-.77-.03-1.271-.705-2.085-.427a2.429,2.429,0,0,0-1.264,1.345c-1.167,2.374-2.609,4.745-5.059,5.44-2.493.706-5.747,1.443-7.623,0a4.269,4.269,0,0,1-1.362-2.347,2.739,2.739,0,0,0-.13,2.944c2.535,3.135,8.189,1.539,11.115-.023,2.684-1.434,1.905-3.022,3.95-4.781s5.322-.254,5.3-3.859" transform="translate(-82.344 -296.663)"/>
              <path id="Path_885840" data-name="Path 885840" d="M301.609,517.444s.237,3.288,5.569,4.932,12.434,1.667,13.974,2.958.278,4.091-.915,4.464a47.125,47.125,0,0,1-13.178-.023c-3.911-.823-5.689-1.292-7.23-.823a16.342,16.342,0,0,1-4.978.822c-1.9,0-3.08-8.338-1.065-11.509s7.822-.821,7.822-.821" transform="translate(-96.458 -293.543)" fill="#333"/>
              <path id="Path_885841" data-name="Path 885841" d="M296.517,487.005c-.777-12.044.823-44.672.823-44.672a7.741,7.741,0,0,0-.124-1.979L289.928,385.7,263.181,389l19.578,53.206,2.349,45.295,5.093.714a9.947,9.947,0,0,0,6.316-1.214" transform="translate(-89.185 -260.426)" fill="#3c3187"/>
              <path id="Path_885842" data-name="Path 885842" d="M263.351,450.171l14.513-60.034-22.521-.539-6.228,59.818.526,42.218,2.969.788a12.187,12.187,0,0,0,7.054-1.448s2.161-22.416,3.686-40.8" transform="translate(-85.724 -261.412)" fill="#3c3187"/>
              <path id="Path_885843" data-name="Path 885843" d="M299.98,532.018a16.366,16.366,0,0,1-4.978.822c-.682,0-1.272-1.084-1.653-2.615,1.33.291,3.014,1.24,5.12.623,1.5-.439,1.3-1.112,2.683-1.667,3.127-1.259,5.253,1.744,10.958,2.517,2.2.3,4.834.654,7.208-.765a7.48,7.48,0,0,0,2.286-2.208c1.043,1.384-.112,3.8-1.215,4.14a47.085,47.085,0,0,1-13.178-.022c-3.911-.822-5.689-1.293-7.23-.823" transform="translate(-96.608 -296.609)"/>
              <path id="Path_885844" data-name="Path 885844" d="M277.7,426.088l8.633,23.462-5.525-34.835Z" transform="translate(-92.757 -267.766)" fill="#2e2863"/>
              <path id="Path_885845" data-name="Path 885845" d="M251.959,326.875l-3.681,52.136h46.059l-6.218-55.032-15.4-6.591-4.406,1.417c-2.2.4-12.8,3.819-16.354,8.07" transform="translate(-85.518 -243.145)"/>
              <path id="Path_885846" data-name="Path 885846" d="M273.522,296.695l5.825.4,1.829,16.509a2.363,2.363,0,0,1-.794,1.853c-2.316,1.647-3.562,1.261-5.069,1.232a2.488,2.488,0,0,1-2.333-2.482c.43-7.762.542-17.515.542-17.515" transform="translate(-91.596 -237.91)" fill="#ffb780"/>
              <path id="Path_885847" data-name="Path 885847" d="M265.081,319.553l-2.442,125.7s-20.635,1.868-21.652-5.688,5.084-107.61,9.405-113.4,14.688-6.611,14.688-6.611" transform="translate(-83.697 -243.692)" fill="#fff"/>
              <path id="Path_885848" data-name="Path 885848" d="M270.93,317.962l-6.095,4.12,3.607,4.666-4.074,2.482,5.6,41.112c-.17-.5.967-52.379.967-52.379" transform="translate(-89.477 -243.29)" fill="#c3e8d0"/>
              <path id="Path_885849" data-name="Path 885849" d="M283.853,318.585l-.011,125.7s23.088,1.868,24.1-5.688S303.825,325.629,297.7,321.754c-5.974-3.778-13.843-3.169-13.843-3.169" transform="translate(-94.269 -243.438)" fill="#fff"/>
              <path id="Path_885850" data-name="Path 885850" d="M283.636,317.342l5.978,3.624-3.707,4.864,4.408,2.647s-6.756,41.2-6.587,40.7-.092-51.835-.092-51.835" transform="translate(-94.218 -243.133)" fill="#c3e8d0"/>
              <path id="Path_885851" data-name="Path 885851" d="M273.238,310.108c2.313,1.525,5.252,1.441,7.459-1.407l-1.285-11.6-5.825-.4s-.078,6.7-.348,13.413" transform="translate(-91.66 -237.91)" fill="#da8d66"/>
              <path id="Path_885852" data-name="Path 885852" d="M268.865,286.075c-1.464,2.139-.455,10.96-.2,12.952.925,7.295,10.024,11.409,13.208.336.434-1.513.418-4.827.587-7.337.8-11.93-12.388-7.708-13.591-5.951" transform="translate(-90.393 -234.672)" fill="#ffb780"/>
              <path id="Path_885853" data-name="Path 885853" d="M283.222,300.707c.838.73,2.377.354,3.436-.84s1.238-2.754.4-3.484-2.378-.354-3.436.84-1.238,2.754-.4,3.484" transform="translate(-93.986 -237.736)" fill="#ffb780"/>
              <path id="Path_885854" data-name="Path 885854" d="M269.97,300.993c.914-.635.908-2.205-.014-3.507s-2.41-1.841-3.324-1.206-.907,2.205.014,3.507,2.41,1.841,3.323,1.206" transform="translate(-89.867 -237.737)" fill="#ffb780"/>
              <path id="Path_885855" data-name="Path 885855" d="M268.219,294.377a10.743,10.743,0,0,0,1.029-3.892s4.084,4.975,10.646.132c0,0,1.405,2.986,2.35,2.82,0,0,1.033-4.676-.746-7.195s-5.508-2.771-7.118-2.687-5.786,1.148-6.1,2.6a17.9,17.9,0,0,0-.06,8.219" transform="translate(-90.314 -234.582)"/>
              <rect id="Rectangle_405906" data-name="Rectangle 405906" width="41.24" height="43.321" transform="translate(152.461 95.904)" fill="#a86031"/>
              <path id="Path_885856" data-name="Path 885856" d="M275.858,345.587h-41.24l4.261-2.349h41.24Z" transform="translate(-82.157 -249.684)" fill="#804c2a"/>
              <path id="Path_885857" data-name="Path 885857" d="M293.579,386.558l-4.261,2.351V345.588l4.261-2.351Z" transform="translate(-95.616 -249.684)" fill="#804c2a"/>
              <path id="Path_885858" data-name="Path 885858" d="M268.74,353.1l-34.112.021-.011-4.891,41.241-1.847v1.847Z" transform="translate(-82.157 -250.48)" fill="#804c2a"/>
              <path id="Path_885859" data-name="Path 885859" d="M266.418,351.254h-41.24l7.117-4.869h41.241Z" transform="translate(-79.834 -250.48)" fill="#d9854c"/>
              <path id="Path_885860" data-name="Path 885860" d="M275.858,345.587h-41.24l4.261-2.349h41.24Z" transform="translate(-82.157 -249.684)" fill="#d9854c"/>
              <path id="Path_885861" data-name="Path 885861" d="M238.891,343.237h-.012l-4.262,2.349h4.274Z" transform="translate(-82.157 -249.684)" fill="#804c2a"/>
              <path id="Path_885862" data-name="Path 885862" d="M237.647,346.014H276.6l1.978-1.09H239.625Z" transform="translate(-82.902 -250.11)" fill="#a86031"/>
              <path id="Path_885863" data-name="Path 885863" d="M286.124,396.748s-6.219,6.247-11.237,5.873c-1.224-.091-7.7,1.532-3.111-.8,2.885-1.465,7.684-3.054,6.813-4.661-.851-1.569-3.777,3.012-5.741.494L278,394.3a1.385,1.385,0,0,1,.581-.214l4.1-.527Z" transform="translate(-90.901 -262.415)" fill="#ffb780"/>
              <path id="Path_885864" data-name="Path 885864" d="M305.407,342.426l-4.633-16.284a4.861,4.861,0,0,0-9.418,2.39L295.42,346l2.226,9.568-12.613,18.865,4.117,5.07,19.663-20.4a2.579,2.579,0,0,0,.627-2.5Z" transform="translate(-94.562 -244.471)" fill="#fff"/>
              <path id="Path_885865" data-name="Path 885865" d="M305.111,362.618a19.056,19.056,0,0,0-3.35,3.066,3.319,3.319,0,0,1,3.35-3.066" transform="translate(-98.678 -254.586)" fill="#c5e9fa"/>
              <path id="Path_885866" data-name="Path 885866" d="M246.516,402.779s8.062,3.633,12.613,1.507c1.111-.519,7.746-1.3,2.617-1.847-3.223-.347-8.278-.131-8.044-1.941.228-1.767,4.615,1.475,5.54-1.572l-6.019-1.31a1.385,1.385,0,0,0-.619.006l-4.019.959Z" transform="translate(-85.085 -263.432)" fill="#ffb780"/>
              <path id="Path_885867" data-name="Path 885867" d="M246.24,398.5l.334,8.828-4.537,1.133c-1.079.36-3.1-1.075-3.47-2.141l-2.8-3.4s1.4-2.32,10.469-4.419" transform="translate(-82.441 -263.664)" fill="#fff"/>
              <path id="Path_885868" data-name="Path 885868" d="M299.62,346.428l-4.261,2.351-6.041-3.19,4.262-2.351Z" transform="translate(-95.616 -249.684)" fill="#d9854c"/>
              <path id="Path_885869" data-name="Path 885869" d="M270.121,303.807h0a26.622,26.622,0,0,0,10.782-.014l.122-.025s-.559,6.491-5.592,6.491c-3.18,0-5.073-3.641-5.312-6.451" transform="translate(-90.893 -239.699)" fill="#fff"/>
              <path id="Path_885870" data-name="Path 885870" d="M286.241,295.887s-.879,5.145-2.716,7.361" transform="translate(-94.191 -237.705)" fill="#fff"/>
              <path id="Path_885871" data-name="Path 885871" d="M267.9,295.834s.55,5.03,2.388,7.247" transform="translate(-90.345 -237.692)" fill="#fff"/>
              <path id="Path_885898" data-name="Path 885898" d="M0,0,34.556.017l0,6.714L0,6.714Z" transform="translate(238.555 143.136) rotate(-88.702)" fill="#ffb780"/>
              <path id="Path_885872" data-name="Path 885872" d="M348.689,408.88l-.482,8.146s3.222.971,4.342-7.772Z" transform="translate(-110.106 -266.29)" fill="#ffb780"/>
              <path id="Path_885873" data-name="Path 885873" d="M348.477,413.747l-1.025,10.383s1.366.156,1.734-1.665.525-7.443.525-7.443Z" transform="translate(-109.921 -267.521)" fill="#ffb780"/>
              <path id="Path_885874" data-name="Path 885874" d="M359.781,334.088s-8.108,3.59-9.034,7.318-2.036,15.572-2.036,15.572l6.712.566Z" transform="translate(-110.23 -247.369)" fill="#fff"/>
              <path id="Path_885875" data-name="Path 885875" d="M351.376,359.179s-1.576-10.271,5.568-17.088l-1.156,17.366Z" transform="translate(-110.85 -249.394)" fill="#c3e8d0"/>
              <path id="Path_885876" data-name="Path 885876" d="M404.412,538.418c.113,2.479-15.346,5.184-34.528,6.042s-34.824-.457-34.937-2.936,15.346-5.184,34.528-6.042,34.824.456,34.937,2.936" transform="translate(-106.844 -298.252)" fill="#c3e8d0"/>
              <path id="Path_885877" data-name="Path 885877" d="M390.135,524.233s2.206,9.768-4.631,13c-5.177,2.443-6.3,6.4-5.007,7.712,2.807,2.849,8.114.409,10.75-1.056s1.8-3.2,3.641-5.126,5.225-.76,4.849-4.314S397.8,524.4,397.8,524.4Z" transform="translate(-117.931 -295.472)" fill="#333"/>
              <path id="Path_885878" data-name="Path 885878" d="M349.185,527.858s-.038,3.267-5.216,5.207-12.2,2.376-13.649,3.745-.032,4.063,1.172,4.362a46.69,46.69,0,0,0,13.036-.795c3.82-1.043,5.551-1.611,7.1-1.237a16.207,16.207,0,0,0,4.975.521c1.876-.111,2.55-8.429.367-11.448s-7.788-.354-7.788-.354" transform="translate(-105.555 -296.115)" fill="#333"/>
              <path id="Path_885879" data-name="Path 885879" d="M350.308,497.084c.051-11.867-7.83-44.858-7.83-44.858a7.565,7.565,0,0,1,.006-1.95l8.306-53.016,26.66,1.686L356.9,451.258l4.729,45.653-5,1a9.931,9.931,0,0,1-6.321-.824" transform="translate(-108.682 -263.351)" fill="#3c3187"/>
              <path id="Path_885880" data-name="Path 885880" d="M364.726,411.617s-7.434,16.148-.958,37.5l9.944-25.307c-3.32-4.407-8.986-12.19-8.986-12.19" transform="translate(-113.283 -266.983)" fill="#2e2863"/>
              <path id="Path_885881" data-name="Path 885881" d="M385.041,499.177c-1.877-15.6-9.062-34.724-12.954-40.739a9.964,9.964,0,0,1-1.571-4.72l-9.854-54.57,22.129-1.092,2.763,8.492a29.1,29.1,0,0,1,.567,8.714l-1.638,8.562L385.695,453c5.378,9.438,4.6,11.941,5.928,28.155l3.059,17.447-3.432,1.126a7.91,7.91,0,0,1-6.209-.549" transform="translate(-113.171 -263.552)" fill="#3c3187"/>
              <path id="Path_885882" data-name="Path 885882" d="M360.9,333.108c5.554-2.075,18.012-3.524,23.755,5.359,5.653,8.744-1.611,23.178-2.1,30.534-.42,6.3-1.077,16.911-1.077,16.911l-6.5.852a55.16,55.16,0,0,1-24.847-2.134l2.633-19.441c-1.188-13.028-1.591-14.049.691-20.63.953-2.75,4.061-9.808,6.681-11.116a8.06,8.06,0,0,1,.768-.335" transform="translate(-110.578 -246.725)" fill="#fff"/>
              <path id="Path_885883" data-name="Path 885883" d="M378.985,332.059a20.891,20.891,0,0,1,2.995.89l-14.253,11,.422-11.6,1.543-.4Z" transform="translate(-114.909 -246.828)" fill="#3c3187"/>
              <path id="Path_885884" data-name="Path 885884" d="M365.525,306.644l10.662,5.6,1.908,13.019a2.19,2.19,0,0,1-.4,1.831c-3.47,3.625-7.171,2.885-7.171,2.885-3.473-.153-1.577-3.292-1.811-7.088Z" transform="translate(-114.367 -240.427)" fill="#ffb780"/>
              <path id="Path_885885" data-name="Path 885885" d="M371.173,305.16l-5.649,1.109,3.19,16.245a14.852,14.852,0,0,1-.081,2.423c1.751-.613,5.581-2.917,6.9-5.667.648-1.357.461-2.9.33-5.293-.268-4.883-2.337-7.526-4.686-8.816" transform="translate(-114.367 -240.051)" fill="#da8d66"/>
              <path id="Path_885886" data-name="Path 885886" d="M361.785,303.851c-.96,2.207.316,4.218-.807,8-.7,2.337.781,4.781,1.364,6.556,2.133,6.5,5.529,5.033,11.643.046,1.139-.93,1.132-4.691.842-7.012-1.374-11.034-12.253-9.4-13.042-7.585" transform="translate(-113.204 -239.389)" fill="#ffb780"/>
              <path id="Path_885887" data-name="Path 885887" d="M382.9,309.944c-1.4-14.245-16.242-14-20.376-10.923-3.856,2.869-1.315,4.859-1.315,4.859a1.629,1.629,0,0,1,1.091-1.011c2.428-.1,11.014.008,9.738,6.93-.322,1.745,1.209,2.092,2.906,1.859.531,1.932,1.164,6.161,1.38,6.386,1.788,1.864,7.428.6,6.576-8.1" transform="translate(-113.104 -238.068)" fill="#3c3187"/>
              <path id="Path_885888" data-name="Path 885888" d="M376.5,318.174c.895.521,2.233-.089,2.989-1.363s.644-2.73-.251-3.252-2.234.09-2.989,1.363-.644,2.73.251,3.252" transform="translate(-116.884 -242.129)" fill="#ffb780"/>
              <path id="Path_885889" data-name="Path 885889" d="M403.594,362.49l6.89,13.251a2.8,2.8,0,0,1,.376,2.774L392.2,393.624l-3.568-3.647,12.209-11.945-5.036-9.553" transform="translate(-120.053 -254.555)" fill="#ffb780"/>
              <path id="Path_885890" data-name="Path 885890" d="M394.379,362.673l-10.842-16.419c-1.95-2.8.418-7.507,3.63-8.708,2.183-.816,5.387,1.683,6.8,3.521l9.914,15.711" transform="translate(-118.626 -248.204)" fill="#fff"/>
              <path id="Path_885891" data-name="Path 885891" d="M407.938,379.22a18.149,18.149,0,0,1-2.235,2.361c-.247.255-.482.52-.773.8a3,3,0,0,1,.994-2.071,4.682,4.682,0,0,1,2.014-1.091" transform="translate(-124.064 -258.787)" fill="#da8d66"/>
              <path id="Path_885892" data-name="Path 885892" d="M393.933,406.545,393.064,400l-4.587-.907-.786,8.365a.852.852,0,0,0,.242.677l3.36,3.42a.868.868,0,0,0,.514.252l3.335.406a.868.868,0,0,0,.874-.456l1.72-3.286a.858.858,0,0,0-.828-1.25l-2.054.14a.863.863,0,0,1-.924-.812" transform="translate(-119.821 -263.813)" fill="#ffb780"/>
              <path id="Path_885893" data-name="Path 885893" d="M351.633,542.326a16.2,16.2,0,0,0,4.974.521c.676-.04,1.194-1.147,1.481-2.684-1.3.366-2.908,1.4-5.029.916-1.506-.347-1.356-1.024-2.754-1.493-3.169-1.061-5.092,2.033-10.691,3.132-2.162.424-4.743.931-7.176-.334a7.431,7.431,0,0,1-2.394-2.051c-.95,1.431.338,3.749,1.449,4.025a46.683,46.683,0,0,0,13.036-.794c3.82-1.043,5.551-1.612,7.1-1.238" transform="translate(-105.556 -299.301)"/>
              <path id="Path_885894" data-name="Path 885894" d="M399.738,537.517c-.037-.353-.087-.736-.146-1.138-.68,1.3-1.24,3.025-2.49,3.1-.761.045-1.322-.574-2.1-.22a2.4,2.4,0,0,0-1.115,1.447c-.92,2.454-2.11,4.931-4.46,5.851-2.388.935-5.527,1.974-7.519.727a4.249,4.249,0,0,1-1.573-2.185,2.717,2.717,0,0,0,.159,2.916c2.807,2.85,8.228.734,10.962-1.088,2.508-1.671,1.585-3.163,3.43-5.094s5.224-.76,4.849-4.314" transform="translate(-117.931 -298.545)"/>
              <path id="Path_885895" data-name="Path 885895" d="M360.779,317.12s.994,3.129,10.839.808c0,0-1.1,6.758-6.1,6.366-3.161-.247-4.736-4.21-4.739-7.174" transform="translate(-113.2 -243.077)" fill="#fff"/>
              <path id="Path_885896" data-name="Path 885896" d="M375.722,314.869a7.833,7.833,0,0,1-3.328,5.263" transform="translate(-116.058 -242.508)" fill="#fff"/>
              <path id="Path_885897" data-name="Path 885897" d="M394.414,365.456l-5.229-8.108,4.2,11.942Z" transform="translate(-120.189 -253.254)" fill="#c3e8d0"/>
            </g>
          </g>
        </g>
      </g>
    </g>
    <g id="Group_1111610" data-name="Group 1111610" transform="translate(-1844.711 -11303)">
      <path id="Path_886349" data-name="Path 886349" d="M11,0H259a11,11,0,0,1,11,11V44a11,11,0,0,1-11,11H11A11,11,0,0,1,0,44V11A11,11,0,0,1,11,0Z" transform="translate(982.711 6340)" fill="#fdeee0"/>
      <path id="Path_886350" data-name="Path 886350" d="M11,0H259a11,11,0,0,1,11,11V44a11,11,0,0,1-11,11H11A11,11,0,0,1,0,44V11A11,11,0,0,1,11,0Z" transform="translate(982.711 6446)" fill="#fdeee0"/>
      <path id="Path_886351" data-name="Path 886351" d="M11,0H259a11,11,0,0,1,11,11V44a11,11,0,0,1-11,11H11A11,11,0,0,1,0,44V11A11,11,0,0,1,11,0Z" transform="translate(982.711 6554)" fill="#fdeee0"/>
      <path id="Path_886352" data-name="Path 886352" d="M11,0H262a11,11,0,0,1,11,11V44a11,11,0,0,1-11,11H11A11,11,0,0,1,0,44V11A11,11,0,0,1,11,0Z" transform="translate(981.711 6135)" fill="#fdeee0"/>
      <path id="Path_886353" data-name="Path 886353" d="M11,0H262a11,11,0,0,1,11,11V44a11,11,0,0,1-11,11H11A11,11,0,0,1,0,44V11A11,11,0,0,1,11,0Z" transform="translate(981.711 6236)" fill="#fdeee0"/>
      <path id="Path_886354" data-name="Path 886354" d="M39.189,16.882H45.64V19H35.893V17.453l6.328-9.114H35.9V6.2h9.6V7.715Zm7.365-2.725a5.64,5.64,0,0,1,.545-2.522,3.989,3.989,0,0,1,1.569-1.714,4.577,4.577,0,0,1,2.377-.606,4.33,4.33,0,0,1,3.142,1.178,4.727,4.727,0,0,1,1.358,3.2l.018.65a4.97,4.97,0,0,1-1.222,3.511,4.735,4.735,0,0,1-6.561,0,5.058,5.058,0,0,1-1.226-3.586Zm2.54.18a3.555,3.555,0,0,0,.51,2.073,1.831,1.831,0,0,0,2.9.009,3.89,3.89,0,0,0,.519-2.267,3.519,3.519,0,0,0-.519-2.06,1.686,1.686,0,0,0-1.459-.731,1.658,1.658,0,0,0-1.441.726A3.955,3.955,0,0,0,49.094,14.338ZM59.465,9.49l.079,1.1a3.32,3.32,0,0,1,2.733-1.274,2.759,2.759,0,0,1,2.25.888,4.142,4.142,0,0,1,.756,2.654V19h-2.54V12.918a1.648,1.648,0,0,0-.352-1.173,1.574,1.574,0,0,0-1.169-.365,1.747,1.747,0,0,0-1.608.914V19h-2.54V9.49ZM72.719,19a2.821,2.821,0,0,1-.255-.853,3.073,3.073,0,0,1-2.4,1.028,3.376,3.376,0,0,1-2.316-.809,2.6,2.6,0,0,1-.918-2.039,2.687,2.687,0,0,1,1.121-2.32,5.529,5.529,0,0,1,3.239-.817h1.169v-.545a1.567,1.567,0,0,0-.338-1.055,1.331,1.331,0,0,0-1.068-.4,1.513,1.513,0,0,0-1.006.308,1.045,1.045,0,0,0-.365.844h-2.54a2.551,2.551,0,0,1,.51-1.529,3.37,3.37,0,0,1,1.441-1.1,5.253,5.253,0,0,1,2.092-.4,4.15,4.15,0,0,1,2.791.883,3.09,3.09,0,0,1,1.033,2.483V16.8a4.546,4.546,0,0,0,.378,2.048V19Zm-2.1-1.767a2.188,2.188,0,0,0,1.037-.25,1.645,1.645,0,0,0,.7-.672V14.676H71.41q-1.907,0-2.03,1.318l-.009.149a1.017,1.017,0,0,0,.334.782A1.3,1.3,0,0,0,70.619,17.233Zm10.327-3.059a5.731,5.731,0,0,1,1-3.542,3.237,3.237,0,0,1,2.729-1.318,2.913,2.913,0,0,1,2.294,1.037V5.5h2.549V19H87.221L87.1,17.989a2.989,2.989,0,0,1-2.443,1.187,3.228,3.228,0,0,1-2.694-1.323A5.916,5.916,0,0,1,80.946,14.175Zm2.54.189a3.754,3.754,0,0,0,.466,2.051,1.517,1.517,0,0,0,1.354.713,1.7,1.7,0,0,0,1.661-.995V12.375a1.675,1.675,0,0,0-1.644-.995Q83.486,11.38,83.486,14.364Zm12.375,4.812a4.668,4.668,0,0,1-3.406-1.283,4.561,4.561,0,0,1-1.314-3.419v-.246a5.745,5.745,0,0,1,.554-2.562,4.064,4.064,0,0,1,1.569-1.74,4.4,4.4,0,0,1,2.316-.611,3.947,3.947,0,0,1,3.072,1.23,5,5,0,0,1,1.121,3.489v1.037H93.716a2.36,2.36,0,0,0,.743,1.494,2.245,2.245,0,0,0,1.569.563,2.742,2.742,0,0,0,2.294-1.063l1.248,1.4a3.813,3.813,0,0,1-1.547,1.261A5.075,5.075,0,0,1,95.861,19.176Zm-.29-7.813a1.587,1.587,0,0,0-1.226.512,2.651,2.651,0,0,0-.6,1.466h3.533v-.2a1.891,1.891,0,0,0-.457-1.311A1.638,1.638,0,0,0,95.571,11.362Zm14.08,5.766a1.666,1.666,0,0,0,1.143-.387,1.355,1.355,0,0,0,.457-1.028h2.382a3.258,3.258,0,0,1-.527,1.771,3.48,3.48,0,0,1-1.419,1.248,4.442,4.442,0,0,1-1.991.444,4.129,4.129,0,0,1-3.217-1.3A5.13,5.13,0,0,1,105.3,14.3v-.167a5.071,5.071,0,0,1,1.169-3.507,4.08,4.08,0,0,1,3.208-1.31,4,4,0,0,1,2.861,1.015,3.594,3.594,0,0,1,1.094,2.7H111.25a1.745,1.745,0,0,0-.457-1.206,1.7,1.7,0,0,0-2.5.183,3.749,3.749,0,0,0-.453,2.1v.264a3.8,3.8,0,0,0,.448,2.113A1.549,1.549,0,0,0,109.651,17.128Zm11.127.905a3.185,3.185,0,0,1-2.6,1.143,3,3,0,0,1-2.333-.879,3.752,3.752,0,0,1-.822-2.575V9.49h2.54v6.151q0,1.487,1.354,1.487a1.834,1.834,0,0,0,1.775-.9V9.49h2.549V19h-2.391Zm9.888.967a2.821,2.821,0,0,1-.255-.853,3.073,3.073,0,0,1-2.4,1.028,3.376,3.376,0,0,1-2.316-.809,2.6,2.6,0,0,1-.918-2.039,2.687,2.687,0,0,1,1.121-2.32,5.529,5.529,0,0,1,3.239-.817h1.169v-.545a1.567,1.567,0,0,0-.338-1.055,1.331,1.331,0,0,0-1.068-.4,1.513,1.513,0,0,0-1.006.308,1.045,1.045,0,0,0-.365.844h-2.54a2.551,2.551,0,0,1,.51-1.529,3.37,3.37,0,0,1,1.441-1.1,5.253,5.253,0,0,1,2.092-.4,4.15,4.15,0,0,1,2.791.883,3.09,3.09,0,0,1,1.033,2.483V16.8a4.546,4.546,0,0,0,.378,2.048V19Zm-2.1-1.767a2.188,2.188,0,0,0,1.037-.25,1.645,1.645,0,0,0,.7-.672V14.676h-.949q-1.907,0-2.03,1.318l-.009.149a1.017,1.017,0,0,0,.334.782A1.3,1.3,0,0,0,128.565,17.233Zm11.584-5.361a6.9,6.9,0,0,0-.914-.07,1.86,1.86,0,0,0-1.89.976V19h-2.54V9.49h2.4l.07,1.134a2.354,2.354,0,0,1,2.118-1.31,2.662,2.662,0,0,1,.791.114Zm5.6,7.3a4.668,4.668,0,0,1-3.406-1.283,4.561,4.561,0,0,1-1.314-3.419v-.246a5.745,5.745,0,0,1,.554-2.562,4.064,4.064,0,0,1,1.569-1.74,4.4,4.4,0,0,1,2.316-.611,3.947,3.947,0,0,1,3.072,1.23,5,5,0,0,1,1.121,3.489v1.037H143.6a2.36,2.36,0,0,0,.743,1.494,2.245,2.245,0,0,0,1.569.563,2.742,2.742,0,0,0,2.294-1.063l1.248,1.4a3.813,3.813,0,0,1-1.547,1.261A5.075,5.075,0,0,1,145.748,19.176Zm-.29-7.813a1.587,1.587,0,0,0-1.226.512,2.651,2.651,0,0,0-.6,1.466h3.533v-.2a1.891,1.891,0,0,0-.457-1.311A1.638,1.638,0,0,0,145.458,11.362Zm7.98-1.872.079,1.1a3.32,3.32,0,0,1,2.733-1.274,2.759,2.759,0,0,1,2.25.888,4.142,4.142,0,0,1,.756,2.654V19h-2.54V12.918a1.648,1.648,0,0,0-.352-1.173,1.574,1.574,0,0,0-1.169-.365,1.747,1.747,0,0,0-1.608.914V19h-2.54V9.49Zm10.784-2.338V9.49h1.626v1.863h-1.626V16.1a1.133,1.133,0,0,0,.2.756,1.015,1.015,0,0,0,.773.229,4.051,4.051,0,0,0,.747-.062v1.925a5.229,5.229,0,0,1-1.538.229,2.425,2.425,0,0,1-2.725-2.7V11.354h-1.389V9.49h1.389V7.152Zm7.418,12.023a4.668,4.668,0,0,1-3.406-1.283,4.561,4.561,0,0,1-1.314-3.419v-.246a5.745,5.745,0,0,1,.554-2.562,4.064,4.064,0,0,1,1.569-1.74,4.4,4.4,0,0,1,2.316-.611,3.947,3.947,0,0,1,3.072,1.23,5,5,0,0,1,1.121,3.489v1.037H169.5a2.36,2.36,0,0,0,.743,1.494,2.245,2.245,0,0,0,1.569.563,2.742,2.742,0,0,0,2.294-1.063l1.248,1.4a3.813,3.813,0,0,1-1.547,1.261A5.075,5.075,0,0,1,171.64,19.176Zm-.29-7.813a1.587,1.587,0,0,0-1.226.512,2.651,2.651,0,0,0-.6,1.466h3.533v-.2a1.891,1.891,0,0,0-.457-1.311A1.638,1.638,0,0,0,171.35,11.362Zm7.98-1.872.079,1.1a3.32,3.32,0,0,1,2.733-1.274,2.759,2.759,0,0,1,2.25.888,4.142,4.142,0,0,1,.756,2.654V19h-2.54V12.918a1.648,1.648,0,0,0-.352-1.173,1.574,1.574,0,0,0-1.169-.365,1.747,1.747,0,0,0-1.608.914V19h-2.54V9.49ZM192.584,19a2.821,2.821,0,0,1-.255-.853,3.073,3.073,0,0,1-2.4,1.028,3.376,3.376,0,0,1-2.316-.809,2.6,2.6,0,0,1-.918-2.039,2.687,2.687,0,0,1,1.121-2.32,5.529,5.529,0,0,1,3.239-.817h1.169v-.545a1.567,1.567,0,0,0-.338-1.055,1.331,1.331,0,0,0-1.068-.4,1.513,1.513,0,0,0-1.006.308,1.045,1.045,0,0,0-.365.844h-2.54a2.551,2.551,0,0,1,.51-1.529,3.37,3.37,0,0,1,1.441-1.1,5.253,5.253,0,0,1,2.092-.4,4.15,4.15,0,0,1,2.791.883,3.09,3.09,0,0,1,1.033,2.483V16.8a4.546,4.546,0,0,0,.378,2.048V19Zm-2.1-1.767a2.188,2.188,0,0,0,1.037-.25,1.645,1.645,0,0,0,.7-.672V14.676h-.949q-1.907,0-2.03,1.318l-.009.149a1.017,1.017,0,0,0,.334.782A1.3,1.3,0,0,0,190.484,17.233Z" transform="translate(1002.711 6356)" fill="#12263f"/>
      <path id="Path_886355" data-name="Path 886355" d="M54.946,19H52.31V6.2h2.637Zm4.614-9.51.079,1.1a3.32,3.32,0,0,1,2.733-1.274,2.759,2.759,0,0,1,2.25.888,4.142,4.142,0,0,1,.756,2.654V19h-2.54V12.918a1.648,1.648,0,0,0-.352-1.173,1.574,1.574,0,0,0-1.169-.365,1.747,1.747,0,0,0-1.608.914V19H57.17V9.49Zm11.3,6.407L72.63,9.49h2.654L72.076,19H69.65L66.442,9.49H69.1Zm9.914,3.278a4.668,4.668,0,0,1-3.406-1.283,4.561,4.561,0,0,1-1.314-3.419v-.246a5.745,5.745,0,0,1,.554-2.562,4.064,4.064,0,0,1,1.569-1.74A4.4,4.4,0,0,1,80.5,9.314a3.947,3.947,0,0,1,3.072,1.23,5,5,0,0,1,1.121,3.489v1.037H78.633a2.36,2.36,0,0,0,.743,1.494,2.245,2.245,0,0,0,1.569.563,2.742,2.742,0,0,0,2.294-1.063l1.248,1.4a3.813,3.813,0,0,1-1.547,1.261A5.075,5.075,0,0,1,80.777,19.176Zm-.29-7.813a1.587,1.587,0,0,0-1.226.512,2.651,2.651,0,0,0-.6,1.466h3.533v-.2a1.891,1.891,0,0,0-.457-1.311A1.638,1.638,0,0,0,80.487,11.362Zm7.98-1.872.079,1.1A3.32,3.32,0,0,1,91.28,9.314a2.759,2.759,0,0,1,2.25.888,4.142,4.142,0,0,1,.756,2.654V19h-2.54V12.918a1.648,1.648,0,0,0-.352-1.173,1.574,1.574,0,0,0-1.169-.365,1.747,1.747,0,0,0-1.608.914V19h-2.54V9.49ZM99.252,7.152V9.49h1.626v1.863H99.252V16.1a1.133,1.133,0,0,0,.2.756,1.015,1.015,0,0,0,.773.229,4.051,4.051,0,0,0,.747-.062v1.925a5.229,5.229,0,0,1-1.538.229,2.425,2.425,0,0,1-2.725-2.7V11.354H95.323V9.49h1.389V7.152ZM107.8,19a2.821,2.821,0,0,1-.255-.853,3.073,3.073,0,0,1-2.4,1.028,3.376,3.376,0,0,1-2.316-.809,2.6,2.6,0,0,1-.918-2.039,2.687,2.687,0,0,1,1.121-2.32,5.529,5.529,0,0,1,3.239-.817h1.169v-.545a1.567,1.567,0,0,0-.338-1.055,1.331,1.331,0,0,0-1.068-.4,1.513,1.513,0,0,0-1.006.308,1.045,1.045,0,0,0-.365.844h-2.54a2.551,2.551,0,0,1,.51-1.529,3.37,3.37,0,0,1,1.441-1.1,5.253,5.253,0,0,1,2.092-.4,4.15,4.15,0,0,1,2.791.883,3.09,3.09,0,0,1,1.033,2.483V16.8a4.546,4.546,0,0,0,.378,2.048V19Zm-2.1-1.767a2.188,2.188,0,0,0,1.037-.25,1.645,1.645,0,0,0,.7-.672V14.676h-.949q-1.907,0-2.03,1.318l-.009.149a1.017,1.017,0,0,0,.334.782A1.3,1.3,0,0,0,105.7,17.233Zm11.584-5.361a6.9,6.9,0,0,0-.914-.07,1.86,1.86,0,0,0-1.89.976V19h-2.54V9.49h2.4l.07,1.134a2.354,2.354,0,0,1,2.118-1.31,2.662,2.662,0,0,1,.791.114Zm3.9,7.128h-2.549V9.49h2.549Zm-2.7-11.971a1.251,1.251,0,0,1,.382-.94,1.648,1.648,0,0,1,2.079,0,1.244,1.244,0,0,1,.387.94,1.247,1.247,0,0,1-.391.949,1.629,1.629,0,0,1-2.065,0A1.247,1.247,0,0,1,118.491,7.029Zm4.395,7.128a5.64,5.64,0,0,1,.545-2.522A3.989,3.989,0,0,1,125,9.921a4.577,4.577,0,0,1,2.377-.606,4.33,4.33,0,0,1,3.142,1.178,4.727,4.727,0,0,1,1.358,3.2l.018.65a4.97,4.97,0,0,1-1.222,3.511,4.735,4.735,0,0,1-6.561,0,5.058,5.058,0,0,1-1.226-3.586Zm2.54.18a3.555,3.555,0,0,0,.51,2.073,1.831,1.831,0,0,0,2.9.009,3.89,3.89,0,0,0,.519-2.267,3.519,3.519,0,0,0-.519-2.06,1.686,1.686,0,0,0-1.459-.731,1.658,1.658,0,0,0-1.441.726A3.955,3.955,0,0,0,125.426,14.338ZM143.452,19a2.821,2.821,0,0,1-.255-.853,3.073,3.073,0,0,1-2.4,1.028,3.376,3.376,0,0,1-2.316-.809,2.6,2.6,0,0,1-.918-2.039,2.687,2.687,0,0,1,1.121-2.32,5.529,5.529,0,0,1,3.239-.817h1.169v-.545a1.567,1.567,0,0,0-.338-1.055,1.331,1.331,0,0,0-1.068-.4,1.513,1.513,0,0,0-1.006.308,1.045,1.045,0,0,0-.365.844h-2.54a2.551,2.551,0,0,1,.51-1.529,3.37,3.37,0,0,1,1.441-1.1,5.253,5.253,0,0,1,2.092-.4,4.15,4.15,0,0,1,2.791.883,3.09,3.09,0,0,1,1.033,2.483V16.8a4.546,4.546,0,0,0,.378,2.048V19Zm-2.1-1.767a2.188,2.188,0,0,0,1.037-.25,1.645,1.645,0,0,0,.7-.672V14.676h-.949q-1.907,0-2.03,1.318l-.009.149a1.017,1.017,0,0,0,.334.782A1.3,1.3,0,0,0,141.352,17.233Zm10.2-.105a1.666,1.666,0,0,0,1.143-.387,1.355,1.355,0,0,0,.457-1.028h2.382A3.258,3.258,0,0,1,155,17.484a3.48,3.48,0,0,1-1.419,1.248,4.442,4.442,0,0,1-1.991.444,4.129,4.129,0,0,1-3.217-1.3A5.13,5.13,0,0,1,147.2,14.3v-.167a5.071,5.071,0,0,1,1.169-3.507,4.08,4.08,0,0,1,3.208-1.31,4,4,0,0,1,2.861,1.015,3.594,3.594,0,0,1,1.094,2.7h-2.382a1.745,1.745,0,0,0-.457-1.206,1.7,1.7,0,0,0-2.5.183,3.749,3.749,0,0,0-.453,2.1v.264a3.8,3.8,0,0,0,.448,2.113A1.549,1.549,0,0,0,151.547,17.128Zm8.473-9.976V9.49h1.626v1.863H160.02V16.1a1.133,1.133,0,0,0,.2.756,1.015,1.015,0,0,0,.773.229,4.051,4.051,0,0,0,.747-.062v1.925a5.229,5.229,0,0,1-1.538.229,2.425,2.425,0,0,1-2.725-2.7V11.354h-1.389V9.49h1.389V7.152ZM165.741,19h-2.549V9.49h2.549Zm-2.7-11.971a1.251,1.251,0,0,1,.382-.94,1.648,1.648,0,0,1,2.079,0,1.244,1.244,0,0,1,.387.94,1.247,1.247,0,0,1-.391.949,1.629,1.629,0,0,1-2.065,0A1.247,1.247,0,0,1,163.043,7.029Zm8.35,8.868,1.767-6.407h2.654L172.605,19H170.18l-3.208-9.51h2.654Zm5.01-1.74a5.64,5.64,0,0,1,.545-2.522,3.989,3.989,0,0,1,1.569-1.714,4.577,4.577,0,0,1,2.377-.606,4.33,4.33,0,0,1,3.142,1.178,4.727,4.727,0,0,1,1.358,3.2l.018.65a4.97,4.97,0,0,1-1.222,3.511,4.735,4.735,0,0,1-6.561,0,5.058,5.058,0,0,1-1.226-3.586Zm2.54.18a3.555,3.555,0,0,0,.51,2.073,1.831,1.831,0,0,0,2.9.009,3.89,3.89,0,0,0,.519-2.267,3.519,3.519,0,0,0-.519-2.06,1.686,1.686,0,0,0-1.459-.731,1.658,1.658,0,0,0-1.441.726A3.955,3.955,0,0,0,178.942,14.338Z" transform="translate(999.711 6460)" fill="#12263f"/>
      <path id="Path_886356" data-name="Path 886356" d="M104.325,13.454H99.263v3.428H105.2V19H96.626V6.2h8.561V8.339H99.263v3.05h5.063Zm4.6-3.964.079,1.1a3.32,3.32,0,0,1,2.733-1.274,2.759,2.759,0,0,1,2.25.888,4.142,4.142,0,0,1,.756,2.654V19H112.2V12.918a1.648,1.648,0,0,0-.352-1.173,1.574,1.574,0,0,0-1.169-.365,1.747,1.747,0,0,0-1.608.914V19h-2.54V9.49Zm10.784-2.338V9.49h1.626v1.863h-1.626V16.1a1.133,1.133,0,0,0,.2.756,1.015,1.015,0,0,0,.773.229,4.051,4.051,0,0,0,.747-.062v1.925a5.229,5.229,0,0,1-1.538.229,2.425,2.425,0,0,1-2.725-2.7V11.354h-1.389V9.49h1.389V7.152Zm8.385,4.72a6.9,6.9,0,0,0-.914-.07,1.86,1.86,0,0,0-1.89.976V19h-2.54V9.49h2.4l.07,1.134a2.354,2.354,0,0,1,2.118-1.31,2.662,2.662,0,0,1,.791.114ZM134.56,19a2.821,2.821,0,0,1-.255-.853,3.073,3.073,0,0,1-2.4,1.028,3.376,3.376,0,0,1-2.316-.809,2.6,2.6,0,0,1-.918-2.039,2.687,2.687,0,0,1,1.121-2.32,5.529,5.529,0,0,1,3.239-.817H134.2v-.545a1.567,1.567,0,0,0-.338-1.055,1.331,1.331,0,0,0-1.068-.4,1.513,1.513,0,0,0-1.006.308,1.045,1.045,0,0,0-.365.844h-2.54a2.551,2.551,0,0,1,.51-1.529,3.37,3.37,0,0,1,1.441-1.1,5.253,5.253,0,0,1,2.092-.4,4.15,4.15,0,0,1,2.791.883,3.09,3.09,0,0,1,1.033,2.483V16.8a4.546,4.546,0,0,0,.378,2.048V19Zm-2.1-1.767a2.188,2.188,0,0,0,1.037-.25,1.645,1.645,0,0,0,.7-.672V14.676h-.949q-1.907,0-2.03,1.318l-.009.149a1.017,1.017,0,0,0,.334.782A1.3,1.3,0,0,0,132.459,17.233Zm5.845-3.059a5.731,5.731,0,0,1,1-3.542,3.237,3.237,0,0,1,2.729-1.318,2.913,2.913,0,0,1,2.294,1.037V5.5h2.549V19h-2.294l-.123-1.011a2.989,2.989,0,0,1-2.443,1.187,3.228,3.228,0,0,1-2.694-1.323A5.916,5.916,0,0,1,138.3,14.175Zm2.54.189a3.754,3.754,0,0,0,.466,2.051,1.517,1.517,0,0,0,1.354.713,1.7,1.7,0,0,0,1.661-.995V12.375a1.675,1.675,0,0,0-1.644-.995Q140.844,11.38,140.844,14.364ZM154.353,19a2.821,2.821,0,0,1-.255-.853,3.073,3.073,0,0,1-2.4,1.028,3.376,3.376,0,0,1-2.316-.809,2.6,2.6,0,0,1-.918-2.039,2.687,2.687,0,0,1,1.121-2.32,5.529,5.529,0,0,1,3.239-.817h1.169v-.545a1.567,1.567,0,0,0-.338-1.055,1.331,1.331,0,0,0-1.068-.4,1.513,1.513,0,0,0-1.006.308,1.045,1.045,0,0,0-.365.844h-2.54a2.551,2.551,0,0,1,.51-1.529,3.37,3.37,0,0,1,1.441-1.1,5.253,5.253,0,0,1,2.092-.4,4.15,4.15,0,0,1,2.791.883,3.09,3.09,0,0,1,1.033,2.483V16.8a4.546,4.546,0,0,0,.378,2.048V19Zm-2.1-1.767a2.188,2.188,0,0,0,1.037-.25,1.645,1.645,0,0,0,.7-.672V14.676h-.949q-1.907,0-2.03,1.318l-.009.149a1.017,1.017,0,0,0,.334.782A1.3,1.3,0,0,0,152.252,17.233Z" transform="translate(991.711 6151)" fill="#12263f"/>
      <path id="Path_886357" data-name="Path 886357" d="M44.722,16.882h6.451V19H41.426V17.453l6.328-9.114H41.435V6.2h9.6V7.715Zm7.365-2.725a5.64,5.64,0,0,1,.545-2.522A3.989,3.989,0,0,1,54.2,9.921a4.577,4.577,0,0,1,2.377-.606,4.33,4.33,0,0,1,3.142,1.178,4.727,4.727,0,0,1,1.358,3.2l.018.65a4.97,4.97,0,0,1-1.222,3.511,4.735,4.735,0,0,1-6.561,0,5.058,5.058,0,0,1-1.226-3.586Zm2.54.18a3.555,3.555,0,0,0,.51,2.073,1.831,1.831,0,0,0,2.9.009,3.89,3.89,0,0,0,.519-2.267,3.519,3.519,0,0,0-.519-2.06,1.686,1.686,0,0,0-1.459-.731,1.658,1.658,0,0,0-1.441.726A3.955,3.955,0,0,0,54.627,14.338ZM65,9.49l.079,1.1a3.32,3.32,0,0,1,2.733-1.274,2.759,2.759,0,0,1,2.25.888,4.142,4.142,0,0,1,.756,2.654V19h-2.54V12.918a1.648,1.648,0,0,0-.352-1.173,1.574,1.574,0,0,0-1.169-.365,1.747,1.747,0,0,0-1.608.914V19h-2.54V9.49ZM78.252,19A2.821,2.821,0,0,1,78,18.147a3.073,3.073,0,0,1-2.4,1.028,3.376,3.376,0,0,1-2.316-.809,2.6,2.6,0,0,1-.918-2.039,2.687,2.687,0,0,1,1.121-2.32,5.529,5.529,0,0,1,3.239-.817h1.169v-.545a1.567,1.567,0,0,0-.338-1.055,1.331,1.331,0,0,0-1.068-.4,1.513,1.513,0,0,0-1.006.308,1.045,1.045,0,0,0-.365.844h-2.54a2.551,2.551,0,0,1,.51-1.529,3.37,3.37,0,0,1,1.441-1.1,5.253,5.253,0,0,1,2.092-.4,4.15,4.15,0,0,1,2.791.883,3.09,3.09,0,0,1,1.033,2.483V16.8a4.546,4.546,0,0,0,.378,2.048V19Zm-2.1-1.767a2.188,2.188,0,0,0,1.037-.25,1.645,1.645,0,0,0,.7-.672V14.676h-.949q-1.907,0-2.03,1.318l-.009.149a1.017,1.017,0,0,0,.334.782A1.3,1.3,0,0,0,76.151,17.233Zm10.327-3.059a5.731,5.731,0,0,1,1-3.542,3.237,3.237,0,0,1,2.729-1.318A2.913,2.913,0,0,1,92.5,10.352V5.5h2.549V19H92.754l-.123-1.011a2.989,2.989,0,0,1-2.443,1.187,3.228,3.228,0,0,1-2.694-1.323A5.916,5.916,0,0,1,86.479,14.175Zm2.54.189a3.754,3.754,0,0,0,.466,2.051,1.517,1.517,0,0,0,1.354.713,1.7,1.7,0,0,0,1.661-.995V12.375a1.675,1.675,0,0,0-1.644-.995Q89.019,11.38,89.019,14.364Zm12.375,4.812a4.668,4.668,0,0,1-3.406-1.283,4.561,4.561,0,0,1-1.314-3.419v-.246a5.745,5.745,0,0,1,.554-2.562A4.064,4.064,0,0,1,98.8,9.925a4.4,4.4,0,0,1,2.316-.611,3.947,3.947,0,0,1,3.072,1.23,5,5,0,0,1,1.121,3.489v1.037H99.249a2.36,2.36,0,0,0,.743,1.494,2.245,2.245,0,0,0,1.569.563,2.742,2.742,0,0,0,2.294-1.063l1.248,1.4a3.813,3.813,0,0,1-1.547,1.261A5.075,5.075,0,0,1,101.394,19.176Zm-.29-7.813a1.587,1.587,0,0,0-1.226.512,2.651,2.651,0,0,0-.6,1.466h3.533v-.2a1.891,1.891,0,0,0-.457-1.311A1.638,1.638,0,0,0,101.1,11.362Zm15.469.51a6.9,6.9,0,0,0-.914-.07,1.86,1.86,0,0,0-1.89.976V19h-2.54V9.49h2.4l.07,1.134a2.354,2.354,0,0,1,2.118-1.31,2.662,2.662,0,0,1,.791.114Zm5.6,7.3a4.668,4.668,0,0,1-3.406-1.283,4.561,4.561,0,0,1-1.314-3.419v-.246A5.745,5.745,0,0,1,118,11.666a4.064,4.064,0,0,1,1.569-1.74,4.4,4.4,0,0,1,2.316-.611,3.947,3.947,0,0,1,3.072,1.23,5,5,0,0,1,1.121,3.489v1.037h-6.056a2.36,2.36,0,0,0,.743,1.494,2.245,2.245,0,0,0,1.569.563,2.742,2.742,0,0,0,2.294-1.063l1.248,1.4a3.813,3.813,0,0,1-1.547,1.261A5.075,5.075,0,0,1,122.171,19.176Zm-.29-7.813a1.587,1.587,0,0,0-1.226.512,2.651,2.651,0,0,0-.6,1.466h3.533v-.2a1.891,1.891,0,0,0-.457-1.311A1.638,1.638,0,0,0,121.881,11.362Zm9.6,5.766a1.666,1.666,0,0,0,1.143-.387,1.355,1.355,0,0,0,.457-1.028h2.382a3.258,3.258,0,0,1-.527,1.771,3.48,3.48,0,0,1-1.419,1.248,4.442,4.442,0,0,1-1.991.444,4.129,4.129,0,0,1-3.217-1.3,5.13,5.13,0,0,1-1.178-3.582v-.167a5.071,5.071,0,0,1,1.169-3.507,4.08,4.08,0,0,1,3.208-1.31,4,4,0,0,1,2.861,1.015,3.594,3.594,0,0,1,1.094,2.7h-2.382a1.745,1.745,0,0,0-.457-1.206,1.7,1.7,0,0,0-2.5.183,3.749,3.749,0,0,0-.453,2.1v.264a3.8,3.8,0,0,0,.448,2.113A1.549,1.549,0,0,0,131.479,17.128Zm9.809,2.048a4.668,4.668,0,0,1-3.406-1.283,4.561,4.561,0,0,1-1.314-3.419v-.246a5.745,5.745,0,0,1,.554-2.562,4.064,4.064,0,0,1,1.569-1.74,4.4,4.4,0,0,1,2.316-.611,3.947,3.947,0,0,1,3.072,1.23,5,5,0,0,1,1.121,3.489v1.037h-6.056a2.36,2.36,0,0,0,.743,1.494,2.245,2.245,0,0,0,1.569.563,2.742,2.742,0,0,0,2.294-1.063l1.248,1.4a3.813,3.813,0,0,1-1.547,1.261A5.075,5.075,0,0,1,141.287,19.176ZM141,11.362a1.587,1.587,0,0,0-1.226.512,2.651,2.651,0,0,0-.6,1.466H142.7v-.2a1.891,1.891,0,0,0-.457-1.311A1.638,1.638,0,0,0,141,11.362Zm14.2,2.971a5.7,5.7,0,0,1-1,3.52,3.2,3.2,0,0,1-2.694,1.323,2.963,2.963,0,0,1-2.329-1v4.482h-2.54V9.49H149l.088.932a2.985,2.985,0,0,1,2.408-1.107,3.22,3.22,0,0,1,2.733,1.3A5.858,5.858,0,0,1,155.2,14.2Zm-2.54-.185a3.743,3.743,0,0,0-.47-2.048,1.532,1.532,0,0,0-1.367-.721,1.663,1.663,0,0,0-1.644.914v3.894a1.692,1.692,0,0,0,1.661.94Q152.66,17.128,152.66,14.148Zm8.068,2.979a1.666,1.666,0,0,0,1.143-.387,1.355,1.355,0,0,0,.457-1.028h2.382a3.258,3.258,0,0,1-.527,1.771,3.48,3.48,0,0,1-1.419,1.248,4.442,4.442,0,0,1-1.991.444,4.129,4.129,0,0,1-3.217-1.3,5.13,5.13,0,0,1-1.178-3.582v-.167a5.071,5.071,0,0,1,1.169-3.507,4.08,4.08,0,0,1,3.208-1.31,4,4,0,0,1,2.861,1.015,3.594,3.594,0,0,1,1.094,2.7h-2.382a1.745,1.745,0,0,0-.457-1.206,1.7,1.7,0,0,0-2.5.183,3.749,3.749,0,0,0-.453,2.1v.264a3.8,3.8,0,0,0,.448,2.113A1.549,1.549,0,0,0,160.729,17.128ZM168.841,19h-2.549V9.49h2.549Zm-2.7-11.971a1.251,1.251,0,0,1,.382-.94,1.648,1.648,0,0,1,2.079,0,1.244,1.244,0,0,1,.387.94,1.247,1.247,0,0,1-.391.949,1.629,1.629,0,0,1-2.065,0A1.247,1.247,0,0,1,166.143,7.029Zm4.395,7.128a5.64,5.64,0,0,1,.545-2.522,3.989,3.989,0,0,1,1.569-1.714,4.577,4.577,0,0,1,2.377-.606,4.33,4.33,0,0,1,3.142,1.178,4.727,4.727,0,0,1,1.358,3.2l.018.65a4.97,4.97,0,0,1-1.222,3.511,4.735,4.735,0,0,1-6.561,0,5.058,5.058,0,0,1-1.226-3.586Zm2.54.18a3.555,3.555,0,0,0,.51,2.073,1.831,1.831,0,0,0,2.9.009,3.89,3.89,0,0,0,.519-2.267,3.519,3.519,0,0,0-.519-2.06,1.686,1.686,0,0,0-1.459-.731,1.658,1.658,0,0,0-1.441.726A3.955,3.955,0,0,0,173.077,14.338ZM175.529,5.5H178.3l-2.435,2.725H173.8Zm7.919,3.99.079,1.1a3.32,3.32,0,0,1,2.733-1.274,2.759,2.759,0,0,1,2.25.888,4.142,4.142,0,0,1,.756,2.654V19h-2.54V12.918a1.648,1.648,0,0,0-.352-1.173,1.574,1.574,0,0,0-1.169-.365,1.747,1.747,0,0,0-1.608.914V19h-2.54V9.49Z" transform="translate(1002.711 6252)" fill="#12263f"/>
      <path id="Path_886358" data-name="Path 886358" d="M39.6,16.882h6.451V19H36.3V17.453l6.328-9.114H36.309V6.2h9.6V7.715Zm7.365-2.725a5.64,5.64,0,0,1,.545-2.522,3.989,3.989,0,0,1,1.569-1.714,4.577,4.577,0,0,1,2.377-.606,4.33,4.33,0,0,1,3.142,1.178,4.727,4.727,0,0,1,1.358,3.2l.018.65a4.97,4.97,0,0,1-1.222,3.511,4.735,4.735,0,0,1-6.561,0,5.058,5.058,0,0,1-1.226-3.586Zm2.54.18a3.555,3.555,0,0,0,.51,2.073,1.831,1.831,0,0,0,2.9.009,3.89,3.89,0,0,0,.519-2.267,3.519,3.519,0,0,0-.519-2.06,1.686,1.686,0,0,0-1.459-.731,1.658,1.658,0,0,0-1.441.726A3.955,3.955,0,0,0,49.5,14.338ZM59.873,9.49l.079,1.1a3.32,3.32,0,0,1,2.733-1.274,2.759,2.759,0,0,1,2.25.888,4.142,4.142,0,0,1,.756,2.654V19h-2.54V12.918a1.648,1.648,0,0,0-.352-1.173,1.574,1.574,0,0,0-1.169-.365,1.747,1.747,0,0,0-1.608.914V19h-2.54V9.49ZM73.126,19a2.821,2.821,0,0,1-.255-.853,3.073,3.073,0,0,1-2.4,1.028,3.376,3.376,0,0,1-2.316-.809,2.6,2.6,0,0,1-.918-2.039,2.687,2.687,0,0,1,1.121-2.32A5.529,5.529,0,0,1,71.6,13.19h1.169v-.545a1.567,1.567,0,0,0-.338-1.055,1.331,1.331,0,0,0-1.068-.4,1.513,1.513,0,0,0-1.006.308,1.045,1.045,0,0,0-.365.844h-2.54a2.551,2.551,0,0,1,.51-1.529,3.37,3.37,0,0,1,1.441-1.1,5.253,5.253,0,0,1,2.092-.4,4.15,4.15,0,0,1,2.791.883,3.09,3.09,0,0,1,1.033,2.483V16.8a4.546,4.546,0,0,0,.378,2.048V19Zm-2.1-1.767a2.188,2.188,0,0,0,1.037-.25,1.645,1.645,0,0,0,.7-.672V14.676h-.949q-1.907,0-2.03,1.318l-.009.149a1.017,1.017,0,0,0,.334.782A1.3,1.3,0,0,0,71.026,17.233Zm10.327-3.059a5.731,5.731,0,0,1,1-3.542A3.237,3.237,0,0,1,85.08,9.314a2.913,2.913,0,0,1,2.294,1.037V5.5h2.549V19H87.628l-.123-1.011a2.989,2.989,0,0,1-2.443,1.187,3.228,3.228,0,0,1-2.694-1.323A5.916,5.916,0,0,1,81.353,14.175Zm2.54.189a3.754,3.754,0,0,0,.466,2.051,1.517,1.517,0,0,0,1.354.713,1.7,1.7,0,0,0,1.661-.995V12.375a1.675,1.675,0,0,0-1.644-.995Q83.893,11.38,83.893,14.364Zm12.375,4.812a4.668,4.668,0,0,1-3.406-1.283,4.561,4.561,0,0,1-1.314-3.419v-.246a5.745,5.745,0,0,1,.554-2.562,4.064,4.064,0,0,1,1.569-1.74,4.4,4.4,0,0,1,2.316-.611,3.947,3.947,0,0,1,3.072,1.23,5,5,0,0,1,1.121,3.489v1.037H94.124a2.36,2.36,0,0,0,.743,1.494,2.245,2.245,0,0,0,1.569.563,2.742,2.742,0,0,0,2.294-1.063l1.248,1.4a3.813,3.813,0,0,1-1.547,1.261A5.075,5.075,0,0,1,96.268,19.176Zm-.29-7.813a1.587,1.587,0,0,0-1.226.512,2.651,2.651,0,0,0-.6,1.466h3.533v-.2a1.891,1.891,0,0,0-.457-1.311A1.638,1.638,0,0,0,95.978,11.362Zm9.729,2.813a5.731,5.731,0,0,1,1-3.542,3.237,3.237,0,0,1,2.729-1.318,2.913,2.913,0,0,1,2.294,1.037V5.5h2.549V19h-2.294l-.123-1.011a2.989,2.989,0,0,1-2.443,1.187,3.228,3.228,0,0,1-2.694-1.323A5.916,5.916,0,0,1,105.708,14.175Zm2.54.189a3.754,3.754,0,0,0,.466,2.051,1.517,1.517,0,0,0,1.354.713,1.7,1.7,0,0,0,1.661-.995V12.375a1.675,1.675,0,0,0-1.644-.995Q108.248,11.38,108.248,14.364ZM118.926,19h-2.549V9.49h2.549Zm-2.7-11.971a1.251,1.251,0,0,1,.382-.94,1.648,1.648,0,0,1,2.079,0,1.244,1.244,0,0,1,.387.94,1.247,1.247,0,0,1-.391.949,1.629,1.629,0,0,1-2.065,0A1.247,1.247,0,0,1,116.228,7.029Zm9.94,9.343a.818.818,0,0,0-.461-.734,5.241,5.241,0,0,0-1.481-.479q-3.393-.712-3.393-2.883a2.613,2.613,0,0,1,1.05-2.114,4.237,4.237,0,0,1,2.747-.848,4.56,4.56,0,0,1,2.9.853,2.687,2.687,0,0,1,1.085,2.215h-2.54a1.229,1.229,0,0,0-.352-.9,1.488,1.488,0,0,0-1.1-.356,1.52,1.52,0,0,0-.993.29.916.916,0,0,0-.352.738.783.783,0,0,0,.4.681,4.114,4.114,0,0,0,1.349.448,11.019,11.019,0,0,1,1.6.426,2.628,2.628,0,0,1,2.013,2.558,2.481,2.481,0,0,1-1.116,2.1,4.815,4.815,0,0,1-2.883.8,5.029,5.029,0,0,1-2.123-.426,3.561,3.561,0,0,1-1.455-1.169,2.716,2.716,0,0,1-.527-1.6h2.408a1.326,1.326,0,0,0,.5,1.037,1.987,1.987,0,0,0,1.248.36,1.839,1.839,0,0,0,1.1-.277A.861.861,0,0,0,126.168,16.372Zm7.146-9.22V9.49h1.626v1.863h-1.626V16.1a1.133,1.133,0,0,0,.2.756,1.015,1.015,0,0,0,.773.229,4.051,4.051,0,0,0,.747-.062v1.925a5.229,5.229,0,0,1-1.538.229,2.425,2.425,0,0,1-2.725-2.7V11.354h-1.389V9.49h1.389V7.152Zm8.385,4.72a6.9,6.9,0,0,0-.914-.07,1.86,1.86,0,0,0-1.89.976V19h-2.54V9.49h2.4l.07,1.134a2.354,2.354,0,0,1,2.118-1.31,2.662,2.662,0,0,1,.791.114ZM145.6,19h-2.549V9.49H145.6ZM142.9,7.029a1.251,1.251,0,0,1,.382-.94,1.648,1.648,0,0,1,2.079,0,1.244,1.244,0,0,1,.387.94,1.247,1.247,0,0,1-.391.949,1.629,1.629,0,0,1-2.065,0A1.247,1.247,0,0,1,142.9,7.029Zm13.359,7.3a5.758,5.758,0,0,1-.976,3.564,3.231,3.231,0,0,1-2.725,1.279,2.969,2.969,0,0,1-2.47-1.187L149.978,19h-2.285V5.5h2.54v4.843a2.893,2.893,0,0,1,2.312-1.028,3.258,3.258,0,0,1,2.729,1.279,5.767,5.767,0,0,1,.989,3.6Zm-2.54-.185a3.783,3.783,0,0,0-.457-2.1,1.545,1.545,0,0,0-1.362-.664,1.676,1.676,0,0,0-1.67.993v3.753a1.7,1.7,0,0,0,1.688,1,1.568,1.568,0,0,0,1.617-1.213A6.257,6.257,0,0,0,153.722,14.148Zm9.8,3.885a3.185,3.185,0,0,1-2.6,1.143,3,3,0,0,1-2.333-.879,3.752,3.752,0,0,1-.822-2.575V9.49h2.54v6.151q0,1.487,1.354,1.487a1.834,1.834,0,0,0,1.775-.9V9.49h2.549V19h-2.391Zm8.332-.905A1.666,1.666,0,0,0,173,16.741a1.355,1.355,0,0,0,.457-1.028h2.382a3.258,3.258,0,0,1-.527,1.771,3.48,3.48,0,0,1-1.419,1.248,4.442,4.442,0,0,1-1.991.444,4.129,4.129,0,0,1-3.217-1.3A5.13,5.13,0,0,1,167.5,14.3v-.167a5.071,5.071,0,0,1,1.169-3.507,4.08,4.08,0,0,1,3.208-1.31,4,4,0,0,1,2.861,1.015,3.594,3.594,0,0,1,1.094,2.7h-2.382A1.745,1.745,0,0,0,173,11.826a1.7,1.7,0,0,0-2.5.183,3.749,3.749,0,0,0-.453,2.1v.264a3.8,3.8,0,0,0,.448,2.113A1.549,1.549,0,0,0,171.854,17.128ZM179.966,19h-2.549V9.49h2.549Zm-2.7-11.971a1.251,1.251,0,0,1,.382-.94,1.648,1.648,0,0,1,2.079,0,1.244,1.244,0,0,1,.387.94,1.247,1.247,0,0,1-.391.949,1.629,1.629,0,0,1-2.065,0A1.247,1.247,0,0,1,177.268,7.029Zm4.395,7.128a5.64,5.64,0,0,1,.545-2.522,3.989,3.989,0,0,1,1.569-1.714,4.577,4.577,0,0,1,2.377-.606,4.33,4.33,0,0,1,3.142,1.178,4.727,4.727,0,0,1,1.358,3.2l.018.65a4.97,4.97,0,0,1-1.222,3.511,4.735,4.735,0,0,1-6.561,0,5.058,5.058,0,0,1-1.226-3.586Zm2.54.18a3.555,3.555,0,0,0,.51,2.073,1.831,1.831,0,0,0,2.9.009,3.89,3.89,0,0,0,.519-2.267,3.519,3.519,0,0,0-.519-2.06,1.686,1.686,0,0,0-1.459-.731,1.658,1.658,0,0,0-1.441.726A3.955,3.955,0,0,0,184.2,14.338ZM186.655,5.5h2.769l-2.435,2.725h-2.065Zm7.919,3.99.079,1.1a3.32,3.32,0,0,1,2.733-1.274,2.759,2.759,0,0,1,2.25.888,4.142,4.142,0,0,1,.756,2.654V19h-2.54V12.918a1.648,1.648,0,0,0-.352-1.173,1.574,1.574,0,0,0-1.169-.365,1.747,1.747,0,0,0-1.608.914V19h-2.54V9.49Z" transform="translate(999.711 6573)" fill="#12263f"/>
      <g id="Group_1111392" data-name="Group 1111392" transform="translate(131 -29)">
        <path id="Polygon_14" data-name="Polygon 14" d="M13.5,0,27,25H0Z" transform="translate(1000.711 6575) rotate(180)" fill="#2bc897"/>
        <rect id="Rectangle_405914" data-name="Rectangle 405914" width="6" height="16" transform="translate(983.711 6538)" fill="#2bc897"/>
      </g>
      <g id="Group_1111393" data-name="Group 1111393" transform="translate(131 -136)">
        <path id="Polygon_14-2" data-name="Polygon 14" d="M13.5,0,27,25H0Z" transform="translate(1000.711 6575) rotate(180)" fill="#2bc897"/>
        <rect id="Rectangle_405914-2" data-name="Rectangle 405914" width="6" height="16" transform="translate(983.711 6538)" fill="#2bc897"/>
      </g>
      <g id="Group_1111607" data-name="Group 1111607" transform="translate(131 -342)">
        <path id="Polygon_14-3" data-name="Polygon 14" d="M13.5,0,27,25H0Z" transform="translate(1000.711 6575) rotate(180)" fill="#2bc897"/>
        <rect id="Rectangle_405914-3" data-name="Rectangle 405914" width="6" height="16" transform="translate(983.711 6538)" fill="#2bc897"/>
      </g>
      <g id="Group_1111609" data-name="Group 1111609" transform="translate(131 -241)">
        <path id="Polygon_14-4" data-name="Polygon 14" d="M13.5,0,27,25H0Z" transform="translate(1000.711 6575) rotate(180)" fill="#2bc897"/>
        <rect id="Rectangle_405914-4" data-name="Rectangle 405914" width="6" height="16" transform="translate(983.711 6538)" fill="#2bc897"/>
      </g>
    </g>
  </g>
</svg>
