<svg xmlns="http://www.w3.org/2000/svg" xmlns:xlink="http://www.w3.org/1999/xlink" width="178" height="178" viewBox="0 0 178 178">
  <defs>
    <clipPath id="clip-path">
      <rect id="Rectangle_406112" data-name="Rectangle 406112" width="89" height="97.85" fill="none"/>
    </clipPath>
    <clipPath id="clip-path-3">
      <rect id="Rectangle_406089" data-name="Rectangle 406089" width="17.334" height="3.599" fill="none"/>
    </clipPath>
    <clipPath id="clip-path-4">
      <rect id="Rectangle_406090" data-name="Rectangle 406090" width="14.508" height="5.301" fill="none"/>
    </clipPath>
    <clipPath id="clip-path-5">
      <rect id="Rectangle_406091" data-name="Rectangle 406091" width="6.96" height="2.851" fill="none"/>
    </clipPath>
    <clipPath id="clip-path-6">
      <rect id="Rectangle_406092" data-name="Rectangle 406092" width="16.447" height="10.507" fill="none"/>
    </clipPath>
  </defs>
  <g id="Group_1111621" data-name="Group 1111621" transform="translate(-1267.074 4404.373)">
    <g id="Group_1109461" data-name="Group 1109461" transform="translate(1267.074 -4404.373)">
      <path id="Path_882862" data-name="Path 882862" d="M89,0A89,89,0,1,1,0,89,89,89,0,0,1,89,0Z" transform="translate(0 -0.001)" fill="#005865"/>
      <path id="Path_882863" data-name="Path 882863" d="M78.668,0A78.668,78.668,0,1,1,0,78.668,78.668,78.668,0,0,1,78.668,0Z" transform="translate(10.332 10.331)" fill="#f3f9ff"/>
    </g>
    <g id="Group_1109463" data-name="Group 1109463" transform="translate(1306.074 -4365.373)">
      <rect id="Rectangle_401104" data-name="Rectangle 401104" width="99.117" height="100.574" fill="none"/>
      <g id="Group_1111464" data-name="Group 1111464" transform="translate(5.058 1.363)">
        <g id="Group_1111463" data-name="Group 1111463" clip-path="url(#clip-path)">
          <g id="Group_1111462" data-name="Group 1111462" transform="translate(0 0)">
            <g id="Group_1111461" data-name="Group 1111461" clip-path="url(#clip-path)">
              <path id="Path_885959" data-name="Path 885959" d="M17.236,55.368a4.426,4.426,0,0,1-3.757-6.758L18.444,40.6l-3.818-7.856a4.425,4.425,0,1,1,7.959-3.869l4.886,10.049a4.423,4.423,0,0,1-.218,4.267L21,53.275a4.422,4.422,0,0,1-3.765,2.093" transform="translate(-1.517 -3.123)" fill="#ccc"/>
              <path id="Path_885960" data-name="Path 885960" d="M8.473,101.786v4.548H24.7v-2.021l-6.863-2.528Z" transform="translate(-1.003 -12.049)" fill="#ccc"/>
              <path id="Path_885961" data-name="Path 885961" d="M17.823,97H7.961V61.351h13.47Z" transform="translate(-0.942 -7.262)" fill="#3c7b9b"/>
              <path id="Rectangle_406087" data-name="Rectangle 406087" d="M2.509,0H13.931a2.51,2.51,0,0,1,2.51,2.51V30.957a2.51,2.51,0,0,1-2.51,2.51H2.509A2.509,2.509,0,0,1,0,30.958V2.509A2.509,2.509,0,0,1,2.509,0Z" transform="translate(5.534 22.341)" fill="#4fa0ca"/>
              <path id="Path_885962" data-name="Path 885962" d="M51.416,20.1a1.325,1.325,0,0,1,.068.257c.014.014.012.035.018.052a.144.144,0,0,1,.011.063,2.948,2.948,0,0,1,0,1.281.4.4,0,0,1-.017.092,3.03,3.03,0,0,1-.208.609.684.684,0,0,1-.175.079l-13.567,4.6a1.715,1.715,0,0,1-1.1-3.248l8.844-3a3.148,3.148,0,0,1,5.683-1.638,3.312,3.312,0,0,1,.443.852" transform="translate(-4.177 -2.125)" fill="#4d4d4d"/>
              <path id="Path_885963" data-name="Path 885963" d="M53.231,20.808a2.962,2.962,0,0,1,0,1.281l-3.419,1.158.352-1.4Z" transform="translate(-5.897 -2.463)" fill="#cbb68d"/>
              <rect id="Rectangle_406088" data-name="Rectangle 406088" width="2.582" height="5.207" transform="translate(34.165 24.735) rotate(-18.738)" fill="#636363"/>
              <path id="Path_885964" data-name="Path 885964" d="M44.936,32.41a3.953,3.953,0,1,0-3.951,3.952,3.952,3.952,0,0,0,3.951-3.952" transform="translate(-4.383 -3.369)" fill="#fee1a5"/>
              <path id="Path_885965" data-name="Path 885965" d="M18.2,0H11.44A5.162,5.162,0,0,0,6.277,5.163V24.585h12.2V21.744A5.158,5.158,0,0,0,23.364,16.6V5.163A5.163,5.163,0,0,0,18.2,0" transform="translate(-0.743 0)" fill="#fee1a5"/>
              <path id="Path_885966" data-name="Path 885966" d="M16.014,8.505H6v6.918h4.549V12.377a2.942,2.942,0,0,1,5.467-1.511h1.507l1.015-2.361Z" transform="translate(-0.71 -1.007)" fill="#916f5d"/>
              <path id="Path_885967" data-name="Path 885967" d="M27.241,7.81v.672H16.155a1.384,1.384,0,0,1-1.379,1.387h-6A1.384,1.384,0,0,1,7.4,8.482H5.512V5.576A5.575,5.575,0,0,1,11.081,0h7.295A5.576,5.576,0,0,1,23.95,5.576v1.68Z" transform="translate(-0.652 0)" fill="#ffc400"/>
              <g id="Group_1111451" data-name="Group 1111451" transform="translate(5.288 8.485)" style="mix-blend-mode: multiply;isolation: isolate">
                <g id="Group_1111450" data-name="Group 1111450">
                  <g id="Group_1111449" data-name="Group 1111449" clip-path="url(#clip-path-3)">
                    <path id="Path_885968" data-name="Path 885968" d="M23.332,9.624v1.245l-5.671.967a3.587,3.587,0,0,1-2.826,1.388h-6A4.145,4.145,0,0,1,6,12.1V9.624H7.459a1.384,1.384,0,0,0,1.38,1.387h6a1.383,1.383,0,0,0,1.38-1.387Z" transform="translate(-5.998 -9.624)" fill="#dfc89b"/>
                  </g>
                </g>
              </g>
              <g id="Group_1111454" data-name="Group 1111454" transform="translate(4.86 3.521)" opacity="0.4" style="mix-blend-mode: multiply;isolation: isolate">
                <g id="Group_1111453" data-name="Group 1111453">
                  <g id="Group_1111452" data-name="Group 1111452" clip-path="url(#clip-path-4)">
                    <path id="Path_885969" data-name="Path 885969" d="M17.806,3.994H6.367a2.023,2.023,0,0,0-.479.052,5.4,5.4,0,0,0-.376,2V8.95h1.88V8.891a1.454,1.454,0,0,1,.64-1.207A1.088,1.088,0,0,0,8.994,9.3h5.463A1.1,1.1,0,0,0,15.551,8.2a1.078,1.078,0,0,0-.183-.6,1.443,1.443,0,0,1,.8,1.3V8.95h2.494v-.7l1.357-.4V6.207a2.211,2.211,0,0,0-2.215-2.213" transform="translate(-5.513 -3.994)" fill="#dfc89b"/>
                  </g>
                </g>
              </g>
              <path id="Path_885970" data-name="Path 885970" d="M16.44,27.635V56.6a2.21,2.21,0,0,1-2.213,2.212H2.212A2.214,2.214,0,0,1,0,56.6V27.55a2.218,2.218,0,0,1,2.212-2.212H5.53Z" transform="translate(0 -2.999)" fill="#4fa0ca"/>
              <path id="Path_885971" data-name="Path 885971" d="M37.678,36.664,21.672,41.591a4.372,4.372,0,0,1-1.3.2,4.421,4.421,0,0,1-1.712-.346L4.973,35.69a4.427,4.427,0,0,1,3.439-8.158L20.6,32.659l14.236-4.381Z" transform="translate(-0.268 -3.218)" fill="#f0f0f0"/>
              <g id="Group_1111457" data-name="Group 1111457" transform="translate(10.773 21.744)" opacity="0.61" style="mix-blend-mode: multiply;isolation: isolate">
                <g id="Group_1111456" data-name="Group 1111456">
                  <g id="Group_1111455" data-name="Group 1111455" clip-path="url(#clip-path-5)">
                    <path id="Path_885972" data-name="Path 885972" d="M19.18,24.663h-6.96l3.175,2.367,2.3.484,1.485-.01Z" transform="translate(-12.22 -24.663)" fill="#dfc89b"/>
                  </g>
                </g>
              </g>
              <path id="Path_885973" data-name="Path 885973" d="M12.678,100.067H1.815V60.794h14.84Z" transform="translate(-0.215 -7.196)" fill="#4fa0ca"/>
              <path id="Path_885974" data-name="Path 885974" d="M2.513,105.341v4.979H20.274v-2.214l-7.513-2.766Z" transform="translate(-0.297 -12.47)" fill="#e5e5e5"/>
              <path id="Path_885975" data-name="Path 885975" d="M23.213,12.982a.92.92,0,1,1-.92-.92.92.92,0,0,1,.92.92" transform="translate(-2.53 -1.428)" fill="#69525c"/>
              <g id="Group_1111460" data-name="Group 1111460" transform="translate(5.527 32.819)" opacity="0.61" style="mix-blend-mode: multiply;isolation: isolate">
                <g id="Group_1111459" data-name="Group 1111459">
                  <g id="Group_1111458" data-name="Group 1111458" clip-path="url(#clip-path-6)">
                    <path id="Path_885976" data-name="Path 885976" d="M22.717,42.6v4.9c-2.294.937-4.793-1.35-4.793-1.35l-.745-.545L6.27,37.6v-.376l10.908,4.588,1.948.819a4.4,4.4,0,0,0,3.017.147Z" transform="translate(-6.27 -37.226)" fill="#acb2b9"/>
                  </g>
                </g>
              </g>
              <rect id="Rectangle_406093" data-name="Rectangle 406093" width="37.246" height="37.247" transform="translate(43.918 57.684)" fill="#fed9aa"/>
              <rect id="Rectangle_406094" data-name="Rectangle 406094" width="27.843" height="27.843" transform="translate(48.619 29.841)" fill="#e7c69a"/>
              <rect id="Rectangle_406095" data-name="Rectangle 406095" width="20.283" height="20.284" transform="translate(52.953 9.558)" fill="#d2b48d"/>
              <rect id="Rectangle_406096" data-name="Rectangle 406096" width="6.13" height="2.904" transform="translate(54.52 26.015)" fill="#e5e5e5"/>
              <rect id="Rectangle_406097" data-name="Rectangle 406097" width="6.228" height="2.951" transform="translate(50.233 53.196)" fill="#f2f2f2"/>
              <rect id="Rectangle_406098" data-name="Rectangle 406098" width="4.348" height="2.059" transform="translate(50.232 50.401)" fill="#f2f2f2"/>
              <rect id="Rectangle_406099" data-name="Rectangle 406099" width="8.893" height="4.212" transform="translate(46.178 88.812)" fill="#f2f2f2"/>
              <rect id="Rectangle_406100" data-name="Rectangle 406100" width="6.208" height="2.94" transform="translate(46.178 84.819)" fill="#f2f2f2"/>
              <rect id="Rectangle_406101" data-name="Rectangle 406101" width="2.721" height="3.69" transform="translate(50.232 31.484)" fill="#f2f2f2"/>
              <rect id="Rectangle_406102" data-name="Rectangle 406102" width="3.886" height="5.272" transform="translate(71.286 31.484)" fill="#f2f2f2"/>
              <rect id="Rectangle_406103" data-name="Rectangle 406103" width="3.884" height="5.272" transform="translate(75.173 59.696)" fill="#f2f2f2"/>
              <rect id="Rectangle_406104" data-name="Rectangle 406104" width="2.121" height="5.117" transform="translate(54.243 10.664)" fill="#e5e5e5"/>
              <rect id="Rectangle_406105" data-name="Rectangle 406105" width="5.12" height="8.332" transform="translate(60.811 9.558)" fill="#c9c6d4"/>
              <rect id="Rectangle_406106" data-name="Rectangle 406106" width="8.95" height="14.567" transform="translate(58.895 57.683)" fill="#c5ccd4"/>
              <rect id="Rectangle_406107" data-name="Rectangle 406107" width="6.631" height="10.79" transform="translate(59.226 29.841)" fill="#b0aeb9"/>
              <rect id="Rectangle_406108" data-name="Rectangle 406108" width="7.837" height="36.602" transform="translate(81.163 57.683)" fill="#e7c69a"/>
              <rect id="Rectangle_406109" data-name="Rectangle 406109" width="6.577" height="27.843" transform="translate(76.462 29.841)" fill="#d5b68f"/>
              <rect id="Rectangle_406110" data-name="Rectangle 406110" width="4.517" height="20.284" transform="translate(73.236 9.558)" fill="#c1a581"/>
            </g>
          </g>
        </g>
      </g>
    </g>
  </g>
</svg>
