<svg xmlns="http://www.w3.org/2000/svg" xmlns:xlink="http://www.w3.org/1999/xlink" width="70" height="70" viewBox="0 0 70 70">
  <defs>
    <clipPath id="clip-path">
      <rect id="Rectangle_405920" data-name="Rectangle 405920" width="44.5" height="44.489" transform="translate(0 0)" fill="#006543"/>
    </clipPath>
  </defs>
  <g id="Group_1111630" data-name="Group 1111630" transform="translate(-919.711 -7807)">
    <g id="Group_1109475" data-name="Group 1109475" transform="translate(650.711 6849)">
      <circle id="Ellipse_5614" data-name="Ellipse 5614" cx="35" cy="35" r="35" transform="translate(269 958)" fill="#fff"/>
    </g>
    <g id="Group_1111408" data-name="Group 1111408" transform="translate(932.711 7820)" clip-path="url(#clip-path)">
      <path id="Path_885901" data-name="Path 885901" d="M35.006,22.142a13.373,13.373,0,1,1-10.6,20.873,13.407,13.407,0,0,1,10.6-20.873M34.16,34.358l3.476-6.385a1.093,1.093,0,0,0-1.873-.988L31.132,35.05a1.228,1.228,0,0,0,.912,1.644h4.743l-3.476,6.385a1.093,1.093,0,0,0,1.873.989L39.816,36a1.228,1.228,0,0,0-.912-1.644Z" transform="translate(-13.234 -13.25)" fill="#006543"/>
      <path id="Path_885902" data-name="Path 885902" d="M82.932,81.335a2.5,2.5,0,0,1,1.7.279,17.372,17.372,0,0,1,2.314,2.357,2.232,2.232,0,0,1-2.861,3.153,14.589,14.589,0,0,1-2.547-2.416,2.258,2.258,0,0,1,1.4-3.374" transform="translate(-48.618 -48.664)" fill="#006543"/>
      <path id="Path_885903" data-name="Path 885903" d="M16.236,14.76a2.436,2.436,0,0,1,1.84.283,18.979,18.979,0,0,1,2.206,2.171,2.245,2.245,0,0,1-2.84,3.278,15.043,15.043,0,0,1-2.4-2.273,2.27,2.27,0,0,1,1.191-3.459" transform="translate(-8.777 -8.797)" fill="#006543"/>
      <path id="Path_885904" data-name="Path 885904" d="M84.389,14.764a2.249,2.249,0,0,1,2.779,2.779,10.815,10.815,0,0,1-2.454,2.8,2.242,2.242,0,0,1-2.989-3.28,10.117,10.117,0,0,1,2.664-2.3" transform="translate(-48.616 -8.8)" fill="#006543"/>
      <path id="Path_885905" data-name="Path 885905" d="M17.959,81.348a2.219,2.219,0,0,1,2.6,2.746c-.173.812-2.407,3.063-3.227,3.192a2.241,2.241,0,0,1-2.657-2.8,7.6,7.6,0,0,1,3.285-3.135" transform="translate(-8.746 -48.675)" fill="#006543"/>
      <path id="Path_885906" data-name="Path 885906" d="M52.016,0a2.262,2.262,0,0,1,2.242,1.912A16,16,0,0,1,54.186,5.2c-.541,2.072-4.035,1.944-4.313-.366a14.169,14.169,0,0,1,.116-3.394A2.292,2.292,0,0,1,52.016,0" transform="translate(-29.826 0)" fill="#006543"/>
      <path id="Path_885907" data-name="Path 885907" d="M52.016,94.222a2.262,2.262,0,0,1,2.242,1.912,16,16,0,0,1-.072,3.291c-.541,2.072-4.035,1.944-4.313-.366a14.169,14.169,0,0,1,.116-3.394,2.292,2.292,0,0,1,2.027-1.444" transform="translate(-29.826 -56.403)" fill="#006543"/>
      <path id="Path_885908" data-name="Path 885908" d="M1.622,49.99A17.5,17.5,0,0,1,4.8,49.953a2.235,2.235,0,0,1,.848,4.065,8.9,8.9,0,0,1-3.773.32,2.231,2.231,0,0,1-.255-4.348" transform="translate(0 -29.87)" fill="#006543"/>
      <path id="Path_885909" data-name="Path 885909" d="M95.869,49.99a17.461,17.461,0,0,1,3.181-.037,2.208,2.208,0,0,1,.935,4.007c-.749.5-2.929.49-3.86.378-2.382-.286-2.4-3.91-.255-4.348" transform="translate(-56.447 -29.87)" fill="#006543"/>
    </g>
  </g>
</svg>
